<svg width="1202" height="199" viewBox="0 0 1202 199" fill="none" xmlns="http://www.w3.org/2000/svg">
<path d="M0.910156 138.258C7.09505 138.258 11.1315 137.672 13.0195 136.5C14.9076 135.263 16.112 133.961 16.6328 132.594C17.1536 131.227 17.4141 129.566 17.4141 127.613L17.3164 23.9023C17.3164 19.6706 16.5677 17.0339 15.0703 15.9922C12.5312 14.1693 7.8112 13.2578 0.910156 13.2578V2.51562H55.793V13.2578C49.6081 13.2578 45.5716 13.8763 43.6836 15.1133C41.7956 16.2852 40.5911 17.5547 40.0703 18.9219C39.5495 20.2891 39.2891 21.9492 39.2891 23.9023L39.3867 127.613C39.3867 131.845 40.1354 134.482 41.6328 135.523C44.1719 137.346 48.8919 138.258 55.793 138.258V149H0.910156V138.258ZM132.062 62.6719C121.385 62.6719 112.727 65.9922 106.086 72.6328V128.004C106.086 132.04 106.737 134.579 108.039 135.621C110.318 137.379 114.615 138.258 120.93 138.258V149H71.3203V138.258C76.9193 138.258 80.4349 137.704 81.8672 136.598C83.2995 135.426 84.1784 134.189 84.5039 132.887C84.8294 131.585 84.9922 129.957 84.9922 128.004V74.7812C84.9922 70.0938 84.569 67.0339 83.7227 65.6016C82.9414 64.1693 80.7279 63.4531 77.082 63.4531H71.125V52.7109C77.2448 52.7109 82.0299 52.2552 85.4805 51.3438C88.9961 50.3672 91.4701 49.6836 92.9023 49.293C94.3997 48.8372 95.9948 48.6094 97.6875 48.6094C101.138 48.6094 103.384 49.6185 104.426 51.6367C105.533 53.5898 106.086 56.7474 106.086 61.1094C113.052 55.25 121.125 51.2786 130.305 49.1953C133.365 48.4792 136.359 48.1211 139.289 48.1211C160.383 48.1211 170.93 62.0859 170.93 90.0156V127.809C170.93 132.105 171.548 134.938 172.785 136.305C174.022 137.607 177.408 138.258 182.941 138.258V149H136.75V138.258C142.674 138.258 146.223 137.672 147.395 136.5C148.632 135.263 149.348 133.993 149.543 132.691C149.738 131.389 149.836 129.762 149.836 127.809V91.2852C149.836 82.2357 148.99 76.0182 147.297 72.6328C143.977 65.9922 138.898 62.6719 132.062 62.6719ZM237.434 150.953C216.926 150.953 206.672 139.56 206.672 116.773V67.9453C206.672 65.4062 206.346 63.7461 205.695 62.9648C205.109 62.1185 203.807 61.6953 201.789 61.6953H193.781V49.9766H197.395C202.342 49.9766 205.956 48.4141 208.234 45.2891C210.578 42.1641 211.848 37.0208 212.043 29.8594L212.141 21.168H227.766V49.9766H257.746V61.6953H227.766V116.48C227.766 128.59 230.565 135.816 236.164 138.16C237.727 138.811 239.289 139.137 240.852 139.137C247.688 139.137 252.147 133.505 254.23 122.242H265.559C264.908 135.589 259.341 144.443 248.859 148.805C245.474 150.237 241.665 150.953 237.434 150.953ZM370.441 103.98H302.668C302.668 115.178 305.305 123.837 310.578 129.957C315.917 136.077 322.492 139.137 330.305 139.137C340.786 139.137 348.306 134.807 352.863 126.148L367.414 126.051C365.917 133.017 361.62 138.909 354.523 143.727C347.492 148.544 337.987 150.953 326.008 150.953C314.029 150.953 303.677 147.242 294.953 139.82C284.536 130.901 279.328 118.336 279.328 102.125C279.328 85.9141 283.462 72.8607 291.73 62.9648C300.064 53.0039 311.978 48.0234 327.473 48.0234C347.85 48.0234 361.034 56.2266 367.023 72.6328C369.432 79.2083 370.637 85.4258 370.637 91.2852C370.637 97.1445 370.572 101.376 370.441 103.98ZM347.883 89.332C347.883 69.4102 341.112 59.4492 327.57 59.4492C319.953 59.4492 313.996 62.4115 309.699 68.3359C305.467 74.2604 303.156 82.4635 302.766 92.9453H347.785C347.85 91.7083 347.883 90.5039 347.883 89.332ZM460.188 55.6406C465.982 48.8047 473.501 45.3867 482.746 45.3867C485.871 45.3867 488.605 46.5586 490.949 48.9023C493.358 51.181 494.562 54.0456 494.562 57.4961C494.562 60.8815 493.521 63.5833 491.438 65.6016C489.419 67.5547 486.978 68.5312 484.113 68.5312C481.249 68.5312 478.807 67.7174 476.789 66.0898C474.836 64.4622 473.762 61.9557 473.566 58.5703C471.223 59.4818 469.074 60.849 467.121 62.6719C471.027 68.3359 472.98 74.7487 472.98 81.9102C472.98 89.0065 471.874 94.8008 469.66 99.293C467.512 103.72 464.549 107.529 460.773 110.719C457.062 113.844 452.733 116.253 447.785 117.945C442.837 119.638 438.378 120.484 434.406 120.484C430.5 120.484 427.538 120.387 425.52 120.191C420.832 121.233 417.674 123.219 416.047 126.148C415.591 126.865 415.363 127.678 415.363 128.59C415.363 130.543 417.121 131.943 420.637 132.789C424.152 133.635 430.012 134.417 438.215 135.133C446.483 135.784 453.286 136.598 458.625 137.574C464.029 138.486 468.684 139.951 472.59 141.969C480.858 146.331 484.992 153.753 484.992 164.234C484.992 174.716 479.882 183.082 469.66 189.332C459.439 195.647 446.939 198.805 432.16 198.805C408.983 198.805 394.497 192.913 388.703 181.129C386.945 177.548 386.066 173.609 386.066 169.312C386.066 158.245 392.805 149.26 406.281 142.359C401.659 139.625 399.348 135.393 399.348 129.664C399.348 123.935 402.961 119.443 410.188 116.188C404.068 113.844 399.25 109.677 395.734 103.688C392.219 97.6328 390.461 91.4805 390.461 85.2305C390.461 73.5117 394.66 64.3971 403.059 57.8867C411.522 51.3112 421.451 48.0234 432.844 48.0234C444.237 48.0234 453.352 50.5625 460.188 55.6406ZM432.16 109.254C440.754 109.254 446.711 104.697 450.031 95.582C451.203 92.457 451.789 88.5833 451.789 83.9609C451.789 75.3672 449.901 69.0195 446.125 64.918C442.349 60.8164 437.694 58.7656 432.16 58.7656C423.111 58.7656 416.893 63.3555 413.508 72.5352C412.336 75.8555 411.75 79.7943 411.75 84.3516C411.75 92.6849 413.768 98.9349 417.805 103.102C421.906 107.203 426.691 109.254 432.16 109.254ZM416.73 148.512C410.285 151.962 407.062 157.822 407.062 166.09C407.062 172.926 409.797 178.134 415.266 181.715C420.734 185.296 427.928 187.086 436.848 187.086C450.845 187.086 460.057 183.375 464.484 175.953C465.917 173.674 466.633 171.103 466.633 168.238C466.633 158.798 458.56 153.329 442.414 151.832C437.336 151.311 432.583 150.855 428.156 150.465C423.729 150.074 419.921 149.423 416.73 148.512ZM501.984 138.258C507.583 138.258 511.099 137.704 512.531 136.598C513.964 135.426 514.81 134.189 515.07 132.887C515.396 131.585 515.559 129.957 515.559 128.004V74.1953C515.559 69.5078 515.135 66.4479 514.289 65.0156C513.508 63.5833 511.327 62.8672 507.746 62.8672H501.789V52.125C507.974 52.125 512.759 51.6693 516.145 50.7578C519.595 49.7812 522.036 49.0977 523.469 48.707C524.966 48.2513 526.561 48.0234 528.254 48.0234C531.574 48.0234 533.788 49 534.895 50.9531C536.066 52.9062 536.652 56.0964 536.652 60.5234V62.4766C542.251 55.901 548.599 51.474 555.695 49.1953C558.234 48.4141 560.773 48.0234 563.312 48.0234C568.195 48.0234 571.971 49.4232 574.641 52.2227C577.375 55.0221 578.742 58.4727 578.742 62.5742C578.742 66.6758 577.44 70.0286 574.836 72.6328C572.232 75.237 569.074 76.5391 565.363 76.5391C561.717 76.5391 558.69 75.237 556.281 72.6328C553.938 70.0286 552.896 66.7734 553.156 62.8672C550.487 63.2578 547.622 64.4948 544.562 66.5781C541.568 68.5964 538.931 71.3633 536.652 74.8789V127.125C536.652 129.599 536.848 131.585 537.238 133.082C537.694 134.514 538.833 135.751 540.656 136.793C542.544 137.77 548.143 138.258 557.453 138.258V149H501.984V138.258ZM674.934 125.66C674.934 133.408 676.464 137.281 679.523 137.281C682.453 137.281 684.602 136.305 685.969 134.352C687.336 132.333 688.02 128.72 688.02 123.512H698.273C698.339 124.358 698.371 125.693 698.371 127.516C698.371 133.375 696.906 138.453 693.977 142.75C690.396 148.219 684.699 150.953 676.887 150.953C671.809 150.953 667.479 149.521 663.898 146.656C660.318 143.792 657.844 140.016 656.477 135.328C647.036 145.745 635.09 150.953 620.637 150.953C612.694 150.953 605.76 148.642 599.836 144.02C593.977 139.332 591.047 132.822 591.047 124.488C591.047 110.035 601.724 99.3581 623.078 92.457C636.62 88.1602 644.725 85.1979 647.395 83.5703C650.064 81.8776 651.789 80.1849 652.57 78.4922C653.417 76.7344 653.84 74.7812 653.84 72.6328C653.84 68.7917 651.952 65.6016 648.176 63.0625C644.4 60.4583 639.484 59.1562 633.43 59.1562C627.375 59.1562 622.036 60.7839 617.414 64.0391C620.669 66.4479 622.297 69.5404 622.297 73.3164C622.297 77.0924 621.027 80.1198 618.488 82.3984C616.014 84.6771 612.987 85.8164 609.406 85.8164C605.891 85.8164 602.961 84.7422 600.617 82.5938C598.339 80.4453 597.199 77.4505 597.199 73.6094C597.199 65.9922 601.04 59.8398 608.723 55.1523C616.405 50.3997 625.747 48.0234 636.75 48.0234C656.411 48.0234 668.423 54.4036 672.785 67.1641C674.217 71.3958 674.934 76.2786 674.934 81.8125V125.66ZM631.867 101.344C626.138 103.818 621.841 107.008 618.977 110.914C616.112 114.755 614.68 118.954 614.68 123.512C614.68 128.069 615.917 131.52 618.391 133.863C620.865 136.207 623.957 137.379 627.668 137.379C635.22 137.379 641.47 134.742 646.418 129.469C651.366 124.13 653.84 116.708 653.84 107.203V92.1641C649.673 94.3125 645.246 96.2656 640.559 98.0234C635.936 99.7812 633.039 100.888 631.867 101.344ZM702.668 138.062C709.048 138.062 713.182 137.444 715.07 136.207C716.958 134.97 718.163 133.668 718.684 132.301C719.27 130.868 719.562 129.176 719.562 127.223V24.293C719.562 20.0612 718.781 17.3919 717.219 16.2852C714.615 14.3971 709.764 13.4531 702.668 13.4531V2.51562H736.359L820.148 108.863V24.293C820.148 19.9961 819.4 17.3268 817.902 16.2852C815.298 14.3971 810.48 13.4531 803.449 13.4531V2.51562H852.668V13.4531C846.288 13.4531 842.154 14.0716 840.266 15.3086C838.378 16.5456 837.141 17.8802 836.555 19.3125C836.034 20.6797 835.773 22.3398 835.773 24.293V149H823.762L735.188 36.5977V127.223C735.188 131.454 735.969 134.124 737.531 135.23C740.135 137.118 745.018 138.062 752.18 138.062V149H702.668V138.062ZM937.629 132.984C929.491 144.964 918.618 150.953 905.012 150.953C895.181 150.953 887.531 147.926 882.062 141.871C876.594 135.816 873.859 126.767 873.859 114.723V74.1953C873.859 69.5078 873.436 66.4479 872.59 65.0156C871.809 63.5833 869.628 62.8672 866.047 62.8672H863.508V52.125C869.497 52.125 873.827 51.6693 876.496 50.7578C879.23 49.7812 881.184 49.0977 882.355 48.707C883.527 48.2513 884.96 48.0234 886.652 48.0234C889.973 48.0234 892.186 49.0651 893.293 51.1484C894.4 53.1667 894.953 56.4219 894.953 60.9141V115.406C894.953 122.568 895.702 127.451 897.199 130.055C900.064 135.068 904.979 137.574 911.945 137.574C916.633 137.574 921.255 135.719 925.812 132.008C930.37 128.297 933.592 123.967 935.48 119.02V74.1953C935.35 69.3776 934.895 66.2852 934.113 64.918C933.332 63.5508 931.151 62.8672 927.57 62.8672H922.004V52.125C928.189 52.125 932.941 51.6693 936.262 50.7578C939.647 49.7812 942.056 49.0977 943.488 48.707C944.921 48.2513 946.483 48.0234 948.176 48.0234C951.496 48.0234 953.71 49 954.816 50.9531C955.988 52.9062 956.574 56.0964 956.574 60.5234V123.023C956.574 129.339 956.867 133.245 957.453 134.742C958.495 137.607 961.099 139.039 965.266 139.039C967.479 139.039 969.367 138.681 970.93 137.965V147.438C967.805 149.781 963.54 150.953 958.137 150.953C946.809 150.953 939.973 144.964 937.629 132.984ZM1022.2 150.953C1001.69 150.953 991.438 139.56 991.438 116.773V67.9453C991.438 65.4062 991.112 63.7461 990.461 62.9648C989.875 62.1185 988.573 61.6953 986.555 61.6953H978.547V49.9766H982.16C987.108 49.9766 990.721 48.4141 993 45.2891C995.344 42.1641 996.613 37.0208 996.809 29.8594L996.906 21.168H1012.53V49.9766H1042.51V61.6953H1012.53V116.48C1012.53 128.59 1015.33 135.816 1020.93 138.16C1022.49 138.811 1024.05 139.137 1025.62 139.137C1032.45 139.137 1036.91 133.505 1039 122.242H1050.32C1049.67 135.589 1044.11 144.443 1033.62 148.805C1030.24 150.237 1026.43 150.953 1022.2 150.953ZM1063.31 138.258C1068.91 138.258 1072.43 137.704 1073.86 136.598C1075.29 135.426 1076.14 134.189 1076.4 132.887C1076.72 131.585 1076.89 129.957 1076.89 128.004V74.1953C1076.89 69.5078 1076.46 66.4479 1075.62 65.0156C1074.84 63.5833 1072.65 62.8672 1069.07 62.8672H1063.12V52.125C1069.3 52.125 1074.09 51.6693 1077.47 50.7578C1080.92 49.7812 1083.36 49.0977 1084.8 48.707C1086.29 48.2513 1087.89 48.0234 1089.58 48.0234C1092.9 48.0234 1095.12 49 1096.22 50.9531C1097.39 52.9062 1097.98 56.0964 1097.98 60.5234V62.4766C1103.58 55.901 1109.93 51.474 1117.02 49.1953C1119.56 48.4141 1122.1 48.0234 1124.64 48.0234C1129.52 48.0234 1133.3 49.4232 1135.97 52.2227C1138.7 55.0221 1140.07 58.4727 1140.07 62.5742C1140.07 66.6758 1138.77 70.0286 1136.16 72.6328C1133.56 75.237 1130.4 76.5391 1126.69 76.5391C1123.05 76.5391 1120.02 75.237 1117.61 72.6328C1115.27 70.0286 1114.22 66.7734 1114.48 62.8672C1111.82 63.2578 1108.95 64.4948 1105.89 66.5781C1102.9 68.5964 1100.26 71.3633 1097.98 74.8789V127.125C1097.98 129.599 1098.18 131.585 1098.57 133.082C1099.02 134.514 1100.16 135.751 1101.98 136.793C1103.87 137.77 1109.47 138.258 1118.78 138.258V149H1063.31V138.258ZM1175.91 29.957C1171.68 29.957 1168.07 28.5573 1165.07 25.7578C1162.14 22.8932 1160.68 19.4102 1160.68 15.3086C1160.68 11.1419 1162.17 7.6263 1165.17 4.76172C1168.16 1.83203 1171.74 0.367188 1175.91 0.367188C1180.08 0.367188 1183.66 1.83203 1186.65 4.76172C1189.65 7.6263 1191.14 11.1419 1191.14 15.3086C1191.14 19.4102 1189.65 22.8932 1186.65 25.7578C1183.72 28.5573 1180.14 29.957 1175.91 29.957ZM1151.01 138.258C1157.06 138.258 1160.84 137.704 1162.34 136.598C1163.9 135.426 1164.84 134.189 1165.17 132.887C1165.49 131.585 1165.66 129.957 1165.66 128.004V74.1953C1165.66 69.5078 1165.23 66.4479 1164.39 65.0156C1163.61 63.5833 1161.42 62.8672 1157.84 62.8672H1150.81V52.125C1157.19 52.125 1162.21 51.6693 1165.85 50.7578C1169.5 49.7812 1172.07 49.0977 1173.57 48.707C1175.06 48.2513 1176.69 48.0234 1178.45 48.0234C1181.83 48.0234 1184.05 49.0326 1185.09 51.0508C1186.2 53.0039 1186.75 56.1615 1186.75 60.5234V128.004C1186.75 132.105 1187.4 134.677 1188.7 135.719C1190.92 137.411 1195.12 138.258 1201.3 138.258V149H1151.01V138.258Z" fill="#FFFFFF"/>
</svg>
