<svg xmlns="http://www.w3.org/2000/svg" width="208" height="40" fill="none" viewBox="0 0 208 40">
  <path fill="#E32C2C" stroke="#E32C2C" stroke-width="2" d="m7.418 23.18 11.897 11.177c.325.305.487.457.685.457.198 0 .36-.152.685-.457L32.582 23.18a8.672 8.672 0 0 0 .914-11.637l-.515-.664c-3.28-4.228-9.865-3.519-12.17 1.31a.899.899 0 0 1-1.622 0c-2.305-4.829-8.89-5.538-12.17-1.31l-.515.664a8.672 8.672 0 0 0 .914 11.637Z"/>
  <path stroke="#FFBCB1" stroke-linecap="round" stroke-width="2" d="M6 22c3.5-2 4.5-7 6.5-7 3 0 2.5 7 7 7 2.5 0 6-4.5 8.5-4.5s4.5 3 7 2"/>
  <path fill="#000" d="M42.449 29h-1.847l7.756-14.546h1.818L53.102 29h-1.846l-2.301-12.244h-.114L42.449 29Zm1.62-5.682h7.442l-.255 1.563h-7.444l.256-1.563Zm10.39 9.773 2.514-15h1.62l-.285 1.733h.2c.15-.19.359-.431.624-.725.27-.298.632-.563 1.087-.795.459-.237 1.044-.355 1.754-.355.919 0 1.688.23 2.308.689.62.46 1.058 1.11 1.314 1.953s.289 1.837.1 2.983c-.19 1.155-.552 2.157-1.087 3.004-.535.843-1.189 1.496-1.96 1.96a4.842 4.842 0 0 1-2.522.69c-.7 0-1.242-.117-1.626-.349-.383-.237-.663-.504-.838-.802-.175-.303-.31-.554-.405-.753h-.142l-.966 5.767h-1.69Zm3.253-9.546c-.133.824-.133 1.551 0 2.18.137.626.41 1.116.816 1.471.412.35.955.526 1.627.526.7 0 1.314-.185 1.84-.554.53-.374.965-.876 1.306-1.506a6.77 6.77 0 0 0 .718-2.116c.123-.768.118-1.459-.015-2.074-.132-.62-.402-1.11-.81-1.47-.407-.365-.965-.547-1.675-.547-.682 0-1.286.172-1.812.518-.52.34-.951.82-1.292 1.435-.336.61-.57 1.323-.703 2.137Zm8.954 9.546 2.514-15h1.62l-.285 1.733h.2c.15-.19.359-.431.624-.725.27-.298.632-.563 1.087-.795.46-.237 1.044-.355 1.754-.355.919 0 1.688.23 2.308.689.62.46 1.058 1.11 1.314 1.953s.289 1.837.1 2.983c-.19 1.155-.552 2.157-1.087 3.004-.535.843-1.189 1.496-1.96 1.96a4.843 4.843 0 0 1-2.522.69c-.7 0-1.242-.117-1.626-.349-.383-.237-.663-.504-.838-.802-.175-.303-.31-.554-.405-.753h-.142l-.966 5.767h-1.69Zm3.253-9.546c-.133.824-.133 1.551 0 2.18.137.626.41 1.116.816 1.471.412.35.954.526 1.627.526.7 0 1.314-.185 1.84-.554.53-.374.965-.876 1.306-1.506.346-.634.585-1.34.718-2.116.123-.768.118-1.459-.015-2.074-.132-.62-.402-1.11-.81-1.47-.407-.365-.965-.547-1.675-.547-.682 0-1.286.172-1.812.518-.52.34-.951.82-1.292 1.435-.336.61-.57 1.323-.703 2.137ZM87.083 29l-.256 1.563h-9.09L77.992 29h9.091Zm15.691-14.546L100.359 29h-1.704l-6.023-11.42h-.142L90.586 29h-1.761l2.415-14.546h1.704l6.051 11.45h.142l1.904-11.45h1.733Zm8.496 10.086 1.079-6.45h1.677L112.207 29h-1.676l.313-1.847h-.114c-.341.554-.817 1.026-1.427 1.414-.611.383-1.329.575-2.152.575-.682 0-1.265-.15-1.748-.447-.478-.303-.819-.758-1.022-1.364-.199-.61-.223-1.38-.071-2.308l1.164-6.932h1.677l-1.137 6.818c-.128.796-.007 1.43.362 1.904.37.473.902.71 1.598.71.417 0 .857-.107 1.321-.32.469-.213.886-.54 1.25-.98.37-.44.611-1.001.725-1.683Zm10.57-6.45-.227 1.421h-5.654l.227-1.42h5.654Zm-3.58-2.613h1.676l-1.733 10.398c-.075.474-.063.829.036 1.065.104.232.26.389.469.47.213.075.442.113.689.113.184 0 .336-.01.454-.029l.284-.056.114 1.505a4.363 4.363 0 0 1-.519.128 3.694 3.694 0 0 1-.788.071 3.01 3.01 0 0 1-1.335-.305 2.12 2.12 0 0 1-.959-.93c-.222-.417-.282-.943-.177-1.578l1.789-10.852ZM122.543 29l1.818-10.91h1.619l-.284 1.649h.114c.284-.54.717-.978 1.3-1.314a3.648 3.648 0 0 1 1.853-.505c.128 0 .282.003.462.008.18 0 .32.007.419.02l-.284 1.705a5.024 5.024 0 0 0-.384-.063 3.868 3.868 0 0 0-.639-.05c-.53 0-1.02.111-1.47.334-.45.217-.826.52-1.129.909a2.885 2.885 0 0 0-.583 1.314L124.219 29h-1.676Zm7.48 0 1.819-10.91h1.676L131.7 29h-1.677Zm3.168-12.756c-.327 0-.608-.111-.845-.333a1.072 1.072 0 0 1-.348-.803c0-.313.116-.58.348-.803.237-.222.518-.333.845-.333.327 0 .606.11.838.333.237.223.355.49.355.803 0 .313-.118.58-.355.803a1.167 1.167 0 0 1-.838.333Zm5.982 12.983c-1.028 0-1.87-.241-2.528-.724-.654-.483-1.108-1.148-1.364-1.996-.256-.847-.294-1.816-.114-2.905.18-1.108.545-2.085 1.094-2.933.549-.852 1.233-1.518 2.053-1.996a5.229 5.229 0 0 1 2.706-.724c.767 0 1.434.142 2.002.426a3.113 3.113 0 0 1 1.314 1.193c.308.511.452 1.108.434 1.79h-1.677c-.047-.497-.26-.938-.639-1.321-.374-.388-.928-.582-1.662-.582-.653 0-1.254.17-1.804.51-.549.337-1.011.813-1.385 1.428-.374.611-.627 1.329-.76 2.152-.142.843-.13 1.577.036 2.202s.466 1.11.902 1.456c.436.346.985.519 1.648.519a3.25 3.25 0 0 0 1.221-.228 3.088 3.088 0 0 0 1.705-1.676h1.676a4.816 4.816 0 0 1-1.002 1.74 5.085 5.085 0 0 1-1.669 1.222c-.653.298-1.382.447-2.187.447Zm6.768-.227 1.819-10.91h1.676L147.618 29h-1.677Zm3.168-12.756c-.327 0-.608-.111-.845-.333a1.072 1.072 0 0 1-.348-.803c0-.313.116-.58.348-.803.237-.222.518-.333.845-.333.327 0 .606.11.838.333.237.223.355.49.355.803 0 .313-.118.58-.355.803a1.167 1.167 0 0 1-.838.333Zm6.081 12.983c-1.003 0-1.844-.239-2.521-.717-.677-.478-1.155-1.148-1.435-2.01-.274-.862-.319-1.866-.135-3.011.18-1.118.538-2.09 1.073-2.92.54-.833 1.21-1.477 2.01-1.931a5.265 5.265 0 0 1 2.656-.69c1.004 0 1.842.242 2.514.725.677.479 1.156 1.15 1.435 2.017.279.862.327 1.87.142 3.026-.18 1.108-.542 2.076-1.087 2.905a5.895 5.895 0 0 1-2.01 1.925c-.795.454-1.676.681-2.642.681Zm.029-1.505c.767 0 1.432-.197 1.995-.59a4.419 4.419 0 0 0 1.378-1.555c.355-.644.595-1.34.718-2.088.113-.71.109-1.371-.015-1.982-.123-.615-.385-1.11-.788-1.484-.402-.38-.968-.569-1.697-.569-.767 0-1.437.2-2.01.597a4.477 4.477 0 0 0-1.378 1.57 6.494 6.494 0 0 0-.703 2.095c-.114.71-.112 1.37.007 1.981.123.607.386 1.097.788 1.47.407.37.976.555 1.705.555Zm10.158-5.285L164.297 29h-1.676l1.818-10.91h1.62l-.284 1.706h.142c.34-.555.802-1 1.384-1.336.583-.34 1.286-.511 2.11-.511.729 0 1.345.151 1.846.454.507.299.865.753 1.073 1.364.213.606.244 1.373.092 2.301L171.257 29h-1.676l1.137-6.818c.142-.852.03-1.52-.334-2.003-.36-.483-.931-.724-1.712-.724-.54 0-1.039.116-1.498.348-.455.232-.841.57-1.158 1.015-.313.445-.526.985-.639 1.62ZM174.32 29l1.818-10.91h1.677L175.996 29h-1.676Zm3.168-12.756a1.19 1.19 0 0 1-.845-.333 1.072 1.072 0 0 1-.348-.803c0-.313.116-.58.348-.803a1.19 1.19 0 0 1 .845-.333c.327 0 .606.11.838.333.237.223.355.49.355.803 0 .313-.118.58-.355.803a1.167 1.167 0 0 1-.838.333Zm10.726 4.29-1.591.426a2.476 2.476 0 0 0-.298-.738 1.518 1.518 0 0 0-.639-.59c-.284-.156-.673-.234-1.165-.234-.668 0-1.248.154-1.74.461-.493.303-.774.69-.845 1.158-.071.412.023.741.284.987.26.246.696.448 1.307.604l1.562.398c.938.241 1.605.603 2.003 1.086.402.479.54 1.101.412 1.868a3.286 3.286 0 0 1-.817 1.676c-.44.493-1.004.881-1.69 1.165-.687.284-1.451.426-2.294.426-1.122 0-2.008-.241-2.656-.724-.649-.488-.995-1.193-1.037-2.117l1.676-.397c.042.582.251 1.022.625 1.32.379.294.909.441 1.591.441.781 0 1.432-.166 1.953-.497.521-.336.817-.739.888-1.207.071-.384-.005-.704-.228-.96-.218-.255-.596-.447-1.136-.575l-1.733-.426c-.966-.241-1.643-.61-2.031-1.108-.384-.497-.512-1.122-.384-1.875.104-.615.369-1.16.796-1.633.431-.474.97-.845 1.619-1.115a5.527 5.527 0 0 1 2.131-.405c1.079 0 1.886.237 2.422.71.535.469.873 1.094 1.015 1.875Zm7.864-2.443-.227 1.42h-5.654l.228-1.42h5.653Zm-3.579-2.614h1.676l-1.733 10.398c-.076.474-.064.829.035 1.065a.844.844 0 0 0 .469.47c.213.075.443.113.689.113.185 0 .336-.01.454-.029l.285-.056.113 1.505a4.34 4.34 0 0 1-.518.128 3.704 3.704 0 0 1-.789.071 3.01 3.01 0 0 1-1.335-.305 2.125 2.125 0 0 1-.959-.93c-.222-.417-.281-.943-.177-1.578l1.79-10.852Zm7.464 13.779c-.691 0-1.297-.13-1.818-.39a2.554 2.554 0 0 1-1.158-1.144c-.251-.502-.319-1.108-.206-1.819.109-.625.32-1.131.632-1.52.313-.392.692-.7 1.137-.923a5.89 5.89 0 0 1 1.449-.504c.52-.114 1.039-.201 1.555-.263a120.75 120.75 0 0 1 1.641-.199c.421-.047.738-.125.951-.234.213-.109.344-.296.391-.561v-.057c.114-.696.021-1.238-.277-1.626-.298-.393-.831-.59-1.598-.59-.796 0-1.461.175-1.996.526-.535.35-.93.724-1.186 1.122l-1.477-.568c.388-.663.852-1.18 1.392-1.549a5.139 5.139 0 0 1 1.697-.78 6.901 6.901 0 0 1 1.712-.228c.35 0 .746.042 1.186.128.44.08.852.248 1.236.504.388.256.679.642.873 1.158.199.516.228 1.207.086 2.073L204.991 29h-1.676l.256-1.477h-.085c-.152.236-.384.49-.696.76-.308.27-.699.5-1.172.689-.469.189-1.02.284-1.655.284Zm.483-1.506c.663 0 1.243-.13 1.74-.39a3.423 3.423 0 0 0 1.207-1.01c.308-.411.5-.844.576-1.299l.255-1.534c-.085.085-.253.163-.504.234a9.204 9.204 0 0 1-.852.178c-.313.047-.618.09-.916.128-.294.033-.531.061-.711.085-.445.057-.868.15-1.271.277a2.61 2.61 0 0 0-1.008.561c-.27.246-.438.582-.505 1.009-.099.582.041 1.022.419 1.32.379.294.902.441 1.57.441Z"/>
</svg>
