<svg width="973" height="548" viewBox="0 0 973 548" fill="none" xmlns="http://www.w3.org/2000/svg">
<path d="M416.947 246.554L428.944 261.057L432.442 293.064L465.932 282.562L497.422 288.563C497.422 288.563 498.547 296.185 505.92 293.064C518.916 287.563 507.919 285.563 507.919 285.563L489.925 272.06L480.927 248.554L492.924 230.05L507.919 225.549L541.409 239.052C541.409 239.052 548.8 250.643 557.903 243.053C574.098 229.55 569.4 215.547 569.4 215.547H602.39L628.881 202.044L641.877 194.542L645.876 215.547V241.553L636.379 282.562L613.886 318.07L588.894 349.077L535.41 374.583L503.92 383.085H441.94L392.455 374.583L344.47 353.078L300.484 324.071L273.992 285.563L262.495 267.059L249.5 209.046L253.498 166.036L273.992 113.524L302.983 84.5178L328.475 49.0098L344.47 16.5026L356.466 10.0011L361.465 62.5128L352.967 91.5193L317.978 135.029L302.983 170.037V223.049L313.48 233.551L322.977 202.044L333.973 189.041H348.969L364.464 194.542L368.962 209.046L376.46 215.547L405.451 209.046V189.041L412.449 177.539L432.442 175.538L462.433 180.039H477.428V183.04H454.935L479.428 215.547L472.93 235.051L453.436 243.053L436.441 241.553L409.949 215.547L381.458 235.051L368.962 255.056C368.962 255.056 372.961 275.56 379.959 311.569C378.459 283.562 392.455 250.555 392.455 250.555L416.947 246.554Z" fill="#A1775E"/>
<path d="M453.436 184.04L473.93 179.539L488.425 194.542L530.412 214.547H577.397C577.397 214.547 572.899 237.552 563.901 248.554C556.049 258.157 530.412 234.051 530.412 234.051L501.921 225.549L487.425 234.051L480.927 254.556L495.923 277.061L534.411 292.064C534.411 292.064 523.914 305.401 514.917 309.068C513.003 309.848 491.924 286.063 491.924 286.063L457.435 283.062L430.443 294.565V267.559C429.777 243.22 401.496 241.858 393.955 252.055C375.46 277.061 381.445 320.819 379.459 318.57C360.465 297.065 365.963 273.56 369.962 252.055L384.458 232.551L409.45 214.547L422.946 229.05L450.437 245.554L465.432 237.052L478.428 225.549L473.93 209.046L453.436 184.04Z" fill="#F0DFC1"/>
<path d="M458.934 161.035L456.935 123.527L469.431 108.023L505.92 111.024L543.908 131.028L583.395 133.029L635.379 127.027L660.371 140.03V167.536L645.376 194.542L594.392 215.547L532.911 213.547L479.428 186.541L458.934 161.035Z" fill="#F0DFC1"/>
<path d="M495.423 62.0127C471.191 79.7066 455.936 131.028 457.935 129.528C461.933 126.527 463.433 114.524 492.924 115.525C514.498 116.256 523.825 127.721 527.913 131.028C551.314 149.958 560.804 147.551 594.002 139.129L594.392 139.03C612.387 134.465 630.881 131.028 644.377 147.532C649.084 153.288 652.729 162.729 657.373 168.537C659.372 171.037 662.025 147.579 661.371 134.029C660.247 110.709 650.676 95.0691 635.879 77.0161C617.782 54.9359 600.575 52.5259 572.454 48.5874L571.899 48.5097C540.773 44.1493 520.811 43.4747 495.423 62.0127Z" fill="#A1775E"/>
<path d="M630.881 205.045C617.685 213.447 574.826 218.035 580.396 215.547C692.361 165.536 632.38 66.5144 581.896 49.51C571.642 46.0561 620.884 62.0134 630.881 68.0147C643.377 75.5164 661.371 120.526 663.371 140.531C665.37 160.535 647.376 194.543 630.881 205.045Z" fill="black" fill-opacity="0.1"/>
<path d="M252.997 224.549C245.283 194.018 247 275.173 303.484 323.071C414.947 417.592 549.906 368.581 569.4 358.579C579.028 353.639 641.376 318.07 646.874 254.556C648.132 240.03 578.398 394.587 404.95 364.58C336.675 352.769 267.529 282.062 252.997 224.549Z" fill="black" fill-opacity="0.1"/>
<path d="M641.869 191.066C641.869 191.066 665.862 262.582 610.879 326.096C565.935 378.013 485.918 390.558 425.936 381.108C386.93 374.963 302.549 354.102 264.987 268.583C237.749 206.569 237.941 138.687 305.456 80.5411C344.943 46.5336 349.442 -4.47803 353.94 6.5245C357.995 16.4437 380.432 68.5383 332.447 118.049C304.954 150.557 300.456 173.562 300.456 191.066C300.456 259.081 360.937 273.084 360.937 273.084" stroke="#3F2D1A" stroke-width="10"/>
<path d="M359.958 294.589C355.959 286.587 361.457 265.582 374.953 246.078C387.89 227.381 411.441 216.071 411.441 216.071" stroke="#3F2D1A" stroke-width="8"/>
<path d="M419.439 379.608C419.439 379.608 399.118 375.047 387.449 352.101C372.954 323.595 378.952 263.082 391.948 253.079C402.933 244.625 415.858 243.058 425.437 253.079C436.433 264.582 428.436 292.088 429.436 294.089C430.217 295.651 432.241 295.863 433.435 294.589C440.932 286.587 459.926 278.338 480.92 283.086C515.409 290.887 517.908 323.095 516.409 326.596" stroke="#3F2D1A" stroke-width="7"/>
<path d="M313.972 241.577C313.972 241.577 313.472 197.147 337.465 189.565C344.463 187.354 356.012 185.909 364.456 194.066C378.952 208.069 359.958 251.579 359.958 251.579" stroke="#3F2D1A" stroke-width="7"/>
<path d="M370.454 214.57C370.454 214.57 380.451 210.57 390.448 210.57C404.944 210.57 409.442 212.07 409.442 212.07" stroke="#3F2D1A" stroke-width="7"/>
<path d="M356.465 207.045C358.964 197.043 352.966 187.541 353.966 189.041C355.352 191.122 359.964 192.042 359.964 198.543C359.964 205.045 355.421 211.226 356.465 207.045Z" fill="#3F2D1A" stroke="#3F2D1A"/>
<path d="M408.943 267.583C409.442 265.082 409.942 246.578 409.942 248.078C409.942 250.579 411.942 253.079 411.942 258.581C411.942 264.082 408.667 268.962 408.943 267.583Z" fill="#3F2D1A" stroke="#3F2D1A" stroke-width="2"/>
<path d="M416.94 265.582C417.439 263.082 417.44 247.078 417.44 248.578C417.44 251.079 419.44 252.579 419.44 258.08C419.44 263.582 416.664 266.961 416.94 265.582Z" fill="#3F2D1A" stroke="#3F2D1A" stroke-width="2"/>
<path d="M444.431 177.563C444.431 177.563 456.478 181.54 463.425 182.064C467.708 182.387 478.421 182.064 478.421 182.064" stroke="#3F2D1A" stroke-width="7"/>
<path d="M647.376 188.541C636.879 210.546 515.917 248.554 462.933 166.036C459.349 160.454 429.966 175.02 436.441 183.04C518.416 284.563 620.884 239.552 644.376 229.55C659.011 223.319 651.67 179.539 647.376 188.541Z" fill="#452372" stroke="#452372" stroke-width="5"/>
<path d="M723.852 284.062C721.144 277.561 696.86 299.066 636.379 225.049C626.882 220.715 581.734 222.631 591.893 242.553C629.381 316.069 675.367 329.573 685.863 329.573C691.376 329.573 726.559 290.564 723.852 284.062Z" fill="#452372"/>
<path d="M440.44 170.537C453.936 223.049 602.389 275.56 655.873 206.545C655.15 217.869 653.882 229.468 642.993 233.014C643.911 233.929 647.128 237.689 647.128 237.689C646.047 241.581 638.962 246.847 628.381 250.055C611.887 255.056 592.892 257.056 593.892 247.554C588.894 251.555 573.029 249.069 561.902 245.554C449.437 247.554 440.44 170.537 440.44 170.537Z" fill="black" fill-opacity="0.1"/>
<path d="M505.751 100.142C505.751 85.1387 527.744 85.1386 527.744 100.142C527.744 115.146 505.751 115.145 505.751 100.142Z" fill="#3F2D1A"/>
<path d="M600.222 114.145C600.222 100.142 622.215 98.6417 622.215 114.145C622.215 129.649 600.222 128.148 600.222 114.145Z" fill="#3F2D1A"/>
<path d="M540.24 130.149C539.538 137.881 553.236 140.651 553.236 140.651C553.236 140.651 553.925 146.954 550.237 151.654C547.399 155.271 546.059 156.461 543.4 157.558C540.934 158.575 536.402 158.828 534.403 158.559C532.403 158.289 528.405 157.058 525.405 153.154C522.406 149.25 522.406 147.556 522.406 145.556C522.406 143.555 522.496 140.151 521.746 141.651C521.246 142.652 521.807 146.173 522.746 149.153C523.873 152.731 526.251 154.487 528.405 157.558C529.213 158.711 529.744 159.655 529.744 160.656C529.744 162.918 529.474 165.804 531.243 169.158C533.636 173.691 536.166 176.349 540.74 178.66C545.22 180.923 549.221 181.334 554.236 181.16C560.287 180.95 564.592 180.079 568.732 175.659C571.418 172.791 571.935 168.847 574.23 165.657C574.96 164.642 575.935 164.122 576.729 163.156C578.374 161.156 582.727 158.655 584.227 155.655C585.226 153.654 584.727 150.153 584.727 151.154C584.727 152.154 583.532 154.941 581.728 157.155C579.923 159.369 577.229 160.889 575.89 161.559C574.89 162.059 572.391 162.963 566.893 162.559C561.386 162.155 556.921 158.414 555.236 153.154C553.609 148.078 556.235 140.651 556.235 140.651C556.235 140.651 571.129 143.652 572.23 134.65C572.934 128.896 563.473 124.953 557.735 124.148C551.865 123.323 540.74 124.648 540.24 130.149Z" fill="#3F2D1A"/>
<path d="M505.751 100.142C505.751 85.1387 527.744 85.1386 527.744 100.142C527.744 115.146 505.751 115.145 505.751 100.142Z" stroke="#3F2D1A" stroke-width="5"/>
<path d="M600.222 114.145C600.222 100.142 622.215 98.6417 622.215 114.145C622.215 129.649 600.222 128.148 600.222 114.145Z" stroke="#3F2D1A" stroke-width="5"/>
<path d="M540.24 130.149C539.538 137.881 553.236 140.651 553.236 140.651C553.236 140.651 553.925 146.954 550.237 151.654C547.399 155.271 546.059 156.461 543.4 157.558C540.934 158.575 536.402 158.828 534.403 158.559C532.403 158.289 528.405 157.058 525.405 153.154C522.406 149.25 522.406 147.556 522.406 145.556C522.406 143.555 522.496 140.151 521.746 141.651C521.246 142.652 521.807 146.173 522.746 149.153C523.873 152.731 526.251 154.487 528.405 157.558C529.213 158.711 529.744 159.655 529.744 160.656C529.744 162.918 529.474 165.804 531.243 169.158C533.636 173.691 536.166 176.349 540.74 178.66C545.22 180.923 549.221 181.334 554.236 181.16C560.287 180.95 564.592 180.079 568.732 175.659C571.418 172.791 571.935 168.847 574.23 165.657C574.96 164.642 575.935 164.122 576.729 163.156C578.374 161.156 582.727 158.655 584.227 155.655C585.226 153.654 584.727 150.153 584.727 151.154C584.727 152.154 583.532 154.941 581.728 157.155C579.923 159.369 577.229 160.889 575.89 161.559C574.89 162.059 572.391 162.963 566.893 162.559C561.386 162.155 556.921 158.414 555.236 153.154C553.609 148.078 556.235 140.651 556.235 140.651C556.235 140.651 571.129 143.652 572.23 134.65C572.934 128.896 563.473 124.953 557.735 124.148C551.865 123.323 540.74 124.648 540.24 130.149Z" stroke="#3F2D1A" stroke-width="5"/>
<path d="M608.219 212.167C569.464 223.505 498.293 213.827 468.265 172.658C455.356 154.959 454.221 131.449 461.473 109.644C464.6 100.241 469.286 91.1543 475.261 82.9883C484.401 70.4956 496.555 60.1569 510.75 54.1317C527.244 47.1303 585.65 36.1151 628.213 68.6349C637.38 75.6388 650.669 93.6509 657.204 112.145C660.874 122.533 660.81 126.86 661.203 138.15C662.208 167.041 649.183 200.183 608.219 212.167Z" stroke="#3F2D1A" stroke-width="10"/>
<path d="M488.257 134.15C480.179 130.605 464.664 122.647 467.263 123.647C469.863 124.647 480.885 128.205 488.757 131.649C496.915 135.219 513.418 143.194 511.249 142.651C509.25 142.151 496.754 137.878 488.257 134.15Z" fill="#3F2D1A" stroke="#3F2D1A"/>
<path d="M488.756 147.152C480.107 145.422 466.264 141.151 467.763 141.151C469.263 141.151 481.921 142.567 490.256 144.652C500.253 147.152 513.484 150.653 511.249 150.653C507.751 150.653 498.753 149.153 488.756 147.152Z" fill="#3F2D1A" stroke="#3F2D1A"/>
<path d="M492.755 159.155C483.946 158.714 467.763 156.655 469.263 156.655C470.762 156.655 484.175 156.726 492.755 157.155C502.752 157.655 515.484 159.655 513.249 159.655C509.75 159.655 502.752 159.655 492.755 159.155Z" fill="#3F2D1A" stroke="#3F2D1A"/>
<path d="M621.715 152.153C612.218 152.653 595.723 152.153 597.223 152.153C598.722 152.153 611.218 150.653 619.216 150.153C626.713 149.684 643.434 150.431 641.21 150.653C636.21 151.153 631.711 151.627 621.715 152.153Z" fill="#3F2D1A" stroke="#3F2D1A"/>
<path d="M612.218 175.659C603.109 172.925 586.223 166.657 590.723 167.657C595.223 168.657 606.115 171.123 613.717 173.658C621.217 176.159 634.889 181.163 632.712 180.66C626.214 179.16 622.217 178.66 612.218 175.659Z" fill="#3F2D1A" stroke="#3F2D1A"/>
<path d="M617.216 164.657C607.753 163.71 588.724 159.959 595.222 160.307C601.721 160.656 611.718 161.627 616.216 162.156C624.713 163.156 639.931 166.904 637.709 166.657C628.712 165.657 627.213 165.657 617.216 164.657Z" fill="#3F2D1A" stroke="#3F2D1A"/>
<path d="M449.769 83.1382C458.268 70.1802 475.76 82.1379 475.76 82.1379L461.265 109.144C461.265 109.144 439.272 99.1418 449.769 83.1382Z" fill="#3F2D1A" stroke="#3F2D1A" stroke-width="5"/>
<path d="M680.197 119.646C683.002 136.484 661.703 141.651 661.703 141.651L656.204 109.144C656.204 109.144 677.698 104.643 680.197 119.646Z" fill="#3F2D1A" stroke="#3F2D1A" stroke-width="5"/>
<path d="M539.909 170.367C549.406 178.869 563.404 172.987 561.902 172.368C553.405 168.867 538.667 169.256 539.909 170.367Z" stroke="#B50000" stroke-width="7"/>
<path d="M621.884 112.524C621.884 107.856 614.886 107.856 614.886 112.524C614.886 117.192 621.884 117.192 621.884 112.524Z" fill="white"/>
<path d="M526.913 98.5209C526.913 93.8532 519.915 93.8532 519.915 98.5209C519.915 103.189 526.913 103.189 526.913 98.5209Z" fill="white"/>
<path d="M544.901 238.035C563.396 252.538 570.4 251.555 592.393 250.055C592.393 250.055 603.395 274.578 615.885 286.063C627.307 296.565 558.897 302.049 525.907 291.547C492.918 281.044 472.924 253.038 488.919 234.034C504.914 215.03 533.964 229.457 544.901 238.035Z" fill="#A1775E"/>
<path d="M464.426 191.524C450.931 170.52 436.435 173.02 415.942 176.021C401.446 184.523 409.943 208.528 415.942 219.531C421.94 230.533 456.429 255.039 471.424 236.534C486.42 218.03 477.922 212.529 464.426 191.524Z" fill="#A1775E"/>
<path d="M471.423 234.575C451.56 251.834 432.935 245.578 415.44 222.573C397.946 199.568 403.595 182.142 411.442 177.563C429.436 167.06 446.946 177.91 453.428 183.564C472.922 200.568 490.417 218.072 471.423 234.575Z" stroke="#3F2D1A" stroke-width="8"/>
<path d="M594.392 298.566C568.9 304.067 544.908 301.27 516.909 288.087C499.914 280.085 468.924 261.581 485.918 237.076C496.727 221.49 517.637 226.533 536.902 237.076C578.897 260.057 596.392 250.555 596.392 250.555" stroke="#3F2D1A" stroke-width="8"/>
<path d="M460.482 239.593C457.983 235.592 446.087 224.59 446.986 226.09C448.272 228.234 449.486 231.091 454.484 235.592C459.482 240.093 461.227 240.786 460.482 239.593Z" fill="#3F2D1A" stroke="#3F2D1A" stroke-width="2"/>
<path d="M470.479 231.091C467.98 227.09 465.529 222.589 457.483 217.088C456.602 216.486 460.531 222.729 465.529 227.23C470.528 231.731 471.224 232.284 470.479 231.091Z" fill="#3F2D1A" stroke="#3F2D1A" stroke-width="2"/>
<path d="M502.969 252.096C499.97 246.594 487.123 237.133 488.022 238.633C489.308 240.778 491.973 244.344 494.472 246.594C496.971 248.845 503.642 253.33 502.969 252.096Z" fill="#3F2D1A" stroke="#3F2D1A" stroke-width="2"/>
<path d="M511.966 243.094C506.968 237.593 506.564 235.133 498.519 229.631C497.638 229.029 502.746 236.092 504.968 238.093C507.19 240.093 512.912 244.134 511.966 243.094Z" fill="#3F2D1A" stroke="#3F2D1A" stroke-width="2"/>
<path d="M6.32812 496.406C11.276 496.406 14.5052 495.938 16.0156 495C17.526 494.01 18.4896 492.969 18.9062 491.875C19.3229 490.781 19.5312 489.453 19.5312 487.891L19.4531 404.922C19.4531 401.536 18.8542 399.427 17.6562 398.594C15.625 397.135 11.849 396.406 6.32812 396.406V387.812H50.2344V396.406C45.2865 396.406 42.0573 396.901 40.5469 397.891C39.0365 398.828 38.0729 399.844 37.6562 400.938C37.2396 402.031 37.0312 403.359 37.0312 404.922L37.1094 487.891C37.1094 491.276 37.7083 493.385 38.9062 494.219C40.9375 495.677 44.7135 496.406 50.2344 496.406V505H6.32812V496.406ZM111.25 435.938C102.708 435.938 95.7812 438.594 90.4688 443.906V488.203C90.4688 491.432 90.9896 493.464 92.0312 494.297C93.8542 495.703 97.2917 496.406 102.344 496.406V505H62.6562V496.406C67.1354 496.406 69.9479 495.964 71.0938 495.078C72.2396 494.141 72.9427 493.151 73.2031 492.109C73.4635 491.068 73.5938 489.766 73.5938 488.203V445.625C73.5938 441.875 73.2552 439.427 72.5781 438.281C71.9531 437.135 70.1823 436.562 67.2656 436.562H62.5V427.969C67.3958 427.969 71.224 427.604 73.9844 426.875C76.7969 426.094 78.776 425.547 79.9219 425.234C81.1198 424.87 82.3958 424.688 83.75 424.688C86.5104 424.688 88.3073 425.495 89.1406 427.109C90.026 428.672 90.4688 431.198 90.4688 434.688C96.0417 430 102.5 426.823 109.844 425.156C112.292 424.583 114.688 424.297 117.031 424.297C133.906 424.297 142.344 435.469 142.344 457.812V488.047C142.344 491.484 142.839 493.75 143.828 494.844C144.818 495.885 147.526 496.406 151.953 496.406V505H115V496.406C119.74 496.406 122.578 495.938 123.516 495C124.505 494.01 125.078 492.995 125.234 491.953C125.391 490.911 125.469 489.609 125.469 488.047V458.828C125.469 451.589 124.792 446.615 123.438 443.906C120.781 438.594 116.719 435.938 111.25 435.938ZM195.547 506.562C179.141 506.562 170.938 497.448 170.938 479.219V440.156C170.938 438.125 170.677 436.797 170.156 436.172C169.688 435.495 168.646 435.156 167.031 435.156H160.625V425.781H163.516C167.474 425.781 170.365 424.531 172.188 422.031C174.062 419.531 175.078 415.417 175.234 409.688L175.312 402.734H187.812V425.781H211.797V435.156H187.812V478.984C187.812 488.672 190.052 494.453 194.531 496.328C195.781 496.849 197.031 497.109 198.281 497.109C203.75 497.109 207.318 492.604 208.984 483.594H218.047C217.526 494.271 213.073 501.354 204.688 504.844C201.979 505.99 198.932 506.562 195.547 506.562ZM301.953 468.984H247.734C247.734 477.943 249.844 484.87 254.062 489.766C258.333 494.661 263.594 497.109 269.844 497.109C278.229 497.109 284.245 493.646 287.891 486.719L299.531 486.641C298.333 492.214 294.896 496.927 289.219 500.781C283.594 504.635 275.99 506.562 266.406 506.562C256.823 506.562 248.542 503.594 241.562 497.656C233.229 490.521 229.062 480.469 229.062 467.5C229.062 454.531 232.37 444.089 238.984 436.172C245.651 428.203 255.182 424.219 267.578 424.219C283.88 424.219 294.427 430.781 299.219 443.906C301.146 449.167 302.109 454.141 302.109 458.828C302.109 463.516 302.057 466.901 301.953 468.984ZM283.906 457.266C283.906 441.328 278.49 433.359 267.656 433.359C261.562 433.359 256.797 435.729 253.359 440.469C249.974 445.208 248.125 451.771 247.812 460.156H283.828C283.88 459.167 283.906 458.203 283.906 457.266ZM373.75 430.312C378.385 424.844 384.401 422.109 391.797 422.109C394.297 422.109 396.484 423.047 398.359 424.922C400.286 426.745 401.25 429.036 401.25 431.797C401.25 434.505 400.417 436.667 398.75 438.281C397.135 439.844 395.182 440.625 392.891 440.625C390.599 440.625 388.646 439.974 387.031 438.672C385.469 437.37 384.609 435.365 384.453 432.656C382.578 433.385 380.859 434.479 379.297 435.938C382.422 440.469 383.984 445.599 383.984 451.328C383.984 457.005 383.099 461.641 381.328 465.234C379.609 468.776 377.24 471.823 374.219 474.375C371.25 476.875 367.786 478.802 363.828 480.156C359.87 481.51 356.302 482.188 353.125 482.188C350 482.188 347.63 482.109 346.016 481.953C342.266 482.786 339.74 484.375 338.438 486.719C338.073 487.292 337.891 487.943 337.891 488.672C337.891 490.234 339.297 491.354 342.109 492.031C344.922 492.708 349.609 493.333 356.172 493.906C362.786 494.427 368.229 495.078 372.5 495.859C376.823 496.589 380.547 497.76 383.672 499.375C390.286 502.865 393.594 508.802 393.594 517.188C393.594 525.573 389.505 532.266 381.328 537.266C373.151 542.318 363.151 544.844 351.328 544.844C332.786 544.844 321.198 540.13 316.562 530.703C315.156 527.839 314.453 524.688 314.453 521.25C314.453 512.396 319.844 505.208 330.625 499.688C326.927 497.5 325.078 494.115 325.078 489.531C325.078 484.948 327.969 481.354 333.75 478.75C328.854 476.875 325 473.542 322.188 468.75C319.375 463.906 317.969 458.984 317.969 453.984C317.969 444.609 321.328 437.318 328.047 432.109C334.818 426.849 342.76 424.219 351.875 424.219C360.99 424.219 368.281 426.25 373.75 430.312ZM351.328 473.203C358.203 473.203 362.969 469.557 365.625 462.266C366.562 459.766 367.031 456.667 367.031 452.969C367.031 446.094 365.521 441.016 362.5 437.734C359.479 434.453 355.755 432.812 351.328 432.812C344.089 432.812 339.115 436.484 336.406 443.828C335.469 446.484 335 449.635 335 453.281C335 459.948 336.615 464.948 339.844 468.281C343.125 471.562 346.953 473.203 351.328 473.203ZM338.984 504.609C333.828 507.37 331.25 512.057 331.25 518.672C331.25 524.141 333.438 528.307 337.812 531.172C342.188 534.036 347.943 535.469 355.078 535.469C366.276 535.469 373.646 532.5 377.188 526.562C378.333 524.74 378.906 522.682 378.906 520.391C378.906 512.839 372.448 508.464 359.531 507.266C355.469 506.849 351.667 506.484 348.125 506.172C344.583 505.859 341.536 505.339 338.984 504.609ZM407.188 496.406C411.667 496.406 414.479 495.964 415.625 495.078C416.771 494.141 417.448 493.151 417.656 492.109C417.917 491.068 418.047 489.766 418.047 488.203V445.156C418.047 441.406 417.708 438.958 417.031 437.812C416.406 436.667 414.661 436.094 411.797 436.094H407.031V427.5C411.979 427.5 415.807 427.135 418.516 426.406C421.276 425.625 423.229 425.078 424.375 424.766C425.573 424.401 426.849 424.219 428.203 424.219C430.859 424.219 432.63 425 433.516 426.562C434.453 428.125 434.922 430.677 434.922 434.219V435.781C439.401 430.521 444.479 426.979 450.156 425.156C452.188 424.531 454.219 424.219 456.25 424.219C460.156 424.219 463.177 425.339 465.312 427.578C467.5 429.818 468.594 432.578 468.594 435.859C468.594 439.141 467.552 441.823 465.469 443.906C463.385 445.99 460.859 447.031 457.891 447.031C454.974 447.031 452.552 445.99 450.625 443.906C448.75 441.823 447.917 439.219 448.125 436.094C445.99 436.406 443.698 437.396 441.25 439.062C438.854 440.677 436.745 442.891 434.922 445.703V487.5C434.922 489.479 435.078 491.068 435.391 492.266C435.755 493.411 436.667 494.401 438.125 495.234C439.635 496.016 444.115 496.406 451.562 496.406V505H407.188V496.406ZM545.547 486.328C545.547 492.526 546.771 495.625 549.219 495.625C551.562 495.625 553.281 494.844 554.375 493.281C555.469 491.667 556.016 488.776 556.016 484.609H564.219C564.271 485.286 564.297 486.354 564.297 487.812C564.297 492.5 563.125 496.562 560.781 500C557.917 504.375 553.359 506.562 547.109 506.562C543.047 506.562 539.583 505.417 536.719 503.125C533.854 500.833 531.875 497.812 530.781 494.062C523.229 502.396 513.672 506.562 502.109 506.562C495.755 506.562 490.208 504.714 485.469 501.016C480.781 497.266 478.438 492.057 478.438 485.391C478.438 473.828 486.979 465.286 504.062 459.766C514.896 456.328 521.38 453.958 523.516 452.656C525.651 451.302 527.031 449.948 527.656 448.594C528.333 447.188 528.672 445.625 528.672 443.906C528.672 440.833 527.161 438.281 524.141 436.25C521.12 434.167 517.188 433.125 512.344 433.125C507.5 433.125 503.229 434.427 499.531 437.031C502.135 438.958 503.438 441.432 503.438 444.453C503.438 447.474 502.422 449.896 500.391 451.719C498.411 453.542 495.99 454.453 493.125 454.453C490.312 454.453 487.969 453.594 486.094 451.875C484.271 450.156 483.359 447.76 483.359 444.688C483.359 438.594 486.432 433.672 492.578 429.922C498.724 426.12 506.198 424.219 515 424.219C530.729 424.219 540.339 429.323 543.828 439.531C544.974 442.917 545.547 446.823 545.547 451.25V486.328ZM511.094 466.875C506.51 468.854 503.073 471.406 500.781 474.531C498.49 477.604 497.344 480.964 497.344 484.609C497.344 488.255 498.333 491.016 500.312 492.891C502.292 494.766 504.766 495.703 507.734 495.703C513.776 495.703 518.776 493.594 522.734 489.375C526.693 485.104 528.672 479.167 528.672 471.562V459.531C525.339 461.25 521.797 462.812 518.047 464.219C514.349 465.625 512.031 466.51 511.094 466.875ZM567.734 496.25C572.839 496.25 576.146 495.755 577.656 494.766C579.167 493.776 580.13 492.734 580.547 491.641C581.016 490.495 581.25 489.141 581.25 487.578V405.234C581.25 401.849 580.625 399.714 579.375 398.828C577.292 397.318 573.411 396.562 567.734 396.562V387.812H594.688L661.719 472.891V405.234C661.719 401.797 661.12 399.661 659.922 398.828C657.839 397.318 653.984 396.562 648.359 396.562V387.812H687.734V396.562C682.63 396.562 679.323 397.057 677.812 398.047C676.302 399.036 675.312 400.104 674.844 401.25C674.427 402.344 674.219 403.672 674.219 405.234V505H664.609L593.75 415.078V487.578C593.75 490.964 594.375 493.099 595.625 493.984C597.708 495.495 601.615 496.25 607.344 496.25V505H567.734V496.25ZM755.703 492.188C749.193 501.771 740.495 506.562 729.609 506.562C721.745 506.562 715.625 504.141 711.25 499.297C706.875 494.453 704.688 487.214 704.688 477.578V445.156C704.688 441.406 704.349 438.958 703.672 437.812C703.047 436.667 701.302 436.094 698.438 436.094H696.406V427.5C701.198 427.5 704.661 427.135 706.797 426.406C708.984 425.625 710.547 425.078 711.484 424.766C712.422 424.401 713.568 424.219 714.922 424.219C717.578 424.219 719.349 425.052 720.234 426.719C721.12 428.333 721.562 430.938 721.562 434.531V478.125C721.562 483.854 722.161 487.76 723.359 489.844C725.651 493.854 729.583 495.859 735.156 495.859C738.906 495.859 742.604 494.375 746.25 491.406C749.896 488.438 752.474 484.974 753.984 481.016V445.156C753.88 441.302 753.516 438.828 752.891 437.734C752.266 436.641 750.521 436.094 747.656 436.094H743.203V427.5C748.151 427.5 751.953 427.135 754.609 426.406C757.318 425.625 759.245 425.078 760.391 424.766C761.536 424.401 762.786 424.219 764.141 424.219C766.797 424.219 768.568 425 769.453 426.562C770.391 428.125 770.859 430.677 770.859 434.219V484.219C770.859 489.271 771.094 492.396 771.562 493.594C772.396 495.885 774.479 497.031 777.812 497.031C779.583 497.031 781.094 496.745 782.344 496.172V503.75C779.844 505.625 776.432 506.562 772.109 506.562C763.047 506.562 757.578 501.771 755.703 492.188ZM823.359 506.562C806.953 506.562 798.75 497.448 798.75 479.219V440.156C798.75 438.125 798.49 436.797 797.969 436.172C797.5 435.495 796.458 435.156 794.844 435.156H788.438V425.781H791.328C795.286 425.781 798.177 424.531 800 422.031C801.875 419.531 802.891 415.417 803.047 409.688L803.125 402.734H815.625V425.781H839.609V435.156H815.625V478.984C815.625 488.672 817.865 494.453 822.344 496.328C823.594 496.849 824.844 497.109 826.094 497.109C831.562 497.109 835.13 492.604 836.797 483.594H845.859C845.339 494.271 840.885 501.354 832.5 504.844C829.792 505.99 826.745 506.562 823.359 506.562ZM856.25 496.406C860.729 496.406 863.542 495.964 864.688 495.078C865.833 494.141 866.51 493.151 866.719 492.109C866.979 491.068 867.109 489.766 867.109 488.203V445.156C867.109 441.406 866.771 438.958 866.094 437.812C865.469 436.667 863.724 436.094 860.859 436.094H856.094V427.5C861.042 427.5 864.87 427.135 867.578 426.406C870.339 425.625 872.292 425.078 873.438 424.766C874.635 424.401 875.911 424.219 877.266 424.219C879.922 424.219 881.693 425 882.578 426.562C883.516 428.125 883.984 430.677 883.984 434.219V435.781C888.464 430.521 893.542 426.979 899.219 425.156C901.25 424.531 903.281 424.219 905.312 424.219C909.219 424.219 912.24 425.339 914.375 427.578C916.562 429.818 917.656 432.578 917.656 435.859C917.656 439.141 916.615 441.823 914.531 443.906C912.448 445.99 909.922 447.031 906.953 447.031C904.036 447.031 901.615 445.99 899.688 443.906C897.812 441.823 896.979 439.219 897.188 436.094C895.052 436.406 892.76 437.396 890.312 439.062C887.917 440.677 885.807 442.891 883.984 445.703V487.5C883.984 489.479 884.141 491.068 884.453 492.266C884.818 493.411 885.729 494.401 887.188 495.234C888.698 496.016 893.177 496.406 900.625 496.406V505H856.25V496.406ZM946.328 409.766C942.943 409.766 940.052 408.646 937.656 406.406C935.312 404.115 934.141 401.328 934.141 398.047C934.141 394.714 935.339 391.901 937.734 389.609C940.13 387.266 942.995 386.094 946.328 386.094C949.661 386.094 952.526 387.266 954.922 389.609C957.318 391.901 958.516 394.714 958.516 398.047C958.516 401.328 957.318 404.115 954.922 406.406C952.578 408.646 949.714 409.766 946.328 409.766ZM926.406 496.406C931.25 496.406 934.271 495.964 935.469 495.078C936.719 494.141 937.474 493.151 937.734 492.109C937.995 491.068 938.125 489.766 938.125 488.203V445.156C938.125 441.406 937.786 438.958 937.109 437.812C936.484 436.667 934.74 436.094 931.875 436.094H926.25V427.5C931.354 427.5 935.365 427.135 938.281 426.406C941.198 425.625 943.255 425.078 944.453 424.766C945.651 424.401 946.953 424.219 948.359 424.219C951.068 424.219 952.839 425.026 953.672 426.641C954.557 428.203 955 430.729 955 434.219V488.203C955 491.484 955.521 493.542 956.562 494.375C958.333 495.729 961.693 496.406 966.641 496.406V505H926.406V496.406Z" fill="#2D2D2D"/>
</svg>
