<svg width="1697" height="389" viewBox="0 0 1697 389" fill="none" xmlns="http://www.w3.org/2000/svg">
<path d="M173.947 246.554L185.944 261.057L189.442 293.064L222.932 282.562L254.422 288.563C254.422 288.563 255.547 296.185 262.92 293.064C275.916 287.563 264.919 285.563 264.919 285.563L246.925 272.06L237.927 248.554L249.924 230.05L264.919 225.549L298.409 239.052C298.409 239.052 305.8 250.643 314.903 243.053C331.098 229.55 326.4 215.547 326.4 215.547H359.39L385.881 202.044L398.877 194.542L402.876 215.547V241.553L393.379 282.562L370.886 318.07L345.894 349.077L292.41 374.583L260.92 383.085H198.94L149.455 374.583L101.47 353.078L57.4836 324.071L30.9919 285.563L19.4955 267.059L6.49951 209.046L10.4983 166.036L30.9919 113.524L59.9828 84.5178L85.4749 49.0098L101.47 16.5026L113.466 10.0011L118.465 62.5128L109.967 91.5193L74.9782 135.029L59.9828 170.037V223.049L70.4796 233.551L79.9766 202.044L90.9732 189.041H105.969L121.464 194.542L125.962 209.046L133.46 215.547L162.451 209.046V189.041L169.449 177.539L189.442 175.538L219.433 180.039H234.428V183.04H211.935L236.428 215.547L229.93 235.051L210.436 243.053L193.441 241.553L166.949 215.547L138.458 235.051L125.962 255.056C125.962 255.056 129.961 275.56 136.959 311.569C135.459 283.562 149.455 250.555 149.455 250.555L173.947 246.554Z" fill="#A1775E"/>
<path d="M210.436 184.04L230.93 179.539L245.425 194.542L287.412 214.547H334.397C334.397 214.547 329.899 237.552 320.901 248.554C313.049 258.157 287.412 234.051 287.412 234.051L258.921 225.549L244.425 234.051L237.927 254.556L252.923 277.061L291.411 292.064C291.411 292.064 280.914 305.401 271.917 309.068C270.003 309.848 248.924 286.063 248.924 286.063L214.435 283.062L187.443 294.565V267.559C186.777 243.22 158.496 241.858 150.955 252.055C132.46 277.061 138.445 320.819 136.459 318.57C117.465 297.065 122.963 273.56 126.962 252.055L141.458 232.551L166.45 214.547L179.946 229.05L207.437 245.554L222.432 237.052L235.428 225.549L230.93 209.046L210.436 184.04Z" fill="#F0DFC1"/>
<path d="M215.934 161.035L213.935 123.527L226.431 108.023L262.92 111.024L300.908 131.028L340.395 133.029L392.379 127.027L417.371 140.03V167.536L402.376 194.542L351.392 215.547L289.911 213.547L236.428 186.541L215.934 161.035Z" fill="#F0DFC1"/>
<path d="M252.423 62.0127C228.191 79.7066 212.936 131.028 214.935 129.528C218.933 126.527 220.433 114.524 249.924 115.525C271.498 116.256 280.825 127.721 284.913 131.028C308.314 149.958 317.804 147.551 351.002 139.129L351.392 139.03C369.387 134.465 387.881 131.028 401.377 147.532C406.084 153.288 409.729 162.729 414.373 168.537C416.372 171.037 419.025 147.579 418.371 134.029C417.247 110.709 407.676 95.0691 392.879 77.0161C374.782 54.9359 357.575 52.5259 329.454 48.5874L328.899 48.5097C297.773 44.1493 277.811 43.4747 252.423 62.0127Z" fill="#A1775E"/>
<path d="M387.881 205.045C374.685 213.447 331.826 218.035 337.396 215.547C449.361 165.536 389.38 66.5144 338.896 49.51C328.642 46.0561 377.884 62.0134 387.881 68.0147C400.377 75.5164 418.371 120.526 420.371 140.531C422.37 160.535 404.376 194.543 387.881 205.045Z" fill="black" fill-opacity="0.1"/>
<path d="M9.9974 224.549C2.28316 194.018 4.00045 275.173 60.4837 323.071C171.947 417.592 306.906 368.581 326.4 358.579C336.028 353.639 398.376 318.07 403.874 254.556C405.132 240.03 335.398 394.587 161.95 364.58C93.6753 352.769 24.5292 282.062 9.9974 224.549Z" fill="black" fill-opacity="0.1"/>
<path d="M398.869 191.066C398.869 191.066 422.862 262.582 367.879 326.096C322.935 378.013 242.918 390.558 182.936 381.108C143.93 374.963 59.549 354.102 21.9866 268.583C-5.25144 206.569 -5.05926 138.687 62.4558 80.5411C101.943 46.5336 106.442 -4.47803 110.94 6.5245C114.995 16.4437 137.432 68.5383 89.4473 118.049C61.9544 150.557 57.4559 173.562 57.4559 191.066C57.4559 259.081 117.937 273.084 117.937 273.084" stroke="#3F2D1A" stroke-width="10"/>
<path d="M116.958 294.589C112.959 286.587 118.457 265.582 131.953 246.078C144.89 227.381 168.441 216.071 168.441 216.071" stroke="#3F2D1A" stroke-width="8"/>
<path d="M176.439 379.608C176.439 379.608 156.118 375.047 144.449 352.101C129.954 323.595 135.952 263.082 148.948 253.079C159.933 244.625 172.858 243.058 182.437 253.079C193.433 264.582 185.436 292.088 186.436 294.089C187.217 295.651 189.241 295.863 190.435 294.589C197.932 286.587 216.926 278.338 237.92 283.086C272.409 290.887 274.908 323.095 273.409 326.596" stroke="#3F2D1A" stroke-width="7"/>
<path d="M70.972 241.577C70.972 241.577 70.4721 197.147 94.4647 189.565C101.463 187.354 113.012 185.909 121.456 194.066C135.952 208.069 116.958 251.579 116.958 251.579" stroke="#3F2D1A" stroke-width="7"/>
<path d="M127.454 214.57C127.454 214.57 137.451 210.57 147.448 210.57C161.944 210.57 166.442 212.07 166.442 212.07" stroke="#3F2D1A" stroke-width="7"/>
<path d="M113.465 207.045C115.964 197.043 109.966 187.541 110.966 189.041C112.352 191.122 116.964 192.042 116.964 198.543C116.964 205.045 112.421 211.226 113.465 207.045Z" fill="#3F2D1A" stroke="#3F2D1A"/>
<path d="M165.943 267.583C166.442 265.082 166.942 246.578 166.942 248.078C166.942 250.579 168.942 253.079 168.942 258.581C168.942 264.082 165.667 268.962 165.943 267.583Z" fill="#3F2D1A" stroke="#3F2D1A" stroke-width="2"/>
<path d="M173.94 265.582C174.439 263.082 174.44 247.078 174.44 248.578C174.44 251.079 176.44 252.579 176.44 258.08C176.44 263.582 173.664 266.961 173.94 265.582Z" fill="#3F2D1A" stroke="#3F2D1A" stroke-width="2"/>
<path d="M201.431 177.563C201.431 177.563 213.478 181.54 220.425 182.064C224.708 182.387 235.421 182.064 235.421 182.064" stroke="#3F2D1A" stroke-width="7"/>
<path d="M404.376 188.541C393.879 210.546 272.917 248.554 219.933 166.036C216.349 160.454 186.966 175.02 193.441 183.04C275.416 284.563 377.884 239.552 401.376 229.55C416.011 223.319 408.67 179.539 404.376 188.541Z" fill="#452372" stroke="#452372" stroke-width="5"/>
<path d="M480.852 284.062C478.144 277.561 453.86 299.066 393.379 225.049C383.882 220.715 338.734 222.631 348.893 242.553C386.381 316.069 432.367 329.573 442.863 329.573C448.376 329.573 483.559 290.564 480.852 284.062Z" fill="#452372"/>
<path d="M197.44 170.537C210.936 223.049 359.389 275.56 412.873 206.545C412.15 217.869 410.882 229.468 399.993 233.014C400.911 233.929 404.128 237.689 404.128 237.689C403.047 241.581 395.962 246.847 385.381 250.055C368.887 255.056 349.892 257.056 350.892 247.554C345.894 251.555 330.029 249.069 318.902 245.554C206.437 247.554 197.44 170.537 197.44 170.537Z" fill="black" fill-opacity="0.1"/>
<path d="M262.751 100.142C262.751 85.1387 284.744 85.1386 284.744 100.142C284.744 115.146 262.751 115.145 262.751 100.142Z" fill="#3F2D1A"/>
<path d="M357.222 114.145C357.222 100.142 379.215 98.6417 379.215 114.145C379.215 129.649 357.222 128.148 357.222 114.145Z" fill="#3F2D1A"/>
<path d="M297.24 130.149C296.538 137.881 310.236 140.651 310.236 140.651C310.236 140.651 310.925 146.954 307.237 151.654C304.399 155.271 303.059 156.461 300.4 157.558C297.934 158.575 293.402 158.828 291.403 158.559C289.403 158.289 285.405 157.058 282.405 153.154C279.406 149.25 279.406 147.556 279.406 145.556C279.406 143.555 279.496 140.151 278.746 141.651C278.246 142.652 278.807 146.173 279.746 149.153C280.873 152.731 283.251 154.487 285.405 157.558C286.213 158.711 286.744 159.655 286.744 160.656C286.744 162.918 286.474 165.804 288.243 169.158C290.636 173.691 293.166 176.349 297.74 178.66C302.22 180.923 306.221 181.334 311.236 181.16C317.287 180.95 321.592 180.079 325.732 175.659C328.418 172.791 328.935 168.847 331.23 165.657C331.96 164.642 332.935 164.122 333.729 163.156C335.374 161.156 339.727 158.655 341.227 155.655C342.226 153.654 341.727 150.153 341.727 151.154C341.727 152.154 340.532 154.941 338.728 157.155C336.923 159.369 334.229 160.889 332.89 161.559C331.89 162.059 329.391 162.963 323.893 162.559C318.386 162.155 313.921 158.414 312.236 153.154C310.609 148.078 313.235 140.651 313.235 140.651C313.235 140.651 328.129 143.652 329.23 134.65C329.934 128.896 320.473 124.953 314.735 124.148C308.865 123.323 297.74 124.648 297.24 130.149Z" fill="#3F2D1A"/>
<path d="M262.751 100.142C262.751 85.1387 284.744 85.1386 284.744 100.142C284.744 115.146 262.751 115.145 262.751 100.142Z" stroke="#3F2D1A" stroke-width="5"/>
<path d="M357.222 114.145C357.222 100.142 379.215 98.6417 379.215 114.145C379.215 129.649 357.222 128.148 357.222 114.145Z" stroke="#3F2D1A" stroke-width="5"/>
<path d="M297.24 130.149C296.538 137.881 310.236 140.651 310.236 140.651C310.236 140.651 310.925 146.954 307.237 151.654C304.399 155.271 303.059 156.461 300.4 157.558C297.934 158.575 293.402 158.828 291.403 158.559C289.403 158.289 285.405 157.058 282.405 153.154C279.406 149.25 279.406 147.556 279.406 145.556C279.406 143.555 279.496 140.151 278.746 141.651C278.246 142.652 278.807 146.173 279.746 149.153C280.873 152.731 283.251 154.487 285.405 157.558C286.213 158.711 286.744 159.655 286.744 160.656C286.744 162.918 286.474 165.804 288.243 169.158C290.636 173.691 293.166 176.349 297.74 178.66C302.22 180.923 306.221 181.334 311.236 181.16C317.287 180.95 321.592 180.079 325.732 175.659C328.418 172.791 328.935 168.847 331.23 165.657C331.96 164.642 332.935 164.122 333.729 163.156C335.374 161.156 339.727 158.655 341.227 155.655C342.226 153.654 341.727 150.153 341.727 151.154C341.727 152.154 340.532 154.941 338.728 157.155C336.923 159.369 334.229 160.889 332.89 161.559C331.89 162.059 329.391 162.963 323.893 162.559C318.386 162.155 313.921 158.414 312.236 153.154C310.609 148.078 313.235 140.651 313.235 140.651C313.235 140.651 328.129 143.652 329.23 134.65C329.934 128.896 320.473 124.953 314.735 124.148C308.865 123.323 297.74 124.648 297.24 130.149Z" stroke="#3F2D1A" stroke-width="5"/>
<path d="M365.219 212.167C326.464 223.505 255.293 213.827 225.265 172.658C212.356 154.959 211.221 131.449 218.473 109.644C221.6 100.241 226.286 91.1543 232.261 82.9883C241.401 70.4956 253.555 60.1569 267.75 54.1317C284.244 47.1303 342.65 36.1151 385.213 68.6349C394.38 75.6388 407.669 93.6509 414.204 112.145C417.874 122.533 417.81 126.86 418.203 138.15C419.208 167.041 406.183 200.183 365.219 212.167Z" stroke="#3F2D1A" stroke-width="10"/>
<path d="M245.257 134.15C237.179 130.605 221.664 122.647 224.263 123.647C226.863 124.647 237.885 128.205 245.757 131.649C253.915 135.219 270.418 143.194 268.249 142.651C266.25 142.151 253.754 137.878 245.257 134.15Z" fill="#3F2D1A" stroke="#3F2D1A"/>
<path d="M245.756 147.152C237.107 145.422 223.264 141.151 224.763 141.151C226.263 141.151 238.921 142.567 247.256 144.652C257.253 147.152 270.484 150.653 268.249 150.653C264.751 150.653 255.753 149.153 245.756 147.152Z" fill="#3F2D1A" stroke="#3F2D1A"/>
<path d="M249.755 159.155C240.946 158.714 224.763 156.655 226.263 156.655C227.762 156.655 241.175 156.726 249.755 157.155C259.752 157.655 272.484 159.655 270.249 159.655C266.75 159.655 259.752 159.655 249.755 159.155Z" fill="#3F2D1A" stroke="#3F2D1A"/>
<path d="M378.715 152.153C369.218 152.653 352.723 152.153 354.223 152.153C355.722 152.153 368.218 150.653 376.216 150.153C383.713 149.684 400.434 150.431 398.21 150.653C393.21 151.153 388.711 151.627 378.715 152.153Z" fill="#3F2D1A" stroke="#3F2D1A"/>
<path d="M369.218 175.659C360.109 172.925 343.223 166.657 347.723 167.657C352.223 168.657 363.115 171.123 370.717 173.658C378.217 176.159 391.889 181.163 389.712 180.66C383.214 179.16 379.217 178.66 369.218 175.659Z" fill="#3F2D1A" stroke="#3F2D1A"/>
<path d="M374.216 164.657C364.753 163.71 345.724 159.959 352.222 160.307C358.721 160.656 368.718 161.627 373.216 162.156C381.713 163.156 396.931 166.904 394.709 166.657C385.712 165.657 384.213 165.657 374.216 164.657Z" fill="#3F2D1A" stroke="#3F2D1A"/>
<path d="M206.769 83.1382C215.268 70.1802 232.76 82.1379 232.76 82.1379L218.265 109.144C218.265 109.144 196.272 99.1418 206.769 83.1382Z" fill="#3F2D1A" stroke="#3F2D1A" stroke-width="5"/>
<path d="M437.197 119.646C440.002 136.484 418.703 141.651 418.703 141.651L413.204 109.144C413.204 109.144 434.698 104.643 437.197 119.646Z" fill="#3F2D1A" stroke="#3F2D1A" stroke-width="5"/>
<path d="M296.909 170.367C306.406 178.869 320.404 172.987 318.902 172.368C310.405 168.867 295.667 169.256 296.909 170.367Z" stroke="#B50000" stroke-width="7"/>
<path d="M378.884 112.524C378.884 107.856 371.886 107.856 371.886 112.524C371.886 117.192 378.884 117.192 378.884 112.524Z" fill="white"/>
<path d="M283.913 98.5209C283.913 93.8532 276.915 93.8532 276.915 98.5209C276.915 103.189 283.913 103.189 283.913 98.5209Z" fill="white"/>
<path d="M301.901 238.035C320.396 252.538 327.4 251.555 349.393 250.055C349.393 250.055 360.395 274.578 372.885 286.063C384.307 296.565 315.897 302.049 282.907 291.547C249.918 281.044 229.924 253.038 245.919 234.034C261.914 215.03 290.964 229.457 301.901 238.035Z" fill="#A1775E"/>
<path d="M221.426 191.524C207.931 170.52 193.435 173.02 172.942 176.021C158.446 184.523 166.943 208.528 172.942 219.531C178.94 230.533 213.429 255.039 228.424 236.534C243.42 218.03 234.922 212.529 221.426 191.524Z" fill="#A1775E"/>
<path d="M228.423 234.575C208.56 251.834 189.935 245.578 172.44 222.573C154.946 199.568 160.595 182.142 168.442 177.563C186.436 167.06 203.946 177.91 210.428 183.564C229.922 200.568 247.417 218.072 228.423 234.575Z" stroke="#3F2D1A" stroke-width="8"/>
<path d="M351.392 298.566C325.9 304.067 301.908 301.27 273.909 288.087C256.914 280.085 225.924 261.581 242.918 237.076C253.727 221.49 274.637 226.533 293.902 237.076C335.897 260.057 353.392 250.555 353.392 250.555" stroke="#3F2D1A" stroke-width="8"/>
<path d="M217.482 239.593C214.983 235.592 203.087 224.59 203.986 226.09C205.272 228.234 206.486 231.091 211.484 235.592C216.482 240.093 218.227 240.786 217.482 239.593Z" fill="#3F2D1A" stroke="#3F2D1A" stroke-width="2"/>
<path d="M227.479 231.091C224.98 227.09 222.529 222.589 214.483 217.088C213.602 216.486 217.531 222.729 222.529 227.23C227.528 231.731 228.224 232.284 227.479 231.091Z" fill="#3F2D1A" stroke="#3F2D1A" stroke-width="2"/>
<path d="M259.969 252.096C256.97 246.594 244.123 237.133 245.022 238.633C246.308 240.778 248.973 244.344 251.472 246.594C253.971 248.845 260.642 253.33 259.969 252.096Z" fill="#3F2D1A" stroke="#3F2D1A" stroke-width="2"/>
<path d="M268.966 243.094C263.968 237.593 263.564 235.133 255.519 229.631C254.638 229.029 259.746 236.092 261.968 238.093C264.19 240.093 269.912 244.134 268.966 243.094Z" fill="#3F2D1A" stroke="#3F2D1A" stroke-width="2"/>
<path d="M488.91 319.258C495.095 319.258 499.132 318.672 501.02 317.5C502.908 316.263 504.112 314.961 504.633 313.594C505.154 312.227 505.414 310.566 505.414 308.613L505.316 204.902C505.316 200.671 504.568 198.034 503.07 196.992C500.531 195.169 495.811 194.258 488.91 194.258V183.516H543.793V194.258C537.608 194.258 533.572 194.876 531.684 196.113C529.796 197.285 528.591 198.555 528.07 199.922C527.549 201.289 527.289 202.949 527.289 204.902L527.387 308.613C527.387 312.845 528.135 315.482 529.633 316.523C532.172 318.346 536.892 319.258 543.793 319.258V330H488.91V319.258ZM620.062 243.672C609.385 243.672 600.727 246.992 594.086 253.633V309.004C594.086 313.04 594.737 315.579 596.039 316.621C598.318 318.379 602.615 319.258 608.93 319.258V330H559.32V319.258C564.919 319.258 568.435 318.704 569.867 317.598C571.299 316.426 572.178 315.189 572.504 313.887C572.829 312.585 572.992 310.957 572.992 309.004V255.781C572.992 251.094 572.569 248.034 571.723 246.602C570.941 245.169 568.728 244.453 565.082 244.453H559.125V233.711C565.245 233.711 570.03 233.255 573.48 232.344C576.996 231.367 579.47 230.684 580.902 230.293C582.4 229.837 583.995 229.609 585.688 229.609C589.138 229.609 591.384 230.618 592.426 232.637C593.533 234.59 594.086 237.747 594.086 242.109C601.052 236.25 609.125 232.279 618.305 230.195C621.365 229.479 624.359 229.121 627.289 229.121C648.383 229.121 658.93 243.086 658.93 271.016V308.809C658.93 313.105 659.548 315.938 660.785 317.305C662.022 318.607 665.408 319.258 670.941 319.258V330H624.75V319.258C630.674 319.258 634.223 318.672 635.395 317.5C636.632 316.263 637.348 314.993 637.543 313.691C637.738 312.389 637.836 310.762 637.836 308.809V272.285C637.836 263.236 636.99 257.018 635.297 253.633C631.977 246.992 626.898 243.672 620.062 243.672ZM725.434 331.953C704.926 331.953 694.672 320.56 694.672 297.773V248.945C694.672 246.406 694.346 244.746 693.695 243.965C693.109 243.118 691.807 242.695 689.789 242.695H681.781V230.977H685.395C690.342 230.977 693.956 229.414 696.234 226.289C698.578 223.164 699.848 218.021 700.043 210.859L700.141 202.168H715.766V230.977H745.746V242.695H715.766V297.48C715.766 309.59 718.565 316.816 724.164 319.16C725.727 319.811 727.289 320.137 728.852 320.137C735.688 320.137 740.147 314.505 742.23 303.242H753.559C752.908 316.589 747.341 325.443 736.859 329.805C733.474 331.237 729.665 331.953 725.434 331.953ZM858.441 284.98H790.668C790.668 296.178 793.305 304.837 798.578 310.957C803.917 317.077 810.492 320.137 818.305 320.137C828.786 320.137 836.306 315.807 840.863 307.148L855.414 307.051C853.917 314.017 849.62 319.909 842.523 324.727C835.492 329.544 825.987 331.953 814.008 331.953C802.029 331.953 791.677 328.242 782.953 320.82C772.536 311.901 767.328 299.336 767.328 283.125C767.328 266.914 771.462 253.861 779.73 243.965C788.064 234.004 799.978 229.023 815.473 229.023C835.85 229.023 849.034 237.227 855.023 253.633C857.432 260.208 858.637 266.426 858.637 272.285C858.637 278.145 858.572 282.376 858.441 284.98ZM835.883 270.332C835.883 250.41 829.112 240.449 815.57 240.449C807.953 240.449 801.996 243.411 797.699 249.336C793.467 255.26 791.156 263.464 790.766 273.945H835.785C835.85 272.708 835.883 271.504 835.883 270.332ZM948.188 236.641C953.982 229.805 961.501 226.387 970.746 226.387C973.871 226.387 976.605 227.559 978.949 229.902C981.358 232.181 982.562 235.046 982.562 238.496C982.562 241.882 981.521 244.583 979.438 246.602C977.419 248.555 974.978 249.531 972.113 249.531C969.249 249.531 966.807 248.717 964.789 247.09C962.836 245.462 961.762 242.956 961.566 239.57C959.223 240.482 957.074 241.849 955.121 243.672C959.027 249.336 960.98 255.749 960.98 262.91C960.98 270.007 959.874 275.801 957.66 280.293C955.512 284.72 952.549 288.529 948.773 291.719C945.062 294.844 940.733 297.253 935.785 298.945C930.837 300.638 926.378 301.484 922.406 301.484C918.5 301.484 915.538 301.387 913.52 301.191C908.832 302.233 905.674 304.219 904.047 307.148C903.591 307.865 903.363 308.678 903.363 309.59C903.363 311.543 905.121 312.943 908.637 313.789C912.152 314.635 918.012 315.417 926.215 316.133C934.483 316.784 941.286 317.598 946.625 318.574C952.029 319.486 956.684 320.951 960.59 322.969C968.858 327.331 972.992 334.753 972.992 345.234C972.992 355.716 967.882 364.082 957.66 370.332C947.439 376.647 934.939 379.805 920.16 379.805C896.983 379.805 882.497 373.913 876.703 362.129C874.945 358.548 874.066 354.609 874.066 350.312C874.066 339.245 880.805 330.26 894.281 323.359C889.659 320.625 887.348 316.393 887.348 310.664C887.348 304.935 890.961 300.443 898.188 297.188C892.068 294.844 887.25 290.677 883.734 284.688C880.219 278.633 878.461 272.48 878.461 266.23C878.461 254.512 882.66 245.397 891.059 238.887C899.522 232.311 909.451 229.023 920.844 229.023C932.237 229.023 941.352 231.562 948.188 236.641ZM920.16 290.254C928.754 290.254 934.711 285.697 938.031 276.582C939.203 273.457 939.789 269.583 939.789 264.961C939.789 256.367 937.901 250.02 934.125 245.918C930.349 241.816 925.694 239.766 920.16 239.766C911.111 239.766 904.893 244.355 901.508 253.535C900.336 256.855 899.75 260.794 899.75 265.352C899.75 273.685 901.768 279.935 905.805 284.102C909.906 288.203 914.691 290.254 920.16 290.254ZM904.73 329.512C898.285 332.962 895.062 338.822 895.062 347.09C895.062 353.926 897.797 359.134 903.266 362.715C908.734 366.296 915.928 368.086 924.848 368.086C938.845 368.086 948.057 364.375 952.484 356.953C953.917 354.674 954.633 352.103 954.633 349.238C954.633 339.798 946.56 334.329 930.414 332.832C925.336 332.311 920.583 331.855 916.156 331.465C911.729 331.074 907.921 330.423 904.73 329.512ZM989.984 319.258C995.583 319.258 999.099 318.704 1000.53 317.598C1001.96 316.426 1002.81 315.189 1003.07 313.887C1003.4 312.585 1003.56 310.957 1003.56 309.004V255.195C1003.56 250.508 1003.14 247.448 1002.29 246.016C1001.51 244.583 999.327 243.867 995.746 243.867H989.789V233.125C995.974 233.125 1000.76 232.669 1004.14 231.758C1007.6 230.781 1010.04 230.098 1011.47 229.707C1012.97 229.251 1014.56 229.023 1016.25 229.023C1019.57 229.023 1021.79 230 1022.89 231.953C1024.07 233.906 1024.65 237.096 1024.65 241.523V243.477C1030.25 236.901 1036.6 232.474 1043.7 230.195C1046.23 229.414 1048.77 229.023 1051.31 229.023C1056.2 229.023 1059.97 230.423 1062.64 233.223C1065.38 236.022 1066.74 239.473 1066.74 243.574C1066.74 247.676 1065.44 251.029 1062.84 253.633C1060.23 256.237 1057.07 257.539 1053.36 257.539C1049.72 257.539 1046.69 256.237 1044.28 253.633C1041.94 251.029 1040.9 247.773 1041.16 243.867C1038.49 244.258 1035.62 245.495 1032.56 247.578C1029.57 249.596 1026.93 252.363 1024.65 255.879V308.125C1024.65 310.599 1024.85 312.585 1025.24 314.082C1025.69 315.514 1026.83 316.751 1028.66 317.793C1030.54 318.77 1036.14 319.258 1045.45 319.258V330H989.984V319.258ZM1162.93 306.66C1162.93 314.408 1164.46 318.281 1167.52 318.281C1170.45 318.281 1172.6 317.305 1173.97 315.352C1175.34 313.333 1176.02 309.72 1176.02 304.512H1186.27C1186.34 305.358 1186.37 306.693 1186.37 308.516C1186.37 314.375 1184.91 319.453 1181.98 323.75C1178.4 329.219 1172.7 331.953 1164.89 331.953C1159.81 331.953 1155.48 330.521 1151.9 327.656C1148.32 324.792 1145.84 321.016 1144.48 316.328C1135.04 326.745 1123.09 331.953 1108.64 331.953C1100.69 331.953 1093.76 329.642 1087.84 325.02C1081.98 320.332 1079.05 313.822 1079.05 305.488C1079.05 291.035 1089.72 280.358 1111.08 273.457C1124.62 269.16 1132.73 266.198 1135.39 264.57C1138.06 262.878 1139.79 261.185 1140.57 259.492C1141.42 257.734 1141.84 255.781 1141.84 253.633C1141.84 249.792 1139.95 246.602 1136.18 244.062C1132.4 241.458 1127.48 240.156 1121.43 240.156C1115.38 240.156 1110.04 241.784 1105.41 245.039C1108.67 247.448 1110.3 250.54 1110.3 254.316C1110.3 258.092 1109.03 261.12 1106.49 263.398C1104.01 265.677 1100.99 266.816 1097.41 266.816C1093.89 266.816 1090.96 265.742 1088.62 263.594C1086.34 261.445 1085.2 258.451 1085.2 254.609C1085.2 246.992 1089.04 240.84 1096.72 236.152C1104.4 231.4 1113.75 229.023 1124.75 229.023C1144.41 229.023 1156.42 235.404 1160.79 248.164C1162.22 252.396 1162.93 257.279 1162.93 262.812V306.66ZM1119.87 282.344C1114.14 284.818 1109.84 288.008 1106.98 291.914C1104.11 295.755 1102.68 299.954 1102.68 304.512C1102.68 309.069 1103.92 312.52 1106.39 314.863C1108.86 317.207 1111.96 318.379 1115.67 318.379C1123.22 318.379 1129.47 315.742 1134.42 310.469C1139.37 305.13 1141.84 297.708 1141.84 288.203V273.164C1137.67 275.312 1133.25 277.266 1128.56 279.023C1123.94 280.781 1121.04 281.888 1119.87 282.344ZM1190.67 319.062C1197.05 319.062 1201.18 318.444 1203.07 317.207C1204.96 315.97 1206.16 314.668 1206.68 313.301C1207.27 311.868 1207.56 310.176 1207.56 308.223V205.293C1207.56 201.061 1206.78 198.392 1205.22 197.285C1202.61 195.397 1197.76 194.453 1190.67 194.453V183.516H1224.36L1308.15 289.863V205.293C1308.15 200.996 1307.4 198.327 1305.9 197.285C1303.3 195.397 1298.48 194.453 1291.45 194.453V183.516H1340.67V194.453C1334.29 194.453 1330.15 195.072 1328.27 196.309C1326.38 197.546 1325.14 198.88 1324.55 200.312C1324.03 201.68 1323.77 203.34 1323.77 205.293V330H1311.76L1223.19 217.598V308.223C1223.19 312.454 1223.97 315.124 1225.53 316.23C1228.14 318.118 1233.02 319.062 1240.18 319.062V330H1190.67V319.062ZM1425.63 313.984C1417.49 325.964 1406.62 331.953 1393.01 331.953C1383.18 331.953 1375.53 328.926 1370.06 322.871C1364.59 316.816 1361.86 307.767 1361.86 295.723V255.195C1361.86 250.508 1361.44 247.448 1360.59 246.016C1359.81 244.583 1357.63 243.867 1354.05 243.867H1351.51V233.125C1357.5 233.125 1361.83 232.669 1364.5 231.758C1367.23 230.781 1369.18 230.098 1370.36 229.707C1371.53 229.251 1372.96 229.023 1374.65 229.023C1377.97 229.023 1380.19 230.065 1381.29 232.148C1382.4 234.167 1382.95 237.422 1382.95 241.914V296.406C1382.95 303.568 1383.7 308.451 1385.2 311.055C1388.06 316.068 1392.98 318.574 1399.95 318.574C1404.63 318.574 1409.26 316.719 1413.81 313.008C1418.37 309.297 1421.59 304.967 1423.48 300.02V255.195C1423.35 250.378 1422.89 247.285 1422.11 245.918C1421.33 244.551 1419.15 243.867 1415.57 243.867H1410V233.125C1416.19 233.125 1420.94 232.669 1424.26 231.758C1427.65 230.781 1430.06 230.098 1431.49 229.707C1432.92 229.251 1434.48 229.023 1436.18 229.023C1439.5 229.023 1441.71 230 1442.82 231.953C1443.99 233.906 1444.57 237.096 1444.57 241.523V304.023C1444.57 310.339 1444.87 314.245 1445.45 315.742C1446.49 318.607 1449.1 320.039 1453.27 320.039C1455.48 320.039 1457.37 319.681 1458.93 318.965V328.438C1455.8 330.781 1451.54 331.953 1446.14 331.953C1434.81 331.953 1427.97 325.964 1425.63 313.984ZM1510.2 331.953C1489.69 331.953 1479.44 320.56 1479.44 297.773V248.945C1479.44 246.406 1479.11 244.746 1478.46 243.965C1477.88 243.118 1476.57 242.695 1474.55 242.695H1466.55V230.977H1470.16C1475.11 230.977 1478.72 229.414 1481 226.289C1483.34 223.164 1484.61 218.021 1484.81 210.859L1484.91 202.168H1500.53V230.977H1530.51V242.695H1500.53V297.48C1500.53 309.59 1503.33 316.816 1508.93 319.16C1510.49 319.811 1512.05 320.137 1513.62 320.137C1520.45 320.137 1524.91 314.505 1527 303.242H1538.32C1537.67 316.589 1532.11 325.443 1521.62 329.805C1518.24 331.237 1514.43 331.953 1510.2 331.953ZM1551.31 319.258C1556.91 319.258 1560.43 318.704 1561.86 317.598C1563.29 316.426 1564.14 315.189 1564.4 313.887C1564.72 312.585 1564.89 310.957 1564.89 309.004V255.195C1564.89 250.508 1564.46 247.448 1563.62 246.016C1562.84 244.583 1560.65 243.867 1557.07 243.867H1551.12V233.125C1557.3 233.125 1562.09 232.669 1565.47 231.758C1568.92 230.781 1571.36 230.098 1572.8 229.707C1574.29 229.251 1575.89 229.023 1577.58 229.023C1580.9 229.023 1583.12 230 1584.22 231.953C1585.39 233.906 1585.98 237.096 1585.98 241.523V243.477C1591.58 236.901 1597.93 232.474 1605.02 230.195C1607.56 229.414 1610.1 229.023 1612.64 229.023C1617.52 229.023 1621.3 230.423 1623.97 233.223C1626.7 236.022 1628.07 239.473 1628.07 243.574C1628.07 247.676 1626.77 251.029 1624.16 253.633C1621.56 256.237 1618.4 257.539 1614.69 257.539C1611.05 257.539 1608.02 256.237 1605.61 253.633C1603.27 251.029 1602.22 247.773 1602.48 243.867C1599.82 244.258 1596.95 245.495 1593.89 247.578C1590.9 249.596 1588.26 252.363 1585.98 255.879V308.125C1585.98 310.599 1586.18 312.585 1586.57 314.082C1587.02 315.514 1588.16 316.751 1589.98 317.793C1591.87 318.77 1597.47 319.258 1606.78 319.258V330H1551.31V319.258ZM1663.91 210.957C1659.68 210.957 1656.07 209.557 1653.07 206.758C1650.14 203.893 1648.68 200.41 1648.68 196.309C1648.68 192.142 1650.17 188.626 1653.17 185.762C1656.16 182.832 1659.74 181.367 1663.91 181.367C1668.08 181.367 1671.66 182.832 1674.65 185.762C1677.65 188.626 1679.14 192.142 1679.14 196.309C1679.14 200.41 1677.65 203.893 1674.65 206.758C1671.72 209.557 1668.14 210.957 1663.91 210.957ZM1639.01 319.258C1645.06 319.258 1648.84 318.704 1650.34 317.598C1651.9 316.426 1652.84 315.189 1653.17 313.887C1653.49 312.585 1653.66 310.957 1653.66 309.004V255.195C1653.66 250.508 1653.23 247.448 1652.39 246.016C1651.61 244.583 1649.42 243.867 1645.84 243.867H1638.81V233.125C1645.19 233.125 1650.21 232.669 1653.85 231.758C1657.5 230.781 1660.07 230.098 1661.57 229.707C1663.06 229.251 1664.69 229.023 1666.45 229.023C1669.83 229.023 1672.05 230.033 1673.09 232.051C1674.2 234.004 1674.75 237.161 1674.75 241.523V309.004C1674.75 313.105 1675.4 315.677 1676.7 316.719C1678.92 318.411 1683.12 319.258 1689.3 319.258V330H1639.01V319.258Z" fill="#2D2D2D"/>
</svg>
