<svg xmlns="http://www.w3.org/2000/svg" width="186" height="28" fill="none" viewBox="0 0 186 28">
  <path stroke="#452372" stroke-linecap="round" stroke-linejoin="round" stroke-miterlimit="10" d="M17.38 26.811H1.68a.68.68 0 0 1-.68-.683V4.3a.68.68 0 0 1 .679-.683h6.37c0-1.439 1.17-2.616 2.6-2.616 1.444 0 2.6 1.177 2.6 2.616h6.37a.68.68 0 0 1 .679.683v8.909"/>
  <path stroke="#452372" stroke-linecap="round" stroke-linejoin="round" stroke-miterlimit="10" d="M13.249 3.616h2.672v2.5H5.507v-2.5h2.542M8.8 8.732H3.615v5.217H8.8V8.732Zm2.224 1.322h6.89m-6.89 2.573h6.89M8.8 16.987H3.615v5.217H8.8v-5.217Zm2.224 1.323h4.507m-4.507 2.571h3.453M27 22.204C27 25.198 24.588 27 21.598 27s-5.402-1.788-5.402-4.796c0-2.994 3.394-6.075 5.402-6.075 2.123 0 5.402 3.067 5.402 6.075Zm-7.901-8.299s2.499.989 2.499 2.224c0 0 .043-3.648 3.409-3.793"/>
  <path stroke="#452372" stroke-linecap="round" stroke-linejoin="round" stroke-miterlimit="10" d="M22.06 25.503s3.149-.683 3.51-3.299"/>
  <path fill="#000" d="M50.578 11.348c-.068-.605-.35-1.074-.844-1.406-.494-.337-1.116-.505-1.866-.505-.537 0-1.002.085-1.394.255-.392.167-.696.397-.914.69-.213.29-.32.62-.32.992 0 .31.073.58.218.805.15.226.343.415.582.569a4.4 4.4 0 0 0 .78.377c.277.098.543.179.799.243l1.278.332a9.81 9.81 0 0 1 1.285.416 5.15 5.15 0 0 1 1.22.69c.376.286.678.64.908 1.061.235.422.352.927.352 1.515 0 .742-.192 1.4-.575 1.975-.38.576-.931 1.03-1.656 1.362-.72.332-1.591.498-2.614.498-.98 0-1.828-.155-2.544-.466-.716-.311-1.277-.752-1.681-1.323-.405-.576-.629-1.258-.672-2.046h1.982c.038.473.192.867.46 1.183.273.31.62.543 1.042.696.426.15.893.224 1.4.224.558 0 1.055-.087 1.49-.262.438-.179.783-.426 1.035-.741.251-.32.377-.693.377-1.12 0-.387-.11-.704-.332-.951-.218-.248-.514-.452-.889-.614a8.682 8.682 0 0 0-1.26-.428l-1.546-.422c-1.048-.286-1.88-.705-2.493-1.26-.61-.553-.914-1.286-.914-2.198 0-.755.205-1.413.614-1.976.409-.562.963-.999 1.662-1.31.698-.315 1.487-.473 2.365-.473.886 0 1.668.156 2.346.467.681.31 1.218.74 1.61 1.285.392.54.597 1.163.614 1.866h-1.905Zm8.426 9.85c-.92 0-1.723-.21-2.41-.633a4.267 4.267 0 0 1-1.597-1.77c-.38-.759-.57-1.645-.57-2.66 0-1.018.19-1.908.57-2.671a4.257 4.257 0 0 1 1.598-1.777c.686-.422 1.489-.633 2.41-.633.92 0 1.723.21 2.41.633a4.261 4.261 0 0 1 1.597 1.777c.38.763.57 1.653.57 2.672 0 1.014-.19 1.9-.57 2.659a4.267 4.267 0 0 1-1.598 1.77c-.686.422-1.49.633-2.41.633Zm.007-1.604c.596 0 1.09-.158 1.483-.473.392-.316.682-.735.87-1.26a5.007 5.007 0 0 0 .287-1.732 4.99 4.99 0 0 0-.288-1.726c-.187-.528-.477-.952-.87-1.272-.391-.32-.886-.479-1.482-.479-.601 0-1.1.16-1.496.48-.392.319-.684.743-.876 1.271a5.091 5.091 0 0 0-.28 1.726c0 .63.093 1.208.28 1.732.192.525.484.944.876 1.26.396.315.895.473 1.496.473Zm7.578 5.088c-.286 0-.546-.024-.78-.07a2.457 2.457 0 0 1-.524-.141l.46-1.566c.35.094.66.134.933.121.273-.012.514-.115.722-.306.213-.192.401-.505.563-.94l.236-.652-3.592-9.946h2.046l2.486 7.62h.102l2.487-7.62h2.052L69.734 22.31a4.44 4.44 0 0 1-.716 1.298c-.29.358-.635.626-1.036.805-.4.18-.865.269-1.393.269ZM82.25 15.17V21h-1.912v-9.818h1.835v1.598h.121c.226-.52.58-.938 1.061-1.253.486-.315 1.098-.473 1.835-.473.67 0 1.255.14 1.758.422.503.277.893.69 1.17 1.24.277.55.415 1.23.415 2.039V21h-1.911v-6.015c0-.712-.186-1.268-.556-1.668-.371-.405-.88-.607-1.528-.607-.443 0-.837.095-1.183.287-.34.192-.611.473-.811.844-.196.366-.294.81-.294 1.33Zm15.066 1.757v-5.746h1.917V21h-1.879v-1.7h-.102a3.063 3.063 0 0 1-1.087 1.31c-.494.345-1.11.518-1.847.518-.63 0-1.189-.139-1.675-.416-.481-.28-.86-.696-1.138-1.246-.272-.55-.409-1.23-.409-2.04v-6.244h1.912v6.015c0 .669.185 1.201.556 1.598.37.396.852.594 1.444.594.358 0 .714-.09 1.068-.268.358-.18.654-.45.888-.812.239-.362.356-.823.352-1.38Zm9.068-5.746v1.534h-5.362v-1.534h5.362Zm-3.924-2.352h1.911v9.287c0 .37.055.65.166.837a.87.87 0 0 0 .428.378c.179.064.373.096.582.096.154 0 .288-.011.403-.032l.268-.052.345 1.58a3.17 3.17 0 0 1-.473.127c-.204.047-.46.073-.767.077a3.366 3.366 0 0 1-1.406-.269 2.414 2.414 0 0 1-1.055-.869c-.268-.392-.402-.884-.402-1.476V8.83ZM108.5 21v-9.818h1.847v1.56h.102c.179-.529.495-.944.946-1.247.456-.307.972-.46 1.547-.46a8.214 8.214 0 0 1 .812.044v1.829a3.424 3.424 0 0 0-.409-.07 3.894 3.894 0 0 0-.588-.045 2.49 2.49 0 0 0-1.208.287 2.13 2.13 0 0 0-.831.787 2.123 2.123 0 0 0-.307 1.137V21H108.5Zm6.908 0v-9.818h1.911V21h-1.911Zm.965-11.333c-.332 0-.618-.11-.856-.332a1.079 1.079 0 0 1-.352-.806c0-.315.117-.584.352-.805a1.2 1.2 0 0 1 .856-.34c.332 0 .616.114.85.34.239.221.358.49.358.805 0 .311-.119.58-.358.806a1.192 1.192 0 0 1-.85.332Zm7.653 11.531c-.95 0-1.769-.215-2.455-.645a4.276 4.276 0 0 1-1.572-1.797c-.367-.762-.55-1.636-.55-2.62 0-.997.188-1.877.563-2.64.375-.767.903-1.366 1.585-1.796.682-.43 1.485-.646 2.41-.646.745 0 1.41.139 1.994.415a3.577 3.577 0 0 1 1.413 1.151c.362.494.577 1.072.645 1.732h-1.86a2.223 2.223 0 0 0-.703-1.189c-.362-.332-.848-.498-1.457-.498-.533 0-1 .14-1.4.422-.396.277-.705.673-.927 1.189-.222.51-.332 1.116-.332 1.815 0 .716.108 1.334.326 1.854.217.52.524.922.92 1.208.401.285.872.428 1.413.428.362 0 .69-.066.984-.198a2.01 2.01 0 0 0 .748-.582c.204-.251.347-.554.428-.907h1.86a3.614 3.614 0 0 1-.62 1.7c-.345.498-.807.89-1.387 1.176-.575.285-1.251.428-2.026.428Zm6.077-.198v-9.818h1.911V21h-1.911Zm.965-11.333c-.332 0-.618-.11-.856-.332a1.079 1.079 0 0 1-.352-.806c0-.315.117-.584.352-.805a1.2 1.2 0 0 1 .856-.34c.333 0 .616.114.851.34.238.221.357.49.357.805 0 .311-.119.58-.357.806a1.195 1.195 0 0 1-.851.332Zm7.653 11.531c-.92 0-1.723-.21-2.41-.633a4.272 4.272 0 0 1-1.598-1.77c-.379-.759-.568-1.645-.568-2.66 0-1.018.189-1.908.568-2.671.38-.763.912-1.355 1.598-1.777.687-.422 1.49-.633 2.41-.633.921 0 1.724.21 2.41.633a4.257 4.257 0 0 1 1.598 1.777c.379.763.569 1.653.569 2.672 0 1.014-.19 1.9-.569 2.659a4.265 4.265 0 0 1-1.598 1.77c-.686.422-1.489.633-2.41.633Zm.007-1.604c.596 0 1.091-.158 1.483-.473.392-.316.681-.735.869-1.26a5.002 5.002 0 0 0 .288-1.732 4.99 4.99 0 0 0-.288-1.726c-.188-.528-.477-.952-.869-1.272-.392-.32-.887-.479-1.483-.479-.601 0-1.1.16-1.496.48-.392.319-.684.743-.876 1.271a5.104 5.104 0 0 0-.281 1.726c0 .63.094 1.208.281 1.732.192.525.484.944.876 1.26.396.315.895.473 1.496.473Zm8.615-4.424V21h-1.912v-9.818h1.835v1.598h.121a2.81 2.81 0 0 1 1.061-1.253c.486-.315 1.098-.473 1.835-.473.669 0 1.255.14 1.758.422.503.277.892.69 1.169 1.24s.416 1.23.416 2.039V21h-1.911v-6.015c0-.712-.186-1.268-.556-1.668-.371-.405-.88-.607-1.528-.607-.443 0-.837.095-1.183.287a2.064 2.064 0 0 0-.811.844c-.196.366-.294.81-.294 1.33Zm8.846 5.83v-9.818h1.911V21h-1.911Zm.965-11.333c-.332 0-.618-.11-.856-.332a1.079 1.079 0 0 1-.352-.806c0-.315.117-.584.352-.805a1.2 1.2 0 0 1 .856-.34c.333 0 .616.114.85.34.239.221.358.49.358.805 0 .311-.119.58-.358.806a1.19 1.19 0 0 1-.85.332Zm10.875 3.912-1.732.307a2.06 2.06 0 0 0-.346-.633 1.705 1.705 0 0 0-.626-.492c-.264-.128-.595-.192-.991-.192-.541 0-.993.121-1.355.364-.362.239-.543.548-.543.927 0 .328.121.592.364.793.243.2.635.364 1.176.492l1.56.358c.903.209 1.577.53 2.02.965.443.435.665 1 .665 1.694 0 .588-.171 1.112-.512 1.572-.336.456-.807.814-1.412 1.074-.601.26-1.298.39-2.091.39-1.099 0-1.996-.234-2.691-.703-.694-.473-1.12-1.144-1.278-2.014l1.847-.28c.115.48.352.845.71 1.092.358.243.824.365 1.4.365.626 0 1.127-.13 1.502-.39.375-.264.562-.586.562-.965 0-.307-.115-.565-.345-.774-.226-.209-.573-.366-1.042-.473l-1.662-.364c-.916-.209-1.594-.541-2.033-.997-.434-.456-.651-1.034-.651-1.733 0-.58.161-1.086.485-1.52.324-.436.772-.774 1.343-1.017.571-.247 1.225-.371 1.962-.371 1.061 0 1.896.23 2.506.69.609.456 1.012 1.068 1.208 1.835Zm6.876-2.397v1.534h-5.363v-1.534h5.363ZM170.98 8.83h1.912v9.287c0 .37.055.65.166.837a.866.866 0 0 0 .428.378c.179.064.373.096.582.096.153 0 .287-.011.402-.032l.269-.052.345 1.58a3.205 3.205 0 0 1-.473.127c-.205.047-.46.073-.767.077a3.36 3.36 0 0 1-1.406-.269 2.409 2.409 0 0 1-1.055-.869c-.268-.392-.403-.884-.403-1.476V8.83Zm8.896 12.387a4.008 4.008 0 0 1-1.687-.345 2.84 2.84 0 0 1-1.195-1.016c-.29-.443-.435-.987-.435-1.63 0-.554.106-1.01.32-1.368.213-.358.5-.641.862-.85a4.525 4.525 0 0 1 1.215-.473 11.85 11.85 0 0 1 1.368-.243l1.432-.166c.366-.047.632-.122.799-.224.166-.102.249-.268.249-.499v-.044c0-.559-.158-.991-.473-1.298-.311-.307-.776-.46-1.393-.46-.644 0-1.151.143-1.522.428-.366.281-.62.595-.76.94l-1.797-.41c.213-.596.525-1.077.934-1.444a3.78 3.78 0 0 1 1.425-.805 5.566 5.566 0 0 1 1.694-.256c.392 0 .807.047 1.246.14.444.09.857.256 1.24.5.388.242.706.59.953 1.041.247.447.371 1.03.371 1.745V21h-1.867v-1.342h-.077a2.7 2.7 0 0 1-.556.728 2.948 2.948 0 0 1-.952.595c-.388.157-.852.236-1.394.236Zm.416-1.534c.528 0 .98-.104 1.355-.313a2.2 2.2 0 0 0 .863-.818c.2-.341.3-.705.3-1.093v-1.266c-.068.068-.2.132-.396.192a6.197 6.197 0 0 1-.658.147c-.247.038-.488.075-.723.109l-.588.076a4.75 4.75 0 0 0-1.016.237 1.73 1.73 0 0 0-.729.48c-.179.204-.268.476-.268.817 0 .473.175.831.524 1.074.349.239.795.358 1.336.358Z"/>
</svg>
