<svg xmlns="http://www.w3.org/2000/svg" width="99" height="30" fill="none" viewBox="0 0 99 30">
  <rect width="99" height="30" fill="#F7F9FC" rx="12"/>
  <path fill="#000" fill-opacity=".5" d="M45.563 19.046v-7.682h1.528v7.681h-1.529Zm-3.074-3.08v-1.523h7.681v1.523h-7.68Zm14.128 5.193c-.713 0-1.353-.136-1.921-.409a3.49 3.49 0 0 1-1.352-1.136 3 3 0 0 1-.54-1.648h1.704c.042.5.264.91.665 1.233.402.322.883.483 1.444.483a2.28 2.28 0 0 0 1.187-.307 2.2 2.2 0 0 0 .818-.858c.2-.364.301-.778.301-1.244 0-.474-.102-.896-.306-1.267a2.266 2.266 0 0 0-.847-.875 2.392 2.392 0 0 0-1.227-.324c-.353 0-.707.06-1.063.182a2.44 2.44 0 0 0-.863.477l-1.608-.239.653-5.863h6.398v1.505h-4.938l-.37 3.256h.069c.227-.22.528-.403.903-.551a3.315 3.315 0 0 1 1.216-.222c.709 0 1.34.169 1.892.506.557.337.995.797 1.313 1.38.322.58.48 1.247.477 2 .004.754-.166 1.427-.511 2.018a3.703 3.703 0 0 1-1.42 1.397c-.603.338-1.294.506-2.075.506Zm10.143 0a4.693 4.693 0 0 1-1.534-.284 3.595 3.595 0 0 1-1.364-.91c-.409-.423-.736-.993-.983-1.71-.242-.715-.363-1.61-.363-2.681 0-1.015.1-1.917.3-2.705.205-.788.499-1.452.881-1.994a3.9 3.9 0 0 1 1.387-1.244c.541-.284 1.15-.426 1.824-.426.693 0 1.308.136 1.846.409.538.272.974.65 1.307 1.13a3.79 3.79 0 0 1 .642 1.642H68.97a2.24 2.24 0 0 0-.699-1.187c-.348-.307-.803-.46-1.363-.46-.853 0-1.517.37-1.995 1.113-.473.743-.712 1.775-.716 3.097h.086c.2-.33.447-.61.738-.841a3.3 3.3 0 0 1 .989-.54 3.479 3.479 0 0 1 1.159-.193 3.47 3.47 0 0 1 1.83.494c.549.326.986.777 1.312 1.353.326.575.489 1.234.489 1.977a4.06 4.06 0 0 1-.506 2.017 3.706 3.706 0 0 1-1.41 1.432c-.605.348-1.314.519-2.124.511Zm-.006-1.477c.447 0 .847-.11 1.2-.33.351-.22.63-.515.834-.886a2.53 2.53 0 0 0 .307-1.244c0-.447-.1-.855-.301-1.222a2.274 2.274 0 0 0-.818-.875 2.18 2.18 0 0 0-1.182-.324 2.27 2.27 0 0 0-1.688.727 2.597 2.597 0 0 0-.51.784 2.39 2.39 0 0 0-.183.927 2.469 2.469 0 0 0 1.136 2.108c.357.223.758.335 1.205.335ZM80.973 9.205c.519.003 1.03.098 1.534.284.504.185.958.488 1.364.909.409.42.735.988.977 1.704.246.712.371 1.599.375 2.66 0 1.018-.102 1.925-.307 2.721-.204.792-.498 1.46-.88 2.006-.38.545-.84.96-1.381 1.244-.542.284-1.152.426-1.83.426-.693 0-1.308-.136-1.846-.409a3.516 3.516 0 0 1-1.313-1.13 3.739 3.739 0 0 1-.63-1.671h1.733c.113.5.344.905.693 1.216.352.307.806.46 1.363.46.853 0 1.517-.371 1.995-1.114.477-.746.717-1.787.721-3.125h-.09a3.143 3.143 0 0 1-.74.841 3.32 3.32 0 0 1-.982.546 3.463 3.463 0 0 1-1.165.193c-.67 0-1.28-.165-1.83-.494a3.644 3.644 0 0 1-1.312-1.358c-.326-.576-.489-1.233-.489-1.972 0-.735.167-1.401.5-2a3.733 3.733 0 0 1 1.41-1.42c.605-.353 1.316-.525 2.13-.517Zm.006 1.477c-.444 0-.843.11-1.2.33a2.33 2.33 0 0 0-.834.88 2.48 2.48 0 0 0-.307 1.227c0 .451.098.86.295 1.228.201.363.474.653.818.869.349.212.747.318 1.194.318.333 0 .644-.064.931-.193.288-.129.54-.307.756-.534a2.6 2.6 0 0 0 .506-.784c.121-.292.182-.599.182-.92 0-.429-.103-.826-.307-1.194a2.39 2.39 0 0 0-.83-.886 2.173 2.173 0 0 0-1.204-.341Z"/>
  <g clip-path="url(#a)">
    <rect width="22.458" height="15.804" x="8.318" y="7.514" fill="#fff" rx="3"/>
    <path fill="#fff" d="M28.637 7.514h-18.18c-1.182 0-2.14.943-2.14 2.107v11.59c0 1.163.958 2.107 2.14 2.107h18.18c1.181 0 2.139-.944 2.139-2.107V9.62c0-1.164-.958-2.107-2.14-2.107Z"/>
    <path fill="#F93939" fill-rule="evenodd" d="M8.318 15.943h22.458v7.375H8.318v-7.375Z" clip-rule="evenodd"/>
    <path fill="#1A47B8" fill-rule="evenodd" d="M8.318 7.514h9.625v8.429H8.318V7.514Z" clip-rule="evenodd"/>
    <path fill="#fff" fill-rule="evenodd" d="m13.13 13.021-1.572.815.3-1.724-1.27-1.222 1.756-.251.786-1.57.786 1.57 1.757.253-1.272 1.22.301 1.724" clip-rule="evenodd"/>
  </g>
  <defs>
    <clipPath id="a">
      <rect width="22.458" height="15.804" x="8.318" y="7.514" fill="#fff" rx="3"/>
    </clipPath>
  </defs>
</svg>
