<svg width="973" height="548" fill="none" xmlns="http://www.w3.org/2000/svg"><path d="m416.947 246.554 11.997 14.503 3.498 32.007 33.49-10.502 31.49 6.001s1.125 7.622 8.498 4.501c12.996-5.501 1.999-7.501 1.999-7.501l-17.994-13.503-8.998-23.506 11.997-18.504 14.995-4.501 33.49 13.503s7.391 11.591 16.494 4.001c16.195-13.503 11.497-27.506 11.497-27.506h32.99l26.491-13.503 12.996-7.502 3.999 21.005v26.006l-9.497 41.009-22.493 35.508-24.992 31.007-53.484 25.506-31.49 8.502h-61.98l-49.485-8.502-47.985-21.505-43.986-29.007-26.492-38.508-11.497-18.504-12.995-58.013 3.998-43.01 20.494-52.512 28.991-29.006 25.492-35.508 15.995-32.507L356.466 10l4.999 52.512-8.498 29.006-34.989 43.51-14.995 35.008v53.012l10.497 10.502 9.497-31.507 10.996-13.003h14.996l15.495 5.501 4.498 14.504 7.498 6.501 28.991-6.501v-20.005l6.998-11.502 19.993-2.001 29.991 4.501h14.995v3.001h-22.493l24.493 32.507-6.498 19.504-19.494 8.002-16.995-1.5-26.492-26.006-28.491 19.504-12.496 20.005s3.999 20.504 10.997 56.513c-1.5-28.007 12.496-61.014 12.496-61.014l24.492-4.001Z" fill="#A1775E"/><path d="m453.436 184.04 20.494-4.501 14.495 15.003 41.987 20.005h46.985s-4.498 23.005-13.496 34.007c-7.852 9.603-33.489-14.503-33.489-14.503l-28.491-8.502-14.496 8.502-6.498 20.505 14.996 22.505 38.488 15.003s-10.497 13.336-19.494 17.004c-1.914.78-22.993-23.005-22.993-23.005l-34.489-3.001-26.992 11.503v-27.006c-.666-24.339-28.947-25.701-36.488-15.504-18.495 25.006-12.51 68.764-14.496 66.515-18.994-21.505-13.496-45.01-9.497-66.515l14.496-19.504 24.992-18.004 13.496 14.503 27.491 16.504 14.995-8.502 12.996-11.503-4.498-16.503-20.494-25.006Z" fill="#F0DFC1"/><path d="m458.934 161.035-1.999-37.508 12.496-15.504 36.489 3.001 37.988 20.004 39.487 2.001 51.984-6.002 24.992 13.003v27.506l-14.995 27.006-50.984 21.005-61.481-2-53.483-27.006-20.494-25.506Z" fill="#F0DFC1"/><path d="M495.423 62.013c-24.232 17.694-39.487 69.015-37.488 67.515 3.998-3.001 5.498-15.004 34.989-14.003 21.574.731 30.901 12.196 34.989 15.503 23.401 18.93 32.891 16.523 66.089 8.101l.39-.099c17.995-4.565 36.489-8.002 49.985 8.502 4.707 5.756 8.352 15.197 12.996 21.005 1.999 2.5 4.652-20.958 3.998-34.508-1.124-23.32-10.695-38.96-25.492-57.013-18.097-22.08-35.304-24.49-63.425-28.429l-.555-.077c-31.126-4.36-51.088-5.035-76.476 13.503Z" fill="#A1775E"/><path d="M630.881 205.045c-13.196 8.402-56.055 12.99-50.485 10.502 111.965-50.011 51.984-149.033 1.5-166.037-10.254-3.454 38.988 12.503 48.985 18.505 12.496 7.501 30.49 52.511 32.49 72.516 1.999 20.004-15.995 54.012-32.49 64.514ZM252.997 224.549c-7.714-30.531-5.997 50.624 50.487 98.522 111.463 94.521 246.422 45.51 265.916 35.508 9.628-4.94 71.976-40.509 77.474-104.023 1.258-14.526-68.476 140.031-241.924 110.024-68.275-11.811-137.421-82.518-151.953-140.031Z" fill="#000" fill-opacity=".1"/><path d="M641.869 191.066s23.993 71.516-30.99 135.03c-44.944 51.917-124.961 64.462-184.943 55.012-39.006-6.145-123.387-27.006-160.949-112.525-27.238-62.014-27.046-129.896 40.469-188.042 39.487-34.007 43.986-85.019 48.484-74.016 4.055 9.919 26.492 62.013-21.493 111.524-27.493 32.508-31.991 55.513-31.991 73.017 0 68.015 60.481 82.018 60.481 82.018" stroke="#3F2D1A" stroke-width="10"/><path d="M359.958 294.589c-3.999-8.002 1.499-29.007 14.995-48.511 12.937-18.697 36.488-30.007 36.488-30.007" stroke="#3F2D1A" stroke-width="8"/><path d="M419.439 379.608s-20.321-4.561-31.99-27.507c-14.495-28.506-8.497-89.019 4.499-99.022 10.985-8.455 23.91-10.021 33.489 0 10.996 11.503 2.999 39.009 3.999 41.01.781 1.562 2.805 1.774 3.999.5 7.497-8.002 26.491-16.251 47.485-11.503 34.489 7.801 36.988 40.009 35.489 43.51M313.972 241.577s-.5-44.43 23.493-52.012c6.998-2.211 18.547-3.656 26.991 4.501 14.496 14.003-4.498 57.513-4.498 57.513" stroke="#3F2D1A" stroke-width="7"/><path d="M370.454 214.57s9.997-4 19.994-4c14.496 0 18.994 1.5 18.994 1.5" stroke="#3F2D1A" stroke-width="7"/><path d="M356.465 207.045c2.499-10.002-3.499-19.504-2.499-18.004 1.386 2.081 5.998 3.001 5.998 9.502 0 6.502-4.543 12.683-3.499 8.502Z" fill="#3F2D1A" stroke="#3F2D1A"/><path d="M408.943 267.583c.499-2.501.999-21.005.999-19.505 0 2.501 2 5.001 2 10.503 0 5.501-3.275 10.381-2.999 9.002ZM416.94 265.582c.499-2.5.5-18.504.5-17.004 0 2.501 2 4.001 2 9.502 0 5.502-2.776 8.881-2.5 7.502Z" fill="#3F2D1A" stroke="#3F2D1A" stroke-width="2"/><path d="M444.431 177.563s12.047 3.977 18.994 4.501c4.283.323 14.996 0 14.996 0" stroke="#3F2D1A" stroke-width="7"/><path d="M647.376 188.541c-10.497 22.005-131.459 60.013-184.443-22.505-3.584-5.582-32.967 8.984-26.492 17.004 81.975 101.523 184.443 56.512 207.935 46.51 14.635-6.231 7.294-50.011 3-41.009Z" fill="#452372" stroke="#452372" stroke-width="5"/><path d="M723.852 284.062c-2.708-6.501-26.992 15.004-87.473-59.013-9.497-4.334-54.645-2.418-44.486 17.504 37.488 73.516 83.474 87.02 93.97 87.02 5.513 0 40.696-39.009 37.989-45.511Z" fill="#452372"/><path d="M440.44 170.537c13.496 52.512 161.949 105.023 215.433 36.008-.723 11.324-1.991 22.923-12.88 26.469.918.915 4.135 4.675 4.135 4.675-1.081 3.892-8.166 9.158-18.747 12.366-16.494 5.001-35.489 7.001-34.489-2.501-4.998 4.001-20.863 1.515-31.99-2-112.465 2-121.462-75.017-121.462-75.017Z" fill="#000" fill-opacity=".1"/><path d="M505.751 100.142c0-15.003 21.993-15.003 21.993 0 0 15.004-21.993 15.003-21.993 0ZM600.222 114.145c0-14.003 21.993-15.503 21.993 0 0 15.504-21.993 14.003-21.993 0ZM540.24 130.149c-.702 7.732 12.996 10.502 12.996 10.502s.689 6.303-2.999 11.003c-2.838 3.617-4.178 4.807-6.837 5.904-2.466 1.017-6.998 1.27-8.997 1.001-2-.27-5.998-1.501-8.998-5.405-2.999-3.904-2.999-5.598-2.999-7.598 0-2.001.09-5.405-.66-3.905-.5 1.001.061 4.522 1 7.502 1.127 3.578 3.505 5.334 5.659 8.405.808 1.153 1.339 2.097 1.339 3.098 0 2.262-.27 5.148 1.499 8.502 2.393 4.533 4.923 7.191 9.497 9.502 4.48 2.263 8.481 2.674 13.496 2.5 6.051-.21 10.356-1.081 14.496-5.501 2.686-2.868 3.203-6.812 5.498-10.002.73-1.015 1.705-1.535 2.499-2.501 1.645-2 5.998-4.501 7.498-7.501.999-2.001.5-5.502.5-4.501 0 1-1.195 3.787-2.999 6.001-1.805 2.214-4.499 3.734-5.838 4.404-1 .5-3.499 1.404-8.997 1-5.507-.404-9.972-4.145-11.657-9.405-1.627-5.076.999-12.503.999-12.503s14.894 3.001 15.995-6.001c.704-5.754-8.757-9.697-14.495-10.502-5.87-.825-16.995.5-17.495 6.001Z" fill="#3F2D1A"/><path d="M505.751 100.142c0-15.003 21.993-15.003 21.993 0 0 15.004-21.993 15.003-21.993 0ZM600.222 114.145c0-14.003 21.993-15.503 21.993 0 0 15.504-21.993 14.003-21.993 0ZM540.24 130.149c-.702 7.732 12.996 10.502 12.996 10.502s.689 6.303-2.999 11.003c-2.838 3.617-4.178 4.807-6.837 5.904-2.466 1.017-6.998 1.27-8.997 1.001-2-.27-5.998-1.501-8.998-5.405-2.999-3.904-2.999-5.598-2.999-7.598 0-2.001.09-5.405-.66-3.905-.5 1.001.061 4.522 1 7.502 1.127 3.578 3.505 5.334 5.659 8.405.808 1.153 1.339 2.097 1.339 3.098 0 2.262-.27 5.148 1.499 8.502 2.393 4.533 4.923 7.191 9.497 9.502 4.48 2.263 8.481 2.674 13.496 2.5 6.051-.21 10.356-1.081 14.496-5.501 2.686-2.868 3.203-6.812 5.498-10.002.73-1.015 1.705-1.535 2.499-2.501 1.645-2 5.998-4.501 7.498-7.501.999-2.001.5-5.502.5-4.501 0 1-1.195 3.787-2.999 6.001-1.805 2.214-4.499 3.734-5.838 4.404-1 .5-3.499 1.404-8.997 1-5.507-.404-9.972-4.145-11.657-9.405-1.627-5.076.999-12.503.999-12.503s14.894 3.001 15.995-6.001c.704-5.754-8.757-9.697-14.495-10.502-5.87-.825-16.995.5-17.495 6.001Z" stroke="#3F2D1A" stroke-width="5"/><path d="M608.219 212.167c-38.755 11.338-109.926 1.66-139.954-39.509-12.909-17.699-14.044-41.209-6.792-63.014 3.127-9.403 7.813-18.49 13.788-26.656 9.14-12.492 21.294-22.831 35.489-28.856 16.494-7.002 74.9-18.017 117.463 14.503 9.167 7.004 22.456 25.016 28.991 43.51 3.67 10.388 3.606 14.715 3.999 26.005 1.005 28.891-12.02 62.033-52.984 74.017Z" stroke="#3F2D1A" stroke-width="10"/><path d="M488.257 134.15c-8.078-3.545-23.593-11.503-20.994-10.503 2.6 1 13.622 4.558 21.494 8.002 8.158 3.57 24.661 11.545 22.492 11.002-1.999-.5-14.495-4.773-22.992-8.501ZM488.756 147.152c-8.649-1.73-22.492-6.001-20.993-6.001 1.5 0 14.158 1.416 22.493 3.501 9.997 2.5 23.228 6.001 20.993 6.001-3.498 0-12.496-1.5-22.493-3.501ZM492.755 159.155c-8.809-.441-24.992-2.5-23.492-2.5 1.499 0 14.912.07 23.492.5 9.997.5 22.729 2.5 20.494 2.5a388.31 388.31 0 0 1-20.494-.5ZM621.715 152.153c-9.497.5-25.992 0-24.492 0 1.499 0 13.995-1.5 21.993-2 7.497-.469 24.218.278 21.994.5-5 .5-9.499.974-19.495 1.5ZM612.218 175.659c-9.109-2.734-25.995-9.002-21.495-8.002s15.392 3.466 22.994 6.001c7.5 2.501 21.172 7.505 18.995 7.002-6.498-1.5-10.495-2-20.494-5.001ZM617.216 164.657c-9.463-.947-28.492-4.698-21.994-4.35 6.499.349 16.496 1.32 20.994 1.849 8.497 1 23.715 4.748 21.493 4.501-8.997-1-10.496-1-20.493-2Z" fill="#3F2D1A" stroke="#3F2D1A"/><path d="M449.769 83.138c8.499-12.958 25.991-1 25.991-1l-14.495 27.006s-21.993-10.002-11.496-26.006ZM680.197 119.646c2.805 16.838-18.494 22.005-18.494 22.005l-5.499-32.507s21.494-4.501 23.993 10.502Z" fill="#3F2D1A" stroke="#3F2D1A" stroke-width="5"/><path d="M539.909 170.367c9.497 8.502 23.495 2.62 21.993 2.001-8.497-3.501-23.235-3.112-21.993-2.001Z" stroke="#B50000" stroke-width="7"/><path d="M621.884 112.524c0-4.668-6.998-4.668-6.998 0s6.998 4.668 6.998 0ZM526.913 98.52c0-4.667-6.998-4.667-6.998 0 0 4.669 6.998 4.669 6.998 0Z" fill="#fff"/><path d="M544.901 238.035c18.495 14.503 25.499 13.52 47.492 12.02 0 0 11.002 24.523 23.492 36.008 11.422 10.502-56.988 15.986-89.978 5.484-32.989-10.503-52.983-38.509-36.988-57.513 15.995-19.004 45.045-4.577 55.982 4.001ZM464.426 191.524c-13.495-21.004-27.991-18.504-48.484-15.503-14.496 8.502-5.999 32.507 0 43.51 5.998 11.002 40.487 35.508 55.482 17.003 14.996-18.504 6.498-24.005-6.998-45.01Z" fill="#A1775E"/><path d="M471.423 234.575c-19.863 17.259-38.488 11.003-55.983-12.002-17.494-23.005-11.845-40.431-3.998-45.01 17.994-10.503 35.504.347 41.986 6.001 19.494 17.004 36.989 34.508 17.995 51.011ZM594.392 298.566c-25.492 5.501-49.484 2.704-77.483-10.479-16.995-8.002-47.985-26.506-30.991-51.011 10.809-15.586 31.719-10.543 50.984 0 41.995 22.981 59.49 13.479 59.49 13.479" stroke="#3F2D1A" stroke-width="8"/><path d="M460.482 239.593c-2.499-4.001-14.395-15.003-13.496-13.503 1.286 2.144 2.5 5.001 7.498 9.502s6.743 5.194 5.998 4.001ZM470.479 231.091c-2.499-4.001-4.95-8.502-12.996-14.003-.881-.602 3.048 5.641 8.046 10.142 4.999 4.501 5.695 5.054 4.95 3.861ZM502.969 252.096c-2.999-5.501-15.846-14.963-14.947-13.463 1.286 2.145 3.951 5.711 6.45 7.962 2.499 2.25 9.17 6.736 8.497 5.501ZM511.966 243.094c-4.998-5.501-5.402-7.961-13.447-13.463-.881-.602 4.227 6.461 6.449 8.462 2.222 2 7.944 6.041 6.998 5.001Z" fill="#3F2D1A" stroke="#3F2D1A" stroke-width="2"/><path d="M6.328 496.406c4.948 0 8.177-.468 9.688-1.406 1.51-.99 2.474-2.031 2.89-3.125.417-1.094.625-2.422.625-3.984l-.078-82.969c0-3.386-.599-5.495-1.797-6.328-2.031-1.459-5.807-2.188-11.328-2.188v-8.594h43.906v8.594c-4.948 0-8.177.495-9.687 1.485-1.51.937-2.474 1.953-2.89 3.047-.417 1.093-.626 2.421-.626 3.984l.078 82.969c0 3.385.6 5.494 1.797 6.328 2.032 1.458 5.808 2.187 11.328 2.187V505H6.328v-8.594Zm104.922-60.468c-8.542 0-15.469 2.656-20.781 7.968v44.297c0 3.229.52 5.261 1.562 6.094 1.823 1.406 5.26 2.109 10.313 2.109V505H62.656v-8.594c4.48 0 7.292-.442 8.438-1.328 1.146-.937 1.849-1.927 2.11-2.969.26-1.041.39-2.343.39-3.906v-42.578c0-3.75-.339-6.198-1.016-7.344-.625-1.146-2.396-1.719-5.312-1.719H62.5v-8.593c4.896 0 8.724-.365 11.484-1.094 2.813-.781 4.792-1.328 5.938-1.641a13.1 13.1 0 0 1 3.828-.546c2.76 0 4.557.807 5.39 2.421.886 1.563 1.329 4.089 1.329 7.579 5.573-4.688 12.031-7.865 19.375-9.532 2.448-.573 4.844-.859 7.187-.859 16.875 0 25.313 11.172 25.313 33.515v30.235c0 3.437.495 5.703 1.484 6.797.99 1.041 3.698 1.562 8.125 1.562V505H115v-8.594c4.74 0 7.578-.468 8.516-1.406.989-.99 1.562-2.005 1.718-3.047.157-1.042.235-2.344.235-3.906v-29.219c0-7.239-.677-12.213-2.031-14.922-2.657-5.312-6.719-7.968-12.188-7.968Zm84.297 70.624c-16.406 0-24.609-9.114-24.609-27.343v-39.063c0-2.031-.261-3.359-.782-3.984-.468-.677-1.51-1.016-3.125-1.016h-6.406v-9.375h2.891c3.958 0 6.849-1.25 8.672-3.75 1.874-2.5 2.89-6.614 3.046-12.343l.078-6.954h12.5v23.047h23.985v9.375h-23.985v43.828c0 9.688 2.24 15.469 6.719 17.344 1.25.521 2.5.781 3.75.781 5.469 0 9.037-4.505 10.703-13.515h9.063c-.521 10.677-4.974 17.76-13.359 21.25-2.709 1.146-5.756 1.718-9.141 1.718Zm106.406-37.578h-54.219c0 8.959 2.11 15.886 6.328 20.782 4.271 4.895 9.532 7.343 15.782 7.343 8.385 0 14.401-3.463 18.047-10.39l11.64-.078c-1.198 5.573-4.635 10.286-10.312 14.14-5.625 3.854-13.229 5.781-22.813 5.781-9.583 0-17.864-2.968-24.844-8.906-8.333-7.135-12.5-17.187-12.5-30.156 0-12.969 3.308-23.411 9.922-31.328 6.667-7.969 16.198-11.953 28.594-11.953 16.302 0 26.849 6.562 31.641 19.687 1.927 5.261 2.89 10.235 2.89 14.922 0 4.688-.052 8.073-.156 10.156Zm-18.047-11.718c0-15.938-5.416-23.907-16.25-23.907-6.094 0-10.859 2.37-14.297 7.11-3.385 4.739-5.234 11.302-5.547 19.687h36.016c.052-.989.078-1.953.078-2.89Zm89.844-26.954c4.635-5.468 10.651-8.203 18.047-8.203 2.5 0 4.687.938 6.562 2.813 1.927 1.823 2.891 4.114 2.891 6.875 0 2.708-.833 4.87-2.5 6.484-1.615 1.563-3.568 2.344-5.859 2.344-2.292 0-4.245-.651-5.86-1.953-1.562-1.302-2.422-3.307-2.578-6.016-1.875.729-3.594 1.823-5.156 3.282 3.125 4.531 4.687 9.661 4.687 15.39 0 5.677-.885 10.313-2.656 13.906a27.636 27.636 0 0 1-7.109 9.141c-2.969 2.5-6.433 4.427-10.391 5.781s-7.526 2.032-10.703 2.032c-3.125 0-5.495-.079-7.109-.235-3.75.833-6.276 2.422-7.578 4.766-.365.573-.547 1.224-.547 1.953 0 1.562 1.406 2.682 4.218 3.359 2.813.677 7.5 1.302 14.063 1.875 6.614.521 12.057 1.172 16.328 1.953 4.323.73 8.047 1.901 11.172 3.516 6.614 3.49 9.922 9.427 9.922 17.813 0 8.385-4.089 15.078-12.266 20.078-8.177 5.052-18.177 7.578-30 7.578-18.542 0-30.13-4.714-34.766-14.141-1.406-2.864-2.109-6.015-2.109-9.453 0-8.854 5.391-16.042 16.172-21.562-3.698-2.188-5.547-5.573-5.547-10.157 0-4.583 2.891-8.177 8.672-10.781-4.896-1.875-8.75-5.208-11.562-10-2.813-4.844-4.219-9.766-4.219-14.766 0-9.375 3.359-16.666 10.078-21.875 6.771-5.26 14.713-7.89 23.828-7.89s16.406 2.031 21.875 6.093Zm-22.422 42.891c6.875 0 11.641-3.646 14.297-10.937.937-2.5 1.406-5.599 1.406-9.297 0-6.875-1.51-11.953-4.531-15.235-3.021-3.281-6.745-4.922-11.172-4.922-7.239 0-12.213 3.672-14.922 11.016-.937 2.656-1.406 5.807-1.406 9.453 0 6.667 1.615 11.667 4.844 15 3.281 3.281 7.109 4.922 11.484 4.922Zm-12.344 31.406c-5.156 2.761-7.734 7.448-7.734 14.063 0 5.469 2.188 9.635 6.562 12.5 4.376 2.864 10.131 4.297 17.266 4.297 11.198 0 18.568-2.969 22.11-8.907 1.145-1.822 1.718-3.88 1.718-6.171 0-7.552-6.458-11.927-19.375-13.125a796.625 796.625 0 0 0-11.406-1.094c-3.542-.313-6.589-.833-9.141-1.563Zm68.204-8.203c4.479 0 7.291-.442 8.437-1.328 1.146-.937 1.823-1.927 2.031-2.969.261-1.041.391-2.343.391-3.906v-43.047c0-3.75-.339-6.198-1.016-7.344-.625-1.145-2.37-1.718-5.234-1.718h-4.766V427.5c4.948 0 8.776-.365 11.485-1.094 2.76-.781 4.713-1.328 5.859-1.64a13.067 13.067 0 0 1 3.828-.547c2.656 0 4.427.781 5.313 2.343.937 1.563 1.406 4.115 1.406 7.657v1.562c4.479-5.26 9.557-8.802 15.234-10.625a20.63 20.63 0 0 1 6.094-.937c3.906 0 6.927 1.12 9.062 3.359 2.188 2.24 3.282 5 3.282 8.281 0 3.282-1.042 5.964-3.125 8.047-2.084 2.084-4.61 3.125-7.578 3.125-2.917 0-5.339-1.041-7.266-3.125-1.875-2.083-2.708-4.687-2.5-7.812-2.135.312-4.427 1.302-6.875 2.968-2.396 1.615-4.505 3.829-6.328 6.641V487.5c0 1.979.156 3.568.469 4.766.364 1.145 1.276 2.135 2.734 2.968 1.51.782 5.99 1.172 13.437 1.172V505h-44.374v-8.594Zm138.359-10.078c0 6.198 1.224 9.297 3.672 9.297 2.343 0 4.062-.781 5.156-2.344 1.094-1.614 1.641-4.505 1.641-8.672h8.203c.052.677.078 1.745.078 3.203 0 4.688-1.172 8.75-3.516 12.188-2.864 4.375-7.422 6.562-13.672 6.562-4.062 0-7.526-1.145-10.39-3.437-2.865-2.292-4.844-5.313-5.938-9.063-7.552 8.334-17.109 12.5-28.672 12.5-6.354 0-11.901-1.848-16.64-5.546-4.688-3.75-7.031-8.959-7.031-15.625 0-11.563 8.541-20.105 25.624-25.625 10.834-3.438 17.318-5.808 19.454-7.11 2.135-1.354 3.515-2.708 4.14-4.062.677-1.406 1.016-2.969 1.016-4.688 0-3.073-1.511-5.625-4.531-7.656-3.021-2.083-6.953-3.125-11.797-3.125s-9.115 1.302-12.813 3.906c2.604 1.927 3.907 4.401 3.907 7.422s-1.016 5.443-3.047 7.266c-1.98 1.823-4.401 2.734-7.266 2.734-2.813 0-5.156-.859-7.031-2.578-1.823-1.719-2.735-4.115-2.735-7.187 0-6.094 3.073-11.016 9.219-14.766 6.146-3.802 13.62-5.703 22.422-5.703 15.729 0 25.339 5.104 28.828 15.312 1.146 3.386 1.719 7.292 1.719 11.719v35.078Zm-34.453-19.453c-4.584 1.979-8.021 4.531-10.313 7.656-2.291 3.073-3.437 6.433-3.437 10.078 0 3.646.989 6.407 2.968 8.282 1.98 1.875 4.454 2.812 7.422 2.812 6.042 0 11.042-2.109 15-6.328 3.959-4.271 5.938-10.208 5.938-17.813v-12.031a99.128 99.128 0 0 1-10.625 4.688 1316.9 1316.9 0 0 0-6.953 2.656Zm56.64 29.375c5.105 0 8.412-.495 9.922-1.484 1.511-.99 2.474-2.032 2.891-3.125.469-1.146.703-2.5.703-4.063v-82.344c0-3.385-.625-5.52-1.875-6.406-2.083-1.51-5.964-2.266-11.641-2.266v-8.75h26.954l67.031 85.079v-67.657c0-3.437-.599-5.573-1.797-6.406-2.083-1.51-5.938-2.266-11.563-2.266v-8.75h39.375v8.75c-5.104 0-8.411.495-9.922 1.485-1.51.989-2.5 2.057-2.968 3.203-.417 1.094-.625 2.422-.625 3.984V505h-9.61l-70.859-89.922v72.5c0 3.386.625 5.521 1.875 6.406 2.083 1.511 5.99 2.266 11.719 2.266V505h-39.61v-8.75Zm187.969-4.062c-6.51 9.583-15.208 14.374-26.094 14.374-7.864 0-13.984-2.421-18.359-7.265-4.375-4.844-6.562-12.083-6.562-21.719v-32.422c0-3.75-.339-6.198-1.016-7.344-.625-1.145-2.37-1.718-5.234-1.718h-2.032V427.5c4.792 0 8.255-.365 10.391-1.094 2.187-.781 3.75-1.328 4.687-1.64.938-.365 2.084-.547 3.438-.547 2.656 0 4.427.833 5.312 2.5.886 1.614 1.328 4.219 1.328 7.812v43.594c0 5.729.599 9.635 1.797 11.719 2.292 4.01 6.224 6.015 11.797 6.015 3.75 0 7.448-1.484 11.094-4.453 3.646-2.968 6.224-6.432 7.734-10.39v-35.86c-.104-3.854-.468-6.328-1.093-7.422-.625-1.093-2.37-1.64-5.235-1.64h-4.453V427.5c4.948 0 8.75-.365 11.406-1.094a467.295 467.295 0 0 1 5.782-1.64c1.145-.365 2.395-.547 3.75-.547 2.656 0 4.427.781 5.312 2.343.938 1.563 1.406 4.115 1.406 7.657v50c0 5.052.235 8.177.703 9.375.834 2.291 2.917 3.437 6.25 3.437 1.771 0 3.282-.286 4.532-.859v7.578c-2.5 1.875-5.912 2.812-10.235 2.812-9.062 0-14.531-4.791-16.406-14.374Zm67.656 14.374c-16.406 0-24.609-9.114-24.609-27.343v-39.063c0-2.031-.26-3.359-.781-3.984-.469-.677-1.511-1.016-3.125-1.016h-6.406v-9.375h2.89c3.958 0 6.849-1.25 8.672-3.75 1.875-2.5 2.891-6.614 3.047-12.343l.078-6.954h12.5v23.047h23.984v9.375h-23.984v43.828c0 9.688 2.24 15.469 6.719 17.344 1.25.521 2.5.781 3.75.781 5.468 0 9.036-4.505 10.703-13.515h9.062c-.52 10.677-4.974 17.76-13.359 21.25-2.708 1.146-5.755 1.718-9.141 1.718Zm32.891-10.156c4.479 0 7.292-.442 8.438-1.328 1.145-.937 1.822-1.927 2.031-2.969.26-1.041.39-2.343.39-3.906v-43.047c0-3.75-.338-6.198-1.015-7.344-.625-1.145-2.37-1.718-5.235-1.718h-4.765V427.5c4.948 0 8.776-.365 11.484-1.094a720.707 720.707 0 0 1 5.86-1.64 13.057 13.057 0 0 1 3.828-.547c2.656 0 4.427.781 5.312 2.343.938 1.563 1.406 4.115 1.406 7.657v1.562c4.48-5.26 9.558-8.802 15.235-10.625a20.62 20.62 0 0 1 6.093-.937c3.907 0 6.928 1.12 9.063 3.359 2.187 2.24 3.281 5 3.281 8.281 0 3.282-1.041 5.964-3.125 8.047-2.083 2.084-4.609 3.125-7.578 3.125-2.917 0-5.338-1.041-7.265-3.125-1.876-2.083-2.709-4.687-2.5-7.812-2.136.312-4.428 1.302-6.876 2.968-2.395 1.615-4.505 3.829-6.328 6.641V487.5c0 1.979.157 3.568.469 4.766.365 1.145 1.276 2.135 2.735 2.968 1.51.782 5.989 1.172 13.437 1.172V505H856.25v-8.594Zm90.078-86.64c-3.385 0-6.276-1.12-8.672-3.36-2.344-2.291-3.515-5.078-3.515-8.359 0-3.333 1.198-6.146 3.593-8.438 2.396-2.343 5.261-3.515 8.594-3.515 3.333 0 6.198 1.172 8.594 3.515 2.396 2.292 3.594 5.105 3.594 8.438 0 3.281-1.198 6.068-3.594 8.359-2.344 2.24-5.208 3.36-8.594 3.36Zm-19.922 86.64c4.844 0 7.865-.442 9.063-1.328 1.25-.937 2.005-1.927 2.265-2.969.261-1.041.391-2.343.391-3.906v-43.047c0-3.75-.339-6.198-1.016-7.344-.625-1.145-2.369-1.718-5.234-1.718h-5.625V427.5c5.104 0 9.115-.365 12.031-1.094 2.917-.781 4.974-1.328 6.172-1.64 1.198-.365 2.5-.547 3.906-.547 2.709 0 4.48.807 5.313 2.422.885 1.562 1.328 4.088 1.328 7.578v53.984c0 3.281.521 5.339 1.562 6.172 1.771 1.354 5.131 2.031 10.079 2.031V505h-40.235v-8.594Z" fill="#2D2D2D"/></svg>