<svg width="467" height="259" viewBox="0 0 467 259" fill="none" xmlns="http://www.w3.org/2000/svg">
<path d="M215.169 192.584C256.074 177.56 248.526 247.566 232.13 251.682C224.148 253.685 224.148 249.616 219.658 250.179C215.169 250.743 215.753 254.395 208.684 257.191C189.229 264.885 149.321 195.089 202.697 198.594" stroke="#452372" stroke-width="2"/>
<path d="M205.691 204.103C202.698 192.084 187.732 189.079 189.229 186.574C190.725 184.07 195.714 182.067 197.21 182.568C198.407 182.969 205.026 197.092 208.185 204.103M199.704 204.604C209.282 205.806 213.007 201.766 213.672 199.596M209.681 202.601C213.672 191.082 218.661 191.583 222.153 186.574C225.645 181.566 227.141 149.513 225.645 149.013C224.148 148.512 206.688 163.036 204.194 172.051C201.459 181.937 205.691 194.588 209.681 201.599C207.187 185.072 213.838 168.545 218.661 162.535" stroke="#452372" stroke-width="2"/>
<path d="M368.605 20.0264C375.89 21.1421 380.432 28.4858 382.467 38.557M368.605 20.0264C366.76 19.7438 365.291 19.7665 364.116 20.0329M368.605 20.0264C368.107 14.0165 368.926 5.43083 366.61 4.50085C364.116 3.49916 360.125 4 356.633 6.00333C353.141 8.00665 360.624 10.0099 364.116 20.0329M354.233 41.5619C356.275 38.7602 357.711 36.5223 358.129 35.0513C359.799 29.1832 358.969 21.1996 364.116 20.0329M354.233 41.5619C342.374 57.8382 310.087 93.1435 338.175 107.671C371.676 124.997 388.655 69.1738 382.467 38.557M354.233 41.5619C357.35 43.5652 362.12 36.3867 364.116 32.5471C361.123 54.5834 369.603 38.557 371.598 32.5471C371.598 49.0743 374.592 38.39 376.088 32.5471C376.088 41.7623 380.341 40.3933 382.467 38.557" stroke="#452372" stroke-width="2"/>
<path d="M294.15 169.822C296.723 170.212 298.62 170.313 301.633 171.825C306.073 174.055 306.829 175.911 309.614 178.336M294.15 169.822C288.629 168.984 283.11 168.618 278.686 162.811C268.709 149.713 292.654 118.604 322.086 136.768C358.502 159.241 333.559 186.379 322.086 184.346C316.62 183.378 312.148 180.543 309.614 178.336M294.15 169.822C272.7 189.354 280.182 191.358 288.164 196.366C298.74 203.002 304.626 202.877 309.614 178.336" stroke="#452372" stroke-width="2"/>
<path d="M284.031 42.4906C284.519 42.6683 285.018 42.8634 285.528 43.0768C285.766 43.1762 285.999 43.2852 286.228 43.4032M284.031 42.4906C293.51 19.538 292.512 2.50994 298.997 3.01077C304.185 3.41143 295.096 31.057 286.228 43.4032M284.031 42.4906C283.694 42.3676 283.361 42.2529 283.034 42.1464M286.228 43.4032C286.677 43.6352 287.109 43.9022 287.523 44.2001M287.523 44.2001C299.496 20.5397 300.493 12.0256 308.475 11.024C314.86 10.2226 297.566 33.728 289.118 45.5809M287.523 44.2001C288.088 44.6061 288.62 45.0697 289.118 45.5809M289.118 45.5809C289.571 46.0449 289.62 45.5466 290.018 46.0817M290.018 46.0817C296.127 35.0636 301.491 28.052 303.985 30.0553C305.981 31.658 296.214 42.7429 291.081 48.085M290.018 46.0817C290.257 46.4046 290.862 47.7406 291.081 48.085M291.081 48.085C294.584 53.5843 295.494 61.6288 293.51 65.614C290.018 72.6255 287.025 73.6271 282.036 78.1346C277.216 82.49 279.043 83.1428 275.052 90.1544C271.061 97.1659 270.563 93.6601 267.569 98.1676C264.576 102.675 266.073 101.673 263.08 105.68C260.963 108.513 258.59 109.074 256.595 112.191C252.105 119.202 248.114 125.713 243.625 123.71C241.046 122.559 239.106 118.26 241.629 113.192C243.625 109.186 242.239 108.184 243.625 105.68C245.01 103.176 245.121 96.1643 245.121 93.1593C245.121 90.1544 247.616 87.1494 249.611 82.642C251.606 78.1346 250.609 75.6304 252.604 69.1197C254.599 62.609 258.939 65.4966 261.084 58.6024C263.356 51.3054 266.868 38.1944 281.038 41.5815M281.038 41.5815C281.365 41.6596 281.698 41.7465 282.036 41.8425C282.363 41.9352 282.696 42.0365 283.034 42.1464M281.038 41.5815C280.041 29.0537 285.725 16.0322 289.118 17.5347C291.833 18.7367 286.193 34.4434 283.034 42.1464" stroke="#452372" stroke-width="2"/>
<path d="M243.126 107.182C247.117 111.99 250.442 112.525 251.606 112.191M261.583 107.182C252.804 106.381 248.946 103.176 248.114 101.673M249.112 84.6453C251.107 91.8571 256.262 93.994 258.59 94.1609M276.549 87.1494C269.365 89.1527 261.583 83.3097 258.59 80.1378M255.597 64.6123C255.597 71.0228 265.574 76.9659 270.563 79.1362M287.523 74.1279C281.138 76.5319 274.221 71.4569 271.56 68.6189M265.075 47.0834C265.075 56.6992 274.387 62.7759 279.043 64.6123M295.006 60.6057C282.236 61.8076 277.38 55.0966 276.549 51.5908" stroke="#452372"/>
<path d="M54.4055 78.1757C64.3781 76.2289 66.9668 68.4135 64.7344 60.6468M51.4124 45.1213C58.0674 48.2392 62.9467 54.4274 64.7344 60.6468M64.7344 60.6468C74.8583 41.1147 56.6503 37.1081 44.4286 30.0965C32.2068 23.085 34.9504 9.56269 30.9596 5.05524C26.807 0.365015 26.47 0.04699 19.4861 2.55112C12.5022 5.05524 18.2065 10.0425 19.4861 12.5676C33.9528 41.1147 6.66923 39.8553 2.52531 52.6336C-1.61861 65.412 3.68929 74.3361 6.5161 74.6699M32.955 85.1873C21.4815 96.2055 -4.95744 81.6815 16.493 52.6336M30.9596 67.1576C22.4792 103.217 62.3871 89.6947 54.4055 67.1576" stroke="#452372" stroke-width="2"/>
<path d="M34.4516 19.0784C27.4677 14.5927 21.4815 9.06188 21.4815 2.05032M39.9389 27.0916C33.4539 19.5792 23.9758 12.0668 18.9873 10.5644M21.4815 46.1229C24.4746 33.1015 27.4677 33.1015 28.9643 27.0916C30.4608 21.0817 24.4746 17.0751 21.4815 15.0718M31.4585 25.5891C33.9528 36.1064 25.9712 38.6106 26.9689 44.1196M34.4516 44.1196C46.0249 46.9243 49.5833 52.6337 49.9159 55.1378" stroke="#452372"/>
<path d="M80.3437 155.59C36.7246 155.59 43.2974 101 79.9453 101C116.593 101 123.963 155.59 80.3437 155.59Z" stroke="#452372" stroke-width="2"/>
<path d="M74.5676 115.797C74.5676 115.797 73.9701 112.398 69.9866 108.799C68.8066 107.732 70.3231 107.085 72.1775 108.199C74.5176 109.604 77.7544 112.798 77.7544 112.798C77.7544 112.798 79.9453 109.598 80.521 106.599C80.8531 104.868 81.3395 102.6 82.3354 104.599C83.8285 107.597 81.7378 113.598 81.7378 113.598C81.7378 113.598 89.2517 111.959 93.0908 110.598C96.4767 109.398 93.0908 112.798 89.3065 113.998C83.3004 115.902 84.5262 117.797 84.5262 117.797C84.5262 117.797 87.3147 118.597 91.2982 118.597C94.6841 118.597 101.058 118.597 96.6759 120.596C93.1553 122.203 84.1046 120.596 84.1046 120.596C84.1046 120.596 88.9081 126.146 88.9081 129.795C88.9081 132.594 86.518 128.395 82.9329 125.196C81.4592 123.88 78.551 122.596 78.551 122.596C78.551 122.596 77.356 124.979 73.9701 126.395C70.5841 127.812 64.7533 128.261 66.6006 127.395C72.5759 124.596 73.9701 120.596 73.9701 120.596C73.9701 120.596 75.3022 118.829 68.7915 118.197C66.064 117.932 62.1801 118.289 64.4097 116.797C67.3973 114.797 74.5676 115.797 74.5676 115.797Z" stroke="#452372"/>
<path d="M76.9578 119.997C76.2275 118.13 77.5553 112.198 78.7503 114.198C79.854 116.044 81.2732 117.664 81.3396 118.597" stroke="#452372"/>
<path d="M53.6972 200.325C42.8872 210.555 37.6871 223.908 34 235.884C34.3332 235.938 34.6658 235.991 34.9977 236.044M53.6972 200.325C53.9539 192.312 65.9263 176.286 69.9171 178.79C70.7171 179.292 70.6144 180.412 69.9171 181.899M53.6972 200.325C54.4179 199.643 55.1637 198.975 55.9356 198.322M55.9356 198.322C60.4252 194.068 67.8313 186.345 69.9171 181.899M55.9356 198.322C59.3756 195.412 62.8363 192.497 67.4228 190.309M69.9171 181.899C71.9125 178.79 80.8918 172.514 81.8895 175.284C82.0419 175.707 81.2568 175.996 80.8918 176.403M67.4228 190.309C70.4383 187.037 77.343 180.365 80.8918 176.403M67.4228 190.309C68.857 189.625 71.3501 188.403 72.9102 187.805M80.8918 176.403C85.8802 174.426 88.8733 172.013 90.8687 174.426M72.9102 187.805C74.196 187.311 78.0198 185.731 79.3952 185.3C83.7356 183.942 85.6997 184.151 89.3722 183.497M72.9102 187.805C76.0696 185.172 83.2862 179.915 88.8733 176.403C91.2421 174.915 91.6023 174.422 90.8687 174.426M90.8687 174.426C94.8595 173.015 100.846 172.013 96.3561 175.284C95.9515 175.579 95.7251 176.043 95.4228 176.403M89.3722 183.497C90.1337 182.744 91.5771 180.994 95.4228 176.403M89.3722 183.497C92.2065 182.991 93.8843 182.99 96.3561 182.796M95.4228 176.403C100.846 175.284 109.326 172.014 103.34 176.403C102.805 176.796 102.307 177.176 101.843 177.543M96.3561 182.796C96.6515 182.051 98.1542 180.464 101.843 177.543M96.3561 182.796C102.031 182.351 106.791 183.115 110.823 183.497M101.843 177.543C103.839 177.338 108.661 181.427 110.823 183.497M110.823 183.497C116.358 184.02 120.521 184.789 123.793 184.335C131.275 183.297 133.77 174.282 139.257 165.268C141.226 162.033 140.516 165.428 139.889 170.511M120.989 203.831C121.915 202.5 122.799 201.323 123.793 200.325C129.779 194.315 152.227 202.365 151.229 197.357C150.898 195.694 149.908 194.584 148.622 193.549M120.989 203.831C119.156 206.464 117.155 209.701 113.802 213.347M120.989 203.831C130.777 214.348 119.303 214.348 113.802 213.347M113.802 213.347C109.21 218.341 102.081 224.101 89.3722 230.126M89.3722 230.126C87.797 230.873 86.1361 231.624 84.3837 232.378C82.1128 233.355 79.8204 234.186 77.5033 234.882M89.3722 230.126C96.622 233.764 93.6566 238.429 85.8802 237.507M77.5033 234.882C76.5412 235.171 75.575 235.437 74.6042 235.681M77.5033 234.882C80.6455 236.413 83.4901 237.224 85.8802 237.507M74.6042 235.681C74.3279 235.751 74.0513 235.818 73.7743 235.884C72.4965 236.187 71.211 236.453 69.9171 236.683M74.6042 235.681C82.8871 246.401 85.8802 239.89 85.8802 237.507M55.9356 209.34C60.8469 210.982 64.1369 214.621 66.2866 218.856M69.9171 236.683C58.9767 238.626 47.44 238.007 34.9977 236.044M69.9171 236.683C70.0311 234.131 69.8322 230.587 69.0389 226.869M34.9977 236.044C44.1765 235.916 56.7807 231.796 60.9378 230.126M66.2866 218.856C72.9102 205.333 91.8664 193.815 90.8687 195.818C89.871 197.821 91.0655 201.562 92.8641 201.562C93.8618 201.562 91.8664 207.572 96.3561 208.073C97.7138 208.224 94.966 211.887 96.8549 213.582C99.3491 215.82 99.848 216.587 94.8595 219.357C91.3673 221.296 76.3155 225.366 69.0389 226.869M66.2866 218.856C66.708 219.686 67.0855 220.539 67.4228 221.404M69.0389 226.869C68.8972 226.205 68.7366 225.536 68.5555 224.866M67.4228 221.404C69.4182 220.968 77.2335 214.515 80.8918 211.343M67.4228 221.404C67.6753 222.052 67.9052 222.706 68.1142 223.363M68.1142 223.363C71.5519 222.963 78.7301 219.19 81.8895 217.353M68.1142 223.363C68.2732 223.863 68.4201 224.365 68.5555 224.866M68.5555 224.866C71.2411 224.866 78.3975 222.239 80.8918 221.404M139.889 170.511C138.585 174.329 133.936 181.962 131.774 185.3M139.889 170.511C139.415 174.353 138.989 179.159 139.804 182.796M139.804 182.796C139.926 183.338 140.075 183.853 140.255 184.335C141.002 186.336 141.998 187.837 143.088 189.041M139.804 182.796C138.169 184.8 135.1 187.794 133.77 189.041M143.088 189.041C140.023 190.644 136.929 191.712 135.765 192.046M143.088 189.041C144.913 191.059 147.002 192.244 148.622 193.549M148.622 193.549C145.52 194.751 140.421 195.562 138.259 195.818M48.9655 220.859C52.4574 220.859 51.9585 225.867 48.9655 225.867C45.9724 225.867 45.4735 220.859 48.9655 220.859Z" stroke="#452372" stroke-width="2"/>
<path d="M164.517 42.9599C156.718 39.4029 148.055 24.1325 132.091 32.4426C118.623 39.4541 126.647 71.3853 137.08 86.5317C147.738 102.006 171.453 113.559 187.963 90.5382C205.921 65.497 177.242 48.7636 164.517 42.9599Z" stroke="#452372" stroke-width="2"/>
<path d="M130.279 33.3929C116.311 65.4458 158.214 122.039 187.147 91.4887" stroke="#452372"/>
<path d="M148.736 34.8954C172.182 57.4326 180.662 52.4243 186.466 69.0028" stroke="#452372"/>
<path d="M149.052 56.4821C162.022 47.5018 185.741 70.2055 172.498 83.0259C158.531 96.5481 134.586 66.4986 149.052 56.4821Z" stroke="#452372" stroke-width="2"/>
<path d="M435.605 74.0802C430.605 73.5802 424.605 75.5802 418.105 75.5802C415.391 75.5803 411.605 81.6802 409.605 84.0802C407.105 87.0802 402.105 85.5803 401.105 91.5802C400.447 95.5258 403.105 97.0803 403.105 99.5803C403.105 102.08 400.105 107.58 402.105 111.58C404.105 115.58 408.605 115.58 409.605 118.58C410.553 121.426 408.155 122.58 410.605 126.08C413.055 129.58 414.105 129.08 417.105 130.58C420.105 132.08 418.605 134.08 421.105 137.58C423.605 141.08 426.105 140.58 429.105 140.58C432.105 140.58 432.105 142.08 434.105 142.08H439.105C441.105 142.08 439.105 137.08 443.605 136.58C448.105 136.08 446.605 142.58 449.105 142.08C451.605 141.58 449.105 136.08 450.105 133.08C451.105 130.08 459.105 125.08 459.105 116.58C459.105 112.58 455.605 110.58 455.605 107.58C455.605 104.58 458.105 100.08 458.105 97.0803C458.105 94.0803 456.105 94.0802 455.605 91.5802C455.105 89.0802 453.105 83.5803 451.105 81.0803C449.105 78.5803 445.605 79.0802 443.605 78.5802C441.605 78.0802 440.605 74.5802 435.605 74.0802Z" stroke="#452372" stroke-width="2"/>
<path d="M413.605 88.5802C417.605 82.0802 417.105 83.0802 419.605 83.0802C422.105 83.0802 425.105 81.5802 427.105 83.0802C428.705 84.2802 429.105 87.2469 429.105 88.5802M412.605 100.58C408.605 103.08 409.605 104.58 411.105 106.58C412.605 108.58 410.105 111.58 410.605 113.08C411.005 114.28 414.105 115.58 415.605 116.08M420.605 116.08C420.605 120.88 422.605 122.747 423.605 123.08M434.605 92.5803C439.805 96.1803 436.771 98.7469 434.605 99.5803M434.605 86.0803C447.105 83.0802 447.105 93.5803 447.105 95.0803C447.105 96.5803 445.105 96.5803 445.105 98.0803C445.105 99.5803 448.605 99.5803 449.105 103.08C449.605 106.58 445.105 108.08 445.105 110.08C445.105 112.08 449.105 114.58 449.105 116.08C449.105 117.28 446.771 120.58 445.605 122.08M440.605 118.08C443.405 122.88 439.105 128.08 436.605 130.08" stroke="#452372" stroke-width="2"/>
<path d="M449.104 142.08C448.604 159.08 452.104 166.08 454.104 168.08C456.104 170.08 466.104 174.08 465.104 178.58C463.238 186.978 454.604 177.58 453.104 178.58C451.604 179.58 454.104 187.58 448.104 187.58C441.033 187.58 446.104 175.08 446.104 173.08C446.104 171.48 440.104 149.08 430.604 140.58" stroke="#452372" stroke-width="2"/>
<path d="M346.748 214.5C358.348 210.9 370.915 208.667 375.248 208C385.748 214.5 389.748 208 391.248 203.5C396.848 203.5 409.915 201.167 415.748 200C434.454 210.493 437.34 237.223 430.864 246M346.748 214.5C345.415 221.333 344.148 235.4 345.748 237C347.748 239 370.748 244 378.248 244C382.748 240 391.248 242 391.248 248C399.415 249.833 419.426 253.697 428.748 248C429.536 247.519 430.243 246.842 430.864 246M346.748 214.5C415.748 223.5 423.361 223.304 428.748 231C432.248 236 431.159 243 430.864 246M365.248 226.5C372.748 220 383.248 229.577 375.248 234.5C368.748 238.5 358.443 232.398 365.248 226.5ZM396.748 236C398.748 227.5 412.748 227 412.248 236C411.748 245 395.748 244.5 396.748 236ZM417.748 237C420.748 233 425.748 235 425.248 239C424.748 243 415.748 243 417.748 237Z" stroke="#452372" stroke-width="2"/>
<path d="M364.5 233C365 227 371 226 375.5 226.5M401 241.5C407.5 240.5 409.5 237.5 411.5 233" stroke="#452372"/>
</svg>
