<svg width="379" height="245" viewBox="0 0 379 245" fill="none" xmlns="http://www.w3.org/2000/svg">
<rect width="379" height="245" fill="#F8F2FF"/>
<path d="M218.759 177.801C259.664 162.776 252.116 232.783 235.72 236.898C227.738 238.901 227.738 234.832 223.248 235.395C218.759 235.959 219.343 239.611 212.274 242.407C192.819 250.102 152.911 180.305 206.287 183.81" stroke="#452372" stroke-width="2"/>
<path d="M209.281 189.32C206.288 177.3 191.322 174.295 192.819 171.791C194.315 169.287 199.304 167.283 200.8 167.784C201.998 168.185 208.616 182.308 211.775 189.32M203.295 189.82C212.872 191.022 216.597 186.982 217.262 184.812M213.272 187.817C217.262 176.298 222.251 176.799 225.743 171.791C229.235 166.782 230.731 134.73 229.235 134.229C227.738 133.728 210.278 148.252 207.784 157.267C205.049 167.153 209.281 179.804 213.272 186.815C210.777 170.288 217.429 153.761 222.251 147.751" stroke="#452372" stroke-width="2"/>
<path d="M360.605 35.0264C367.89 36.1421 372.432 43.4858 374.467 53.557M360.605 35.0264C358.76 34.7438 357.291 34.7665 356.116 35.0329M360.605 35.0264C360.107 29.0165 360.926 20.4308 358.61 19.5009C356.116 18.4992 352.125 19 348.633 21.0033C345.141 23.0067 352.624 25.0099 356.116 35.0329M346.233 56.5619C348.275 53.7602 349.711 51.5223 350.129 50.0513C351.799 44.1832 350.969 36.1996 356.116 35.0329M346.233 56.5619C334.374 72.8382 302.087 108.144 330.175 122.671C363.676 139.997 380.655 84.1738 374.467 53.557M346.233 56.5619C349.35 58.5652 354.12 51.3867 356.116 47.5471C353.123 69.5834 361.603 53.557 363.598 47.5471C363.598 64.0743 366.592 53.39 368.088 47.5471C368.088 56.7623 372.341 55.3933 374.467 53.557" stroke="#452372" stroke-width="2"/>
<path d="M286.15 172.822C288.723 173.212 290.62 173.313 293.633 174.825C298.073 177.055 298.829 178.911 301.614 181.336M286.15 172.822C280.629 171.984 275.11 171.618 270.686 165.811C260.709 152.713 284.654 121.604 314.086 139.768C350.502 162.241 325.559 189.379 314.086 187.346C308.62 186.378 304.148 183.543 301.614 181.336M286.15 172.822C264.7 192.354 272.182 194.358 280.164 199.366C290.74 206.002 296.626 205.877 301.614 181.336" stroke="#452372" stroke-width="2"/>
<path d="M283.031 42.4906C283.519 42.6683 284.018 42.8634 284.528 43.0768C284.766 43.1762 284.999 43.2852 285.228 43.4032M283.031 42.4906C292.51 19.538 291.512 2.50994 297.997 3.01077C303.185 3.41143 294.096 31.057 285.228 43.4032M283.031 42.4906C282.694 42.3676 282.361 42.2529 282.034 42.1464M285.228 43.4032C285.677 43.6352 286.109 43.9022 286.523 44.2001M286.523 44.2001C298.496 20.5397 299.493 12.0256 307.475 11.024C313.86 10.2226 296.566 33.728 288.118 45.5809M286.523 44.2001C287.088 44.6061 287.62 45.0697 288.118 45.5809M288.118 45.5809C288.571 46.0449 288.62 45.5466 289.018 46.0817M289.018 46.0817C295.127 35.0636 300.491 28.052 302.985 30.0553C304.981 31.658 295.214 42.7429 290.081 48.085M289.018 46.0817C289.257 46.4046 289.862 47.7406 290.081 48.085M290.081 48.085C293.584 53.5843 294.494 61.6288 292.51 65.614C289.018 72.6255 286.025 73.6271 281.036 78.1346C276.216 82.49 278.043 83.1428 274.052 90.1544C270.061 97.1659 269.563 93.6601 266.569 98.1676C263.576 102.675 265.073 101.673 262.08 105.68C259.963 108.513 257.59 109.074 255.595 112.191C251.105 119.202 247.114 125.713 242.625 123.71C240.046 122.559 238.106 118.26 240.629 113.192C242.625 109.186 241.239 108.184 242.625 105.68C244.01 103.176 244.121 96.1643 244.121 93.1593C244.121 90.1544 246.616 87.1494 248.611 82.642C250.606 78.1346 249.609 75.6304 251.604 69.1197C253.599 62.609 257.939 65.4966 260.084 58.6024C262.356 51.3054 265.868 38.1944 280.038 41.5815M280.038 41.5815C280.365 41.6596 280.698 41.7465 281.036 41.8425C281.363 41.9352 281.696 42.0365 282.034 42.1464M280.038 41.5815C279.041 29.0537 284.725 16.0322 288.118 17.5347C290.833 18.7367 285.193 34.4434 282.034 42.1464" stroke="#452372" stroke-width="2"/>
<path d="M242.126 107.182C246.117 111.99 249.442 112.525 250.606 112.191M260.583 107.182C251.804 106.381 247.946 103.176 247.114 101.673M248.112 84.6453C250.107 91.8571 255.262 93.994 257.59 94.1609M275.549 87.1494C268.365 89.1527 260.583 83.3097 257.59 80.1378M254.597 64.6123C254.597 71.0228 264.574 76.9659 269.563 79.1362M286.523 74.1279C280.138 76.5319 273.221 71.4569 270.56 68.6189M264.075 47.0834C264.075 56.6992 273.387 62.7759 278.043 64.6123M294.006 60.6057C281.236 61.8076 276.38 55.0966 275.549 51.5908" stroke="#452372"/>
<path d="M93.4055 91.1757C103.378 89.2289 105.967 81.4135 103.734 73.6468M90.4124 58.1213C97.0674 61.2392 101.947 67.4274 103.734 73.6468M103.734 73.6468C113.858 54.1147 95.6503 50.1081 83.4286 43.0965C71.2068 36.085 73.9504 22.5627 69.9596 18.0552C65.807 13.365 65.47 13.047 58.4861 15.5511C51.5022 18.0552 57.2065 23.0425 58.4861 25.5676C72.9528 54.1147 45.6692 52.8553 41.5253 65.6336C37.3814 78.412 42.6893 87.3361 45.5161 87.6699M71.955 98.1873C60.4815 109.205 34.0426 94.6815 55.493 65.6336M69.9596 80.1576C61.4792 116.217 101.387 102.695 93.4055 80.1576" stroke="#452372" stroke-width="2"/>
<path d="M73.4516 32.0784C66.4677 27.5927 60.4815 22.0619 60.4815 15.0503M78.9389 40.0916C72.4539 32.5792 62.9758 25.0668 57.9873 23.5644M60.4815 59.1229C63.4746 46.1015 66.4677 46.1015 67.9643 40.0916C69.4608 34.0817 63.4746 30.0751 60.4815 28.0718M70.4585 38.5891C72.9528 49.1064 64.9712 51.6106 65.9689 57.1196M73.4516 57.1196C85.0249 59.9243 88.5833 65.6337 88.9159 68.1378" stroke="#452372"/>
<path d="M32.3437 175.785C-11.2754 175.785 -4.70261 121.195 31.9453 121.195C68.5933 121.195 75.9628 175.785 32.3437 175.785Z" stroke="#452372" stroke-width="2"/>
<path d="M26.5676 135.992C26.5676 135.992 25.9701 132.593 21.9866 128.993C20.8066 127.927 22.3231 127.28 24.1775 128.393C26.5176 129.799 29.7544 132.993 29.7544 132.993C29.7544 132.993 31.9453 129.793 32.521 126.794C32.8531 125.063 33.3395 122.794 34.3354 124.794C35.8285 127.792 33.7378 133.792 33.7378 133.792C33.7378 133.792 41.2517 132.153 45.0908 130.793C48.4767 129.593 45.0908 132.993 41.3065 134.192C35.3004 136.097 36.5262 137.992 36.5262 137.992C36.5262 137.992 39.3147 138.792 43.2982 138.792C46.6841 138.792 53.0577 138.792 48.6759 140.791C45.1553 142.398 36.1046 140.791 36.1046 140.791C36.1046 140.791 40.9081 146.34 40.9081 149.989C40.9081 152.789 38.518 148.59 34.9329 145.39C33.4592 144.075 30.551 142.791 30.551 142.791C30.551 142.791 29.356 145.174 25.9701 146.59C22.5841 148.006 16.7533 148.455 18.6006 147.59C24.5759 144.79 25.9701 140.791 25.9701 140.791C25.9701 140.791 27.3022 139.024 20.7915 138.392C18.064 138.127 14.1801 138.484 16.4097 136.992C19.3973 134.992 26.5676 135.992 26.5676 135.992Z" stroke="#452372"/>
<path d="M28.9578 140.191C28.2275 138.325 29.5553 132.393 30.7503 134.392C31.854 136.239 33.2732 137.858 33.3396 138.792" stroke="#452372"/>
<path d="M81.559 173.546C70.749 183.777 65.5489 197.129 61.8618 209.105C62.195 209.159 62.5276 209.213 62.8595 209.265M81.559 173.546C81.8158 165.533 93.7881 149.507 97.7789 152.011C98.5789 152.513 98.4763 153.633 97.7789 155.12M81.559 173.546C82.2798 172.864 83.0255 172.196 83.7974 171.543M83.7974 171.543C88.2871 167.289 95.6932 159.566 97.7789 155.12M83.7974 171.543C87.2374 168.633 90.6981 165.718 95.2847 163.53M97.7789 155.12C99.7743 152.011 108.754 145.735 109.751 148.505C109.904 148.928 109.119 149.217 108.754 149.625M95.2847 163.53C98.3001 160.258 105.205 153.586 108.754 149.625M95.2847 163.53C96.7188 162.846 99.212 161.624 100.772 161.026M108.754 149.625C113.742 147.647 116.735 145.234 118.731 147.647M100.772 161.026C102.058 160.533 105.882 158.952 107.257 158.522C111.597 157.163 113.562 157.373 117.234 156.718M100.772 161.026C103.931 158.393 111.148 153.136 116.735 149.625C119.104 148.136 119.464 147.643 118.731 147.647M118.731 147.647C122.721 146.236 128.708 145.234 124.218 148.505C123.813 148.8 123.587 149.264 123.285 149.625M117.234 156.718C117.995 155.965 119.439 154.215 123.285 149.625M117.234 156.718C120.068 156.212 121.746 156.212 124.218 156.018M123.285 149.625C128.708 148.505 137.188 145.235 131.202 149.625C130.667 150.017 130.169 150.397 129.705 150.764M124.218 156.018C124.513 155.272 126.016 153.686 129.705 150.764M124.218 156.018C129.893 155.572 134.653 156.336 138.684 156.718M129.705 150.764C131.701 150.56 136.523 154.648 138.684 156.718M138.684 156.718C144.22 157.241 148.383 158.01 151.655 157.556C159.137 156.518 161.632 147.503 167.119 138.489C169.088 135.254 168.377 138.649 167.751 143.732M148.851 177.052C149.777 175.721 150.661 174.544 151.655 173.546C157.641 167.537 180.089 175.586 179.091 170.578C178.76 168.915 177.769 167.805 176.484 166.77M148.851 177.052C147.018 179.686 145.017 182.923 141.664 186.568M148.851 177.052C158.638 187.569 147.165 187.569 141.664 186.568M141.664 186.568C137.071 191.562 129.942 197.322 117.234 203.348M117.234 203.348C115.659 204.094 113.998 204.845 112.246 205.599C109.975 206.576 107.682 207.407 105.365 208.103M117.234 203.348C124.484 206.985 121.518 211.65 113.742 210.728M105.365 208.103C104.403 208.392 103.437 208.659 102.466 208.902M105.365 208.103C108.507 209.634 111.352 210.445 113.742 210.728M102.466 208.902C102.19 208.972 101.913 209.039 101.636 209.105C100.358 209.409 99.0728 209.674 97.7789 209.904M102.466 208.902C110.749 219.622 113.742 213.112 113.742 210.728M83.7974 182.561C88.7087 184.203 91.9987 187.842 94.1484 192.077M97.7789 209.904C86.8386 211.847 75.3018 211.228 62.8595 209.265M97.7789 209.904C97.8929 207.352 97.694 203.808 96.9007 200.09M62.8595 209.265C72.0383 209.137 84.6426 205.017 88.7996 203.348M94.1484 192.077C100.772 178.555 119.728 167.036 118.731 169.039C117.733 171.042 118.927 174.783 120.726 174.783C121.724 174.783 119.728 180.793 124.218 181.294C125.576 181.445 122.828 185.108 124.717 186.803C127.211 189.041 127.71 189.808 122.721 192.578C119.229 194.517 104.177 198.588 96.9007 200.09M94.1484 192.077C94.5698 192.907 94.9473 193.76 95.2847 194.625M96.9007 200.09C96.759 199.426 96.5985 198.757 96.4173 198.087M95.2847 194.625C97.2801 194.189 105.095 187.736 108.754 184.565M95.2847 194.625C95.5371 195.273 95.767 195.927 95.976 196.584M95.976 196.584C99.4137 196.184 106.592 192.411 109.751 190.574M95.976 196.584C96.135 197.084 96.2819 197.586 96.4173 198.087M96.4173 198.087C99.1029 198.087 106.259 195.46 108.754 194.625M167.751 143.732C166.447 147.55 161.798 155.183 159.636 158.522M167.751 143.732C167.277 147.574 166.851 152.38 167.666 156.018M167.666 156.018C167.788 156.559 167.936 157.074 168.117 157.556C168.864 159.557 169.86 161.058 170.949 162.262M167.666 156.018C166.031 158.021 162.962 161.015 161.632 162.262M170.949 162.262C167.885 163.865 164.791 164.933 163.627 165.267M170.949 162.262C172.775 164.281 174.864 165.465 176.484 166.77M176.484 166.77C173.382 167.972 168.283 168.783 166.121 169.039M76.8273 194.08C80.3192 194.08 79.8204 199.088 76.8273 199.088C73.8342 199.088 73.3353 194.08 76.8273 194.08Z" stroke="#452372" stroke-width="2"/>
<path d="M181.517 58.9599C173.718 55.4029 165.055 40.1325 149.091 48.4426C135.623 55.4541 143.647 87.3853 154.08 102.532C164.738 118.006 188.453 129.559 204.963 106.538C222.921 81.497 194.242 64.7636 181.517 58.9599Z" stroke="#452372" stroke-width="2"/>
<path d="M147.279 49.393C133.311 81.4458 175.214 138.039 204.147 107.489" stroke="#452372"/>
<path d="M165.736 50.8954C189.182 73.4326 197.662 68.4243 203.466 85.0028" stroke="#452372"/>
<path d="M166.052 72.4821C179.022 63.5018 202.741 86.2055 189.498 99.0259C175.531 112.548 151.586 82.4987 166.052 72.4821Z" stroke="#452372" stroke-width="2"/>
</svg>
