<svg width="30" height="24" viewBox="0 0 30 24" fill="none" xmlns="http://www.w3.org/2000/svg">
<path fill-rule="evenodd" clip-rule="evenodd" d="M25.2817 12.8169V12.8169C25.3309 13.3094 25.3556 13.5556 25.4586 13.6908C25.5894 13.8621 25.802 13.9502 26.0157 13.9215C26.1841 13.8988 26.3756 13.7421 26.7587 13.4287C26.9611 13.2631 27.0623 13.1803 27.1712 13.1455C27.3095 13.1013 27.4591 13.1088 27.5923 13.1665C27.6972 13.212 27.7897 13.3044 27.9746 13.4893L28.5107 14.0254C28.6956 14.2103 28.788 14.3028 28.8335 14.4077C28.8912 14.5409 28.8987 14.6905 28.8545 14.8288C28.8197 14.9377 28.7369 15.0389 28.5713 15.2413L28.5713 15.2413L28.5713 15.2413C28.2578 15.6244 28.1011 15.8159 28.0785 15.9843C28.0497 16.198 28.1378 16.4106 28.3092 16.5414C28.4443 16.6444 28.6906 16.6691 29.1831 16.7183C29.4433 16.7443 29.5734 16.7573 29.675 16.8097C29.8041 16.8763 29.9046 16.9874 29.958 17.1224C30 17.2287 30 17.3594 30 17.6209V18.3791C30 18.6406 30 18.7713 29.958 18.8776C29.9046 19.0126 29.8041 19.1237 29.675 19.1903C29.5734 19.2427 29.4433 19.2557 29.1832 19.2817C28.6908 19.3309 28.4446 19.3555 28.3095 19.4585C28.138 19.5893 28.0499 19.802 28.0787 20.0158C28.1014 20.1841 28.2581 20.3756 28.5714 20.7586C28.7369 20.9609 28.8197 21.062 28.8545 21.1709C28.8987 21.3092 28.8912 21.4589 28.8335 21.5922C28.788 21.697 28.6956 21.7894 28.5108 21.9743L27.9746 22.5104C27.7897 22.6953 27.6972 22.7878 27.5924 22.8332C27.4591 22.8909 27.3095 22.8984 27.1712 22.8542C27.0623 22.8194 26.9611 22.7366 26.7588 22.5711C26.3757 22.2576 26.1841 22.1009 26.0157 22.0782C25.8021 22.0495 25.5894 22.1376 25.4587 22.309C25.3556 22.4441 25.331 22.6904 25.2817 23.183C25.2557 23.4433 25.2427 23.5735 25.1902 23.6751C25.1237 23.8041 25.0126 23.9046 24.8777 23.9579C24.7714 24 24.6406 24 24.379 24H23.6209C23.3594 24 23.2287 24 23.1224 23.958C22.9874 23.9046 22.8763 23.8041 22.8097 23.675C22.7573 23.5734 22.7443 23.4433 22.7183 23.1831C22.6691 22.6906 22.6444 22.4443 22.5413 22.3092C22.4106 22.1378 22.198 22.0497 21.9843 22.0785C21.8159 22.1011 21.6244 22.2579 21.2413 22.5713L21.2412 22.5713C21.0388 22.7369 20.9376 22.8197 20.8287 22.8545C20.6905 22.8987 20.5408 22.8912 20.4076 22.8335C20.3027 22.7881 20.2103 22.6956 20.0254 22.5107L19.4893 21.9746C19.3044 21.7897 19.2119 21.6972 19.1665 21.5924C19.1088 21.4591 19.1013 21.3095 19.1455 21.1712C19.1803 21.0623 19.2631 20.9611 19.4287 20.7587C19.7421 20.3756 19.8988 20.1841 19.9215 20.0157C19.9502 19.802 19.8621 19.5894 19.6908 19.4586C19.5556 19.3556 19.3094 19.3309 18.8169 19.2817H18.8169C18.5567 19.2557 18.4266 19.2427 18.325 19.1903C18.1959 19.1237 18.0954 19.0126 18.042 18.8776C18 18.7713 18 18.6406 18 18.3791V17.621C18 17.3594 18 17.2287 18.0421 17.1223C18.0954 16.9874 18.1959 16.8763 18.3249 16.8098C18.4265 16.7573 18.5567 16.7443 18.8169 16.7183H18.8169C19.3096 16.669 19.5559 16.6444 19.691 16.5413C19.8624 16.4106 19.9504 16.198 19.9217 15.9844C19.8991 15.8159 19.7423 15.6243 19.4288 15.2411C19.2631 15.0386 19.1803 14.9374 19.1455 14.8284C19.1013 14.6902 19.1088 14.5406 19.1665 14.4075C19.2119 14.3025 19.3044 14.21 19.4894 14.0251L20.0254 13.4891C20.2103 13.3041 20.3028 13.2117 20.4077 13.1662C20.5409 13.1085 20.6905 13.1011 20.8288 13.1452C20.9377 13.18 21.0389 13.2628 21.2413 13.4285C21.6244 13.7419 21.8159 13.8986 21.9843 13.9212C22.198 13.95 22.4107 13.8619 22.5414 13.6905C22.6445 13.5554 22.6691 13.3092 22.7183 12.8168C22.7443 12.5567 22.7573 12.4266 22.8097 12.325C22.8763 12.1959 22.9874 12.0954 23.1224 12.042C23.2287 12 23.3594 12 23.6209 12H24.3791C24.6406 12 24.7713 12 24.8776 12.042C25.0126 12.0954 25.1237 12.1959 25.1903 12.325C25.2427 12.4266 25.2557 12.5567 25.2817 12.8169ZM24 20.4C25.3255 20.4 26.4 19.3255 26.4 18C26.4 16.6745 25.3255 15.6 24 15.6C22.6745 15.6 21.6 16.6745 21.6 18C21.6 19.3255 22.6745 20.4 24 20.4Z" fill="#6D22D0"/>
<path fill-rule="evenodd" clip-rule="evenodd" d="M11.9838 0.541611C12.0711 0.710929 12.0928 0.927766 12.1361 1.36144C12.2182 2.1823 12.2593 2.59274 12.4311 2.81793C12.649 3.10358 13.0034 3.25038 13.3595 3.20248C13.6402 3.16472 13.9594 2.90352 14.5979 2.38113C14.9352 2.10515 15.1038 1.96716 15.2853 1.90918C15.5158 1.83555 15.7652 1.84798 15.9872 1.94419C16.162 2.01994 16.3161 2.17402 16.6243 2.4822L17.5178 3.37567C17.8259 3.68385 17.98 3.83794 18.0558 4.01275C18.152 4.23478 18.1644 4.48415 18.0908 4.71464C18.0328 4.89612 17.8948 5.06478 17.6188 5.4021C17.0964 6.0406 16.8352 6.35984 16.7975 6.64056C16.7496 6.99662 16.8964 7.35102 17.182 7.56893C17.4072 7.74072 17.8176 7.78176 18.6385 7.86385C19.0722 7.90722 19.2891 7.92891 19.4584 8.01624C19.6734 8.12716 19.841 8.31228 19.9299 8.53729C20 8.71447 20 8.93239 20 9.36824V10.6319C20 11.0676 20 11.2855 19.93 11.4626C19.841 11.6877 19.6734 11.8729 19.4583 11.9838C19.289 12.0711 19.0722 12.0928 18.6386 12.1361L18.6386 12.1361C17.818 12.2182 17.4077 12.2592 17.1825 12.4309C16.8967 12.6489 16.7499 13.0034 16.7979 13.3596C16.8357 13.6402 17.0968 13.9593 17.619 14.5976C17.8949 14.9348 18.0328 15.1034 18.0908 15.2848C18.1645 15.5154 18.152 15.7648 18.0558 15.9869C17.98 16.1617 17.826 16.3157 17.5179 16.6238L16.6243 17.5174C16.3162 17.8255 16.1621 17.9796 15.9873 18.0554C15.7652 18.1516 15.5159 18.164 15.2854 18.0904C15.1039 18.0324 14.9352 17.8944 14.5979 17.6184L14.5979 17.6184C13.9594 17.096 13.6402 16.8348 13.3595 16.7971C13.0034 16.7492 12.649 16.896 12.4311 17.1816C12.2593 17.4068 12.2183 17.8173 12.1362 18.6383C12.0928 19.0722 12.0711 19.2891 11.9837 19.4585C11.8728 19.6735 11.6877 19.8409 11.4628 19.9299C11.2856 20 11.0676 20 10.6316 20H9.36824C8.93239 20 8.71447 20 8.53729 19.9299C8.31228 19.841 8.12716 19.6734 8.01624 19.4584C7.92891 19.2891 7.90722 19.0722 7.86385 18.6385C7.78176 17.8176 7.74072 17.4072 7.56892 17.182C7.35101 16.8964 6.99663 16.7496 6.64057 16.7975C6.35985 16.8352 6.04059 17.0964 5.40208 17.6189L5.40206 17.6189C5.06473 17.8949 4.89607 18.0329 4.71458 18.0908C4.4841 18.1645 4.23474 18.152 4.01272 18.0558C3.8379 17.9801 3.6838 17.826 3.37561 17.5178L2.48217 16.6243C2.17398 16.3162 2.01988 16.1621 1.94414 15.9873C1.84794 15.7652 1.8355 15.5159 1.90913 15.2854C1.96711 15.1039 2.10511 14.9352 2.3811 14.5979C2.90351 13.9594 3.16471 13.6402 3.20247 13.3594C3.25037 13.0034 3.10357 12.649 2.81792 12.4311C2.59273 12.2593 2.1823 12.2182 1.36143 12.1361C0.927764 12.0928 0.71093 12.0711 0.541612 11.9838C0.326558 11.8728 0.159016 11.6877 0.0700471 11.4627C0 11.2855 0 11.0676 0 10.6318V9.36835C0 8.9324 0 8.71442 0.0700841 8.53721C0.15905 8.31226 0.326541 8.12719 0.541523 8.01628C0.710878 7.92891 0.927769 7.90722 1.36155 7.86384H1.36155H1.36156C2.18264 7.78173 2.59319 7.74068 2.81842 7.56881C3.10395 7.35092 3.2507 6.99664 3.20287 6.64066C3.16514 6.35987 2.90385 6.04052 2.38128 5.40182C2.10516 5.06435 1.96711 4.89561 1.90914 4.71405C1.83557 4.48364 1.848 4.23438 1.94413 4.01243C2.01988 3.83754 2.17403 3.68339 2.48233 3.37509L3.37565 2.48177L3.37566 2.48177C3.68385 2.17357 3.83795 2.01947 4.01277 1.94373C4.23478 1.84753 4.48414 1.8351 4.71463 1.90872C4.89612 1.9667 5.06481 2.10472 5.4022 2.38076C6.04061 2.9031 6.35982 3.16427 6.64044 3.20207C6.99661 3.25003 7.35113 3.10319 7.56907 2.81742C7.74077 2.59227 7.78181 2.18195 7.86387 1.36131C7.90722 0.927757 7.9289 0.710983 8.01619 0.541704C8.12712 0.326575 8.31231 0.158981 8.53741 0.0700092C8.71453 0 8.93238 0 9.3681 0H10.6318C11.0676 0 11.2855 0 11.4627 0.0700478C11.6877 0.159016 11.8728 0.326558 11.9838 0.541611ZM10 14C12.2091 14 14 12.2091 14 10C14 7.79086 12.2091 6 10 6C7.79086 6 6 7.79086 6 10C6 12.2091 7.79086 14 10 14Z" fill="#6D22D0"/>
</svg>
