<svg width="17" height="18" viewBox="0 0 17 18" fill="none" xmlns="http://www.w3.org/2000/svg">
<path d="M4.85 16H2C1.44772 16 1 15.5523 1 15V9C1 8.44772 1.44772 8 2 8H4.85C4.93284 8 5 8.06716 5 8.15V15.85C5 15.9328 4.93284 16 4.85 16Z" stroke="#6D22D0" stroke-width="2" stroke-linecap="round"/>
<path d="M5 8L6.83205 5.25192C6.94156 5.08766 7 4.89465 7 4.69722V2.5C7 1.94772 7.44772 1.5 8 1.5H9C10.1046 1.5 11 2.39543 11 3.5V8" stroke="#6D22D0" stroke-width="2" stroke-linecap="round"/>
<path d="M9 8H13.7655C14.9575 8 15.8849 9.03613 15.7532 10.2209L15.1977 15.2209C15.0851 16.2337 14.229 17 13.2099 17H9.12311C9.04134 17 8.95989 16.99 8.88057 16.9701L7 16.5L5 16" stroke="#6D22D0" stroke-width="2" stroke-linecap="round"/>
</svg>
