<svg width="17" height="23" viewBox="0 0 17 23" fill="none" xmlns="http://www.w3.org/2000/svg">
<rect x="14.9773" y="4.18164" width="2.59091" height="2.59091" rx="1.29545" transform="rotate(90 14.9773 4.18164)" stroke="#6D22D0" stroke-width="1.29545"/>
<rect x="15.8408" y="13.4661" width="2.59091" height="2.59091" rx="1.29545" transform="rotate(90 15.8408 13.4661)" stroke="#6D22D0" stroke-width="1.29545"/>
<rect x="6.12488" y="3.53418" width="2.59091" height="2.59091" rx="1.29545" transform="rotate(-90 6.12488 3.53418)" stroke="#6D22D0" stroke-width="1.29545"/>
<path d="M7.42041 7.63647V14.7615M7.42041 14.7615H13.25M7.42041 14.7615V22.9526" stroke="#6D22D0" stroke-width="1.29545"/>
<path d="M7.42041 3.31812V6.98857C7.42041 8.20994 7.42041 8.82062 7.79984 9.20005C8.17927 9.57948 8.78995 9.57948 10.0113 9.57948H11.0909C12.3122 9.57948 12.9229 9.57948 13.3023 9.20005C13.6818 8.82062 13.6818 8.20994 13.6818 6.98857V6.98857" stroke="#6D22D0" stroke-width="1.29545"/>
<path d="M2.45447 7.63647V11.4149C2.45447 12.5316 2.45447 13.09 2.77596 13.4565C2.81323 13.4991 2.85325 13.5391 2.89576 13.5763C3.26234 13.8978 3.82071 13.8978 4.93744 13.8978V13.8978C6.05418 13.8978 6.61255 13.8978 6.97913 13.5763C7.02163 13.5391 7.06165 13.4991 7.09893 13.4565C7.42042 13.09 7.42042 12.5316 7.42042 11.4149V11.3069" stroke="#6D22D0" stroke-width="1.29545"/>
<path d="M2.45455 5.04541C3.17001 5.04541 3.75 5.6254 3.75 6.34086V6.34086C3.75 7.05632 3.17001 7.63632 2.45455 7.63632V7.63632C1.73909 7.63632 1.15909 7.05632 1.15909 6.34086V6.34086C1.15909 5.6254 1.73909 5.04541 2.45455 5.04541V5.04541Z" stroke="#6D22D0" stroke-width="1.29545"/>
</svg>
