<svg width="12" height="16" viewBox="0 0 12 16" fill="none" xmlns="http://www.w3.org/2000/svg">
<path fill-rule="evenodd" clip-rule="evenodd" d="M5.75 0V3.6L5.74999 3.65441C5.74991 4.07848 5.74983 4.4906 5.79553 4.83052C5.84705 5.21372 5.97257 5.651 6.33579 6.01421C6.699 6.37743 7.13628 6.50295 7.51948 6.55447C7.85939 6.60017 8.27151 6.60009 8.69558 6.60001H8.69559L8.75 6.6H12V11.2C12 13.4627 12 14.5941 11.341 15.2971C10.682 16 9.62132 16 7.5 16H4.5C2.37868 16 1.31802 16 0.65901 15.2971C0 14.5941 0 13.4627 0 11.2V4.8C0 2.53726 0 1.40589 0.65901 0.702944C1.31802 0 2.37868 0 4.5 0H5.75ZM7.75 0.0167787V3.6C7.75 4.09967 7.75212 4.37383 7.77769 4.56402L7.77869 4.57131L7.78598 4.57231C7.97617 4.59788 8.25033 4.6 8.75 4.6H11.9888C11.9757 4.37666 11.9473 4.20877 11.8858 4.05045C11.7716 3.75641 11.5549 3.52519 11.1213 3.06274L9.12868 0.937258C8.69513 0.47481 8.47836 0.243585 8.20271 0.121793C8.06942 0.0629024 7.9289 0.0324872 7.75 0.0167787ZM2.75 8.8C2.75 8.24771 3.19772 7.8 3.75 7.8L8.25 7.8C8.80229 7.8 9.25 8.24772 9.25 8.8C9.25 9.35229 8.80228 9.8 8.25 9.8H3.75C3.19772 9.8 2.75 9.35228 2.75 8.8ZM3.75 11C3.19772 11 2.75 11.4477 2.75 12C2.75 12.5523 3.19772 13 3.75 13H6.75C7.30228 13 7.75 12.5523 7.75 12C7.75 11.4477 7.30228 11 6.75 11H3.75Z" fill="white"/>
</svg>
