<svg width="100" height="267" viewBox="0 0 100 267" fill="none" xmlns="http://www.w3.org/2000/svg">
<circle cx="50.0002" cy="24" r="24" fill="#00BE61"/>
<path d="M80.0002 56H50.5002H20.0002C8.95455 56 0.000244141 64.9543 0.000244141 76V145.75C0.000244141 150.582 3.91775 154.5 8.75024 154.5C13.5827 154.5 17.5002 150.582 17.5002 145.75V85.25C17.5002 83.4551 18.9553 82 20.7502 82C22.5452 82 24.0002 83.4551 24.0002 85.25V256.25C24.0002 262.187 28.8132 267 34.7502 267C40.6873 267 45.5002 262.187 45.5002 256.25V161.5C45.5002 159.291 47.2911 157.5 49.5002 157.5C51.7094 157.5 53.5002 159.291 53.5002 161.5V256C53.5002 262.075 58.4251 267 64.5002 267C70.5754 267 75.5002 262.075 75.5002 256V85.25C75.5002 83.4551 76.9553 82 78.7502 82C80.5452 82 82.0002 83.4551 82.0002 85.25V145.5C82.0002 150.471 86.0297 154.5 91.0002 154.5C95.9708 154.5 100 150.471 100 145.5V76C100 64.9543 91.0459 56 80.0002 56Z" fill="#00BE61"/>
</svg>
