<svg width="147" height="291" viewBox="0 0 147 291" fill="none" xmlns="http://www.w3.org/2000/svg">
<ellipse cx="72.8008" cy="26.1573" rx="26.2739" ry="26.1573" fill="#FF914C"/>
<path d="M72.8005 68.1177H86.376L136.322 202.446H9.2793L59.225 68.1177H72.8005Z" fill="#FF914C"/>
<path d="M97.6768 61.0337H73.348H43.8561C35.0407 61.0337 27.2649 66.8054 24.7127 75.2432L3.56607 145.154C1.71376 151.278 5.88526 157.577 12.2463 158.262C16.9416 158.767 21.3709 155.987 22.9564 151.538L43.4292 94.0981C43.9382 92.6701 45.4761 91.8907 46.9286 92.3245C48.4946 92.7922 49.347 94.4785 48.7952 96.0168L45.1115 106.285C44.5991 107.714 44.3372 109.22 44.3372 110.737V279.232C44.3372 285.731 49.6061 291 56.1057 291C62.6053 291 67.8742 285.731 67.8742 279.232V176.036C67.8742 173.618 69.8348 171.657 72.2532 171.657C74.6717 171.657 76.6322 173.618 76.6322 176.036V278.958C76.6322 285.609 82.0237 291 88.6744 291C95.3251 291 100.717 285.609 100.717 278.958V111.392C100.717 109.437 100.43 107.493 99.8661 105.621L99.0745 102.994L96.9351 96.1786C96.5834 95.0582 97.0343 93.8418 98.0314 93.2214C99.417 92.3592 101.245 92.9871 101.808 94.5188L122.803 151.608C124.429 156.029 128.847 158.785 133.533 158.302C140.213 157.613 144.46 150.822 142.156 144.515L116.463 74.1719C113.581 66.2821 106.076 61.0337 97.6768 61.0337Z" fill="#FF914C"/>
</svg>
