<svg width="40" height="40" viewBox="0 0 40 40" fill="none" xmlns="http://www.w3.org/2000/svg">
<path d="M7.41779 23.1804L19.3153 34.3569C19.6398 34.6617 19.802 34.8141 20 34.8141C20.198 34.8141 20.3602 34.6617 20.6847 34.3569L32.5822 23.1804C35.8425 20.1177 36.2384 15.0777 33.4964 11.5435L32.9808 10.879C29.7005 6.65105 23.1161 7.36011 20.8111 12.1895C20.4855 12.8717 19.5145 12.8717 19.1889 12.1895C16.884 7.36011 10.2995 6.65105 7.01924 10.879L6.50365 11.5435C3.76158 15.0778 4.1575 20.1177 7.41779 23.1804Z" fill="#E32C2C" stroke="#E32C2C" stroke-width="2"/>
<path d="M20 30.2C21.0421 31.0975 23 32.2 25.5 30.2C25.5 30.2 26 26.7 21 26.2C21 26.2 19.5 26.2 18.5 24.7C18 25.7 18.7189 29.0964 20 30.2Z" fill="#7CB142"/>
<path d="M20 30.2L20.2611 29.8969L20.2611 29.8969L20 30.2ZM18.5 24.7L18.1423 24.5211L18.4506 23.9046L18.8329 24.4781L18.5 24.7ZM21 26.2V25.8H21.0199L21.0398 25.8019L21 26.2ZM21.4342 28.8946C21.2163 28.8582 21.0691 28.6521 21.1054 28.4342C21.1418 28.2163 21.3479 28.0691 21.5658 28.1054L21.4342 28.8946ZM26.3568 34.8698C26.2301 32.7199 25.921 31.6138 25.6681 31.0593C25.5427 30.7844 25.4355 30.6547 25.3799 30.6001C25.3523 30.573 25.3371 30.564 25.3378 30.5644C25.338 30.5646 25.3419 30.5669 25.3498 30.5704C25.3538 30.5721 25.3587 30.5741 25.3645 30.5763C25.3675 30.5773 25.3706 30.5785 25.3741 30.5796C25.3758 30.5802 25.3775 30.5807 25.3794 30.5813C25.3803 30.5816 25.3812 30.5819 25.3822 30.5822C25.3826 30.5823 25.3834 30.5826 25.3836 30.5826C25.3843 30.5829 25.385 30.5831 25.5 30.2C25.615 29.8168 25.6157 29.817 25.6164 29.8173C25.6167 29.8173 25.6174 29.8176 25.6179 29.8177C25.6189 29.818 25.62 29.8184 25.621 29.8187C25.6231 29.8193 25.6252 29.82 25.6274 29.8208C25.6318 29.8222 25.6364 29.8239 25.6412 29.8256C25.6509 29.8292 25.6614 29.8334 25.6727 29.8384C25.6954 29.8484 25.721 29.8614 25.7491 29.8783C25.8055 29.9121 25.8704 29.9605 25.9406 30.0294C26.0805 30.1669 26.2393 30.3839 26.3959 30.7273C26.707 31.4093 27.026 32.6264 27.1555 34.8227L26.3568 34.8698ZM25.7499 30.5123C24.4248 31.5724 23.2008 31.8383 22.1448 31.6822C21.1063 31.5287 20.2875 30.9755 19.739 30.503L20.2611 29.8969C20.7546 30.322 21.4358 30.7687 22.2618 30.8908C23.0702 31.0103 24.0752 30.8275 25.2501 29.8876L25.7499 30.5123ZM19.739 30.503C19.3616 30.178 19.0476 29.7058 18.7957 29.1917C18.5414 28.6728 18.3382 28.0862 18.194 27.5079C18.0498 26.9299 17.9618 26.3492 17.9436 25.8404C17.9259 25.348 17.9707 24.8641 18.1423 24.5211L18.8578 24.8788C18.7793 25.0358 18.7265 25.3515 18.743 25.8117C18.759 26.2554 18.837 26.7803 18.9702 27.3143C19.1033 27.8481 19.2888 28.38 19.514 28.8396C19.7416 29.3039 19.9979 29.6701 20.2611 29.8969L19.739 30.503ZM18.8329 24.4781C19.2782 25.1461 19.8291 25.4743 20.2655 25.6379C20.485 25.7202 20.6759 25.7609 20.8093 25.7809C20.8759 25.7909 20.9276 25.7957 20.9608 25.7979C20.9774 25.7991 20.9892 25.7996 20.9959 25.7998C20.9993 25.7999 21.0014 25.7999 21.002 25.8C21.0024 25.8 21.0024 25.8 21.0021 25.8C21.0019 25.8 21.0016 25.8 21.0013 25.8C21.0011 25.8 21.0009 25.8 21.0007 25.8C21.0006 25.8 21.0004 25.8 21.0004 25.8C21.0002 25.8 21 25.8 21 26.2C21 26.6 20.9998 26.6 20.9996 26.6C20.9995 26.6 20.9993 26.6 20.9991 26.6C20.9988 26.5999 20.9985 26.5999 20.9982 26.5999C20.9974 26.5999 20.9966 26.5999 20.9958 26.5999C20.994 26.5999 20.9918 26.5999 20.9893 26.5999C20.9842 26.5998 20.9778 26.5996 20.9699 26.5994C20.9541 26.5989 20.9328 26.5979 20.9064 26.5961C20.8536 26.5925 20.7803 26.5855 20.6907 26.5721C20.5116 26.5452 20.265 26.4922 19.9846 26.387C19.4209 26.1756 18.7218 25.7538 18.1672 24.9218L18.8329 24.4781ZM21.0398 25.8019C23.6447 26.0624 24.903 27.1211 25.4779 28.1992C25.7587 28.7257 25.8634 29.2331 25.8983 29.6082C25.9158 29.7962 25.9159 29.9528 25.9114 30.0647C25.9091 30.1208 25.9057 30.1658 25.9026 30.1983C25.9011 30.2145 25.8996 30.2276 25.8985 30.2374C25.8979 30.2423 25.8974 30.2463 25.8969 30.2495C25.8967 30.2511 25.8965 30.2525 25.8964 30.2537C25.8963 30.2543 25.8962 30.2548 25.8962 30.2553C25.8961 30.2555 25.8961 30.2558 25.8961 30.2559C25.896 30.2562 25.896 30.2565 25.5 30.2C25.104 30.1434 25.104 30.1436 25.1039 30.1439C25.1039 30.144 25.1039 30.1442 25.1039 30.1443C25.1038 30.1446 25.1038 30.1448 25.1038 30.145C25.1038 30.1453 25.1037 30.1454 25.1038 30.1453C25.1038 30.1451 25.1039 30.1442 25.1041 30.1424C25.1045 30.1389 25.1053 30.1323 25.1062 30.1228C25.108 30.1037 25.1104 30.0731 25.112 30.0324C25.1153 29.951 25.1155 29.8303 25.1017 29.6823C25.0741 29.3855 24.9913 28.9867 24.7721 28.5757C24.347 27.7788 23.3553 26.8375 20.9602 26.598L21.0398 25.8019ZM25.1927 30.456C24.9921 30.2153 24.671 29.9887 24.2711 29.7843C23.8759 29.5823 23.4298 29.4151 23.0051 29.2816C22.5815 29.1485 22.187 29.0513 21.898 28.9874C21.7538 28.9556 21.6366 28.9321 21.5559 28.9167C21.5156 28.9091 21.4845 28.9034 21.4638 28.8997C21.4535 28.8979 21.4457 28.8965 21.4408 28.8957C21.4383 28.8952 21.4365 28.8949 21.4354 28.8947C21.4348 28.8947 21.4345 28.8946 21.4343 28.8946C21.4342 28.8945 21.4341 28.8945 21.4341 28.8945C21.4341 28.8945 21.4341 28.8945 21.4341 28.8945C21.4342 28.8945 21.4342 28.8946 21.5 28.5C21.5658 28.1054 21.5658 28.1055 21.5659 28.1055C21.566 28.1055 21.5661 28.1055 21.5662 28.1055C21.5663 28.1055 21.5666 28.1056 21.5668 28.1056C21.5674 28.1057 21.5681 28.1058 21.569 28.106C21.5708 28.1063 21.5733 28.1067 21.5765 28.1073C21.5829 28.1084 21.5922 28.11 21.604 28.1121C21.6278 28.1163 21.6621 28.1226 21.7058 28.1309C21.7931 28.1476 21.9181 28.1726 22.0707 28.2063C22.3755 28.2737 22.7935 28.3765 23.2449 28.5184C23.6952 28.6599 24.1866 28.8427 24.6352 29.0719C25.079 29.2988 25.5079 29.5846 25.8073 29.9439L25.1927 30.456Z" fill="#689D38"/>
<path d="M34.7066 25.4098C33.5854 26.5241 30.6702 28.0204 27.9793 25.0915C27.9793 25.0915 24.7685 19.8386 30.5785 18.2468C30.5785 18.2468 35.0124 17.7693 36.5413 15.7C37.2548 17.557 37.4587 22.3854 34.7066 25.4098Z" fill="#7CB142"/>
<path d="M34.7066 25.4098L34.9885 25.6936L34.9957 25.6865L35.0024 25.679L34.7066 25.4098ZM36.5413 15.7L36.9147 15.5565L36.6531 14.8756L36.2196 15.4623L36.5413 15.7ZM30.5785 18.2468L30.5356 17.8491L30.5037 17.8525L30.4728 17.861L30.5785 18.2468ZM35.8277 18.7294C35.9544 18.5484 35.9104 18.299 35.7294 18.1723C35.5484 18.0456 35.299 18.0896 35.1723 18.2706L35.8277 18.7294ZM27.1562 35.8219C27.1562 35.0156 27.1083 34.0537 27.0686 33.0547C27.0287 32.0497 26.9966 30.9984 27.0253 29.99C27.0541 28.9797 27.1438 28.0283 27.3417 27.2208C27.5406 26.4087 27.8395 25.7819 28.2569 25.3794L27.7017 24.8035C27.1294 25.3553 26.7806 26.149 26.5647 27.0304C26.3476 27.9163 26.2552 28.9313 26.2257 29.9671C26.196 31.0048 26.2292 32.0793 26.2692 33.0865C26.3095 34.0997 26.3562 35.0364 26.3562 35.8219H27.1562ZM27.6847 25.3621C29.1134 26.9171 30.6409 27.3275 31.9801 27.1639C33.2929 27.0035 34.3801 26.2982 34.9885 25.6936L34.4246 25.1261C33.9118 25.6357 32.9809 26.2357 31.8831 26.3698C30.8117 26.5007 29.5361 26.1947 28.2739 24.8209L27.6847 25.3621ZM35.0024 25.679C36.4526 24.0853 37.1112 22.0326 37.321 20.1617C37.5303 18.2966 37.2995 16.5581 36.9147 15.5565L36.1679 15.8434C36.4966 16.6988 36.7245 18.3032 36.526 20.0726C36.3282 21.8363 35.7126 23.7099 34.4107 25.1406L35.0024 25.679ZM36.2196 15.4623C35.54 16.382 34.1662 16.9896 32.8748 17.3653C32.2426 17.5492 31.6555 17.6705 31.2261 17.7459C31.0117 17.7835 30.8374 17.8095 30.7174 17.826C30.6575 17.8342 30.6112 17.8401 30.5803 17.8439C30.5648 17.8458 30.5532 17.8471 30.5457 17.848C30.5419 17.8484 30.5392 17.8487 30.5375 17.8489C30.5367 17.849 30.5361 17.8491 30.5358 17.8491C30.5356 17.8491 30.5355 17.8491 30.5355 17.8491C30.5355 17.8491 30.5355 17.8491 30.5355 17.8491C30.5356 17.8491 30.5356 17.8491 30.5785 18.2468C30.6213 18.6445 30.6214 18.6445 30.6215 18.6445C30.6216 18.6445 30.6217 18.6445 30.6218 18.6444C30.6221 18.6444 30.6224 18.6444 30.6228 18.6443C30.6235 18.6443 30.6246 18.6441 30.6259 18.644C30.6285 18.6437 30.6321 18.6433 30.6368 18.6428C30.6461 18.6417 30.6596 18.6401 30.677 18.638C30.7118 18.6338 30.7623 18.6274 30.8265 18.6185C30.955 18.6008 31.1391 18.5733 31.3643 18.5338C31.814 18.455 32.4309 18.3276 33.0983 18.1335C34.4061 17.753 36.0136 17.0872 36.863 15.9377L36.2196 15.4623ZM30.4728 17.861C28.9572 18.2763 27.9796 18.9449 27.3967 19.754C26.814 20.5629 26.6592 21.4658 26.7007 22.2863C26.742 23.103 26.978 23.8554 27.1978 24.3964C27.3084 24.6686 27.4167 24.8915 27.4979 25.0475C27.5386 25.1255 27.5726 25.187 27.5969 25.2298C27.6091 25.2512 27.6189 25.268 27.6258 25.2798C27.6293 25.2857 27.6321 25.2903 27.6341 25.2937C27.6352 25.2954 27.636 25.2968 27.6367 25.2979C27.637 25.2984 27.6372 25.2988 27.6375 25.2992C27.6376 25.2994 27.6377 25.2996 27.6378 25.2997C27.6379 25.2999 27.638 25.3001 27.9793 25.0915C28.3206 24.8829 28.3207 24.883 28.3207 24.8831C28.3208 24.8831 28.3208 24.8832 28.3208 24.8833C28.3209 24.8833 28.3208 24.8833 28.3208 24.8832C28.3207 24.883 28.3203 24.8824 28.3198 24.8816C28.3188 24.88 28.3171 24.8771 28.3147 24.873C28.3099 24.8648 28.3023 24.8518 28.2924 24.8344C28.2725 24.7994 28.2432 24.7465 28.2074 24.6779C28.1358 24.5403 28.0386 24.3404 27.939 24.0953C27.7384 23.6016 27.5348 22.9413 27.4997 22.2459C27.4647 21.5542 27.5965 20.8454 28.0458 20.2216C28.495 19.5981 29.2948 19.0132 30.6842 18.6326L30.4728 17.861ZM28.2947 25.3374C29.2451 24.1187 30.156 23.7671 31.3875 23.0438C32.6246 22.3173 34.0431 21.2787 35.8277 18.7294L35.1723 18.2706C33.4569 20.7213 32.1254 21.6827 30.9823 22.354C29.8337 23.0286 28.7342 23.4728 27.6639 24.8455L28.2947 25.3374Z" fill="#689D38"/>
</svg>
