<svg width="616" height="308" fill="none" xmlns="http://www.w3.org/2000/svg"><mask id="a" style="mask-type:alpha" maskUnits="userSpaceOnUse" x="0" y="0" width="616" height="308"><path d="M616 308c0-40.447-7.967-80.498-23.445-117.867A308 308 0 0 0 0 308h616Z" fill="#D9D9D9"/></mask><g mask="url(#a)"><path d="M305 2.002c-168.999 0-306 137.001-306 306h612c0-168.999-137.001-306-306-306Z" fill="#fff"/><path d="M397 13c72.5 20.5 216.5 112.501 218 295.002H433C433 235.5 374 191.5 334.5 185L397 13Z" fill="#ED7002"/><path d="M396.999 13.002C490.5 40 613.5 138 615 308.002h-90C525 193.502 437 118 366.5 98l30.499-84.998Z" fill="#F39000"/><path d="M492.35 125.063a6.78 6.78 0 0 1-1.714-3.088 7.19 7.19 0 0 1 .018-3.54 6.345 6.345 0 0 1 1.753-2.985 6.227 6.227 0 0 1 3.031-1.627 6.989 6.989 0 0 1 3.519.13 6.655 6.655 0 0 1 3.028 1.821 6.702 6.702 0 0 1 1.713 3.114 6.872 6.872 0 0 1-.017 3.514 6.146 6.146 0 0 1-1.727 2.985 6.223 6.223 0 0 1-3.057 1.627 6.995 6.995 0 0 1-3.52-.104 6.798 6.798 0 0 1-3.027-1.847Zm2.1-2.025c.448.466.984.779 1.606.938.641.16 1.281.156 1.921-.012a3.682 3.682 0 0 0 1.704-.943 3.657 3.657 0 0 0 .992-1.657 3.68 3.68 0 0 0 .072-1.908 3.247 3.247 0 0 0-.86-1.657 3.34 3.34 0 0 0-1.633-.939 3.883 3.883 0 0 0-1.907-.001 3.76 3.76 0 0 0-1.677.944 3.793 3.793 0 0 0-1.019 1.656 4.057 4.057 0 0 0-.086 1.922c.144.639.439 1.191.887 1.657ZM510.487 130.001c.554.655.88 1.381.978 2.179.108.789-.014 1.578-.366 2.366-.343.781-.887 1.488-1.633 2.122-.756.641-1.55 1.071-2.384 1.29-.824.211-1.62.202-2.388-.027-.758-.237-1.414-.683-1.968-1.338a4.213 4.213 0 0 1-.856-1.598 4.196 4.196 0 0 1-.058-1.761l-.947.804-2.046-2.422 10.027-8.517 2.046 2.422-3.558 3.022a3.956 3.956 0 0 1 1.709.36 4.017 4.017 0 0 1 1.444 1.098Zm-6.352 4.147c.442.522.975.804 1.6.844.634.032 1.224-.184 1.769-.647.536-.455.835-.995.899-1.62.073-.633-.111-1.211-.552-1.733-.417-.494-.931-.752-1.54-.773-.609-.021-1.186.2-1.731.663-.545.463-.862 1.002-.951 1.616-.08.606.089 1.156.506 1.65ZM511.751 143.79c.225.297.518.559.877.785.36.226.726.377 1.098.453l-.386 2.64c-.604-.071-1.246-.316-1.926-.736a6.305 6.305 0 0 1-1.657-1.505c-.593-.783-.954-1.625-1.085-2.526a4.828 4.828 0 0 1 .337-2.58c.349-.829.912-1.54 1.69-2.133.768-.586 1.588-.937 2.459-1.054a4.594 4.594 0 0 1 2.517.333c.814.349 1.51.905 2.088 1.668.923 1.22 1.215 2.491.877 3.812-.32 1.323-1.218 2.548-2.695 3.673l-4.152-5.489c-.309.423-.475.87-.497 1.34-.004.473.147.912.455 1.319Zm4.011-3.058a2.062 2.062 0 0 0-1.069-.757 2.316 2.316 0 0 0-1.337.01l2.364 3.124c.276-.382.422-.783.436-1.2.015-.418-.117-.81-.394-1.177ZM515.569 153.49a7.967 7.967 0 0 1-1.051-2.199 6.717 6.717 0 0 1-.273-2.33l2.404-.12a5.825 5.825 0 0 0 .22 1.753 5.28 5.28 0 0 0 .722 1.588c.197.287.389.479.577.576.199.09.375.081.53-.026.175-.121.239-.317.191-.586-.037-.277-.157-.685-.36-1.225-.298-.747-.506-1.382-.622-1.907a3.106 3.106 0 0 1 .042-1.504c.137-.488.479-.921 1.026-1.299a3.007 3.007 0 0 1 1.625-.557c.596-.019 1.172.135 1.729.46.575.329 1.084.816 1.526 1.463.394.574.688 1.203.881 1.885.201.693.305 1.378.312 2.054l-2.371.233a6.426 6.426 0 0 0-.218-1.55c-.13-.5-.314-.925-.553-1.274-.162-.236-.342-.399-.54-.488-.199-.09-.36-.092-.483-.007a.452.452 0 0 0-.198.478c.04.214.171.638.392 1.271.27.705.458 1.324.564 1.856a3.133 3.133 0 0 1-.072 1.592c-.144.523-.499.981-1.067 1.373-.804.557-1.656.7-2.556.43-.882-.267-1.675-.914-2.377-1.94ZM529.327 154.111a1.667 1.667 0 0 1-.229-1.273c.112-.456.363-.809.753-1.06.38-.244.794-.318 1.242-.221a1.65 1.65 0 0 1 1.051.744c.24.378.31.792.209 1.241a1.609 1.609 0 0 1-.722 1.04c-.39.251-.814.331-1.273.241a1.524 1.524 0 0 1-1.031-.712Zm-1.858-.715 1.691 2.663-8.184 5.255-1.69-2.663 8.183-5.255ZM538.587 165.24l-11.336 6.657-1.591-2.746 1.071-.628a4.098 4.098 0 0 1-1.643-.659 4.085 4.085 0 0 1-1.204-1.328c-.43-.743-.63-1.513-.599-2.31.041-.803.298-1.56.771-2.271.483-.716 1.152-1.325 2.006-1.827.843-.495 1.688-.775 2.535-.839.857-.071 1.638.076 2.343.442.715.359 1.288.91 1.718 1.653.318.549.498 1.122.539 1.718a3.968 3.968 0 0 1-.222 1.754l4.022-2.362 1.59 2.746Zm-11.939.777c.325.56.785.903 1.38 1.03.605.12 1.217 0 1.833-.362.616-.362 1.016-.835 1.199-1.419.184-.584.113-1.156-.211-1.716-.343-.592-.824-.959-1.442-1.101-.608-.148-1.215-.044-1.82.311-.616.362-1.015.849-1.197 1.461-.171.605-.085 1.204.258 1.796ZM539.213 173.317c.379.743.569 1.486.568 2.229 0 .744-.199 1.429-.596 2.056-.386.622-.952 1.126-1.697 1.513l-5.123 2.66-1.385-2.71.735-.382a3.47 3.47 0 0 1-1.253-.717 4.15 4.15 0 0 1-.897-1.175 4.374 4.374 0 0 1-.499-1.845 3.312 3.312 0 0 1 .365-1.683c.276-.507.68-.9 1.214-1.177a2.696 2.696 0 0 1 1.715-.28c.609.09 1.178.349 1.706.776.527.427.964.979 1.309 1.655.335.654.538 1.397.611 2.228l.117-.06c.467-.243.758-.611.871-1.105.131-.488.049-1.021-.246-1.597a3.713 3.713 0 0 0-.71-.978 7.895 7.895 0 0 0-1.028-.855l1.318-1.799c1.325.967 2.293 2.049 2.905 3.246Zm-7.564 3.254c.221.433.508.761.861.984.354.223.706.279 1.057.167l.917-.477a4.969 4.969 0 0 0-.54-1.76c-.198-.388-.476-.657-.835-.808a1.137 1.137 0 0 0-1.013.042c-.333.174-.541.429-.622.765-.076.348-.017.711.175 1.087ZM549.644 188.061l-11.969 5.416-1.287-2.903 1.13-.511a4.093 4.093 0 0 1-1.562-.831 4.064 4.064 0 0 1-1.054-1.45c-.349-.785-.465-1.573-.35-2.363a4.463 4.463 0 0 1 1.008-2.178c.556-.662 1.285-1.197 2.187-1.605.89-.403 1.759-.591 2.607-.565.859.022 1.619.252 2.28.691.672.434 1.183 1.043 1.531 1.828a3.95 3.95 0 0 1 .353 1.768 3.962 3.962 0 0 1-.408 1.722l4.246-1.921 1.288 2.902Zm-11.942-.501c.263.592.683.983 1.261 1.173.589.184 1.209.129 1.859-.165.651-.295 1.098-.723 1.343-1.284.244-.562.235-1.139-.028-1.73-.278-.626-.716-1.043-1.315-1.25-.588-.213-1.201-.174-1.84.115-.651.294-1.099.736-1.345 1.326-.234.584-.212 1.189.065 1.815ZM490.264 140.302l3.882 4.359-4.025 3.603a6.841 6.841 0 0 1-2.81-.664 7.31 7.31 0 0 1-2.345-1.756 6.965 6.965 0 0 1-1.634-3.192 7.198 7.198 0 0 1 .151-3.539 6.246 6.246 0 0 1 1.85-2.932 6.126 6.126 0 0 1 3.101-1.499 6.972 6.972 0 0 1 3.51.262 6.821 6.821 0 0 1 2.994 1.975 7.106 7.106 0 0 1 1.462 2.546c.33.956.453 1.905.369 2.848l-3.107-.347a3.786 3.786 0 0 0-.111-1.653 3.674 3.674 0 0 0-.787-1.448 3.46 3.46 0 0 0-1.62-1.028 3.827 3.827 0 0 0-1.917-.086 3.65 3.65 0 0 0-1.724.867c-.505.452-.86.996-1.067 1.631a4.003 4.003 0 0 0-.145 1.932 3.57 3.57 0 0 0 .849 1.718 3.717 3.717 0 0 0 1.932 1.149l1.206-1.08-1.824-2.047 1.81-1.619ZM497.914 148.607c.701-.145 1.358-.113 1.973.096a3.29 3.29 0 0 1 1.585 1.121l-2.074 1.656c-.603-.76-1.287-1.2-2.055-1.32-.759-.109-1.487.114-2.183.669l.018-.038-3.457 2.759-1.958-2.47 7.605-6.07 1.958 2.47-1.412 1.127ZM505.425 155.195c.484.678.781 1.385.889 2.119a3.758 3.758 0 0 1-.29 2.118c-.292.671-.779 1.252-1.461 1.743l-4.686 3.378-1.768-2.474.672-.484a3.514 3.514 0 0 1-1.346-.525 4.133 4.133 0 0 1-1.059-1.03 4.329 4.329 0 0 1-.764-1.749 3.294 3.294 0 0 1 .115-1.716 2.823 2.823 0 0 1 1.031-1.341 2.702 2.702 0 0 1 1.658-.528c.616 0 1.217.172 1.803.517.585.345 1.098.825 1.539 1.443.427.597.737 1.301.931 2.112l.106-.077c.428-.308.662-.715.702-1.219.058-.502-.101-1.016-.477-1.542a3.708 3.708 0 0 0-.847-.861 7.702 7.702 0 0 0-1.143-.694l1.044-1.971c1.453.761 2.57 1.688 3.351 2.781Zm-7.017 4.323c.282.395.614.676.996.845.383.169.74.172 1.071.01l.84-.605a4.946 4.946 0 0 0-.793-1.66c-.253-.354-.568-.579-.945-.675a1.138 1.138 0 0 0-.997.19c-.305.22-.474.502-.505.847-.024.355.087.704.333 1.048ZM517.623 167.941l-11.117 7.023-1.68-2.691 1.05-.663a4.097 4.097 0 0 1-1.664-.604 4.074 4.074 0 0 1-1.247-1.287c-.454-.728-.679-1.491-.675-2.289a4.463 4.463 0 0 1 .697-2.294c.46-.732 1.108-1.362 1.946-1.892.827-.522 1.662-.829 2.507-.921.855-.099 1.64.023 2.356.365.727.335 1.318.867 1.773 1.595.336.538.534 1.105.595 1.699a3.95 3.95 0 0 1-.165 1.76l3.943-2.492 1.681 2.691Zm-11.911 1.168c.342.549.813.877 1.412.984.61.101 1.217-.04 1.821-.422.604-.382.989-.867 1.153-1.457.164-.589.075-1.158-.268-1.707-.362-.58-.855-.931-1.477-1.053-.613-.128-1.216-.004-1.809.371-.605.381-.988.881-1.149 1.498-.151.611-.046 1.206.317 1.786ZM509.932 181.613a5.363 5.363 0 0 1-.653-2.685 5.448 5.448 0 0 1 .706-2.618 4.79 4.79 0 0 1 1.884-1.857 4.646 4.646 0 0 1 2.557-.565 5.337 5.337 0 0 1 2.562.835 5.306 5.306 0 0 1 1.874 2.018c.454.844.672 1.739.653 2.685a5.45 5.45 0 0 1-.706 2.618 4.69 4.69 0 0 1-1.868 1.848 4.736 4.736 0 0 1-2.573.574 5.337 5.337 0 0 1-2.562-.835 5.314 5.314 0 0 1-1.874-2.018Zm2.327-1.27c.201.373.485.664.854.874.369.21.769.318 1.199.324a2.325 2.325 0 0 0 2.113-1.152c.23-.367.353-.76.369-1.18a2.183 2.183 0 0 0-.259-1.198 2.17 2.17 0 0 0-.854-.874 2.452 2.452 0 0 0-1.191-.35 2.408 2.408 0 0 0-1.207.297 2.423 2.423 0 0 0-.906.856 2.66 2.66 0 0 0-.377 1.205c-.027.426.059.825.259 1.198ZM527.222 186.839l1.303 2.916-11.748 5.355-1.304-2.915 11.749-5.356ZM449.491 208.612l4.584 1.508c.675.221 1.202.328 1.582.322.394-.003.728-.101 1.002-.293.282-.198.432-.47.45-.816.031-.344-.063-.674-.284-.99a2.695 2.695 0 0 0-1.004-.876c-.395-.193-.895-.332-1.499-.417l.387-2.258c1.773.145 3.134.895 4.082 2.249.442.631.714 1.276.817 1.935.108.667.046 1.286-.186 1.857a3.11 3.11 0 0 1-1.149 1.436 3.566 3.566 0 0 1-1.909.668c-.669.035-1.505-.134-2.51-.508l-1.902-.674 2.382 3.402-1.906 1.335-4.669-6.667 1.732-1.213ZM443.432 205.308c-.512-.759-.843-1.528-.993-2.306a5.154 5.154 0 0 1 .041-2.199l2.222.254a3.821 3.821 0 0 0-.002 1.503c.098.487.284.933.557 1.337.284.421.583.694.896.817.313.124.598.098.854-.078a.797.797 0 0 0 .375-.762c-.023-.322-.213-.747-.569-1.275l-.689-.995 1.788-1.222.676 1.003c.276.426.555.706.838.838.297.135.569.118.818-.052.256-.176.381-.43.374-.763-.007-.333-.141-.693-.403-1.081-.451-.669-1.187-1.106-2.209-1.312l.49-2.072c1.589.168 2.846.937 3.77 2.308.44.652.724 1.289.854 1.912s.103 1.184-.08 1.683a2.46 2.46 0 0 1-.946 1.207 2.251 2.251 0 0 1-1.522.408c-.528-.049-1.025-.265-1.488-.647.215.588.265 1.164.148 1.726-.111.57-.428 1.034-.949 1.391a2.68 2.68 0 0 1-1.613.487c-.573-.006-1.144-.189-1.712-.548-.561-.365-1.069-.885-1.526-1.562ZM445.117 196.472l-1.748 1.269-6.966-4.253 1.734-1.26 4.89 3.191-1.55-5.618 1.747-1.269 1.893 7.94Z" fill="#fff"/><path d="M265.5 3C305-2.5 353-1 397 13l-32 88.502L334.5 185c-14-3-30.5-3.5-45-1.5L265.5 3Z" fill="#F59E00"/><path d="M265.5 3c44-6 90.5-3 131.5 10l-30.5 85c-29.5-9.5-63-10-89.5-6L265.5 3Z" fill="#FAB900"/><path d="M283.606 42.474a9.686 9.686 0 0 1-3.333-.135 8.336 8.336 0 0 1-2.903-1.282l1.537-2.398c1.472.926 2.962 1.293 4.472 1.102.591-.074 1.03-.238 1.317-.492.288-.253.408-.563.362-.927-.031-.252-.132-.444-.302-.575-.17-.132-.425-.228-.765-.287a26.41 26.41 0 0 0-1.599-.22c-1.1-.103-2.006-.25-2.721-.442-.715-.203-1.306-.531-1.772-.983-.455-.467-.735-1.115-.84-1.945-.104-.818.013-1.567.348-2.248.336-.681.853-1.239 1.552-1.672.71-.448 1.556-.733 2.537-.857 2.088-.264 3.911.106 5.469 1.11l-1.351 2.51a6.758 6.758 0 0 0-1.977-.786 5.225 5.225 0 0 0-1.894-.125c-.503.064-.886.22-1.148.471-.263.25-.373.54-.332.866.034.264.136.469.308.613.184.143.46.255.828.336.366.069.899.136 1.597.2 1.098.092 2.005.246 2.723.462.715.203 1.294.533 1.735.988.439.443.708 1.054.806 1.834.11.868-.008 1.65-.355 2.345-.336.681-.872 1.241-1.609 1.68-.737.437-1.633.723-2.69.857ZM295.559 41.283a5.467 5.467 0 0 1-2.763-.505 5.478 5.478 0 0 1-2.128-1.733 4.8 4.8 0 0 1-.925-2.507 4.692 4.692 0 0 1 .556-2.595 5.473 5.473 0 0 1 1.855-2.022 5.472 5.472 0 0 1 2.661-.898 5.468 5.468 0 0 1 2.763.505 5.478 5.478 0 0 1 2.128 1.733c.55.748.858 1.578.924 2.488a4.796 4.796 0 0 1-.554 2.614 5.485 5.485 0 0 1-1.856 2.022c-.8.528-1.687.828-2.661.898Zm-.194-2.674c.43-.031.82-.174 1.17-.428s.619-.579.807-.974c.2-.395.284-.808.253-1.238a2.325 2.325 0 0 0-.429-1.19 2.374 2.374 0 0 0-.937-.827 2.23 2.23 0 0 0-1.22-.255c-.43.03-.82.174-1.17.428-.351.241-.627.56-.827.956a2.436 2.436 0 0 0-.234 1.237c.031.43.168.827.41 1.19.255.363.574.645.958.846.383.201.789.286 1.219.255ZM308.867 30.411c.875-.015 1.658.194 2.35.626.692.42 1.235 1.019 1.629 1.798.393.767.598 1.645.615 2.633.017 1.001-.158 1.898-.525 2.69a4.479 4.479 0 0 1-1.566 1.853c-.677.443-1.453.672-2.327.686a4.313 4.313 0 0 1-1.813-.349 4.248 4.248 0 0 1-1.426-1.079l.022 1.255-3.233.055-.226-13.29 3.232-.055.08 4.715a4.039 4.039 0 0 1 1.389-1.108 4.138 4.138 0 0 1 1.799-.43Zm-.84 7.622c.697-.012 1.264-.25 1.7-.713.435-.477.647-1.077.635-1.799-.012-.71-.244-1.29-.695-1.738-.452-.461-1.026-.686-1.724-.674-.659.011-1.194.248-1.604.712-.411.463-.61 1.056-.597 1.779.012.722.231 1.314.658 1.776.426.45.968.668 1.627.657ZM319.097 32.545c.348-.637.807-1.124 1.375-1.462a3.375 3.375 0 0 1 1.917-.495l-.08 2.68c-.988-.03-1.782.213-2.38.728-.586.516-.893 1.223-.92 2.123l-.017-.039-.133 4.467-3.212-.095.292-9.827 3.212.095-.054 1.825ZM328.948 38.683c.379.028.777-.02 1.192-.142.416-.122.778-.299 1.088-.53l1.757 2.053c-.462.411-1.083.735-1.863.97a6.493 6.493 0 0 1-2.269.255c-.998-.073-1.886-.36-2.663-.862a4.87 4.87 0 0 1-1.744-1.976c-.398-.817-.561-1.719-.489-2.705.071-.974.355-1.83.854-2.57a4.685 4.685 0 0 1 1.953-1.687c.817-.386 1.711-.543 2.685-.472 1.555.113 2.724.739 3.505 1.876.795 1.126 1.125 2.624.988 4.495l-6.998-.51c.115.517.345.94.689 1.271.358.318.796.496 1.315.534Zm.37-5.083a2.117 2.117 0 0 0-1.3.306c-.386.239-.684.58-.894 1.022l3.983.29c-.106-.465-.314-.843-.623-1.132-.309-.29-.698-.451-1.166-.486ZM342.566 32.335c.868.109 1.614.426 2.237.952.626.513 1.078 1.183 1.358 2.01.281.815.36 1.713.236 2.694-.125.994-.425 1.857-.9 2.59a4.48 4.48 0 0 1-1.813 1.611c-.732.343-1.533.46-2.401.35a4.317 4.317 0 0 1-1.745-.602 4.255 4.255 0 0 1-1.259-1.27l-.564 4.49-3.207-.403 1.633-13 3.208.404-.157 1.245a4.043 4.043 0 0 1 1.532-.9 4.138 4.138 0 0 1 1.842-.171Zm-1.911 7.426c.692.087 1.286-.068 1.784-.466.498-.41.793-.973.883-1.69.088-.705-.059-1.311-.442-1.82-.382-.52-.919-.824-1.611-.91-.654-.083-1.217.076-1.689.477-.472.4-.753.96-.843 1.677-.09.716.043 1.334.4 1.851.358.505.864.799 1.518.881ZM353.025 41.72a3.35 3.35 0 0 0 1.201-.016 3.39 3.39 0 0 0 1.137-.414l1.531 2.227c-.503.36-1.154.617-1.954.77a6.495 6.495 0 0 1-2.283.013c-.986-.177-1.838-.556-2.558-1.137a4.871 4.871 0 0 1-1.526-2.149c-.31-.855-.377-1.768-.202-2.742.173-.96.547-1.782 1.12-2.464a4.68 4.68 0 0 1 2.121-1.473c.852-.297 1.758-.36 2.719-.187 1.535.277 2.631 1.022 3.288 2.235.672 1.203.842 2.728.509 4.574l-6.905-1.243c.059.526.243.97.551 1.336.323.354.74.577 1.251.67Zm.904-5.016a2.117 2.117 0 0 0-1.325.167 2.359 2.359 0 0 0-.997.922l3.93.708c-.056-.474-.223-.871-.5-1.192-.277-.32-.647-.522-1.108-.605ZM362.593 46.322a8.179 8.179 0 0 1-2.306-.918c-.732-.44-1.336-.956-1.812-1.546l1.723-1.732c.381.438.839.823 1.375 1.153.535.33 1.081.56 1.637.687.346.08.623.09.831.034.211-.069.338-.196.38-.381.048-.21-.039-.4-.26-.567-.219-.18-.591-.402-1.116-.665-.739-.351-1.333-.682-1.782-.993a3.142 3.142 0 0 1-1.006-1.147c-.234-.456-.276-1.012-.126-1.667a3.04 3.04 0 0 1 .837-1.525c.434-.421.973-.701 1.616-.84.658-.149 1.377-.134 2.155.044a6.582 6.582 0 0 1 1.963.8 7.746 7.746 0 0 1 1.65 1.314l-1.62 1.795a6.496 6.496 0 0 0-1.233-1.004 4.134 4.134 0 0 0-1.294-.57c-.284-.064-.532-.062-.743.007-.211.068-.333.177-.367.325a.452.452 0 0 0 .181.49c.178.132.568.358 1.171.678.69.34 1.258.671 1.704.994.458.326.807.738 1.044 1.234.253.487.301 1.07.146 1.75-.221.964-.762 1.653-1.624 2.067-.847.404-1.888.465-3.124.183ZM373.486 49.076a5.47 5.47 0 0 1-2.428-1.412 5.483 5.483 0 0 1-1.414-2.352 4.8 4.8 0 0 1-.021-2.672 4.697 4.697 0 0 1 1.403-2.253 5.475 5.475 0 0 1 2.431-1.273 5.468 5.468 0 0 1 2.808.057c.94.264 1.749.734 2.428 1.412a5.483 5.483 0 0 1 1.414 2.352 4.7 4.7 0 0 1 .026 2.654 4.795 4.795 0 0 1-1.408 2.271 5.48 5.48 0 0 1-2.431 1.273 5.468 5.468 0 0 1-2.808-.057Zm.724-2.581c.415.116.83.114 1.246-.006.416-.12.779-.335 1.089-.643.322-.304.542-.664.658-1.08a2.32 2.32 0 0 0-.001-1.263 2.368 2.368 0 0 0-.6-1.097 2.232 2.232 0 0 0-1.061-.653 2.23 2.23 0 0 0-1.246.006 2.42 2.42 0 0 0-1.742 1.703 2.421 2.421 0 0 0-.018 1.26c.117.427.322.8.614 1.12.292.319.646.536 1.061.653ZM287.659 117.292l3.653-3.153c.537-.464.901-.861 1.091-1.189.2-.34.289-.676.265-1.01a1.01 1.01 0 0 0-.468-.806c-.278-.204-.61-.293-.994-.266a2.68 2.68 0 0 0-1.268.409c-.37.239-.746.596-1.13 1.07l-1.736-1.495c1.037-1.445 2.381-2.225 4.03-2.341.769-.053 1.462.046 2.079.297.628.251 1.127.623 1.497 1.116.38.492.593 1.066.639 1.724a3.575 3.575 0 0 1-.411 1.981c-.314.591-.89 1.221-1.728 1.889l-1.557 1.284 4.143-.29.162 2.322-8.119.567-.148-2.109ZM302.226 118.98c-.843.014-1.613-.095-2.31-.328-.687-.234-1.237-.587-1.651-1.06-.414-.472-.626-1.039-.638-1.701a2.526 2.526 0 0 1 .516-1.625c.365-.476.865-.847 1.501-1.114-1.193-.513-1.8-1.334-1.82-2.465-.011-.629.172-1.171.548-1.626.387-.465.903-.821 1.55-1.067a6.17 6.17 0 0 1 2.105-.389 5.988 5.988 0 0 1 2.134.331c.655.223 1.178.561 1.57 1.013.403.441.609.971.62 1.589.02 1.12-.563 1.962-1.748 2.527.655.266 1.169.631 1.539 1.093.382.453.577.977.588 1.574.011.662-.181 1.236-.578 1.723-.397.487-.94.859-1.629 1.116-.689.258-1.455.394-2.297.409Zm-.119-6.799a1.994 1.994 0 0 0 1.082-.387c.316-.23.471-.505.465-.825-.005-.32-.154-.584-.446-.792-.291-.219-.672-.324-1.141-.316-.459.008-.83.121-1.115.339-.284.219-.423.493-.417.824.006.33.16.605.462.824.313.208.683.319 1.11.333Zm.079 4.527c.523-.009.947-.129 1.274-.358.338-.23.503-.521.497-.873-.006-.341-.192-.621-.559-.839a2.555 2.555 0 0 0-1.254-.346c-.469.03-.883.16-1.241.39-.348.23-.519.516-.513.857.006.363.171.653.495.872.334.207.768.306 1.301.297ZM315.898 110.487c.678.036 1.279.205 1.801.506.523.302.922.719 1.199 1.251.277.523.398 1.123.363 1.802l-.245 4.663-2.476-.129.035-.669a2.876 2.876 0 0 1-1.021.587 3.425 3.425 0 0 1-1.196.15 3.54 3.54 0 0 1-1.502-.399 2.663 2.663 0 0 1-1.033-.937 2.26 2.26 0 0 1-.326-1.327c.026-.497.196-.935.51-1.314.315-.39.732-.683 1.25-.879a4.16 4.16 0 0 1 1.704-.246c.597.031 1.203.19 1.818.476l.005-.106a1.283 1.283 0 0 0-.416-1.058c-.29-.289-.698-.448-1.225-.475a3.042 3.042 0 0 0-.98.101c-.298.075-.64.2-1.025.372l-.721-1.652c1.227-.535 2.387-.774 3.481-.717Zm-.834 6.614a2.02 2.02 0 0 0 1.046-.204c.303-.157.487-.381.553-.672l.044-.836a4.066 4.066 0 0 0-1.46-.335 1.353 1.353 0 0 0-.912.257.923.923 0 0 0-.389.726c-.015.304.078.552.281.746.214.194.492.3.837.318ZM339.074 125.977c.549-.393.921-.84 1.114-1.34a1.461 1.461 0 0 1-1.014-.561 1.552 1.552 0 0 1-.329-1.134c.044-.434.232-.787.565-1.059a1.452 1.452 0 0 1 1.122-.361c.475.048.843.283 1.106.708.263.424.364.943.302 1.559-.051.504-.254 1.004-.61 1.498-.346.505-.828.987-1.445 1.444l-.811-.754ZM348.3 112.276c1.601.225 2.74.894 3.416 2.009.687 1.115.912 2.517.675 4.204-.163 1.16-.523 2.162-1.079 3.004a5.003 5.003 0 0 1-2.149 1.835c-.864.383-1.829.499-2.892.35-1.322-.186-2.428-.736-3.319-1.65l1.566-1.901c.315.329.635.588.959.776.324.188.696.312 1.115.371.645.09 1.201-.051 1.67-.423.481-.382.837-.962 1.067-1.741a4.045 4.045 0 0 1-1.268.48 4.412 4.412 0 0 1-1.418.031 4.126 4.126 0 0 1-1.824-.701 3.422 3.422 0 0 1-1.182-1.415c-.258-.584-.336-1.236-.235-1.956.107-.763.391-1.414.85-1.952a3.902 3.902 0 0 1 1.756-1.15c.711-.229 1.476-.286 2.292-.171Zm-.508 5.254c.387.054.744.011 1.07-.129.328-.151.596-.382.804-.692.003-.647-.114-1.134-.353-1.464-.239-.329-.632-.532-1.18-.609-.505-.071-.933.011-1.284.247a1.294 1.294 0 0 0-.61.949c-.062.441.055.819.35 1.134.308.307.709.495 1.203.564ZM327.431 120.431c-.914-.031-1.729-.216-2.443-.552a5.078 5.078 0 0 1-1.745-1.327l1.52-1.65c.355.384.757.68 1.208.886.45.207.919.319 1.406.336.507.018.903-.064 1.188-.245.285-.181.433-.427.444-.738.011-.331-.12-.582-.392-.752-.273-.17-.727-.267-1.363-.289l-1.208-.027.075-2.167 1.208.042c.506.028.896-.034 1.17-.185.285-.161.432-.392.442-.693.011-.311-.119-.562-.391-.752-.272-.191-.642-.294-1.109-.31-.805-.028-1.593.311-2.364 1.017l-1.376-1.615c1.076-1.188 2.439-1.753 4.089-1.696.785.028 1.466.172 2.044.433.578.262 1.014.613 1.307 1.056.293.442.43.934.411 1.476a2.27 2.27 0 0 1-.574 1.472c-.352.399-.819.674-1.401.825.601.171 1.093.47 1.476.895.393.426.579.955.556 1.587a2.694 2.694 0 0 1-.562 1.593c-.345.46-.83.815-1.456 1.064-.625.239-1.345.345-2.16.316ZM336.041 113.849l-1.998.882-.813-2.037 3.779-1.828 2.155.303-1.53 10.885-2.693-.378 1.1-7.827Z" fill="#fff"/><path d="M265.498 3c-55.5 7.5-98 27.502-135.5 53.502l102.5 149.998c15.5-12 37.5-21.5 57-23l-24-180.5Z" fill="#76B729"/><path d="M265.498 3c-50 5.5-99.5 27.501-135.5 53.502l50.5 73.498c25-19.5 64.5-35 97-38l-12-89Z" fill="#AECA37"/><path d="m171.306 61.485 2.992-1.657 9.164 4.208-3.933-7.104 2.992-1.657 6.655 12.021-2.992 1.657-9.164-4.208 3.933 7.104-2.992 1.657-6.655-12.021ZM196.314 64.082a5.75 5.75 0 0 1-2.899.568 5.766 5.766 0 0 1-2.749-.878 5.041 5.041 0 0 1-1.87-2.098 4.946 4.946 0 0 1-.454-2.754 5.77 5.77 0 0 1 1.038-2.693 5.757 5.757 0 0 1 2.26-1.903 5.753 5.753 0 0 1 2.899-.568 5.762 5.762 0 0 1 2.749.878 4.945 4.945 0 0 1 1.862 2.08c.414.866.569 1.79.463 2.772a5.761 5.761 0 0 1-1.039 2.693 5.75 5.75 0 0 1-2.26 1.903Zm-1.218-2.543c.409-.196.736-.486.981-.87.245-.383.383-.804.415-1.262a2.45 2.45 0 0 0-1.106-2.309 2.49 2.49 0 0 0-1.236-.45 2.346 2.346 0 0 0-1.292.22 2.341 2.341 0 0 0-.98.868c-.251.372-.399.79-.442 1.254-.032.459.05.892.246 1.301.196.41.483.745.86 1.008.389.257.81.41 1.262.46.453.049.883-.024 1.292-.22ZM202.565 51.745c.052-.761.275-1.428.669-2.002.388-.586.926-1.025 1.612-1.317l1.106 2.594c-.957.408-1.608.99-1.953 1.745-.332.75-.313 1.56.058 2.432l-.034-.03 1.842 4.325-3.11 1.325-4.052-9.513 3.11-1.325.752 1.767ZM219.392 42.957a3.778 3.778 0 0 1 2.02-.173 3.679 3.679 0 0 1 1.798.864c.533.46.928 1.047 1.185 1.763l2.23 6.212-3.05 1.094-2.027-5.647c-.176-.49-.464-.84-.865-1.05-.402-.21-.828-.233-1.28-.071-.477.171-.818.463-1.024.877-.197.397-.217.815-.06 1.254l2.075 5.78-3.05 1.094-2.027-5.648c-.175-.489-.464-.839-.865-1.049-.401-.21-.828-.234-1.28-.072-.477.171-.818.464-1.023.878-.198.396-.218.814-.06 1.254l2.067 5.76-3.181 1.142-3.493-9.732 3.181-1.142.453 1.261c.072-.55.286-1.038.643-1.463.357-.426.831-.745 1.421-.956a3.79 3.79 0 0 1 1.931-.184 3.584 3.584 0 0 1 1.738.758c.079-.61.341-1.164.785-1.663.456-.504 1.042-.884 1.758-1.141ZM230.512 39.5c.858-.247 1.677-.296 2.456-.146.778.15 1.454.496 2.027 1.038.569.53.978 1.224 1.226 2.082l1.702 5.9-3.132.903-.244-.845a3.775 3.775 0 0 1-1.016 1.167c-.435.32-.909.554-1.421.702-.705.203-1.384.254-2.038.151-.654-.102-1.216-.343-1.686-.72a2.976 2.976 0 0 1-.977-1.509 2.872 2.872 0 0 1 .07-1.852c.223-.62.615-1.163 1.174-1.63.559-.466 1.229-.812 2.011-1.038.755-.218 1.577-.281 2.463-.19l-.039-.135c-.155-.538-.479-.916-.972-1.135-.484-.235-1.06-.256-1.726-.064a4.023 4.023 0 0 0-1.174.547 8.446 8.446 0 0 0-1.113.905l-1.606-1.743c1.293-1.192 2.632-1.988 4.015-2.387Zm1.809 8.575c.5-.144.904-.379 1.212-.704.309-.325.442-.682.399-1.072l-.305-1.057a5.345 5.345 0 0 0-1.959.211c-.448.13-.789.367-1.022.712a1.211 1.211 0 0 0-.171 1.069c.111.384.335.653.67.806.348.15.74.16 1.176.035ZM236.747 34.266l3.299-.823 3.385 13.564-3.299.823-3.385-13.564ZM229.033 127.336c.667-.256 1.316-.351 1.947-.285a3.185 3.185 0 0 1 1.687.689c.49.383.863.909 1.119 1.576l1.761 4.585-2.435.935-.252-.657a3.026 3.026 0 0 1-.73 1 3.583 3.583 0 0 1-1.085.656 3.73 3.73 0 0 1-1.614.26 2.804 2.804 0 0 1-1.394-.459 2.378 2.378 0 0 1-.881-1.136 2.301 2.301 0 0 1-.071-1.481c.135-.509.41-.968.824-1.379a4.37 4.37 0 0 1 1.532-.965 5.17 5.17 0 0 1 1.951-.32l-.04-.105a1.355 1.355 0 0 0-.853-.838c-.402-.154-.862-.132-1.38.067-.339.13-.638.302-.899.517-.254.2-.529.466-.825.796l-1.399-1.279c.949-1.039 1.962-1.765 3.037-2.177Zm2.028 6.711c.388-.149.694-.364.918-.644.224-.28.305-.574.244-.882l-.315-.822a4.272 4.272 0 0 0-1.547.303c-.348.133-.604.346-.766.637a.97.97 0 0 0-.063.863c.115.299.311.498.589.597.288.095.601.078.94-.052ZM204.953 147.824l1.669-4.793c.245-.706.367-1.258.368-1.657.004-.415-.093-.768-.29-1.059a1.058 1.058 0 0 0-.85-.488c-.361-.04-.709.054-1.046.28a2.83 2.83 0 0 0-.939 1.039c-.211.413-.366.936-.466 1.57l-2.368-.449c.185-1.862.998-3.279 2.44-4.251.672-.454 1.355-.728 2.05-.824.703-.101 1.353-.025 1.949.23a3.267 3.267 0 0 1 1.489 1.234c.424.628.646 1.301.668 2.02.024.704-.169 1.581-.581 2.63l-.743 1.988 3.621-2.443 1.369 2.03-7.097 4.787-1.243-1.844ZM218.152 142.902c-.879.41-1.737.628-2.574.654a5.402 5.402 0 0 1-2.287-.413l.642-2.29c.52.192 1.043.277 1.568.256a3.874 3.874 0 0 0 1.489-.36c.487-.228.822-.495 1.004-.803.182-.308.203-.612.064-.911-.148-.318-.392-.492-.732-.521-.339-.03-.815.098-1.426.383l-1.154.556-.972-2.084 1.161-.541c.492-.218.83-.464 1.016-.738.191-.289.219-.578.084-.867-.139-.299-.383-.473-.731-.522-.349-.049-.748.031-1.197.24-.774.361-1.355 1.061-1.743 2.099l-2.077-.863c.445-1.64 1.46-2.83 3.046-3.569.755-.352 1.468-.544 2.139-.575.672-.032 1.253.091 1.742.368.49.276.856.675 1.099 1.196.256.55.312 1.105.166 1.666-.14.547-.449 1.032-.927 1.454.651-.127 1.259-.082 1.826.135.576.213 1.006.623 1.289 1.231.27.579.348 1.17.235 1.775-.104.601-.391 1.169-.862 1.706-.476.527-1.105.973-1.888 1.338ZM242.296 129.403l2.629-4.341c.386-.64.621-1.154.705-1.545.089-.404.068-.77-.064-1.096a1.06 1.06 0 0 0-.73-.654c-.345-.114-.705-.095-1.081.057a2.83 2.83 0 0 0-1.135.821c-.292.36-.553.839-.783 1.438l-2.222-.931c.568-1.783 1.658-3 3.27-3.651.752-.304 1.477-.43 2.177-.379.709.047 1.329.257 1.859.629.54.369.94.874 1.2 1.517.283.702.361 1.407.233 2.115-.123.694-.494 1.511-1.115 2.452l-1.141 1.79 4.05-1.637.917 2.27-7.936 3.207-.833-2.062ZM259.859 127.3c.5-.505.805-1.034.916-1.587a1.539 1.539 0 0 1-1.151-.401 1.63 1.63 0 0 1-.543-1.117c-.032-.457.1-.857.397-1.199a1.532 1.532 0 0 1 1.099-.574c.5-.035.924.144 1.272.537.349.393.545.914.591 1.563.037.532-.085 1.085-.365 1.661-.269.586-.683 1.171-1.241 1.755l-.975-.638ZM265.328 112.611c1.565-.276 2.833.004 3.803.84.981.835 1.617 2.077 1.908 3.726.2 1.134.168 2.18-.097 3.136a4.916 4.916 0 0 1-1.45 2.368c-.693.62-1.559 1.022-2.599 1.206-1.292.227-2.493.049-3.603-.535l.886-2.252c.395.212.773.357 1.133.434.36.077.745.08 1.155.008.63-.112 1.108-.412 1.433-.903.333-.503.49-1.153.468-1.951-.279.32-.626.598-1.039.833a4.333 4.333 0 0 1-1.316.46 4.065 4.065 0 0 1-1.919-.101 3.367 3.367 0 0 1-1.535-.964c-.418-.468-.689-1.053-.813-1.757-.132-.746-.065-1.44.201-2.083a3.846 3.846 0 0 1 1.293-1.609c.595-.43 1.292-.715 2.091-.856Zm1.12 5.067c.379-.067.699-.216.962-.446.26-.241.441-.538.541-.892-.193-.605-.452-1.025-.775-1.26-.323-.236-.752-.306-1.288-.212-.494.087-.869.294-1.125.621a1.27 1.27 0 0 0-.282 1.073c.076.431.3.749.672.954.38.193.812.247 1.295.162ZM254.7 118.228l-4.771 1.459-.677-2.212 7.62-2.33.571 1.865-1.467 9.271-2.776.849 1.5-8.902ZM178.168 96.919a5.175 5.175 0 0 1-2.499.906 5.19 5.19 0 0 1-2.567-.402 4.542 4.542 0 0 1-1.953-1.607 4.445 4.445 0 0 1-.784-2.386 5.186 5.186 0 0 1 .551-2.539 5.177 5.177 0 0 1 1.747-2.005 5.174 5.174 0 0 1 2.5-.905 5.186 5.186 0 0 1 2.566.401c.807.35 1.454.88 1.943 1.593.488.712.753 1.513.794 2.401a5.186 5.186 0 0 1-.551 2.538 5.178 5.178 0 0 1-1.747 2.005Zm-1.435-2.094c.337-.23.588-.533.753-.908.164-.375.229-.768.194-1.18a2.203 2.203 0 0 0-1.303-1.9 2.239 2.239 0 0 0-1.161-.23 2.107 2.107 0 0 0-1.118.373 2.11 2.11 0 0 0-.753.908 2.392 2.392 0 0 0-.219 1.176c.035.413.168.787.399 1.124.23.336.532.595.904.777.381.175.777.253 1.186.234a2.107 2.107 0 0 0 1.118-.374ZM186.192 80.19l.957 1.672 5.249-3.004 1.368 2.39-5.25 3.004 1.082 1.89 5.78-3.307 1.368 2.39-8.453 4.836-6.14-10.733 8.453-4.836 1.367 2.39-5.781 3.308ZM202.446 71.919l4.154 8.328-2.723 1.357-.474-.95a2.963 2.963 0 0 1-.613 1.352 3.642 3.642 0 0 1-1.265 1.013c-.59.294-1.183.422-1.779.384a3.388 3.388 0 0 1-1.666-.597c-.504-.366-.911-.86-1.222-1.483l-2.643-5.3 2.61-1.3 2.337 4.687c.231.462.547.773.949.935.413.156.829.13 1.248-.08.419-.209.698-.522.838-.94.14-.419.108-.832-.095-1.24l.04.04-2.418-4.849 2.722-1.357ZM213.856 76.28a3.226 3.226 0 0 1-.693 1.015 3.505 3.505 0 0 1-1.025.708c-.802.354-1.566.39-2.294.108-.733-.293-1.276-.84-1.63-1.641l-1.658-3.754-1.12.494-.981-2.223 1.119-.494-1.032-2.338 2.667-1.178 1.033 2.338 1.762-.778.981 2.223-1.762.778 1.433 3.243c.121.275.292.468.512.581a.806.806 0 0 0 .669 0c.154-.068.292-.155.415-.262.119-.118.203-.24.252-.367l1.352 1.547ZM216.337 67.812c.065-.684.282-1.28.649-1.786.363-.518.857-.9 1.482-1.147l.933 2.36c-.87.344-1.47.852-1.798 1.524-.317.667-.318 1.397-.005 2.189l-.03-.027 1.555 3.934-2.829 1.118-3.421-8.654 2.829-1.118.635 1.607ZM227.836 71.87c-.874.298-1.758.366-2.651.202a5.189 5.189 0 0 1-2.365-1.074 4.543 4.543 0 0 1-1.451-2.072 4.452 4.452 0 0 1-.116-2.51 5.193 5.193 0 0 1 1.211-2.297 5.181 5.181 0 0 1 2.22-1.463 5.177 5.177 0 0 1 2.651-.203 5.185 5.185 0 0 1 2.365 1.074 4.447 4.447 0 0 1 1.445 2.055c.28.817.321 1.66.123 2.526a5.186 5.186 0 0 1-1.212 2.298 5.174 5.174 0 0 1-2.22 1.463Zm-.821-2.402c.386-.132.708-.357.968-.674.259-.317.427-.679.504-1.085a2.21 2.21 0 0 0-.746-2.18 2.243 2.243 0 0 0-1.058-.533 2.107 2.107 0 0 0-1.177.06 2.109 2.109 0 0 0-.968.675 2.376 2.376 0 0 0-.527 1.074c-.077.406-.049.803.083 1.189s.353.716.663.99c.321.272.681.453 1.08.544a2.11 2.11 0 0 0 1.178-.06Zm-3.474-10.321 2.672-.42-1.774 3.156-1.908.653 1.01-3.39ZM235.194 59.56l1.848-.54.683 2.331-1.849.541 1.932 6.6-2.799.819-1.931-6.6-1.175.344-.683-2.332 1.175-.344-.187-.639c-.246-.84-.182-1.603.193-2.288.371-.697.977-1.168 1.818-1.414.38-.111.795-.145 1.246-.102.447.032.84.136 1.179.312l-.077 1.916a.897.897 0 0 0-.424-.1 1.34 1.34 0 0 0-.491.05.785.785 0 0 0-.507.448c-.099.216-.106.468-.022.756l.071.242ZM239.936 57.08c-.43.112-.841.058-1.233-.163a1.603 1.603 0 0 1-.742-.998 1.524 1.524 0 0 1 .172-1.197c.236-.384.568-.631.998-.743a1.524 1.524 0 0 1 1.198.173c.38.224.624.544.733.963a1.6 1.6 0 0 1-.164 1.232 1.487 1.487 0 0 1-.962.734Zm-1.214 1.487 2.945-.764 2.337 9.008-2.944.764-2.338-9.008ZM251.398 65.295c-.891.195-1.77.16-2.639-.103a5.183 5.183 0 0 1-2.227-1.337 4.538 4.538 0 0 1-1.206-2.223 4.445 4.445 0 0 1 .17-2.507 5.326 5.326 0 0 1 1.482-2.149 5.177 5.177 0 0 1 2.372-1.2 4.872 4.872 0 0 1 2.153-.012c.683.145 1.309.42 1.876.824l-1.611 2.066c-.26-.176-.563-.3-.911-.371a2.189 2.189 0 0 0-.982-.025c-.386.085-.727.27-1.02.555a2.292 2.292 0 0 0-.611 1 2.214 2.214 0 0 0-.056 1.173c.09.41.273.77.549 1.078.277.308.602.531.976.67.387.137.773.163 1.16.078.316-.07.622-.216.917-.44a2.53 2.53 0 0 0 .682-.758l2.323 1.187a5.113 5.113 0 0 1-1.383 1.593c-.569.431-1.24.732-2.014.901ZM261.022 63.457c-.911.15-1.794.071-2.648-.238a5.186 5.186 0 0 1-2.154-1.451 4.53 4.53 0 0 1-1.088-2.284 4.44 4.44 0 0 1 .3-2.494 5.192 5.192 0 0 1 1.575-2.065 5.177 5.177 0 0 1 2.432-1.076 5.178 5.178 0 0 1 2.648.238c.853.31 1.572.793 2.154 1.451a4.44 4.44 0 0 1 1.085 2.266 4.53 4.53 0 0 1-.297 2.512 5.192 5.192 0 0 1-1.575 2.066c-.71.566-1.52.925-2.432 1.075Zm-.412-2.504a2.115 2.115 0 0 0 1.066-.504c.308-.27.533-.599.676-.987a2.202 2.202 0 0 0-.374-2.274 2.249 2.249 0 0 0-.955-.7 2.112 2.112 0 0 0-1.172-.135 2.11 2.11 0 0 0-1.066.504c-.31.258-.542.582-.697.973a2.3 2.3 0 0 0-.115 1.186c.067.403.23.765.49 1.087.271.32.596.558.975.715a2.11 2.11 0 0 0 1.172.135Z" fill="#fff"/><path d="M130 56.502C21.5 136.5 0 240.502 0 308.002h182c0-35.502 14-73.502 50.5-101.502L130 56.501Z" fill="#00B0EB"/><path d="M130 56.502C25 134 .5 233.5 0 308.002h90.8C89 252.501 114 177.5 180.5 130L130 56.501Z" fill="#71CAF4"/><path d="m47.248 230.304 2.098-6.866c.246-.804.609-1.467 1.089-1.989.471-.539 1.008-.905 1.61-1.097a2.975 2.975 0 0 1 1.867-.016c.65.199 1.182.535 1.594 1.01.4.471.66 1.038.777 1.701.561-.651 1.206-1.095 1.934-1.333a3.356 3.356 0 0 1 2.15-.054 3.31 3.31 0 0 1 1.68 1.141c.418.546.678 1.204.777 1.973.087.765 0 1.575-.261 2.43l-2.174 7.115-13.14-4.015Zm7.056-4.474c.136-.446.134-.851-.006-1.214-.14-.364-.388-.6-.745-.709a1.066 1.066 0 0 0-.995.177c-.32.223-.547.558-.684 1.004l-.859 2.812 2.43.742.858-2.812Zm5.316 1.081c.144-.472.142-.898-.007-1.278-.158-.397-.428-.653-.81-.77-.383-.117-.744-.053-1.084.192-.348.228-.595.578-.739 1.049l-1.01 3.309 2.639.807 1.01-3.309ZM56.454 212.282c.307-.839.752-1.528 1.333-2.067a3.98 3.98 0 0 1 2.037-1.021c.763-.146 1.564-.065 2.403.242l5.764 2.115-1.123 3.061-.826-.303c.214.462.328.965.341 1.509 0 .54-.09 1.061-.274 1.561-.253.689-.614 1.267-1.084 1.733-.469.467-.995.778-1.578.934a2.978 2.978 0 0 1-1.794-.104 2.876 2.876 0 0 1-1.452-1.151c-.367-.547-.574-1.183-.62-1.91-.046-.727.072-1.473.352-2.236.27-.739.705-1.439 1.303-2.1l-.132-.048c-.526-.193-1.022-.155-1.49.114-.476.251-.833.702-1.072 1.353-.156.426-.24.849-.253 1.271-.02.404.003.882.07 1.432l-2.354.265c-.197-1.748-.047-3.298.449-4.65Zm7.984 3.611c.18-.488.23-.953.15-1.394-.08-.441-.29-.759-.63-.955l-1.033-.379a5.35 5.35 0 0 0-.987 1.704c-.16.438-.171.854-.03 1.246.131.375.385.632.76.769.376.138.725.117 1.047-.063.326-.193.567-.502.723-.928ZM58.778 203.455a1.781 1.781 0 0 1-.965.988 1.78 1.78 0 0 1-1.382-.003 1.693 1.693 0 0 1-.95-.95 1.784 1.784 0 0 1 .002-1.382c.182-.444.499-.761.95-.951.453-.19.9-.194 1.345-.012.457.186.786.508.988.965.195.44.2.888.012 1.345Zm13.36 7.384a6.296 6.296 0 0 1-.565 1.065 3.98 3.98 0 0 1-.683.823l-2.166-1.253c.227-.238.41-.53.552-.876a.814.814 0 0 0-.046-.732c-.12-.236-.334-.417-.643-.543l-9.293-3.799 1.279-3.129 9.645 3.943a3.672 3.672 0 0 1 1.5 1.088c.382.474.611 1.007.686 1.599.075.592-.014 1.197-.266 1.814ZM73.454 199.316a5.745 5.745 0 0 1-1.858 2.296 5.752 5.752 0 0 1-2.673 1.091 5.04 5.04 0 0 1-2.78-.409 4.94 4.94 0 0 1-2.116-1.82 5.767 5.767 0 0 1-.932-2.732 5.75 5.75 0 0 1 .512-2.909 5.755 5.755 0 0 1 1.858-2.297 5.76 5.76 0 0 1 2.673-1.09 4.936 4.936 0 0 1 2.762.4 5.045 5.045 0 0 1 2.134 1.829c.537.816.847 1.726.932 2.732a5.75 5.75 0 0 1-.512 2.909Zm-2.566-1.168c.188-.413.252-.845.194-1.296a2.644 2.644 0 0 0-.492-1.235 2.434 2.434 0 0 0-1.016-.858 2.442 2.442 0 0 0-1.314-.203c-.458.04-.87.19-1.237.448a2.344 2.344 0 0 0-.85.997 2.347 2.347 0 0 0-.194 1.296c.046.446.201.861.466 1.245.27.372.611.652 1.024.84a2.56 2.56 0 0 0 1.306.221 2.814 2.814 0 0 0 1.263-.458c.379-.252.662-.585.85-.997ZM72.478 177.196c.443-.807 1.042-1.413 1.797-1.82.744-.413 1.575-.596 2.492-.549.905.041 1.814.311 2.725.812.924.506 1.652 1.134 2.184 1.882.52.742.812 1.541.875 2.397.05.849-.145 1.677-.588 2.484a4.537 4.537 0 0 1-1.265 1.473 4.469 4.469 0 0 1-1.729.739l4.173 2.29-1.636 2.981-12.08-6.63 1.636-2.981 1.157.635a4.247 4.247 0 0 1-.287-1.846 4.35 4.35 0 0 1 .546-1.867ZM79 181.939c.353-.643.431-1.284.235-1.924-.208-.647-.645-1.153-1.311-1.519-.655-.359-1.305-.449-1.95-.271-.657.171-1.162.579-1.515 1.222-.333.607-.396 1.22-.187 1.836.21.617.647 1.108 1.313 1.474.667.366 1.322.474 1.966.326.633-.155 1.116-.536 1.45-1.144ZM85.695 170.631c.211-.34.361-.733.45-1.18.09-.447.101-.871.036-1.272l2.771-.635c.158.632.156 1.368-.005 2.209a6.823 6.823 0 0 1-.87 2.238c-.556.895-1.257 1.582-2.103 2.061a5.124 5.124 0 0 1-2.693.66c-.955-.028-1.875-.316-2.758-.864-.873-.542-1.531-1.225-1.977-2.05a4.925 4.925 0 0 1-.619-2.644c.04-.949.33-1.859.87-2.731.865-1.394 2.018-2.177 3.46-2.35 1.436-.192 2.993.233 4.67 1.273l-3.891 6.271c.537.146 1.044.138 1.52-.022.471-.178.851-.499 1.14-.964Zm-4.554-2.825c-.267.43-.384.883-.35 1.36.034.476.206.92.516 1.331l2.214-3.569c-.486-.128-.938-.119-1.36.028-.42.147-.76.43-1.02.85ZM93.887 163.086a8.586 8.586 0 0 1-1.79 1.9c-.715.545-1.453.935-2.214 1.172l-1.026-2.355a6.241 6.241 0 0 0 1.66-.898c.53-.395.966-.84 1.306-1.335.211-.307.33-.574.355-.799.014-.233-.06-.406-.226-.519-.186-.129-.405-.117-.655.035-.26.144-.621.422-1.082.833-.63.587-1.184 1.04-1.662 1.358-.47.308-.974.488-1.51.539-.538.052-1.097-.122-1.68-.523a3.188 3.188 0 0 1-1.167-1.409c-.243-.587-.308-1.223-.195-1.905.11-.701.403-1.398.878-2.09a6.916 6.916 0 0 1 1.543-1.61 8.174 8.174 0 0 1 1.924-1.104l1.127 2.279a6.865 6.865 0 0 0-1.459.817c-.448.323-.8.671-1.058 1.045-.173.253-.267.495-.282.728-.014.233.044.395.176.485a.475.475 0 0 0 .55.014c.197-.123.57-.418 1.116-.883.6-.543 1.143-.97 1.632-1.281a3.341 3.341 0 0 1 1.611-.543c.574-.058 1.163.12 1.768.535.857.59 1.32 1.386 1.392 2.389.067.985-.277 2.026-1.032 3.125ZM101.026 153.209a5.762 5.762 0 0 1-2.323 1.825c-.926.4-1.876.556-2.848.468a5.034 5.034 0 0 1-2.62-1.018 4.939 4.939 0 0 1-1.657-2.246 5.762 5.762 0 0 1-.3-2.87 5.753 5.753 0 0 1 1.146-2.723 5.76 5.76 0 0 1 2.323-1.825 5.768 5.768 0 0 1 2.848-.468c.973.088 1.84.423 2.604 1.006a5.037 5.037 0 0 1 1.673 2.258c.342.914.442 1.871.301 2.87a5.755 5.755 0 0 1-1.147 2.723Zm-2.242-1.711c.275-.36.434-.767.478-1.22a2.65 2.65 0 0 0-.205-1.314 2.448 2.448 0 0 0-.799-1.062 2.449 2.449 0 0 0-1.236-.491 2.496 2.496 0 0 0-1.305.162 2.334 2.334 0 0 0-1.05.783c-.276.36-.435.767-.48 1.22-.053.445.006.884.178 1.317.18.423.45.772.811 1.047.36.275.769.444 1.224.506.464.052.908-.003 1.334-.165a2.334 2.334 0 0 0 1.05-.783ZM144.232 250.252l-2.048-.687-.575-8.142 2.033.682.236 5.834 3.677-4.52 2.048.687-5.371 6.146ZM162.099 223.582c-.153-.694-.431-1.238-.835-1.632-.206.374-.527.623-.962.748-.439.111-.85.061-1.233-.151a1.587 1.587 0 0 1-.79-.985 1.529 1.529 0 0 1 .115-1.234c.243-.439.624-.697 1.142-.776.519-.079 1.063.039 1.633.353.467.258.866.661 1.196 1.21.346.544.612 1.209.799 1.995l-1.065.472ZM148.957 240.213l-.512-5.049c-.077-.743-.199-1.296-.367-1.658-.172-.377-.409-.656-.71-.837a1.06 1.06 0 0 0-.977-.083c-.344.117-.62.349-.829.696-.253.421-.39.867-.413 1.339-.016.463.064 1.003.241 1.619l-2.336.594c-.619-1.766-.481-3.394.415-4.884.417-.695.921-1.232 1.51-1.612.595-.39 1.216-.595 1.864-.617a3.277 3.277 0 0 1 1.871.49c.649.39 1.135.906 1.459 1.549.319.627.515 1.504.585 2.629l.166 2.115 2.25-3.744 2.098 1.261-4.408 7.337-1.907-1.145ZM153.754 230.952l-.512-5.049c-.077-.743-.199-1.295-.367-1.658-.172-.377-.408-.656-.71-.837a1.063 1.063 0 0 0-.977-.083c-.344.117-.62.349-.829.697-.253.42-.39.866-.412 1.338-.017.463.063 1.003.24 1.619l-2.336.594c-.619-1.765-.48-3.393.415-4.884.418-.694.921-1.232 1.51-1.612.595-.389 1.216-.595 1.864-.616a3.266 3.266 0 0 1 1.871.489c.649.39 1.135.907 1.459 1.549.32.627.515 1.504.585 2.629l.166 2.116 2.25-3.744 2.098 1.26-4.408 7.338-1.907-1.146ZM156.6 209.859c.956-1.269 2.075-1.929 3.355-1.98 1.286-.059 2.598.416 3.936 1.424.92.693 1.609 1.48 2.068 2.36.45.873.635 1.78.554 2.721-.083.926-.443 1.81-1.078 2.653-.79 1.048-1.79 1.737-3 2.067l-.888-2.251a4.367 4.367 0 0 0 1.124-.455c.317-.19.6-.45.85-.782.385-.512.529-1.057.433-1.638-.099-.595-.429-1.177-.988-1.746.014.424-.05.864-.192 1.318a4.364 4.364 0 0 1-.649 1.234 4.078 4.078 0 0 1-1.472 1.235 3.362 3.362 0 0 1-1.78.341c-.625-.057-1.223-.3-1.793-.73-.605-.456-1.03-1.01-1.274-1.661a3.847 3.847 0 0 1-.152-2.058c.143-.721.458-1.405.946-2.052Zm4.275 2.941c.231-.307.364-.634.399-.982a1.9 1.9 0 0 0-.212-1.021c-.554-.31-1.03-.442-1.427-.394-.397.049-.759.29-1.086.724-.302.401-.435.808-.4 1.222.027.407.202.733.526.977.349.263.73.343 1.142.239.41-.118.762-.373 1.058-.765Z" fill="#fff"/></g></svg>