<svg width="616" height="308" viewBox="0 0 616 308" fill="none" xmlns="http://www.w3.org/2000/svg">
<mask id="mask0_1107_755" style="mask-type:alpha" maskUnits="userSpaceOnUse" x="0" y="0" width="616" height="308">
<path d="M616 308C616 267.553 608.033 227.502 592.555 190.133C577.076 152.765 554.389 118.812 525.789 90.2111C497.188 61.6107 463.235 38.9235 425.866 23.4451C388.498 7.96665 348.447 -1.768e-06 308 0C267.553 1.768e-06 227.502 7.96666 190.133 23.4451C152.765 38.9236 118.812 61.6107 90.2111 90.2111C61.6107 118.812 38.9235 152.765 23.4451 190.134C7.96665 227.502 -3.536e-06 267.553 0 308L308 308H616Z" fill="#D9D9D9"/>
</mask>
<g mask="url(#mask0_1107_755)">
<path d="M305 2.00244C136.001 2.00244 -1 139.003 -1 308.002H611C611 139.003 473.999 2.00244 305 2.00244Z" fill="white"/>
<path d="M397 13C469.5 33.5 613.5 125.501 615 308.002H433C433 235.5 374 191.5 334.5 185L397 13Z" fill="#ED7002"/>
<path d="M396.999 13.002C490.5 40.0001 613.5 138 615 308.002L525 308.002C525 193.502 437 118 366.5 98L396.999 13.002Z" fill="#F39000"/>
<path d="M492.35 125.063C491.506 124.185 490.934 123.155 490.636 121.975C490.347 120.787 490.353 119.606 490.654 118.435C490.964 117.273 491.549 116.278 492.407 115.45C493.265 114.623 494.276 114.08 495.438 113.823C496.618 113.566 497.791 113.609 498.957 113.953C500.132 114.288 501.141 114.895 501.985 115.774C502.838 116.661 503.409 117.699 503.698 118.888C503.997 120.068 503.991 121.24 503.681 122.402C503.388 123.565 502.813 124.56 501.954 125.387C501.096 126.215 500.077 126.757 498.897 127.014C497.725 127.28 496.552 127.245 495.377 126.91C494.212 126.566 493.202 125.951 492.35 125.063ZM494.45 123.038C494.898 123.504 495.434 123.817 496.056 123.976C496.697 124.136 497.337 124.132 497.977 123.964C498.625 123.805 499.193 123.491 499.681 123.021C500.159 122.559 500.49 122.007 500.673 121.364C500.865 120.73 500.889 120.094 500.745 119.456C500.619 118.817 500.333 118.265 499.885 117.799C499.437 117.333 498.893 117.02 498.252 116.86C497.629 116.701 496.994 116.701 496.345 116.859C495.706 117.027 495.147 117.342 494.668 117.803C494.18 118.274 493.84 118.826 493.649 119.459C493.466 120.102 493.437 120.743 493.563 121.381C493.707 122.02 494.002 122.572 494.45 123.038Z" fill="white"/>
<path d="M510.487 130.001C511.041 130.656 511.367 131.382 511.465 132.18C511.573 132.969 511.451 133.758 511.099 134.546C510.756 135.327 510.212 136.034 509.466 136.668C508.71 137.309 507.916 137.739 507.082 137.958C506.258 138.169 505.462 138.16 504.694 137.931C503.936 137.694 503.28 137.248 502.726 136.593C502.317 136.108 502.032 135.576 501.87 134.995C501.726 134.416 501.707 133.829 501.812 133.234L500.865 134.038L498.819 131.616L508.846 123.099L510.892 125.521L507.334 128.543C507.937 128.537 508.506 128.657 509.043 128.903C509.596 129.15 510.078 129.516 510.487 130.001ZM504.135 134.148C504.577 134.67 505.11 134.952 505.735 134.992C506.369 135.024 506.959 134.808 507.504 134.345C508.04 133.89 508.339 133.35 508.403 132.725C508.476 132.092 508.292 131.514 507.851 130.992C507.434 130.498 506.92 130.24 506.311 130.219C505.702 130.198 505.125 130.419 504.58 130.882C504.035 131.345 503.718 131.884 503.629 132.498C503.549 133.104 503.718 133.654 504.135 134.148Z" fill="white"/>
<path d="M511.751 143.79C511.976 144.087 512.269 144.349 512.628 144.575C512.988 144.801 513.354 144.952 513.726 145.028L513.34 147.668C512.736 147.597 512.094 147.352 511.414 146.932C510.745 146.504 510.192 146.003 509.757 145.427C509.164 144.644 508.803 143.802 508.672 142.901C508.548 142.009 508.661 141.15 509.009 140.321C509.358 139.492 509.921 138.781 510.699 138.188C511.467 137.602 512.287 137.251 513.158 137.134C514.039 137.01 514.878 137.121 515.675 137.467C516.489 137.816 517.185 138.372 517.763 139.135C518.686 140.355 518.978 141.626 518.64 142.947C518.32 144.27 517.422 145.495 515.945 146.62L511.793 141.131C511.484 141.554 511.318 142.001 511.296 142.471C511.292 142.944 511.443 143.383 511.751 143.79ZM515.762 140.732C515.476 140.355 515.12 140.103 514.693 139.975C514.266 139.847 513.821 139.85 513.356 139.985L515.72 143.109C515.996 142.727 516.142 142.326 516.156 141.909C516.171 141.491 516.039 141.099 515.762 140.732Z" fill="white"/>
<path d="M515.569 153.49C515.112 152.823 514.761 152.09 514.518 151.291C514.285 150.484 514.194 149.707 514.245 148.961L516.649 148.841C516.63 149.413 516.704 149.998 516.869 150.594C517.034 151.191 517.275 151.72 517.591 152.182C517.788 152.469 517.98 152.661 518.168 152.758C518.367 152.848 518.543 152.839 518.698 152.732C518.873 152.611 518.937 152.415 518.889 152.146C518.852 151.869 518.732 151.461 518.529 150.921C518.231 150.174 518.023 149.539 517.907 149.014C517.798 148.5 517.812 147.998 517.949 147.51C518.086 147.022 518.428 146.589 518.975 146.211C519.48 145.861 520.022 145.676 520.6 145.654C521.196 145.635 521.772 145.789 522.329 146.114C522.904 146.443 523.413 146.93 523.855 147.577C524.249 148.151 524.543 148.78 524.736 149.462C524.937 150.155 525.041 150.84 525.048 151.516L522.677 151.749C522.668 151.226 522.595 150.709 522.459 150.199C522.329 149.699 522.145 149.274 521.906 148.925C521.744 148.689 521.564 148.526 521.366 148.437C521.167 148.347 521.006 148.345 520.883 148.43C520.718 148.545 520.652 148.704 520.685 148.908C520.725 149.122 520.856 149.546 521.077 150.179C521.347 150.884 521.535 151.503 521.641 152.035C521.754 152.577 521.73 153.108 521.569 153.627C521.425 154.15 521.07 154.608 520.502 155C519.698 155.557 518.846 155.7 517.946 155.43C517.064 155.163 516.271 154.516 515.569 153.49Z" fill="white"/>
<path d="M529.327 154.111C529.08 153.722 529.004 153.298 529.098 152.838C529.21 152.382 529.461 152.029 529.851 151.778C530.231 151.534 530.645 151.46 531.093 151.557C531.547 151.665 531.898 151.913 532.144 152.301C532.384 152.679 532.454 153.093 532.353 153.542C532.252 153.991 532.011 154.338 531.631 154.582C531.241 154.833 530.817 154.913 530.358 154.823C529.917 154.737 529.573 154.499 529.327 154.111ZM527.469 153.396L529.16 156.059L520.976 161.314L519.286 158.651L527.469 153.396Z" fill="white"/>
<path d="M538.587 165.24L527.251 171.897L525.66 169.151L526.731 168.523C526.137 168.424 525.59 168.204 525.088 167.864C524.604 167.528 524.203 167.085 523.884 166.536C523.454 165.793 523.254 165.023 523.285 164.226C523.326 163.423 523.583 162.666 524.056 161.955C524.539 161.239 525.208 160.63 526.062 160.128C526.905 159.633 527.75 159.353 528.597 159.289C529.454 159.218 530.235 159.365 530.94 159.731C531.655 160.09 532.228 160.641 532.658 161.384C532.976 161.933 533.156 162.506 533.197 163.102C533.255 163.703 533.181 164.287 532.975 164.856L536.997 162.494L538.587 165.24ZM526.648 166.017C526.973 166.577 527.433 166.92 528.028 167.047C528.633 167.167 529.245 167.047 529.861 166.685C530.477 166.323 530.877 165.85 531.06 165.266C531.244 164.682 531.173 164.11 530.849 163.55C530.506 162.958 530.025 162.591 529.407 162.449C528.799 162.301 528.192 162.405 527.587 162.76C526.971 163.122 526.572 163.609 526.39 164.221C526.219 164.826 526.305 165.425 526.648 166.017Z" fill="white"/>
<path d="M539.213 173.317C539.592 174.06 539.782 174.803 539.781 175.546C539.781 176.29 539.582 176.975 539.185 177.602C538.799 178.224 538.233 178.728 537.488 179.115L532.365 181.775L530.98 179.065L531.715 178.683C531.261 178.54 530.844 178.301 530.462 177.966C530.091 177.626 529.792 177.234 529.565 176.791C529.254 176.181 529.088 175.566 529.066 174.946C529.045 174.326 529.167 173.765 529.431 173.263C529.707 172.756 530.111 172.363 530.645 172.086C531.19 171.803 531.762 171.709 532.36 171.806C532.969 171.896 533.538 172.155 534.066 172.582C534.593 173.009 535.03 173.561 535.375 174.237C535.71 174.891 535.913 175.634 535.986 176.465L536.103 176.405C536.57 176.162 536.861 175.794 536.974 175.3C537.105 174.812 537.023 174.279 536.728 173.703C536.536 173.326 536.299 173 536.018 172.725C535.753 172.456 535.411 172.171 534.99 171.87L536.308 170.071C537.633 171.038 538.601 172.12 539.213 173.317ZM531.649 176.571C531.87 177.004 532.157 177.332 532.51 177.555C532.864 177.778 533.216 177.834 533.567 177.722L534.484 177.245C534.424 176.659 534.244 176.072 533.944 175.485C533.746 175.097 533.468 174.828 533.109 174.677C532.768 174.532 532.43 174.546 532.096 174.719C531.763 174.893 531.555 175.148 531.474 175.484C531.398 175.832 531.457 176.195 531.649 176.571Z" fill="white"/>
<path d="M549.644 188.061L537.675 193.477L536.388 190.574L537.518 190.063C536.939 189.901 536.418 189.624 535.956 189.232C535.511 188.846 535.159 188.363 534.902 187.782C534.553 186.997 534.437 186.209 534.552 185.419C534.679 184.623 535.015 183.897 535.56 183.241C536.116 182.579 536.845 182.044 537.747 181.636C538.637 181.233 539.506 181.045 540.354 181.071C541.213 181.093 541.973 181.323 542.634 181.762C543.306 182.196 543.817 182.805 544.165 183.59C544.423 184.171 544.54 184.76 544.518 185.358C544.512 185.962 544.376 186.536 544.11 187.08L548.356 185.159L549.644 188.061ZM537.702 187.56C537.965 188.152 538.385 188.543 538.963 188.733C539.552 188.917 540.172 188.862 540.822 188.568C541.473 188.273 541.92 187.845 542.165 187.284C542.409 186.722 542.4 186.145 542.137 185.554C541.859 184.928 541.421 184.511 540.822 184.304C540.234 184.091 539.621 184.13 538.982 184.419C538.331 184.713 537.883 185.155 537.637 185.745C537.403 186.329 537.425 186.934 537.702 187.56Z" fill="white"/>
<path d="M490.264 140.302L494.146 144.661L490.121 148.264C489.167 148.25 488.231 148.028 487.311 147.6C486.41 147.172 485.628 146.587 484.966 145.844C484.139 144.916 483.595 143.852 483.332 142.652C483.088 141.453 483.138 140.273 483.483 139.113C483.828 137.954 484.444 136.976 485.333 136.181C486.221 135.386 487.255 134.886 488.434 134.682C489.622 134.469 490.792 134.556 491.944 134.944C493.113 135.332 494.111 135.99 494.938 136.919C495.6 137.661 496.087 138.51 496.4 139.465C496.73 140.421 496.853 141.37 496.769 142.313L493.662 141.966C493.748 141.421 493.711 140.871 493.551 140.313C493.39 139.756 493.128 139.273 492.764 138.865C492.326 138.373 491.786 138.03 491.144 137.837C490.519 137.646 489.88 137.617 489.227 137.751C488.573 137.886 487.999 138.175 487.503 138.618C486.998 139.07 486.643 139.614 486.436 140.249C486.229 140.885 486.181 141.529 486.291 142.181C486.419 142.834 486.702 143.407 487.14 143.899C487.653 144.474 488.297 144.857 489.072 145.048L490.278 143.968L488.454 141.921L490.264 140.302Z" fill="white"/>
<path d="M497.914 148.607C498.615 148.462 499.272 148.494 499.887 148.703C500.511 148.905 501.039 149.279 501.472 149.824L499.398 151.48C498.795 150.72 498.111 150.28 497.343 150.16C496.584 150.051 495.856 150.274 495.16 150.829L495.178 150.791L491.721 153.55L489.763 151.08L497.368 145.01L499.326 147.48L497.914 148.607Z" fill="white"/>
<path d="M505.425 155.195C505.909 155.873 506.206 156.58 506.314 157.314C506.422 158.048 506.326 158.755 506.024 159.432C505.732 160.103 505.245 160.684 504.563 161.175L499.877 164.553L498.109 162.079L498.781 161.595C498.311 161.519 497.862 161.344 497.435 161.07C497.018 160.788 496.665 160.445 496.376 160.04C495.978 159.483 495.723 158.9 495.612 158.291C495.5 157.681 495.539 157.109 495.727 156.575C495.926 156.033 496.269 155.586 496.758 155.234C497.256 154.874 497.809 154.698 498.416 154.706C499.032 154.706 499.633 154.878 500.219 155.223C500.804 155.568 501.317 156.048 501.758 156.666C502.185 157.263 502.495 157.967 502.689 158.778L502.795 158.701C503.223 158.393 503.457 157.986 503.497 157.482C503.555 156.98 503.396 156.466 503.02 155.94C502.774 155.596 502.492 155.309 502.173 155.079C501.872 154.851 501.491 154.62 501.03 154.385L502.074 152.414C503.527 153.175 504.644 154.102 505.425 155.195ZM498.408 159.518C498.69 159.913 499.022 160.194 499.404 160.363C499.787 160.532 500.144 160.535 500.475 160.373L501.315 159.768C501.17 159.198 500.906 158.645 500.522 158.108C500.269 157.754 499.954 157.529 499.577 157.433C499.218 157.339 498.885 157.403 498.58 157.623C498.275 157.843 498.106 158.125 498.075 158.47C498.051 158.825 498.162 159.174 498.408 159.518Z" fill="white"/>
<path d="M517.623 167.941L506.506 174.964L504.826 172.273L505.876 171.61C505.279 171.531 504.725 171.329 504.212 171.006C503.717 170.686 503.301 170.257 502.965 169.719C502.511 168.991 502.286 168.228 502.29 167.43C502.306 166.626 502.538 165.861 502.987 165.136C503.447 164.404 504.095 163.774 504.933 163.244C505.76 162.722 506.595 162.415 507.44 162.323C508.295 162.224 509.08 162.346 509.796 162.688C510.523 163.023 511.114 163.555 511.569 164.283C511.905 164.821 512.103 165.388 512.164 165.982C512.242 166.581 512.187 167.167 511.999 167.742L515.942 165.25L517.623 167.941ZM505.712 169.109C506.054 169.658 506.525 169.986 507.124 170.093C507.734 170.194 508.341 170.053 508.945 169.671C509.549 169.289 509.934 168.804 510.098 168.214C510.262 167.625 510.173 167.056 509.83 166.507C509.468 165.927 508.975 165.576 508.353 165.454C507.74 165.326 507.137 165.45 506.544 165.825C505.939 166.206 505.556 166.706 505.395 167.323C505.244 167.934 505.349 168.529 505.712 169.109Z" fill="white"/>
<path d="M509.932 181.613C509.478 180.769 509.261 179.874 509.279 178.928C509.297 177.982 509.533 177.11 509.985 176.31C510.449 175.504 511.077 174.885 511.869 174.453C512.662 174.021 513.514 173.832 514.426 173.888C515.338 173.943 516.192 174.221 516.988 174.723C517.784 175.224 518.409 175.897 518.862 176.741C519.316 177.585 519.534 178.48 519.515 179.426C519.497 180.371 519.261 181.244 518.809 182.044C518.356 182.844 517.734 183.46 516.941 183.892C516.149 184.324 515.291 184.516 514.368 184.466C513.456 184.411 512.602 184.133 511.806 183.631C511.01 183.13 510.386 182.457 509.932 181.613ZM512.259 180.343C512.46 180.716 512.744 181.007 513.113 181.217C513.482 181.427 513.882 181.535 514.312 181.541C514.748 181.558 515.153 181.465 515.528 181.261C515.902 181.057 516.201 180.766 516.425 180.389C516.655 180.022 516.778 179.629 516.794 179.209C516.822 178.783 516.735 178.384 516.535 178.011C516.334 177.638 516.05 177.347 515.681 177.137C515.323 176.921 514.926 176.804 514.49 176.787C514.059 176.781 513.657 176.88 513.283 177.084C512.909 177.288 512.607 177.573 512.377 177.94C512.153 178.317 512.027 178.719 512 179.145C511.973 179.571 512.059 179.97 512.259 180.343Z" fill="white"/>
<path d="M527.222 186.839L528.525 189.755L516.777 195.11L515.473 192.195L527.222 186.839Z" fill="white"/>
<path d="M449.491 208.612L454.075 210.12C454.75 210.341 455.277 210.448 455.657 210.442C456.051 210.439 456.385 210.341 456.659 210.149C456.941 209.951 457.091 209.679 457.109 209.333C457.14 208.989 457.046 208.659 456.825 208.343C456.557 207.961 456.222 207.669 455.821 207.467C455.426 207.274 454.926 207.135 454.322 207.05L454.709 204.792C456.482 204.937 457.843 205.687 458.791 207.041C459.233 207.672 459.505 208.317 459.608 208.976C459.716 209.643 459.654 210.262 459.422 210.833C459.196 211.412 458.813 211.891 458.273 212.269C457.683 212.682 457.047 212.905 456.364 212.937C455.695 212.972 454.859 212.803 453.854 212.429L451.952 211.755L454.334 215.157L452.428 216.492L447.759 209.825L449.491 208.612Z" fill="white"/>
<path d="M443.432 205.308C442.92 204.549 442.589 203.78 442.439 203.002C442.295 202.232 442.309 201.499 442.48 200.803L444.702 201.057C444.602 201.572 444.601 202.073 444.7 202.56C444.798 203.047 444.984 203.493 445.257 203.897C445.541 204.318 445.84 204.591 446.153 204.714C446.466 204.838 446.751 204.812 447.007 204.636C447.281 204.45 447.406 204.195 447.382 203.874C447.359 203.552 447.169 203.127 446.813 202.599L446.124 201.604L447.912 200.382L448.588 201.385C448.864 201.811 449.143 202.091 449.426 202.223C449.723 202.358 449.995 202.341 450.244 202.171C450.5 201.995 450.625 201.741 450.618 201.408C450.611 201.075 450.477 200.715 450.215 200.327C449.764 199.658 449.028 199.221 448.006 199.015L448.496 196.943C450.085 197.111 451.342 197.88 452.266 199.251C452.706 199.903 452.99 200.54 453.12 201.163C453.25 201.786 453.223 202.347 453.04 202.846C452.856 203.345 452.541 203.748 452.094 204.053C451.622 204.376 451.115 204.512 450.572 204.461C450.044 204.412 449.547 204.196 449.084 203.814C449.299 204.402 449.349 204.978 449.232 205.54C449.121 206.11 448.804 206.574 448.283 206.931C447.786 207.27 447.248 207.433 446.67 207.418C446.097 207.412 445.526 207.229 444.958 206.87C444.397 206.505 443.889 205.985 443.432 205.308Z" fill="white"/>
<path d="M445.117 196.472L443.369 197.741L436.403 193.488L438.137 192.228L443.027 195.419L441.477 189.801L443.224 188.532L445.117 196.472Z" fill="white"/>
<path d="M265.5 2.99976C305 -2.50028 353 -0.999764 397 12.9999L365 101.502L334.5 185C320.5 182 304 181.5 289.5 183.5L265.5 2.99976Z" fill="#F59E00"/>
<path d="M265.5 2.99968C309.5 -3.0004 356 -0.000507355 397 12.9995L366.5 98C337 88.5 303.5 88 277 92L265.5 2.99968Z" fill="#FAB900"/>
<path d="M283.606 42.4736C282.449 42.6199 281.338 42.575 280.273 42.339C279.207 42.0904 278.239 41.6633 277.37 41.0575L278.907 38.659C280.379 39.5848 281.869 39.9523 283.379 39.7615C283.97 39.6868 284.409 39.5227 284.696 39.2691C284.984 39.0156 285.104 38.7064 285.058 38.3417C285.027 38.0901 284.926 37.8984 284.756 37.7666C284.586 37.6347 284.331 37.5392 283.991 37.4799C283.664 37.419 283.131 37.3458 282.392 37.2603C281.292 37.1565 280.386 37.0091 279.671 36.8183C278.956 36.6148 278.365 36.287 277.899 35.8348C277.444 35.3684 277.164 34.7201 277.059 33.89C276.955 33.0725 277.072 32.3231 277.407 31.6418C277.743 30.9605 278.26 30.4031 278.959 29.9698C279.669 29.5222 280.515 29.2365 281.496 29.1125C283.584 28.8486 285.407 29.2188 286.965 30.223L285.614 32.7321C284.966 32.354 284.307 32.0923 283.637 31.947C282.978 31.7875 282.346 31.7459 281.743 31.8222C281.24 31.8858 280.857 32.0428 280.595 32.2932C280.332 32.5435 280.222 32.8322 280.263 33.1592C280.297 33.4233 280.399 33.6276 280.571 33.772C280.755 33.9149 281.031 34.0269 281.399 34.1082C281.765 34.1769 282.298 34.2438 282.996 34.3089C284.094 34.4002 285.001 34.5538 285.719 34.7698C286.434 34.9733 287.013 35.3027 287.454 35.7581C287.893 36.2009 288.162 36.8122 288.26 37.592C288.37 38.4598 288.252 39.2415 287.905 39.937C287.569 40.6183 287.033 41.178 286.296 41.6161C285.559 42.0543 284.663 42.3401 283.606 42.4736Z" fill="white"/>
<path d="M295.559 41.2832C294.585 41.3538 293.664 41.1854 292.796 40.778C291.927 40.3707 291.218 39.7929 290.668 39.0447C290.118 38.2838 289.809 37.4482 289.743 36.5379C289.677 35.6275 289.862 34.7625 290.299 33.9428C290.735 33.1231 291.353 32.4491 292.154 31.9208C292.955 31.3925 293.842 31.0931 294.815 31.0225C295.789 30.952 296.71 31.1204 297.578 31.5278C298.447 31.9351 299.156 32.5129 299.706 33.2611C300.256 34.0093 300.564 34.8386 300.63 35.749C300.696 36.6593 300.511 37.5307 300.076 38.363C299.639 39.1827 299.021 39.8566 298.22 40.385C297.42 40.9133 296.533 41.2127 295.559 41.2832ZM295.365 38.609C295.795 38.5779 296.185 38.4352 296.535 38.181C296.885 37.9269 297.154 37.6023 297.342 37.2074C297.542 36.8116 297.626 36.3988 297.595 35.9689C297.564 35.539 297.421 35.1426 297.166 34.7798C296.923 34.416 296.611 34.14 296.229 33.9516C295.846 33.7506 295.439 33.6656 295.009 33.6968C294.579 33.7279 294.189 33.8706 293.839 34.1248C293.488 34.3663 293.212 34.6849 293.012 35.0808C292.825 35.4757 292.747 35.8881 292.778 36.318C292.809 36.7479 292.946 37.1447 293.188 37.5084C293.443 37.8713 293.762 38.1532 294.146 38.3542C294.529 38.5552 294.935 38.6402 295.365 38.609Z" fill="white"/>
<path d="M308.867 30.4114C309.742 30.3965 310.525 30.605 311.217 31.037C311.909 31.4563 312.452 32.0557 312.846 32.8351C313.239 33.6018 313.444 34.4795 313.461 35.4682C313.478 36.4695 313.303 37.3664 312.936 38.1587C312.569 38.9384 312.047 39.5559 311.37 40.0112C310.693 40.4538 309.917 40.6826 309.043 40.6975C308.396 40.7085 307.792 40.5921 307.23 40.3481C306.68 40.0912 306.205 39.7316 305.804 39.2693L305.826 40.5241L302.593 40.5792L302.367 27.2891L305.599 27.234L305.679 31.9492C306.064 31.4735 306.527 31.1043 307.068 30.8415C307.621 30.5658 308.221 30.4224 308.867 30.4114ZM308.027 38.0332C308.724 38.0213 309.291 37.7834 309.727 37.3196C310.162 36.843 310.374 36.2435 310.362 35.521C310.35 34.8112 310.118 34.2319 309.667 33.7831C309.215 33.3217 308.641 33.0969 307.943 33.1088C307.284 33.12 306.749 33.3574 306.339 33.8208C305.928 34.2843 305.729 34.8772 305.742 35.5997C305.754 36.3222 305.973 36.9144 306.4 37.3763C306.826 37.8255 307.368 38.0444 308.027 38.0332Z" fill="white"/>
<path d="M319.097 32.5448C319.445 31.9084 319.904 31.421 320.472 31.0828C321.04 30.7319 321.679 30.567 322.389 30.5881L322.309 33.2682C321.321 33.2388 320.527 33.4815 319.929 33.9964C319.343 34.5116 319.036 35.2191 319.009 36.1188L318.992 36.0802L318.859 40.547L315.647 40.4515L315.939 30.6246L319.151 30.7201L319.097 32.5448Z" fill="white"/>
<path d="M328.948 38.6833C329.327 38.7109 329.725 38.6636 330.14 38.5414C330.556 38.4191 330.918 38.2421 331.228 38.0104L332.985 40.0641C332.523 40.4753 331.902 40.7987 331.122 41.0343C330.343 41.2572 329.587 41.3419 328.853 41.2885C327.855 41.2157 326.967 40.9286 326.19 40.4272C325.425 39.9266 324.844 39.2678 324.446 38.4507C324.048 37.6337 323.885 36.732 323.957 35.7458C324.028 34.7722 324.312 33.9159 324.811 33.1769C325.311 32.4252 325.962 31.8625 326.764 31.4888C327.581 31.1034 328.475 30.9461 329.449 31.017C331.004 31.1303 332.173 31.7556 332.954 32.893C333.749 34.0186 334.079 35.517 333.942 37.3883L326.944 36.8786C327.059 37.3954 327.289 37.8188 327.633 38.149C327.991 38.4674 328.429 38.6455 328.948 38.6833ZM329.318 33.6005C328.838 33.5655 328.404 33.6674 328.018 33.9062C327.632 34.145 327.334 34.4856 327.124 34.9279L331.107 35.218C331.001 34.7527 330.793 34.3753 330.484 34.0858C330.175 33.7963 329.786 33.6346 329.318 33.6005Z" fill="white"/>
<path d="M342.566 32.3349C343.434 32.444 344.18 32.7613 344.803 33.2869C345.429 33.7999 345.881 34.47 346.161 35.2973C346.442 36.112 346.521 37.0099 346.397 37.991C346.272 38.9847 345.972 39.8478 345.497 40.5802C345.023 41.3001 344.419 41.8375 343.684 42.1924C342.952 42.5347 342.151 42.6513 341.283 42.5423C340.642 42.4617 340.06 42.2608 339.538 41.9397C339.03 41.6076 338.611 41.1843 338.279 40.6699L337.715 45.1604L334.508 44.7574L336.141 31.7577L339.349 32.1607L339.192 33.4059C339.641 32.9895 340.151 32.6895 340.724 32.5059C341.31 32.3113 341.924 32.2543 342.566 32.3349ZM340.655 39.761C341.347 39.848 341.941 39.6927 342.439 39.2952C342.937 38.8851 343.232 38.3216 343.322 37.6046C343.41 36.9002 343.263 36.2939 342.88 35.7858C342.498 35.2651 341.961 34.9613 341.269 34.8743C340.615 34.7922 340.052 34.9514 339.58 35.3521C339.108 35.7527 338.827 36.3115 338.737 37.0285C338.647 37.7455 338.78 38.3627 339.137 38.8803C339.495 39.3853 340.001 39.6788 340.655 39.761Z" fill="white"/>
<path d="M353.025 41.7193C353.4 41.7867 353.8 41.7815 354.226 41.7037C354.652 41.6259 355.031 41.4881 355.363 41.2902L356.894 43.5175C356.391 43.8778 355.74 44.134 354.94 44.2861C354.142 44.4257 353.381 44.4304 352.657 44.3001C351.671 44.1225 350.819 43.7435 350.099 43.163C349.391 42.5848 348.883 41.8684 348.573 41.014C348.263 40.1595 348.196 39.2457 348.371 38.2725C348.544 37.3119 348.918 36.4903 349.491 35.8079C350.067 35.113 350.774 34.622 351.612 34.3349C352.464 34.0375 353.37 33.9754 354.331 34.1484C355.866 34.4248 356.962 35.1697 357.619 36.383C358.291 37.5861 358.461 39.1109 358.128 40.9574L351.223 39.7136C351.282 40.2396 351.466 40.6849 351.774 41.0495C352.097 41.4039 352.514 41.6271 353.025 41.7193ZM353.929 36.7037C353.455 36.6183 353.013 36.6741 352.604 36.8709C352.195 37.0677 351.863 37.375 351.607 37.7927L355.537 38.5006C355.481 38.0267 355.314 37.6295 355.037 37.3091C354.76 36.9887 354.39 36.7869 353.929 36.7037Z" fill="white"/>
<path d="M362.593 46.3217C361.79 46.1379 361.021 45.832 360.287 45.4039C359.555 44.9634 358.951 44.4481 358.475 43.858L360.198 42.1259C360.579 42.5641 361.037 42.9486 361.573 43.2792C362.108 43.6098 362.654 43.8387 363.21 43.9659C363.556 44.0451 363.833 44.0565 364.041 44C364.252 43.9312 364.379 43.8041 364.421 43.6187C364.469 43.4086 364.382 43.2197 364.161 43.0519C363.942 42.8718 363.57 42.6502 363.045 42.387C362.306 42.0359 361.712 41.7049 361.263 41.3941C360.826 41.0861 360.491 40.7038 360.257 40.2472C360.023 39.7906 359.981 39.2348 360.131 38.5798C360.27 37.9743 360.549 37.4659 360.968 37.0546C361.402 36.6338 361.941 36.3539 362.584 36.2149C363.242 36.0664 363.961 36.0812 364.739 36.2593C365.431 36.4176 366.085 36.6843 366.702 37.0594C367.331 37.4374 367.881 37.8753 368.352 38.3733L366.732 40.168C366.365 39.7848 365.953 39.4501 365.499 39.164C365.056 38.8808 364.625 38.6911 364.205 38.5949C363.921 38.5299 363.673 38.5318 363.462 38.6006C363.251 38.6694 363.129 38.778 363.095 38.9263C363.05 39.124 363.11 39.2873 363.276 39.4162C363.454 39.548 363.844 39.7739 364.447 40.0939C365.137 40.4337 365.705 40.7652 366.151 41.0884C366.609 41.4144 366.958 41.8256 367.195 42.3222C367.448 42.8091 367.496 43.3925 367.341 44.0722C367.12 45.0361 366.579 45.725 365.717 46.1391C364.87 46.5435 363.829 46.6044 362.593 46.3217Z" fill="white"/>
<path d="M373.486 49.0762C372.546 48.8125 371.737 48.3418 371.058 47.6642C370.379 46.9865 369.908 46.2026 369.644 45.3122C369.384 44.4097 369.377 43.519 369.623 42.6402C369.87 41.7614 370.337 41.0103 371.026 40.3871C371.714 39.7639 372.524 39.3395 373.457 39.1139C374.389 38.8883 375.325 38.9074 376.265 39.1711C377.205 39.4347 378.014 39.9054 378.693 40.583C379.372 41.2607 379.843 42.0447 380.107 42.935C380.371 43.8253 380.379 44.7099 380.133 45.5887C379.886 46.4676 379.417 47.2247 378.725 47.8601C378.037 48.4833 377.226 48.9077 376.294 49.1333C375.362 49.3589 374.426 49.3399 373.486 49.0762ZM374.21 46.4946C374.625 46.6111 375.04 46.6091 375.456 46.4887C375.872 46.3683 376.235 46.1541 376.545 45.8462C376.867 45.5416 377.087 45.1818 377.203 44.7668C377.32 44.3518 377.319 43.9304 377.202 43.5026C377.098 43.0782 376.897 42.7126 376.602 42.4058C376.309 42.0868 375.956 41.869 375.541 41.7526C375.126 41.6362 374.71 41.6382 374.295 41.7586C373.882 41.8667 373.515 42.0731 373.193 42.3776C372.882 42.6856 372.669 43.0471 372.553 43.4621C372.436 43.8771 372.43 44.2968 372.535 44.7212C372.652 45.149 372.857 45.5224 373.149 45.8414C373.441 46.1605 373.795 46.3782 374.21 46.4946Z" fill="white"/>
<path d="M287.659 117.292L291.312 114.139C291.849 113.675 292.213 113.278 292.403 112.95C292.603 112.61 292.692 112.274 292.668 111.94C292.644 111.596 292.488 111.327 292.2 111.134C291.922 110.93 291.59 110.841 291.206 110.868C290.74 110.9 290.318 111.037 289.938 111.277C289.568 111.516 289.192 111.873 288.808 112.347L287.072 110.852C288.109 109.407 289.453 108.627 291.102 108.511C291.871 108.458 292.564 108.557 293.181 108.808C293.809 109.059 294.308 109.431 294.678 109.924C295.058 110.416 295.271 110.99 295.317 111.648C295.367 112.366 295.23 113.026 294.906 113.629C294.592 114.22 294.016 114.85 293.178 115.518L291.621 116.802L295.764 116.512L295.926 118.834L287.807 119.401L287.659 117.292Z" fill="white"/>
<path d="M302.226 118.98C301.383 118.994 300.613 118.885 299.916 118.652C299.229 118.418 298.679 118.065 298.265 117.592C297.851 117.12 297.639 116.553 297.627 115.891C297.616 115.273 297.788 114.731 298.143 114.266C298.508 113.79 299.008 113.419 299.644 113.152C298.451 112.639 297.844 111.818 297.824 110.687C297.813 110.058 297.996 109.516 298.372 109.061C298.759 108.596 299.275 108.24 299.922 107.994C300.568 107.748 301.27 107.618 302.027 107.605C302.795 107.592 303.507 107.702 304.161 107.936C304.816 108.159 305.339 108.497 305.731 108.949C306.134 109.39 306.34 109.92 306.351 110.538C306.371 111.658 305.788 112.5 304.603 113.065C305.258 113.331 305.772 113.696 306.142 114.158C306.524 114.611 306.719 115.135 306.73 115.732C306.741 116.394 306.549 116.968 306.152 117.455C305.755 117.942 305.212 118.314 304.523 118.571C303.834 118.829 303.068 118.965 302.226 118.98ZM302.107 112.181C302.523 112.152 302.883 112.023 303.189 111.794C303.505 111.564 303.66 111.289 303.654 110.969C303.649 110.649 303.5 110.385 303.208 110.177C302.917 109.958 302.536 109.853 302.067 109.861C301.608 109.869 301.237 109.982 300.952 110.2C300.668 110.419 300.529 110.693 300.535 111.024C300.541 111.354 300.695 111.629 300.997 111.848C301.31 112.056 301.68 112.167 302.107 112.181ZM302.186 116.708C302.709 116.699 303.133 116.579 303.46 116.35C303.798 116.12 303.963 115.829 303.957 115.477C303.951 115.136 303.765 114.856 303.398 114.638C303.032 114.421 302.614 114.305 302.144 114.292C301.675 114.322 301.261 114.452 300.903 114.682C300.555 114.912 300.384 115.198 300.39 115.539C300.396 115.902 300.561 116.192 300.885 116.411C301.219 116.618 301.653 116.717 302.186 116.708Z" fill="white"/>
<path d="M315.898 110.487C316.576 110.523 317.177 110.692 317.699 110.993C318.222 111.295 318.621 111.712 318.898 112.244C319.175 112.767 319.296 113.367 319.261 114.046L319.016 118.709L316.54 118.58L316.575 117.911C316.287 118.17 315.947 118.366 315.554 118.498C315.162 118.619 314.763 118.669 314.358 118.648C313.801 118.619 313.3 118.486 312.856 118.249C312.411 118.013 312.067 117.7 311.823 117.312C311.58 116.913 311.471 116.471 311.497 115.985C311.523 115.488 311.693 115.05 312.007 114.671C312.322 114.281 312.739 113.988 313.257 113.792C313.775 113.596 314.343 113.514 314.961 113.546C315.558 113.577 316.164 113.736 316.779 114.022L316.784 113.916C316.807 113.49 316.668 113.138 316.368 112.858C316.078 112.569 315.67 112.41 315.143 112.383C314.799 112.365 314.472 112.398 314.163 112.484C313.865 112.559 313.523 112.684 313.138 112.856L312.417 111.204C313.644 110.669 314.804 110.43 315.898 110.487ZM315.064 117.101C315.459 117.121 315.808 117.053 316.11 116.897C316.413 116.74 316.597 116.516 316.663 116.225L316.707 115.389C316.271 115.194 315.784 115.082 315.247 115.054C314.893 115.035 314.589 115.121 314.335 115.311C314.092 115.491 313.962 115.733 313.946 116.037C313.931 116.341 314.024 116.589 314.227 116.783C314.441 116.977 314.719 117.083 315.064 117.101Z" fill="white"/>
<path d="M339.074 125.977C339.623 125.584 339.995 125.137 340.188 124.637C339.784 124.596 339.446 124.409 339.174 124.076C338.913 123.734 338.803 123.356 338.845 122.942C338.889 122.508 339.077 122.155 339.41 121.883C339.745 121.6 340.119 121.48 340.532 121.522C341.007 121.57 341.375 121.805 341.638 122.23C341.901 122.654 342.002 123.173 341.94 123.789C341.889 124.293 341.686 124.793 341.33 125.287C340.984 125.792 340.502 126.274 339.885 126.731L339.074 125.977Z" fill="white"/>
<path d="M348.3 112.276C349.901 112.501 351.04 113.17 351.716 114.285C352.403 115.4 352.628 116.802 352.391 118.489C352.228 119.649 351.868 120.651 351.312 121.493C350.756 122.325 350.04 122.936 349.163 123.328C348.299 123.711 347.334 123.827 346.271 123.678C344.949 123.492 343.843 122.942 342.952 122.028L344.518 120.127C344.833 120.456 345.153 120.715 345.477 120.903C345.801 121.091 346.173 121.215 346.592 121.274C347.237 121.364 347.793 121.223 348.262 120.851C348.743 120.469 349.099 119.889 349.329 119.11C348.958 119.332 348.535 119.492 348.061 119.59C347.589 119.677 347.116 119.687 346.643 119.621C345.956 119.524 345.347 119.291 344.819 118.92C344.29 118.55 343.896 118.078 343.637 117.505C343.379 116.921 343.301 116.269 343.402 115.549C343.509 114.786 343.793 114.135 344.252 113.597C344.722 113.06 345.307 112.677 346.008 112.447C346.719 112.218 347.484 112.161 348.3 112.276ZM347.792 117.53C348.179 117.584 348.536 117.541 348.862 117.401C349.19 117.25 349.458 117.019 349.666 116.709C349.669 116.062 349.552 115.575 349.313 115.245C349.074 114.916 348.681 114.713 348.133 114.636C347.628 114.565 347.2 114.647 346.849 114.883C346.5 115.107 346.296 115.424 346.239 115.832C346.177 116.273 346.294 116.651 346.589 116.966C346.897 117.273 347.298 117.461 347.792 117.53Z" fill="white"/>
<path d="M327.431 120.431C326.517 120.4 325.702 120.215 324.988 119.879C324.283 119.543 323.701 119.101 323.243 118.552L324.763 116.902C325.118 117.286 325.52 117.582 325.971 117.788C326.421 117.995 326.89 118.107 327.377 118.124C327.884 118.142 328.28 118.06 328.565 117.879C328.85 117.698 328.998 117.452 329.009 117.141C329.02 116.81 328.889 116.559 328.617 116.389C328.344 116.219 327.89 116.122 327.254 116.1L326.046 116.073L326.121 113.906L327.329 113.948C327.835 113.976 328.225 113.914 328.499 113.763C328.784 113.602 328.931 113.371 328.941 113.07C328.952 112.759 328.822 112.508 328.55 112.318C328.278 112.127 327.908 112.024 327.441 112.008C326.636 111.98 325.848 112.319 325.077 113.025L323.701 111.41C324.777 110.222 326.14 109.657 327.79 109.714C328.575 109.742 329.256 109.886 329.834 110.147C330.412 110.409 330.848 110.76 331.141 111.203C331.434 111.645 331.571 112.137 331.552 112.679C331.532 113.251 331.341 113.741 330.978 114.151C330.626 114.55 330.159 114.825 329.577 114.976C330.178 115.147 330.67 115.446 331.053 115.871C331.446 116.297 331.632 116.826 331.609 117.458C331.589 118.06 331.401 118.591 331.047 119.051C330.702 119.511 330.217 119.866 329.591 120.115C328.966 120.354 328.246 120.46 327.431 120.431Z" fill="white"/>
<path d="M336.041 113.849L334.043 114.731L333.23 112.694L337.009 110.866L339.164 111.169L337.634 122.054L334.941 121.676L336.041 113.849Z" fill="white"/>
<path d="M265.498 3C209.998 10.5 167.498 30.5015 129.998 56.5015L232.498 206.5C247.998 194.5 269.998 185 289.498 183.5L265.498 3Z" fill="#76B729"/>
<path d="M265.498 3.00015C215.498 8.49912 165.998 30.5013 129.998 56.5016L180.498 130C205.498 110.5 244.998 95 277.498 92L265.498 3.00015Z" fill="#AECA37"/>
<path d="M171.306 61.4849L174.298 59.8284L183.462 64.0359L179.529 56.9319L182.521 55.2754L189.176 67.2962L186.184 68.9527L177.02 64.7452L180.953 71.8491L177.961 73.5056L171.306 61.4849Z" fill="white"/>
<path d="M196.314 64.0821C195.389 64.5256 194.422 64.715 193.415 64.6503C192.409 64.5855 191.492 64.2927 190.666 63.7718C189.834 63.2389 189.211 62.5396 188.796 61.6738C188.382 60.808 188.23 59.89 188.342 58.9198C188.454 57.9496 188.8 57.052 189.38 56.2269C189.961 55.4018 190.714 54.7675 191.64 54.3239C192.566 53.8804 193.532 53.691 194.539 53.7557C195.546 53.8205 196.462 54.1133 197.288 54.6342C198.114 55.1551 198.735 55.8484 199.15 56.7142C199.564 57.58 199.719 58.504 199.613 59.4862C199.501 60.4564 199.155 61.354 198.574 62.1791C197.994 63.0042 197.24 63.6385 196.314 64.0821ZM195.096 61.5388C195.505 61.343 195.832 61.0533 196.077 60.6698C196.322 60.2863 196.46 59.8652 196.492 59.4066C196.536 58.9421 196.46 58.5055 196.264 58.0966C196.068 57.6878 195.775 57.3549 195.386 57.0978C195.009 56.835 194.597 56.6849 194.15 56.6475C193.698 56.5981 193.267 56.6713 192.858 56.8672C192.449 57.063 192.123 57.3527 191.878 57.7362C191.627 58.1077 191.479 58.5256 191.436 58.99C191.404 59.4487 191.486 59.8825 191.682 60.2913C191.878 60.7002 192.165 61.036 192.542 61.2988C192.931 61.5559 193.352 61.7091 193.804 61.7585C194.257 61.8079 194.687 61.7347 195.096 61.5388Z" fill="white"/>
<path d="M202.565 51.7455C202.617 50.984 202.84 50.3166 203.234 49.7432C203.622 49.1575 204.16 48.7184 204.846 48.4258L205.952 51.0201C204.995 51.4277 204.344 52.0093 203.999 52.7649C203.667 53.5153 203.686 54.3259 204.057 55.1968L204.023 55.1679L205.865 59.4919L202.755 60.8166L198.703 51.3038L201.813 49.9791L202.565 51.7455Z" fill="white"/>
<path d="M219.392 42.9568C220.069 42.7135 220.743 42.6559 221.412 42.784C222.077 42.8996 222.676 43.1874 223.21 43.6476C223.743 44.1077 224.138 44.6955 224.395 45.4108L226.625 51.6228L223.575 52.7173L221.548 47.0701C221.372 46.5807 221.084 46.2309 220.683 46.0208C220.281 45.8106 219.855 45.7866 219.403 45.9488C218.926 46.12 218.585 46.4124 218.379 46.8262C218.182 47.223 218.162 47.641 218.319 48.0802L220.394 53.8592L217.344 54.9538L215.317 49.3065C215.142 48.8171 214.853 48.4673 214.452 48.2572C214.051 48.0471 213.624 48.0231 213.172 48.1852C212.695 48.3564 212.354 48.6489 212.149 49.0627C211.951 49.4594 211.931 49.8774 212.089 50.3166L214.156 56.0768L210.975 57.2187L207.482 47.4866L210.663 46.3448L211.116 47.606C211.188 47.0561 211.402 46.5683 211.759 46.1426C212.116 45.7169 212.59 45.3982 213.18 45.1865C213.82 44.9567 214.464 44.8956 215.111 45.0031C215.755 45.0981 216.334 45.3505 216.849 45.7605C216.928 45.1513 217.19 44.5971 217.634 44.0977C218.09 43.5938 218.676 43.2135 219.392 42.9568Z" fill="white"/>
<path d="M230.512 39.5005C231.37 39.2528 232.189 39.2038 232.968 39.3537C233.746 39.5037 234.422 39.8498 234.995 40.3922C235.564 40.9218 235.973 41.6157 236.221 42.474L237.923 48.3732L234.791 49.2773L234.547 48.4318C234.301 48.8775 233.962 49.2667 233.531 49.5994C233.096 49.9192 232.622 50.1531 232.11 50.301C231.405 50.5044 230.726 50.5547 230.072 50.4521C229.418 50.3495 228.856 50.1093 228.386 49.7314C227.912 49.3408 227.587 48.838 227.409 48.2231C227.228 47.5954 227.251 46.9781 227.479 46.3713C227.702 45.7516 228.094 45.2085 228.653 44.7417C229.212 44.275 229.882 43.9289 230.664 43.7033C231.419 43.4852 232.241 43.4216 233.127 43.5126L233.088 43.3781C232.933 42.8401 232.609 42.4618 232.116 42.2434C231.632 42.0084 231.056 41.9871 230.39 42.1794C229.955 42.3051 229.563 42.4875 229.216 42.7265C228.878 42.949 228.507 43.2504 228.103 43.6306L226.497 41.8877C227.79 40.6956 229.129 39.8998 230.512 39.5005ZM232.321 48.0752C232.821 47.931 233.225 47.6964 233.533 47.3714C233.842 47.0463 233.975 46.6888 233.932 46.2989L233.627 45.242C233 45.1869 232.347 45.2574 231.668 45.4533C231.22 45.5828 230.879 45.82 230.646 46.1649C230.421 46.4933 230.364 46.8497 230.475 47.234C230.586 47.6183 230.81 47.887 231.145 48.0399C231.493 48.1891 231.885 48.2009 232.321 48.0752Z" fill="white"/>
<path d="M236.747 34.2661L240.046 33.4428L243.431 47.0068L240.132 47.8301L236.747 34.2661Z" fill="white"/>
<path d="M229.033 127.336C229.7 127.08 230.349 126.985 230.98 127.051C231.611 127.117 232.174 127.347 232.667 127.74C233.157 128.123 233.53 128.649 233.786 129.316L235.547 133.901L233.112 134.836L232.86 134.179C232.694 134.551 232.451 134.884 232.13 135.179C231.805 135.464 231.443 135.682 231.045 135.835C230.497 136.046 229.959 136.132 229.431 136.095C228.902 136.058 228.438 135.905 228.037 135.636C227.633 135.357 227.339 134.978 227.156 134.5C226.969 134.012 226.945 133.519 227.085 133.019C227.22 132.51 227.495 132.051 227.909 131.64C228.323 131.23 228.834 130.908 229.441 130.675C230.029 130.45 230.679 130.343 231.392 130.355L231.352 130.25C231.191 129.832 230.907 129.553 230.499 129.412C230.097 129.258 229.637 129.28 229.119 129.479C228.78 129.609 228.481 129.781 228.22 129.996C227.966 130.196 227.691 130.462 227.395 130.792L225.996 129.513C226.945 128.474 227.958 127.748 229.033 127.336ZM231.061 134.047C231.449 133.898 231.755 133.683 231.979 133.403C232.203 133.123 232.284 132.829 232.223 132.521L231.908 131.699C231.405 131.698 230.889 131.799 230.361 132.002C230.013 132.135 229.757 132.348 229.595 132.639C229.438 132.916 229.418 133.204 229.532 133.502C229.647 133.801 229.843 134 230.121 134.099C230.409 134.194 230.722 134.177 231.061 134.047Z" fill="white"/>
<path d="M204.953 147.824L206.622 143.031C206.867 142.325 206.989 141.773 206.99 141.374C206.994 140.959 206.897 140.606 206.7 140.315C206.498 140.014 206.214 139.851 205.85 139.827C205.489 139.787 205.141 139.881 204.804 140.107C204.398 140.382 204.084 140.728 203.865 141.146C203.654 141.559 203.499 142.082 203.399 142.716L201.031 142.267C201.216 140.405 202.029 138.988 203.471 138.016C204.143 137.562 204.826 137.288 205.521 137.192C206.224 137.091 206.874 137.167 207.47 137.422C208.075 137.67 208.571 138.081 208.959 138.656C209.383 139.284 209.605 139.957 209.627 140.676C209.651 141.38 209.458 142.257 209.046 143.306L208.303 145.294L211.924 142.851L213.293 144.881L206.196 149.668L204.953 147.824Z" fill="white"/>
<path d="M218.152 142.902C217.273 143.312 216.415 143.53 215.578 143.556C214.751 143.578 213.988 143.44 213.291 143.143L213.933 140.853C214.453 141.045 214.976 141.13 215.501 141.109C216.026 141.087 216.522 140.967 216.99 140.749C217.477 140.521 217.812 140.254 217.994 139.946C218.176 139.638 218.197 139.334 218.058 139.035C217.91 138.717 217.666 138.543 217.326 138.514C216.987 138.484 216.511 138.612 215.9 138.897L214.746 139.453L213.774 137.369L214.935 136.828C215.427 136.61 215.765 136.364 215.951 136.09C216.142 135.801 216.17 135.512 216.035 135.223C215.896 134.924 215.652 134.75 215.304 134.701C214.955 134.652 214.556 134.732 214.107 134.941C213.333 135.302 212.752 136.002 212.364 137.04L210.287 136.177C210.732 134.537 211.747 133.347 213.333 132.608C214.088 132.256 214.801 132.064 215.472 132.033C216.144 132.001 216.725 132.124 217.214 132.401C217.704 132.677 218.07 133.076 218.313 133.597C218.569 134.147 218.625 134.702 218.479 135.263C218.339 135.81 218.03 136.295 217.552 136.717C218.203 136.59 218.811 136.635 219.378 136.852C219.954 137.065 220.384 137.475 220.667 138.083C220.937 138.662 221.015 139.253 220.902 139.858C220.798 140.459 220.511 141.027 220.04 141.564C219.564 142.091 218.935 142.537 218.152 142.902Z" fill="white"/>
<path d="M242.296 129.403L244.925 125.062C245.311 124.422 245.546 123.908 245.63 123.517C245.719 123.113 245.698 122.747 245.566 122.421C245.431 122.085 245.187 121.867 244.836 121.767C244.491 121.653 244.131 121.672 243.755 121.824C243.3 122.008 242.922 122.282 242.62 122.645C242.328 123.005 242.067 123.484 241.837 124.083L239.615 123.152C240.183 121.369 241.273 120.152 242.885 119.501C243.637 119.197 244.362 119.071 245.062 119.122C245.771 119.169 246.391 119.379 246.921 119.751C247.461 120.12 247.861 120.625 248.121 121.268C248.404 121.97 248.482 122.675 248.354 123.383C248.231 124.077 247.86 124.894 247.239 125.835L246.098 127.625L250.148 125.988L251.065 128.258L243.129 131.465L242.296 129.403Z" fill="white"/>
<path d="M259.859 127.3C260.359 126.795 260.664 126.266 260.775 125.713C260.349 125.742 259.966 125.609 259.624 125.312C259.292 125.004 259.111 124.631 259.081 124.195C259.049 123.738 259.181 123.338 259.478 122.996C259.774 122.644 260.141 122.453 260.577 122.422C261.077 122.387 261.501 122.566 261.849 122.959C262.198 123.352 262.394 123.873 262.44 124.522C262.477 125.054 262.355 125.607 262.075 126.183C261.806 126.769 261.392 127.354 260.834 127.938L259.859 127.3Z" fill="white"/>
<path d="M265.328 112.611C266.893 112.335 268.161 112.615 269.131 113.451C270.112 114.286 270.748 115.528 271.039 117.177C271.239 118.311 271.207 119.357 270.942 120.313C270.676 121.259 270.192 122.048 269.492 122.681C268.799 123.301 267.933 123.703 266.893 123.887C265.601 124.114 264.4 123.936 263.29 123.352L264.176 121.1C264.571 121.312 264.949 121.457 265.309 121.534C265.669 121.611 266.054 121.614 266.464 121.542C267.094 121.43 267.572 121.13 267.897 120.639C268.23 120.136 268.387 119.486 268.365 118.688C268.086 119.008 267.739 119.286 267.326 119.521C266.911 119.746 266.472 119.899 266.01 119.981C265.337 120.099 264.698 120.066 264.091 119.88C263.484 119.695 262.973 119.373 262.556 118.916C262.138 118.448 261.867 117.863 261.743 117.159C261.611 116.413 261.678 115.719 261.944 115.076C262.221 114.432 262.651 113.895 263.237 113.467C263.832 113.037 264.529 112.752 265.328 112.611ZM266.448 117.678C266.827 117.611 267.147 117.462 267.41 117.232C267.67 116.991 267.851 116.694 267.951 116.34C267.758 115.735 267.499 115.315 267.176 115.08C266.853 114.844 266.424 114.774 265.888 114.868C265.394 114.955 265.019 115.162 264.763 115.489C264.504 115.805 264.41 116.163 264.481 116.562C264.557 116.993 264.781 117.311 265.153 117.516C265.533 117.709 265.965 117.763 266.448 117.678Z" fill="white"/>
<path d="M254.7 118.228L249.929 119.687L249.252 117.475L256.872 115.145L257.443 117.01L255.976 126.281L253.2 127.13L254.7 118.228Z" fill="white"/>
<path d="M178.168 96.9189C177.406 97.4413 176.573 97.7433 175.669 97.8248C174.764 97.9063 173.909 97.7725 173.102 97.4234C172.289 97.0644 171.638 96.5286 171.149 95.8159C170.661 95.1032 170.399 94.3078 170.365 93.4295C170.33 92.5512 170.514 91.7051 170.916 90.8911C171.318 90.0771 171.901 89.4089 172.663 88.8865C173.425 88.3641 174.258 88.0622 175.163 87.9807C176.067 87.8991 176.922 88.0329 177.729 88.382C178.536 88.7311 179.183 89.262 179.672 89.9747C180.16 90.6874 180.425 91.4878 180.466 92.376C180.501 93.2542 180.317 94.1004 179.915 94.9144C179.513 95.7283 178.93 96.3965 178.168 96.9189ZM176.733 94.8254C177.07 94.5948 177.321 94.292 177.486 93.9171C177.65 93.5422 177.715 93.1486 177.68 92.7363C177.655 92.3172 177.527 91.9394 177.296 91.6029C177.065 91.2664 176.759 91.0107 176.377 90.8359C176.006 90.6542 175.619 90.5777 175.216 90.6061C174.807 90.6247 174.434 90.7493 174.098 90.98C173.761 91.2107 173.51 91.5134 173.345 91.8884C173.174 92.2534 173.101 92.6454 173.126 93.0645C173.161 93.4767 173.294 93.8512 173.525 94.1877C173.755 94.5242 174.057 94.7833 174.429 94.9649C174.81 95.1397 175.206 95.2179 175.615 95.1993C176.024 95.1807 176.397 95.0561 176.733 94.8254Z" fill="white"/>
<path d="M186.192 80.1897L187.149 81.8615L192.398 78.8582L193.766 81.2487L188.516 84.2519L189.598 86.1424L195.378 82.8353L196.746 85.2258L188.293 90.0613L182.153 79.3276L190.606 74.4921L191.973 76.8826L186.192 80.1897Z" fill="white"/>
<path d="M202.446 71.9188L206.6 80.2466L203.877 81.6042L203.403 80.6539C203.322 81.1368 203.118 81.5874 202.79 82.0056C202.462 82.4239 202.041 82.7615 201.525 83.0186C200.935 83.3132 200.342 83.4414 199.746 83.4032C199.145 83.3543 198.59 83.1552 198.08 82.8058C197.576 82.4404 197.169 81.9462 196.858 81.3234L194.215 76.0239L196.825 74.7225L199.162 79.4099C199.393 79.8716 199.709 80.1832 200.111 80.3446C200.524 80.5007 200.94 80.4743 201.359 80.2654C201.778 80.0565 202.057 79.7429 202.197 79.3244C202.337 78.906 202.305 78.4927 202.102 78.0846L202.142 78.1249L199.724 73.2765L202.446 71.9188Z" fill="white"/>
<path d="M213.856 76.2804C213.71 76.6334 213.479 76.9716 213.163 77.2949C212.842 77.6073 212.5 77.8434 212.138 78.0034C211.336 78.3573 210.572 78.3932 209.844 78.1112C209.111 77.8183 208.568 77.2712 208.214 76.4698L206.556 72.7156L205.436 73.21L204.455 70.9871L205.574 70.4927L204.542 68.1545L207.209 66.9765L208.242 69.3147L210.004 68.5367L210.985 70.7596L209.223 71.5376L210.656 74.7814C210.777 75.0559 210.948 75.2494 211.168 75.362C211.394 75.4588 211.617 75.4587 211.837 75.3618C211.991 75.2939 212.129 75.2065 212.252 75.0996C212.371 74.9817 212.455 74.8594 212.504 74.7328L213.856 76.2804Z" fill="white"/>
<path d="M216.337 67.8116C216.402 67.1277 216.619 66.5325 216.986 66.0259C217.349 65.5082 217.843 65.1258 218.468 64.8787L219.401 67.239C218.531 67.5831 217.931 68.091 217.603 68.7626C217.286 69.4298 217.285 70.1596 217.598 70.952L217.568 70.9251L219.123 74.8589L216.294 75.9772L212.873 67.3229L215.702 66.2046L216.337 67.8116Z" fill="white"/>
<path d="M227.836 71.8692C226.962 72.1683 226.078 72.236 225.185 72.0723C224.292 71.9086 223.504 71.5505 222.82 70.998C222.133 70.4342 221.649 69.7436 221.369 68.9261C221.09 68.1086 221.051 67.2722 221.253 66.4167C221.455 65.5613 221.859 64.7953 222.464 64.1189C223.07 63.4424 223.81 62.9546 224.684 62.6555C225.558 62.3564 226.442 62.2888 227.335 62.4525C228.228 62.6162 229.017 62.9743 229.7 63.5267C230.384 64.0792 230.865 64.7642 231.145 65.5817C231.425 66.3991 231.466 67.2413 231.268 68.1081C231.066 68.9635 230.662 69.7294 230.056 70.4059C229.45 71.0824 228.711 71.5702 227.836 71.8692ZM227.015 69.4679C227.401 69.3358 227.723 69.1113 227.983 68.7943C228.242 68.4772 228.41 68.1154 228.487 67.7088C228.574 67.2982 228.552 66.8999 228.42 66.5139C228.288 66.1279 228.062 65.7995 227.741 65.5288C227.431 65.2542 227.079 65.0767 226.683 64.9964C226.284 64.9047 225.892 64.9248 225.506 65.0569C225.12 65.189 224.797 65.4135 224.538 65.7305C224.274 66.0362 224.099 66.3943 224.011 66.8048C223.934 67.2115 223.962 67.6078 224.094 67.9938C224.226 68.3799 224.447 68.7102 224.757 68.9848C225.078 69.2555 225.438 69.4367 225.837 69.5284C226.236 69.6201 226.629 69.6 227.015 69.4679ZM223.541 59.1467L226.213 58.7272L224.439 61.8833L222.531 62.5359L223.541 59.1467Z" fill="white"/>
<path d="M235.194 59.5602L237.042 59.0192L237.725 61.3513L235.876 61.8923L237.808 68.4915L235.009 69.3106L233.078 62.7115L231.903 63.0553L231.22 60.7232L232.395 60.3793L232.208 59.7402C231.962 58.8994 232.026 58.1366 232.401 57.4518C232.772 56.7555 233.378 56.2842 234.219 56.0382C234.599 55.9269 235.014 55.8929 235.465 55.9362C235.912 55.9679 236.305 56.0717 236.644 56.2475L236.567 58.1642C236.448 58.0991 236.307 58.0654 236.143 58.0631C235.977 58.0494 235.813 58.0661 235.652 58.1133C235.421 58.1807 235.253 58.3301 235.145 58.5616C235.046 58.7782 235.039 59.0304 235.123 59.3183L235.194 59.5602Z" fill="white"/>
<path d="M239.936 57.0806C239.506 57.1921 239.095 57.1376 238.703 56.9169C238.32 56.6817 238.072 56.3492 237.961 55.9194C237.852 55.5013 237.91 55.102 238.133 54.7217C238.369 54.3383 238.701 54.0908 239.131 53.9793C239.549 53.8708 239.948 53.9283 240.329 54.152C240.709 54.3756 240.953 54.6965 241.062 55.1146C241.174 55.5444 241.119 55.9553 240.898 56.3472C240.686 56.7246 240.365 56.969 239.936 57.0806ZM238.722 58.5671L241.667 57.8029L244.004 66.8105L241.06 67.5747L238.722 58.5671Z" fill="white"/>
<path d="M251.398 65.2953C250.507 65.4904 249.628 65.4559 248.759 65.1916C247.89 64.9273 247.148 64.4819 246.532 63.8553C245.913 63.2169 245.511 62.4757 245.326 61.6317C245.141 60.7877 245.198 59.9523 245.496 59.1254C245.805 58.2959 246.299 57.5796 246.978 56.9764C247.657 56.3732 248.447 55.9728 249.35 55.7751C250.1 55.6108 250.818 55.6071 251.503 55.7641C252.186 55.9093 252.812 56.1839 253.379 56.5878L251.768 58.6544C251.508 58.4779 251.205 58.354 250.857 58.2826C250.507 58.1996 250.18 58.1914 249.875 58.2582C249.489 58.3429 249.148 58.528 248.855 58.8135C248.57 59.0846 248.367 59.4179 248.244 59.8132C248.12 60.1968 248.101 60.5878 248.188 60.9864C248.278 61.3967 248.461 61.7558 248.737 62.0638C249.014 62.3718 249.339 62.5954 249.713 62.7345C250.1 62.871 250.486 62.8969 250.873 62.8122C251.189 62.7429 251.495 62.5961 251.79 62.3718C252.085 62.1475 252.312 61.8951 252.472 61.6144L254.795 62.8007C254.442 63.4309 253.981 63.9619 253.412 64.3936C252.843 64.8253 252.172 65.1258 251.398 65.2953Z" fill="white"/>
<path d="M261.022 63.4572C260.111 63.6075 259.228 63.528 258.374 63.2187C257.521 62.9094 256.802 62.4257 256.22 61.7678C255.635 61.0979 255.272 60.3368 255.132 59.4843C254.991 58.6318 255.091 57.8004 255.432 56.9902C255.773 56.18 256.298 55.4915 257.007 54.9246C257.716 54.3577 258.527 53.9991 259.439 53.8488C260.35 53.6986 261.233 53.7781 262.087 54.0874C262.94 54.3967 263.659 54.8803 264.241 55.5383C264.824 56.1963 265.186 56.9515 265.326 57.804C265.467 58.6565 265.368 59.4938 265.029 60.3158C264.688 61.126 264.163 61.8146 263.454 62.3815C262.744 62.9484 261.934 63.3069 261.022 63.4572ZM260.61 60.953C261.012 60.8866 261.367 60.7186 261.676 60.4489C261.984 60.1792 262.209 59.8501 262.352 59.4617C262.507 59.0714 262.551 58.6749 262.485 58.2724C262.418 57.8698 262.249 57.5085 261.978 57.1884C261.718 56.8664 261.399 56.633 261.023 56.4883C260.644 56.3318 260.254 56.2867 259.851 56.3531C259.449 56.4194 259.093 56.5874 258.785 56.8572C258.475 57.115 258.243 57.4391 258.088 57.8295C257.945 58.2179 257.907 58.6133 257.973 59.0159C258.04 59.4185 258.203 59.7808 258.463 60.1028C258.734 60.4229 259.059 60.6612 259.438 60.8177C259.816 60.9743 260.207 61.0193 260.61 60.953Z" fill="white"/>
<path d="M130 56.5015C21.5 136.501 -9.68575e-08 240.503 0 308.002H182C182 272.5 196 234.5 232.5 206.5L130 56.5015Z" fill="#00B0EB"/>
<path d="M130 56.5015C25 134.001 0.5 233.5 0 308.002H90.8C89 252.501 114 177.5 180.5 130L130 56.5015Z" fill="#71CAF4"/>
<path d="M47.2484 230.304L49.3463 223.438C49.5918 222.634 49.9546 221.971 50.4349 221.449C50.9063 220.91 51.4433 220.544 52.0458 220.352C52.6522 220.147 53.2742 220.141 53.9118 220.336C54.5621 220.535 55.0936 220.871 55.5062 221.346C55.9061 221.817 56.1651 222.384 56.2831 223.047C56.8445 222.396 57.4891 221.952 58.217 221.714C58.936 221.46 59.6526 221.442 60.3666 221.66C61.0552 221.87 61.6152 222.251 62.0467 222.801C62.4653 223.347 62.7245 224.005 62.824 224.774C62.9108 225.539 62.8237 226.349 62.5627 227.204L60.3888 234.319L47.2484 230.304ZM54.3035 225.83C54.4398 225.384 54.4381 224.979 54.2981 224.616C54.1582 224.252 53.9097 224.016 53.5527 223.907C53.1957 223.798 52.8639 223.857 52.5576 224.084C52.2384 224.307 52.0107 224.642 51.8743 225.088L51.0153 227.9L53.4445 228.642L54.3035 225.83ZM59.6198 226.911C59.7639 226.439 59.7616 226.013 59.6128 225.633C59.4552 225.236 59.1851 224.98 58.8026 224.863C58.42 224.746 58.0589 224.81 57.7192 225.055C57.3707 225.283 57.1244 225.633 56.9802 226.104L55.9692 229.413L58.6088 230.22L59.6198 226.911Z" fill="white"/>
<path d="M56.4536 212.282C56.7613 211.443 57.2059 210.754 57.7872 210.215C58.3686 209.675 59.0474 209.335 59.8235 209.194C60.5872 209.048 61.3883 209.129 62.227 209.436L67.9913 211.551L66.8684 214.612L66.0423 214.309C66.2563 214.771 66.3699 215.274 66.3831 215.818C66.3838 216.358 66.2924 216.879 66.1087 217.379C65.8561 218.068 65.495 218.646 65.0255 219.112C64.556 219.579 64.0299 219.89 63.4474 220.046C62.8523 220.197 62.2543 220.162 61.6535 219.942C61.0401 219.717 60.556 219.333 60.201 218.791C59.8335 218.244 59.6268 217.608 59.5811 216.881C59.5353 216.154 59.6525 215.408 59.9326 214.645C60.2036 213.906 60.6379 213.206 61.2356 212.545L61.1041 212.497C60.5784 212.304 60.0816 212.342 59.6138 212.611C59.1381 212.862 58.7808 213.313 58.542 213.964C58.3858 214.39 58.3015 214.813 58.2889 215.235C58.2683 215.639 58.292 216.117 58.3599 216.667L56.0046 216.932C55.8079 215.184 55.9576 213.634 56.4536 212.282ZM64.4384 215.893C64.6175 215.405 64.6672 214.94 64.5876 214.499C64.508 214.058 64.2982 213.74 63.9581 213.544L62.9254 213.165C62.5106 213.638 62.1814 214.206 61.938 214.869C61.7773 215.307 61.767 215.723 61.9071 216.115C62.0393 216.49 62.2932 216.747 62.6687 216.884C63.0442 217.022 63.3929 217.001 63.7146 216.821C64.041 216.628 64.2822 216.319 64.4384 215.893Z" fill="white"/>
<path d="M58.7784 203.455C58.5918 203.912 58.2699 204.241 57.8128 204.443C57.3483 204.628 56.8878 204.627 56.4312 204.44C55.9869 204.258 55.6698 203.942 55.4801 203.49C55.2954 203.025 55.2964 202.565 55.4831 202.108C55.6647 201.664 55.9816 201.347 56.4337 201.157C56.8857 200.967 57.3339 200.963 57.7782 201.145C58.2349 201.331 58.5642 201.653 58.7663 202.11C58.9611 202.55 58.9651 202.998 58.7784 203.455ZM72.1377 210.839C71.9914 211.197 71.803 211.552 71.5726 211.904C71.3421 212.257 71.1147 212.531 70.8904 212.727L68.7235 211.474C68.9506 211.236 69.1348 210.944 69.276 210.598C69.3769 210.351 69.3614 210.107 69.2296 209.866C69.11 209.63 68.896 209.449 68.5874 209.323L59.2939 205.524L60.5729 202.395L70.2181 206.338C70.8352 206.59 71.3351 206.953 71.7178 207.426C72.1005 207.9 72.3292 208.433 72.404 209.025C72.4787 209.617 72.39 210.222 72.1377 210.839Z" fill="white"/>
<path d="M73.4542 199.316C73.0287 200.251 72.4092 201.016 71.5956 201.612C70.7819 202.209 69.8912 202.573 68.9234 202.703C67.9434 202.828 67.0166 202.692 66.1429 202.294C65.2692 201.896 64.5639 201.29 64.027 200.474C63.4901 199.658 63.1795 198.747 63.0952 197.742C63.0109 196.737 63.1814 195.767 63.6068 194.833C64.0323 193.898 64.6518 193.133 65.4654 192.536C66.2791 191.94 67.1698 191.576 68.1376 191.446C69.1055 191.315 70.0262 191.448 70.8999 191.846C71.7736 192.244 72.485 192.854 73.034 193.675C73.5709 194.491 73.8815 195.401 73.9658 196.407C74.0501 197.412 73.8796 198.382 73.4542 199.316ZM70.8877 198.148C71.0755 197.735 71.1404 197.303 71.0822 196.852C71.024 196.4 70.8598 195.989 70.5897 195.617C70.3251 195.232 69.9865 194.946 69.5739 194.759C69.1613 194.571 68.7233 194.503 68.2598 194.556C67.8018 194.596 67.3896 194.746 67.0231 195.004C66.6444 195.256 66.3612 195.589 66.1733 196.001C65.9855 196.414 65.9207 196.846 65.9789 197.297C66.0249 197.743 66.1802 198.158 66.4448 198.542C66.7149 198.914 67.0563 199.194 67.4689 199.382C67.8815 199.57 68.3167 199.643 68.7747 199.603C69.2382 199.55 69.6593 199.398 70.0379 199.145C70.4166 198.893 70.6998 198.56 70.8877 198.148Z" fill="white"/>
<path d="M72.4779 177.196C72.9206 176.389 73.5197 175.783 74.2752 175.376C75.0191 174.963 75.8496 174.78 76.7667 174.827C77.6722 174.868 78.5807 175.138 79.4924 175.639C80.4158 176.145 81.1436 176.773 81.6759 177.521C82.1964 178.263 82.488 179.062 82.5506 179.918C82.6016 180.767 82.4058 181.595 81.9631 182.402C81.6359 182.998 81.2143 183.489 80.6982 183.875C80.1769 184.243 79.6006 184.489 78.9692 184.614L83.142 186.904L81.5061 189.885L69.4261 183.255L71.062 180.274L72.2192 180.909C71.9856 180.31 71.8898 179.694 71.9319 179.063C71.9687 178.414 72.1507 177.792 72.4779 177.196ZM79.0002 181.939C79.3531 181.296 79.4314 180.655 79.2351 180.015C79.0272 179.368 78.5901 178.862 77.9239 178.496C77.2693 178.137 76.6194 178.047 75.974 178.225C75.317 178.396 74.8121 178.804 74.4593 179.447C74.1256 180.054 74.0634 180.667 74.2725 181.283C74.4815 181.9 74.9192 182.391 75.5854 182.757C76.2517 183.123 76.9069 183.231 77.5511 183.083C78.1836 182.928 78.6666 182.547 79.0002 181.939Z" fill="white"/>
<path d="M85.6954 170.631C85.9063 170.291 86.0562 169.898 86.1452 169.451C86.2342 169.004 86.2462 168.58 86.1813 168.179L88.9521 167.544C89.1097 168.176 89.1079 168.912 88.9467 169.753C88.7742 170.588 88.4841 171.334 88.0764 171.991C87.5211 172.886 86.8203 173.573 85.9739 174.052C85.1345 174.52 84.237 174.74 83.2815 174.712C82.326 174.684 81.4064 174.396 80.5226 173.848C79.6502 173.306 78.9915 172.623 78.5464 171.798C78.0899 170.965 77.8835 170.084 77.927 169.154C77.9663 168.205 78.2566 167.295 78.7978 166.423C79.6624 165.029 80.8152 164.246 82.2562 164.073C83.693 163.881 85.2498 164.306 86.9266 165.346L83.0359 171.617C83.5735 171.763 84.0801 171.755 84.5559 171.595C85.0274 171.417 85.4072 171.096 85.6954 170.631ZM81.1408 167.806C80.8736 168.236 80.7571 168.689 80.7912 169.166C80.8253 169.642 80.9971 170.086 81.3065 170.497L83.5207 166.928C83.0355 166.8 82.5826 166.809 82.1619 166.956C81.7412 167.103 81.4008 167.386 81.1408 167.806Z" fill="white"/>
<path d="M93.8872 163.086C93.3963 163.801 92.7993 164.434 92.0962 164.986C91.3821 165.531 90.6443 165.921 89.8828 166.158L88.8565 163.803C89.4326 163.6 89.986 163.301 90.5168 162.905C91.0476 162.51 91.4829 162.065 91.8227 161.57C92.0342 161.263 92.1526 160.996 92.178 160.771C92.1924 160.538 92.1171 160.365 91.9523 160.252C91.7655 160.123 91.5471 160.135 91.2972 160.287C91.0363 160.431 90.6755 160.709 90.2147 161.12C89.5851 161.707 89.0314 162.16 88.5535 162.478C88.0831 162.786 87.5795 162.966 87.0425 163.017C86.5055 163.069 85.9458 162.895 85.3634 162.494C84.825 162.124 84.4359 161.655 84.1961 161.085C83.953 160.498 83.888 159.862 84.0012 159.18C84.1109 158.479 84.4037 157.782 84.8795 157.09C85.3024 156.474 85.8167 155.938 86.4223 155.48C87.0354 155.012 87.6768 154.644 88.3463 154.376L89.4735 156.655C88.9564 156.866 88.4699 157.139 88.014 157.472C87.5656 157.795 87.2131 158.143 86.9563 158.517C86.7826 158.77 86.6886 159.012 86.6742 159.245C86.6598 159.478 86.7185 159.64 86.8504 159.73C87.0262 159.851 87.2092 159.856 87.3994 159.744C87.5972 159.621 87.9693 159.326 88.5158 158.861C89.1153 158.318 89.6594 157.891 90.1483 157.58C90.6447 157.258 91.1817 157.077 91.7592 157.037C92.3333 156.979 92.9225 157.157 93.5269 157.572C94.384 158.162 94.8479 158.958 94.9188 159.961C94.9863 160.946 94.6424 161.987 93.8872 163.086Z" fill="white"/>
<path d="M101.026 153.209C100.403 154.025 99.6288 154.633 98.7028 155.034C97.7768 155.434 96.8275 155.59 95.8548 155.502C94.8716 155.406 93.9984 155.067 93.2352 154.484C92.472 153.902 91.9195 153.153 91.5777 152.238C91.236 151.324 91.1359 150.367 91.2775 149.368C91.4192 148.369 91.8014 147.461 92.4242 146.645C93.047 145.829 93.8214 145.221 94.7474 144.82C95.6734 144.42 96.6227 144.264 97.5954 144.352C98.568 144.44 99.4359 144.775 100.199 145.358C100.962 145.94 101.52 146.693 101.872 147.616C102.214 148.53 102.314 149.487 102.173 150.486C102.031 151.485 101.649 152.393 101.026 153.209ZM98.7841 151.498C99.0591 151.138 99.2185 150.731 99.2623 150.278C99.306 149.825 99.2377 149.387 99.0572 148.964C98.8848 148.531 98.6183 148.177 98.258 147.902C97.8976 147.627 97.4856 147.463 97.022 147.411C96.5665 147.349 96.1314 147.403 95.7166 147.573C95.2912 147.734 94.9411 147.995 94.6661 148.356C94.3911 148.716 94.2317 149.123 94.1879 149.576C94.1336 150.021 94.1926 150.46 94.365 150.893C94.5455 151.316 94.8159 151.665 95.1763 151.94C95.5367 152.215 95.9447 152.384 96.4002 152.446C96.8638 152.498 97.3082 152.443 97.7336 152.281C98.159 152.12 98.5091 151.859 98.7841 151.498Z" fill="white"/>
<path d="M144.232 250.252L142.184 249.565L141.609 241.423L143.642 242.105L143.878 247.939L147.555 243.419L149.603 244.106L144.232 250.252Z" fill="white"/>
<path d="M162.099 223.582C161.946 222.888 161.668 222.344 161.264 221.95C161.058 222.324 160.737 222.573 160.302 222.698C159.863 222.809 159.452 222.759 159.069 222.547C158.668 222.326 158.404 221.997 158.279 221.562C158.144 221.122 158.183 220.711 158.394 220.328C158.637 219.889 159.018 219.631 159.536 219.552C160.055 219.473 160.599 219.591 161.169 219.905C161.636 220.163 162.035 220.566 162.365 221.115C162.711 221.659 162.977 222.324 163.164 223.11L162.099 223.582Z" fill="white"/>
<path d="M148.957 240.213L148.445 235.164C148.368 234.421 148.246 233.868 148.078 233.506C147.906 233.129 147.669 232.85 147.368 232.669C147.057 232.482 146.731 232.454 146.391 232.586C146.047 232.703 145.771 232.935 145.562 233.282C145.309 233.703 145.172 234.149 145.149 234.621C145.133 235.084 145.213 235.624 145.39 236.24L143.054 236.834C142.435 235.068 142.573 233.44 143.469 231.95C143.886 231.255 144.39 230.718 144.979 230.338C145.574 229.948 146.195 229.743 146.843 229.721C147.496 229.691 148.119 229.854 148.714 230.211C149.363 230.601 149.849 231.117 150.173 231.76C150.492 232.387 150.688 233.264 150.758 234.389L150.924 236.504L153.174 232.76L155.272 234.021L150.864 241.358L148.957 240.213Z" fill="white"/>
<path d="M153.754 230.952L153.242 225.903C153.165 225.16 153.043 224.608 152.875 224.245C152.703 223.868 152.467 223.589 152.165 223.408C151.854 223.221 151.528 223.194 151.188 223.325C150.844 223.442 150.568 223.674 150.359 224.022C150.106 224.442 149.969 224.888 149.947 225.36C149.93 225.823 150.01 226.363 150.187 226.979L147.851 227.573C147.232 225.808 147.371 224.18 148.266 222.689C148.684 221.995 149.187 221.457 149.776 221.077C150.371 220.688 150.992 220.482 151.64 220.461C152.293 220.43 152.917 220.593 153.511 220.95C154.16 221.34 154.646 221.857 154.97 222.499C155.29 223.126 155.485 224.003 155.555 225.128L155.721 227.244L157.971 223.5L160.069 224.76L155.661 232.098L153.754 230.952Z" fill="white"/>
<path d="M156.6 209.859C157.556 208.59 158.675 207.93 159.955 207.879C161.241 207.82 162.553 208.295 163.891 209.303C164.811 209.996 165.5 210.783 165.959 211.663C166.409 212.536 166.594 213.443 166.513 214.384C166.43 215.31 166.07 216.194 165.435 217.037C164.645 218.085 163.645 218.774 162.435 219.104L161.547 216.853C161.98 216.738 162.355 216.587 162.671 216.398C162.988 216.208 163.271 215.948 163.521 215.616C163.906 215.104 164.05 214.559 163.954 213.978C163.855 213.383 163.525 212.801 162.966 212.232C162.98 212.656 162.916 213.096 162.774 213.55C162.623 213.997 162.407 214.409 162.125 214.784C161.714 215.329 161.223 215.74 160.653 216.019C160.083 216.297 159.489 216.411 158.873 216.36C158.248 216.303 157.65 216.06 157.08 215.63C156.475 215.174 156.05 214.62 155.806 213.969C155.569 213.309 155.518 212.623 155.654 211.911C155.797 211.19 156.112 210.506 156.6 209.859ZM160.875 212.8C161.106 212.493 161.239 212.166 161.274 211.818C161.3 211.464 161.229 211.124 161.062 210.797C160.508 210.487 160.032 210.355 159.635 210.403C159.238 210.452 158.876 210.693 158.549 211.127C158.247 211.528 158.114 211.935 158.149 212.349C158.176 212.756 158.351 213.082 158.675 213.326C159.024 213.589 159.405 213.669 159.817 213.565C160.227 213.447 160.579 213.192 160.875 212.8Z" fill="white"/>
</g>
</svg>
