<svg width="40" height="40" viewBox="0 0 40 40" fill="none" xmlns="http://www.w3.org/2000/svg">
<path d="M7.41778 23.1804L19.3153 34.3569C19.6398 34.6617 19.802 34.8141 20 34.8141C20.198 34.8141 20.3602 34.6617 20.6847 34.3569L32.5822 23.1804C35.8425 20.1177 36.2384 15.0777 33.4963 11.5435L32.9807 10.879C29.7005 6.65105 23.116 7.36011 20.8111 12.1895C20.4855 12.8717 19.5145 12.8717 19.1889 12.1895C16.8839 7.36011 10.2995 6.65105 7.01923 10.879L6.50364 11.5435C3.76157 15.0778 4.15748 20.1177 7.41778 23.1804Z" fill="#E32C2C" stroke="#E32C2C" stroke-width="2"/>
<path d="M7.5 19H10.2792C10.7097 19 11.0918 19.2754 11.2279 19.6838L11.4682 20.4045C11.7799 21.3398 13.114 21.3073 13.3798 20.3579L14.6829 15.7041C14.9762 14.6564 16.4953 14.7645 16.6373 15.8433L17.7832 24.5525C17.9284 25.6555 19.4957 25.7327 19.7485 24.6492L21.0024 19.2755C21.2441 18.2396 22.7216 18.2474 22.9524 19.2858L23.145 20.1526C23.37 21.1652 24.7978 21.2078 25.0827 20.2104L26.3294 15.847C26.5752 14.9868 27.7404 14.8575 28.1688 15.6429L29.7157 18.4789C29.891 18.8001 30.2277 19 30.5936 19H33" stroke="white" stroke-width="1.3" stroke-linecap="round"/>
</svg>
