<svg width="30" height="25" viewBox="0 0 30 25" fill="none" xmlns="http://www.w3.org/2000/svg">
<path d="M7.164 10H4.572L3.432 7.948L2.928 8.572V10H0.612V1.612H2.928V5.98L4.524 3.796H7.116L4.944 6.472L7.164 10ZM14.3501 3.796V9.34C14.3501 9.868 14.1981 10.336 13.8941 10.744C13.5981 11.16 13.1821 11.484 12.6461 11.716C12.1101 11.948 11.5021 12.064 10.8221 12.064C10.2621 12.064 9.72613 11.988 9.21413 11.836C8.70213 11.684 8.27413 11.484 7.93013 11.236L8.68613 9.64C8.86213 9.792 9.11413 9.912 9.44213 10C9.77013 10.096 10.1061 10.144 10.4501 10.144C10.9061 10.144 11.2821 10.056 11.5781 9.88C11.8741 9.704 12.0221 9.484 12.0221 9.22V8.728C11.7741 8.984 11.4821 9.184 11.1461 9.328C10.8101 9.472 10.4621 9.544 10.1021 9.544C9.60613 9.544 9.15013 9.42 8.73413 9.172C8.32613 8.916 8.00213 8.564 7.76213 8.116C7.53013 7.668 7.41413 7.16 7.41413 6.592C7.41413 6.024 7.53013 5.52 7.76213 5.08C8.00213 4.632 8.32613 4.284 8.73413 4.036C9.15013 3.78 9.60613 3.652 10.1021 3.652C10.4701 3.652 10.8341 3.732 11.1941 3.892C11.5541 4.044 11.8301 4.24 12.0221 4.48V3.796H14.3501ZM10.9061 7.624C11.2341 7.624 11.5021 7.528 11.7101 7.336C11.9181 7.136 12.0221 6.888 12.0221 6.592C12.0221 6.296 11.9181 6.052 11.7101 5.86C11.5021 5.668 11.2341 5.572 10.9061 5.572C10.5781 5.572 10.3101 5.668 10.1021 5.86C9.89413 6.052 9.79013 6.296 9.79013 6.592C9.79013 6.888 9.89413 7.136 10.1021 7.336C10.3101 7.528 10.5781 7.624 10.9061 7.624Z" fill="white"/>
<path d="M14.804 23.144C14.188 23.144 13.612 22.996 13.076 22.7C12.54 22.404 12.112 22.008 11.792 21.512C11.48 21.008 11.324 20.468 11.324 19.892C11.324 19.316 11.484 18.78 11.804 18.284C12.124 17.788 12.552 17.392 13.088 17.096C13.632 16.8 14.216 16.652 14.84 16.652C15.376 16.652 15.86 16.756 16.292 16.964C16.732 17.164 17.108 17.444 17.42 17.804L15.896 19.052C15.776 18.916 15.616 18.804 15.416 18.716C15.216 18.62 15.016 18.572 14.816 18.572C14.472 18.572 14.172 18.704 13.916 18.968C13.66 19.224 13.532 19.528 13.532 19.88C13.532 20.248 13.66 20.564 13.916 20.828C14.172 21.092 14.476 21.224 14.828 21.224C15.028 21.224 15.228 21.18 15.428 21.092C15.636 20.996 15.804 20.876 15.932 20.732L17.456 21.956C16.768 22.748 15.884 23.144 14.804 23.144ZM26.1171 16.652C26.5491 16.652 26.9411 16.756 27.2931 16.964C27.6531 17.164 27.9371 17.448 28.1451 17.816C28.3611 18.184 28.4691 18.596 28.4691 19.052V23.012H26.2611V19.472C26.2611 19.208 26.1771 18.992 26.0091 18.824C25.8491 18.656 25.6411 18.572 25.3851 18.572C25.1291 18.572 24.9171 18.652 24.7491 18.812C24.5891 18.964 24.5091 19.16 24.5091 19.4V23.012H22.3011V19.472C22.3011 19.208 22.2171 18.992 22.0491 18.824C21.8891 18.656 21.6811 18.572 21.4251 18.572C21.1691 18.572 20.9571 18.652 20.7891 18.812C20.6291 18.964 20.5491 19.16 20.5491 19.4V23H18.2331V16.796H20.5491V17.552C20.7011 17.272 20.9171 17.052 21.1971 16.892C21.4771 16.732 21.7971 16.652 22.1571 16.652C22.5571 16.652 22.9291 16.744 23.2731 16.928C23.6171 17.104 23.8931 17.352 24.1011 17.672C24.2851 17.36 24.5531 17.112 24.9051 16.928C25.2651 16.744 25.6691 16.652 26.1171 16.652Z" fill="white"/>
<path d="M23 4L4 24" stroke="white" stroke-width="2"/>
</svg>
