<svg width="936" height="883" viewBox="0 0 936 883" fill="none" xmlns="http://www.w3.org/2000/svg">
<rect width="936" height="883" fill="white"/>
<path d="M834.412 689.117C834.412 282.176 487.991 95.9781 467.643 95.0117C442.717 95.9781 95.2775 284.575 95.2775 689.117C345.047 809.097 587.695 809.097 834.412 689.117Z" stroke="black" stroke-width="3"/>
<line y1="-1.5" x2="991.209" y2="-1.5" transform="matrix(0.882351 0.470591 -0.47605 0.879418 45.934 267.779)" stroke="black" stroke-width="3"/>
<line y1="-1.5" x2="781.8" y2="-1.5" transform="matrix(0.880591 -0.473876 0.479351 0.877623 49.3141 715.998)" stroke="black" stroke-width="3"/>
<line x1="466.5" y1="779.344" x2="466.5" y2="95.0187" stroke="black" stroke-width="3"/>
<path d="M409.998 85.0645H408.561V75.3223L405.295 85.0645H403.936L400.67 75.3223V85.0645H399.233V73.6113H401.506L404.608 83.1582L407.725 73.6113H409.998V85.0645ZM421.1 85.0645H412.561V73.6113H420.834V74.9707H414.076V78.4707H420.397V79.8301H414.076V83.7051H421.1V85.0645ZM427.553 85.2598C425.938 85.2598 424.73 84.8978 423.928 84.1738C423.131 83.4499 422.712 82.5202 422.67 81.3848H424.131C424.209 82.2389 424.563 82.8717 425.194 83.2832C425.829 83.6895 426.595 83.8926 427.49 83.8926C428.339 83.8926 429.022 83.7181 429.537 83.3691C430.058 83.0202 430.319 82.5462 430.319 81.9473C430.319 81.3171 430.05 80.8587 429.514 80.5723C428.977 80.2858 428.053 80.0046 426.74 79.7285C425.433 79.4473 424.493 79.0592 423.92 78.5645C423.352 78.0697 423.069 77.4108 423.069 76.5879C423.069 75.6608 423.438 74.9004 424.178 74.3066C424.923 73.7129 425.91 73.416 427.139 73.416C428.431 73.416 429.472 73.7155 430.264 74.3145C431.056 74.9134 431.475 75.7598 431.522 76.8535H430.045C429.894 75.4681 428.946 74.7754 427.201 74.7754C426.358 74.7754 425.704 74.9342 425.24 75.252C424.777 75.5697 424.545 75.9915 424.545 76.5176C424.545 76.9967 424.73 77.3561 425.1 77.5957C425.475 77.8353 426.17 78.0671 427.186 78.291C428.207 78.515 429.017 78.7363 429.615 78.9551C430.214 79.1738 430.727 79.515 431.155 79.9785C431.582 80.4368 431.795 81.054 431.795 81.8301C431.795 82.8145 431.402 83.6322 430.615 84.2832C429.834 84.9342 428.813 85.2598 427.553 85.2598ZM438.865 73.416C440.47 73.416 441.782 73.9577 442.803 75.041C443.824 76.1243 444.334 77.5566 444.334 79.3379C444.334 81.1191 443.824 82.5514 442.803 83.6348C441.782 84.7181 440.47 85.2598 438.865 85.2598C437.256 85.2598 435.938 84.7181 434.912 83.6348C433.886 82.5462 433.373 81.1139 433.373 79.3379C433.373 77.5566 433.886 76.1243 434.912 75.041C435.938 73.9577 437.256 73.416 438.865 73.416ZM438.85 83.9629C439.996 83.9629 440.933 83.5566 441.662 82.7441C442.397 81.9316 442.764 80.7962 442.764 79.3379C442.764 77.8796 442.399 76.7441 441.67 75.9316C440.941 75.1191 440.011 74.7129 438.881 74.7129C437.73 74.7129 436.785 75.1191 436.045 75.9316C435.311 76.7441 434.944 77.8796 434.944 79.3379C434.944 80.791 435.311 81.9264 436.045 82.7441C436.78 83.5566 437.714 83.9629 438.85 83.9629ZM457.123 85.0645H455.686V75.3223L452.42 85.0645H451.061L447.795 75.3223V85.0645H446.358V73.6113H448.631L451.733 83.1582L454.85 73.6113H457.123V85.0645ZM464.647 73.416C466.251 73.416 467.563 73.9577 468.584 75.041C469.605 76.1243 470.115 77.5566 470.115 79.3379C470.115 81.1191 469.605 82.5514 468.584 83.6348C467.563 84.7181 466.251 85.2598 464.647 85.2598C463.037 85.2598 461.72 84.7181 460.694 83.6348C459.668 82.5462 459.155 81.1139 459.155 79.3379C459.155 77.5566 459.668 76.1243 460.694 75.041C461.72 73.9577 463.037 73.416 464.647 73.416ZM464.631 83.9629C465.777 83.9629 466.714 83.5566 467.444 82.7441C468.178 81.9316 468.545 80.7962 468.545 79.3379C468.545 77.8796 468.181 76.7441 467.451 75.9316C466.722 75.1191 465.793 74.7129 464.662 74.7129C463.511 74.7129 462.566 75.1191 461.826 75.9316C461.092 76.7441 460.725 77.8796 460.725 79.3379C460.725 80.791 461.092 81.9264 461.826 82.7441C462.561 83.5566 463.496 83.9629 464.631 83.9629ZM481.686 85.0645H480.045L478.967 82.0098C478.774 81.4681 478.454 81.0254 478.006 80.6816C477.558 80.3379 477.043 80.166 476.459 80.166H473.655V85.0645H472.139V73.6113H477.209C478.095 73.6113 478.819 73.6973 479.381 73.8691C479.944 74.041 480.402 74.403 480.756 74.9551C481.11 75.5072 481.287 76.1296 481.287 76.8223C481.287 77.6139 481.058 78.2754 480.6 78.8066C480.142 79.3379 479.514 79.6842 478.717 79.8457V79.877C479.514 80.1322 480.121 80.8223 480.537 81.9473L481.686 85.0645ZM473.655 78.8066H477.037C477.98 78.8066 478.662 78.6582 479.084 78.3613C479.511 78.0645 479.725 77.5514 479.725 76.8223C479.725 75.5202 478.907 74.8691 477.272 74.8691H473.655V78.8066ZM491.428 74.9707H485.217V78.5176H490.6V79.877H485.217V85.0645H483.701V73.6113H491.428V74.9707ZM495.194 85.0645H493.67V73.6113H495.194V85.0645ZM502.256 85.2598C500.642 85.2598 499.433 84.8978 498.631 84.1738C497.834 83.4499 497.415 82.5202 497.373 81.3848H498.834C498.912 82.2389 499.267 82.8717 499.897 83.2832C500.532 83.6895 501.298 83.8926 502.194 83.8926C503.043 83.8926 503.725 83.7181 504.24 83.3691C504.761 83.0202 505.022 82.5462 505.022 81.9473C505.022 81.3171 504.753 80.8587 504.217 80.5723C503.681 80.2858 502.756 80.0046 501.444 79.7285C500.136 79.4473 499.196 79.0592 498.623 78.5645C498.056 78.0697 497.772 77.4108 497.772 76.5879C497.772 75.6608 498.142 74.9004 498.881 74.3066C499.626 73.7129 500.613 73.416 501.842 73.416C503.134 73.416 504.175 73.7155 504.967 74.3145C505.759 74.9134 506.178 75.7598 506.225 76.8535H504.748C504.597 75.4681 503.649 74.7754 501.905 74.7754C501.061 74.7754 500.407 74.9342 499.944 75.252C499.48 75.5697 499.248 75.9915 499.248 76.5176C499.248 76.9967 499.433 77.3561 499.803 77.5957C500.178 77.8353 500.873 78.0671 501.889 78.291C502.91 78.515 503.72 78.7363 504.319 78.9551C504.918 79.1738 505.431 79.515 505.858 79.9785C506.285 80.4368 506.498 81.054 506.498 81.8301C506.498 82.8145 506.105 83.6322 505.319 84.2832C504.537 84.9342 503.517 85.2598 502.256 85.2598ZM519.373 85.0645H517.936V75.3223L514.67 85.0645H513.311L510.045 75.3223V85.0645H508.608V73.6113H510.881L513.983 83.1582L517.1 73.6113H519.373V85.0645ZM526.897 73.416C528.501 73.416 529.813 73.9577 530.834 75.041C531.855 76.1243 532.365 77.5566 532.365 79.3379C532.365 81.1191 531.855 82.5514 530.834 83.6348C529.813 84.7181 528.501 85.2598 526.897 85.2598C525.287 85.2598 523.97 84.7181 522.944 83.6348C521.918 82.5462 521.405 81.1139 521.405 79.3379C521.405 77.5566 521.918 76.1243 522.944 75.041C523.97 73.9577 525.287 73.416 526.897 73.416ZM526.881 83.9629C528.027 83.9629 528.964 83.5566 529.694 82.7441C530.428 81.9316 530.795 80.7962 530.795 79.3379C530.795 77.8796 530.431 76.7441 529.701 75.9316C528.972 75.1191 528.043 74.7129 526.912 74.7129C525.761 74.7129 524.816 75.1191 524.076 75.9316C523.342 76.7441 522.975 77.8796 522.975 79.3379C522.975 80.791 523.342 81.9264 524.076 82.7441C524.811 83.5566 525.746 83.9629 526.881 83.9629Z" fill="black"/>
<path d="M10.8244 679.85L6.23707 672.647L16.2008 667L20.6454 673.978L19.4628 674.648L15.8324 668.948L12.7876 670.674L16.1829 676.005L15.0003 676.675L11.605 671.345L8.23388 673.255L12.007 679.179L10.8244 679.85ZM16.8009 689.233L15.9657 687.922L20.606 678.404L12.7424 682.861L11.9701 681.649L21.9339 676.001L22.7649 677.306L18.1246 686.824L25.9882 682.366L26.7646 683.585L16.8009 689.233ZM28.1454 685.753L30.097 688.817C32.1871 692.099 31.5896 694.671 28.3046 696.533C24.9471 698.436 22.2234 697.747 20.1333 694.465L18.1817 691.401L28.1454 685.753ZM20.1785 692.009L21.2991 693.768C22.1916 695.17 23.1355 695.935 24.1306 696.065C25.1303 696.191 26.2419 695.908 27.4653 695.215C28.6569 694.539 29.4167 693.762 29.7446 692.882C30.0753 692.007 29.793 690.867 28.8976 689.461L27.777 687.702L20.1785 692.009ZM37.1919 699.593C38.0537 700.947 38.2876 702.321 37.8935 703.716C37.4995 705.111 36.5276 706.248 34.978 707.126C33.4284 708.005 31.9082 708.28 30.4173 707.954C28.9265 707.627 27.7501 706.787 26.8884 705.434C26.0238 704.077 25.7871 702.698 26.1784 701.298C26.5742 699.896 27.5446 698.757 29.0897 697.881C30.6393 697.003 32.1609 696.729 33.6546 697.061C35.1482 697.392 36.3274 698.236 37.1919 699.593ZM28.0082 704.781C28.6237 705.748 29.4808 706.338 30.5794 706.552C31.6807 706.771 32.8657 706.521 34.1344 705.802C35.4031 705.083 36.195 704.215 36.5102 703.2C36.8253 702.184 36.6793 701.199 36.0721 700.246C35.4537 699.275 34.5925 698.678 33.4883 698.455C32.387 698.236 31.202 698.487 29.9333 699.206C28.6691 699.922 27.8786 700.792 27.5617 701.815C27.2494 702.835 27.3982 703.824 28.0082 704.781ZM36.8666 720.737L36.0944 719.525L44.5697 714.721L34.34 716.77L33.6098 715.624L40.3307 708.065L31.8554 712.869L31.0832 711.657L41.0469 706.009L42.2682 707.927L35.629 715.25L45.609 713.172L46.8303 715.089L36.8666 720.737ZM51.0419 721.339C51.9037 722.692 52.1376 724.066 51.7435 725.461C51.3495 726.856 50.3777 727.993 48.828 728.871C47.2784 729.75 45.7582 730.026 44.2673 729.699C42.7765 729.372 41.6002 728.532 40.7384 727.179C39.8738 725.822 39.6371 724.443 40.0284 723.043C40.4242 721.641 41.3946 720.502 42.9397 719.626C44.4893 718.748 46.0109 718.474 47.5046 718.806C48.9983 719.137 50.1774 719.981 51.0419 721.339ZM41.8582 726.526C42.4738 727.493 43.3308 728.083 44.4294 728.298C45.5307 728.516 46.7158 728.266 47.9845 727.547C49.2531 726.828 50.0451 725.96 50.3602 724.945C50.6753 723.929 50.5293 722.945 49.9221 721.991C49.3038 721.02 48.4425 720.423 47.3384 720.2C46.237 719.982 45.052 720.232 43.7833 720.951C42.5191 721.667 41.7286 722.537 41.4118 723.56C41.0994 724.58 41.2483 725.569 41.8582 726.526ZM50.0619 741.454L49.1805 740.07L51.2588 737.655C51.6265 737.225 51.8396 736.737 51.898 736.189C51.9564 735.642 51.8289 735.122 51.5156 734.63L50.0088 732.265L45.7474 734.68L44.9332 733.402L54.8969 727.754L57.6208 732.031C58.0964 732.777 58.4106 733.43 58.5632 733.99C58.7159 734.549 58.6472 735.114 58.3572 735.685C58.0672 736.256 57.6208 736.712 57.0182 737.054C56.3295 737.444 55.6309 737.577 54.9226 737.452C54.2142 737.328 53.5757 736.969 53.0071 736.377L52.98 736.392C53.186 737.19 52.9116 738.042 52.1568 738.948L50.0619 741.454ZM51.1914 731.594L53.0087 734.448C53.5152 735.243 54.0108 735.745 54.4957 735.955C54.9834 736.168 55.5445 736.095 56.1788 735.736C57.3116 735.094 57.4387 734.083 56.5601 732.704L54.6169 729.653L51.1914 731.594ZM64.0767 744.694L60.7401 739.455L57.6544 741.204L60.5462 745.744L59.3636 746.415L56.4718 741.875L51.9589 744.433L51.1447 743.154L61.1085 737.507L65.2593 744.023L64.0767 744.694ZM57.3185 752.847L56.5001 751.562L66.4638 745.915L67.2822 747.2L57.3185 752.847ZM60.9426 758.901C60.0752 757.539 59.741 756.341 59.9399 755.308C60.1417 754.278 60.7252 753.466 61.6906 752.871L62.4754 754.104C61.7743 754.591 61.4141 755.201 61.3947 755.936C61.3826 756.672 61.6172 757.418 62.0984 758.174C62.5545 758.89 63.0728 759.379 63.6534 759.642C64.2368 759.909 64.789 759.895 65.3101 759.6C65.8583 759.289 66.113 758.837 66.074 758.243C66.035 757.649 65.783 756.731 65.3181 755.488C64.8605 754.246 64.693 753.262 64.8157 752.535C64.9411 751.812 65.3618 751.248 66.0777 750.842C66.8843 750.385 67.7444 750.322 68.6583 750.653C69.5749 750.988 70.3634 751.674 71.0238 752.711C71.7177 753.8 72.0167 754.827 71.9209 755.79C71.8252 756.753 71.3141 757.524 70.3878 758.103L69.5945 756.857C70.7187 756.047 70.8121 754.906 69.8747 753.434C69.4215 752.722 68.9321 752.249 68.4067 752.015C67.8813 751.781 67.3898 751.793 66.9321 752.053C66.5153 752.289 66.302 752.622 66.2922 753.052C66.2852 753.487 66.4571 754.187 66.8079 755.154C67.1615 756.126 67.404 756.918 67.5354 757.531C67.6669 758.144 67.6457 758.745 67.4719 759.334C67.3026 759.92 66.8804 760.405 66.2053 760.787C65.3489 761.273 64.4263 761.344 63.4374 761.002C62.4513 760.664 61.6197 759.964 60.9426 758.901ZM70.3081 773.242L69.5359 772.029L78.0112 767.225L67.7815 769.275L67.0513 768.128L73.7722 760.57L65.2969 765.374L64.5247 764.161L74.4884 758.514L75.7097 760.431L69.0706 767.755L79.0505 765.676L80.2719 767.594L70.3081 773.242ZM84.4835 773.843C85.3452 775.196 85.5791 776.57 85.1851 777.966C84.791 779.361 83.8192 780.498 82.2696 781.376C80.7199 782.254 79.1997 782.53 77.7088 782.203C76.218 781.877 75.0417 781.037 74.1799 779.684C73.3153 778.326 73.0786 776.948 73.4699 775.548C73.8657 774.146 74.8361 773.007 76.3812 772.131C77.9308 771.253 79.4524 770.979 80.9461 771.31C82.4398 771.641 83.6189 772.486 84.4835 773.843ZM75.2997 779.031C75.9153 779.997 76.7723 780.588 77.8709 780.802C78.9723 781.021 80.1573 780.771 81.426 780.051C82.6947 779.332 83.4866 778.465 83.8017 777.449C84.1168 776.434 83.9708 775.449 83.3636 774.496C82.7453 773.525 81.884 772.928 80.7799 772.705C79.6785 772.486 78.4935 772.736 77.2248 773.455C75.9606 774.172 75.1701 775.042 74.8533 776.064C74.5409 777.084 74.6898 778.073 75.2997 779.031Z" fill="black"/>
<path d="M855.763 762.96L851.306 770.243L841.248 764.765L845.567 757.708L846.761 758.358L843.233 764.122L846.307 765.796L849.606 760.406L850.8 761.056L847.5 766.447L850.903 768.3L854.57 762.309L855.763 762.96ZM859.552 757.142C858.707 758.524 857.565 759.374 856.126 759.692C854.685 760.003 853.167 759.724 851.57 758.855C849.974 757.985 848.961 756.885 848.531 755.555C848.099 754.218 848.306 752.859 849.151 751.477C849.801 750.416 850.649 749.672 851.696 749.247C852.743 748.822 853.777 748.826 854.8 749.258L853.984 750.591C853.316 750.298 852.646 750.292 851.974 750.572C851.306 750.847 850.747 751.351 850.298 752.084C849.692 753.075 849.564 754.051 849.915 755.012C850.262 755.971 851.087 756.805 852.39 757.515C853.689 758.223 854.866 758.482 855.921 758.292C856.976 758.103 857.804 757.517 858.405 756.535C858.873 755.771 859.059 755.049 858.963 754.369C858.867 753.689 858.481 753.123 857.805 752.673L858.621 751.34C859.634 752.016 860.212 752.876 860.354 753.919C860.497 754.962 860.229 756.036 859.552 757.142ZM858.298 739.507L856.32 742.739L865.184 747.567L864.389 748.866L855.525 744.038L853.563 747.243L852.369 746.593L857.104 738.857L858.298 739.507ZM860.378 733.133C861.216 731.764 862.377 730.904 863.861 730.551C865.345 730.199 866.869 730.448 868.434 731.3C869.998 732.152 870.989 733.273 871.408 734.662C871.826 736.051 871.617 737.429 870.779 738.798C869.939 740.17 868.776 741.035 867.289 741.392C865.797 741.747 864.272 741.499 862.712 740.65C861.148 739.798 860.158 738.675 859.742 737.282C859.326 735.888 859.538 734.505 860.378 733.133ZM869.632 738.191C870.231 737.213 870.363 736.219 870.03 735.209C869.7 734.194 868.895 733.337 867.614 732.64C866.333 731.942 865.146 731.71 864.052 731.944C862.958 732.177 862.115 732.775 861.525 733.739C860.925 734.721 860.788 735.722 861.115 736.741C861.446 737.756 862.251 738.613 863.532 739.31C864.808 740.005 865.997 740.235 867.098 740C868.195 739.762 869.04 739.159 869.632 738.191ZM880.139 723.131L879.388 724.357L870.833 719.698L877.684 727.143L876.974 728.302L866.714 726.428L875.269 731.088L874.519 732.314L864.461 726.836L865.648 724.896L875.651 726.817L868.894 719.592L870.081 717.653L880.139 723.131ZM873.836 711.143C874.674 709.774 875.835 708.914 877.319 708.561C878.803 708.209 880.327 708.459 881.892 709.311C883.456 710.163 884.447 711.283 884.866 712.672C885.284 714.061 885.075 715.439 884.237 716.808C883.397 718.18 882.234 719.045 880.747 719.402C879.255 719.757 877.73 719.509 876.17 718.66C874.606 717.808 873.616 716.685 873.2 715.292C872.784 713.898 872.996 712.515 873.836 711.143ZM883.09 716.201C883.688 715.223 883.821 714.229 883.488 713.219C883.158 712.204 882.353 711.347 881.072 710.65C879.791 709.952 878.604 709.72 877.51 709.954C876.415 710.187 875.573 710.786 874.983 711.75C874.383 712.731 874.246 713.732 874.573 714.751C874.904 715.766 875.709 716.623 876.99 717.32C878.266 718.015 879.455 718.245 880.556 718.01C881.653 717.772 882.498 717.169 883.09 716.201ZM892.96 702.181L892.104 703.58L888.859 703.039C888.282 702.944 887.726 703.005 887.191 703.223C886.655 703.441 886.235 703.798 885.93 704.296L884.466 706.688L888.768 709.031L887.977 710.324L877.919 704.846L880.566 700.521C881.028 699.766 881.481 699.189 881.926 698.792C882.37 698.394 882.927 698.176 883.597 698.138C884.267 698.1 884.906 698.247 885.514 698.578C886.209 698.957 886.671 699.469 886.898 700.114C887.125 700.759 887.102 701.46 886.828 702.217L886.855 702.232C887.495 701.674 888.418 701.487 889.623 701.669L892.96 702.181ZM883.272 706.038L885.038 703.153C885.53 702.348 885.756 701.695 885.716 701.194C885.678 700.687 885.339 700.26 884.699 699.911C883.555 699.288 882.556 699.674 881.703 701.069L879.815 704.154L883.272 706.038ZM889.182 689.043L885.939 694.341L889.054 696.037L891.864 691.446L893.058 692.096L890.248 696.688L894.804 699.169L894.013 700.462L883.954 694.983L887.988 688.393L889.182 689.043ZM900.011 690.659L899.216 691.959L889.158 686.481L889.953 685.181L900.011 690.659ZM903.87 684.729C903.027 686.106 902.078 686.964 901.024 687.301C899.972 687.635 898.937 687.548 897.918 687.04L898.68 685.794C899.471 686.136 900.212 686.137 900.902 685.796C901.591 685.448 902.169 684.892 902.636 684.128C903.08 683.404 903.282 682.739 903.245 682.132C903.211 681.521 902.93 681.072 902.404 680.786C901.851 680.484 901.308 680.494 900.777 680.814C900.245 681.135 899.516 681.789 898.588 682.776C897.659 683.757 896.827 684.373 896.094 684.625C895.363 684.873 894.636 684.8 893.913 684.406C893.099 683.963 892.624 683.283 892.489 682.369C892.356 681.449 892.611 680.466 893.252 679.417C893.927 678.315 894.733 677.57 895.673 677.181C896.612 676.793 897.574 676.84 898.559 677.323L897.788 678.582C896.493 678.049 895.39 678.526 894.479 680.014C894.038 680.734 893.837 681.367 893.874 681.915C893.911 682.462 894.16 682.861 894.622 683.113C895.043 683.342 895.455 683.356 895.859 683.156C896.265 682.95 896.831 682.468 897.558 681.709C898.288 680.945 898.905 680.36 899.41 679.954C899.914 679.548 900.482 679.274 901.112 679.131C901.737 678.986 902.391 679.099 903.072 679.47C903.937 679.941 904.449 680.668 904.611 681.65C904.775 682.627 904.528 683.654 903.87 684.729ZM912.633 670.036L911.883 671.262L903.328 666.602L910.178 674.047L909.469 675.207L899.209 673.332L907.764 677.992L907.014 679.218L896.956 673.74L898.142 671.801L908.145 673.722L901.389 666.497L902.575 664.557L912.633 670.036ZM906.331 658.047C907.169 656.679 908.329 655.818 909.814 655.466C911.298 655.113 912.822 655.363 914.386 656.215C915.951 657.067 916.942 658.187 917.361 659.576C917.779 660.965 917.57 662.344 916.732 663.712C915.892 665.085 914.729 665.949 913.242 666.306C911.75 666.661 910.224 666.413 908.665 665.564C907.1 664.712 906.11 663.589 905.695 662.196C905.279 660.803 905.491 659.42 906.331 658.047ZM915.585 663.105C916.183 662.128 916.316 661.134 915.983 660.123C915.653 659.108 914.847 658.252 913.567 657.554C912.286 656.857 911.099 656.625 910.004 656.858C908.91 657.091 908.068 657.69 907.478 658.654C906.877 659.636 906.741 660.636 907.068 661.656C907.398 662.671 908.204 663.527 909.484 664.225C910.761 664.92 911.949 665.149 913.051 664.914C914.148 664.676 914.992 664.073 915.585 663.105Z" fill="black"/>
</svg>
