<svg xmlns="http://www.w3.org/2000/svg" width="43" height="43" fill="none" viewBox="0 0 43 43">
  <circle cx="21.5" cy="21.5" r="21.5" fill="#FFF3F1"/>
  <path fill="#FF8976" d="m18 12-.707-.707.707-.707.707.707L18 12Zm1 15a1 1 0 1 1-2 0h2Zm-6.707-10.707 5-5 1.414 1.414-5 5-1.414-1.414Zm6.414-5 5 5-1.414 1.414-5-5 1.414-1.414ZM19 12v15h-2V12h2Zm7 20-.707.707.707.707.707-.707L26 32Zm1-15a1 1 0 1 0-2 0h2Zm-6.707 10.707 5 5 1.414-1.414-5-5-1.414 1.414Zm6.414 5 5-5-1.414-1.414-5 5 1.414 1.414ZM27 32V17h-2v15h2Z"/>
</svg>
