<svg xmlns="http://www.w3.org/2000/svg" width="43" height="43" fill="none" viewBox="0 0 43 43">
  <circle cx="21.5" cy="21.5" r="21.5" fill="#F5EEFF"/>
  <path stroke="#452372" stroke-linecap="round" stroke-width="2" d="M33.591 26.106a12 12 0 1 0-23.182 0M22 11v2.667m-8.485.847L15.4 16.4m15.085-1.886L28.6 16.4m4.991 9.705-2.576-.69m-20.606.69 2.576-.69"/>
  <path stroke="#927CB0" stroke-width="2" d="M24.717 22.618c.485 1.04-.204 2.388-1.54 3.01-1.334.622-2.81.284-3.294-.756-.553-1.186-2.143-7.956-2.964-11.532-.12-.522.547-.833.87-.405 2.212 2.927 6.375 8.497 6.928 9.683Z"/>
</svg>
