<svg width="481" height="389" viewBox="0 0 481 389" fill="none" xmlns="http://www.w3.org/2000/svg">
<path d="M173.947 246.554L185.944 261.057L189.442 293.064L222.932 282.562L254.422 288.563C254.422 288.563 255.547 296.185 262.92 293.064C275.916 287.563 264.919 285.563 264.919 285.563L246.925 272.06L237.927 248.554L249.924 230.05L264.919 225.549L298.409 239.052C298.409 239.052 305.8 250.643 314.903 243.053C331.098 229.55 326.4 215.547 326.4 215.547H359.39L385.881 202.044L398.877 194.542L402.876 215.547V241.553L393.379 282.562L370.886 318.07L345.894 349.077L292.41 374.583L260.92 383.085H198.94L149.455 374.583L101.47 353.078L57.4836 324.071L30.9919 285.563L19.4955 267.059L6.49951 209.046L10.4983 166.036L30.9919 113.524L59.9828 84.5178L85.4749 49.0098L101.47 16.5026L113.466 10.0011L118.465 62.5128L109.967 91.5193L74.9782 135.029L59.9828 170.037V223.049L70.4796 233.551L79.9766 202.044L90.9732 189.041H105.969L121.464 194.542L125.962 209.046L133.46 215.547L162.451 209.046V189.041L169.449 177.539L189.442 175.538L219.433 180.039H234.428V183.04H211.935L236.428 215.547L229.93 235.051L210.436 243.053L193.441 241.553L166.949 215.547L138.458 235.051L125.962 255.056C125.962 255.056 129.961 275.56 136.959 311.569C135.459 283.562 149.455 250.555 149.455 250.555L173.947 246.554Z" fill="#A1775E"/>
<path d="M210.436 184.04L230.93 179.539L245.425 194.542L287.412 214.547H334.397C334.397 214.547 329.899 237.552 320.901 248.554C313.049 258.157 287.412 234.051 287.412 234.051L258.921 225.549L244.425 234.051L237.927 254.556L252.923 277.061L291.411 292.064C291.411 292.064 280.914 305.401 271.917 309.068C270.003 309.848 248.924 286.063 248.924 286.063L214.435 283.062L187.443 294.565V267.559C186.777 243.22 158.496 241.858 150.955 252.055C132.46 277.061 138.445 320.819 136.459 318.57C117.465 297.065 122.963 273.56 126.962 252.055L141.458 232.551L166.45 214.547L179.946 229.05L207.437 245.554L222.432 237.052L235.428 225.549L230.93 209.046L210.436 184.04Z" fill="#F0DFC1"/>
<path d="M215.934 161.035L213.935 123.527L226.431 108.023L262.92 111.024L300.908 131.028L340.395 133.029L392.379 127.027L417.371 140.03V167.536L402.376 194.542L351.392 215.547L289.911 213.547L236.428 186.541L215.934 161.035Z" fill="#F0DFC1"/>
<path d="M252.423 62.0127C228.191 79.7066 212.936 131.028 214.935 129.528C218.933 126.527 220.433 114.524 249.924 115.525C271.498 116.256 280.825 127.721 284.913 131.028C308.314 149.958 317.804 147.551 351.002 139.129L351.392 139.03C369.387 134.465 387.881 131.028 401.377 147.532C406.084 153.288 409.729 162.729 414.373 168.537C416.372 171.037 419.025 147.579 418.371 134.029C417.247 110.709 407.676 95.0691 392.879 77.0161C374.782 54.9359 357.575 52.5259 329.454 48.5874L328.899 48.5097C297.773 44.1493 277.811 43.4747 252.423 62.0127Z" fill="#A1775E"/>
<path d="M387.881 205.045C374.685 213.447 331.826 218.035 337.396 215.547C449.361 165.536 389.38 66.5144 338.896 49.51C328.642 46.0561 377.884 62.0134 387.881 68.0147C400.377 75.5164 418.371 120.526 420.371 140.531C422.37 160.535 404.376 194.543 387.881 205.045Z" fill="black" fill-opacity="0.1"/>
<path d="M9.9974 224.549C2.28316 194.018 4.00045 275.173 60.4837 323.071C171.947 417.592 306.906 368.581 326.4 358.579C336.028 353.639 398.376 318.07 403.874 254.556C405.132 240.03 335.398 394.587 161.95 364.58C93.6753 352.769 24.5292 282.062 9.9974 224.549Z" fill="black" fill-opacity="0.1"/>
<path d="M398.869 191.066C398.869 191.066 422.862 262.582 367.879 326.096C322.935 378.013 242.918 390.558 182.936 381.108C143.93 374.963 59.549 354.102 21.9866 268.583C-5.25144 206.569 -5.05926 138.687 62.4558 80.5411C101.943 46.5336 106.442 -4.47803 110.94 6.5245C114.995 16.4437 137.432 68.5383 89.4473 118.049C61.9544 150.557 57.4559 173.562 57.4559 191.066C57.4559 259.081 117.937 273.084 117.937 273.084" stroke="#3F2D1A" stroke-width="10"/>
<path d="M116.958 294.589C112.959 286.587 118.457 265.582 131.953 246.078C144.89 227.381 168.441 216.071 168.441 216.071" stroke="#3F2D1A" stroke-width="8"/>
<path d="M176.439 379.608C176.439 379.608 156.118 375.047 144.449 352.101C129.954 323.595 135.952 263.082 148.948 253.079C159.933 244.625 172.858 243.058 182.437 253.079C193.433 264.582 185.436 292.088 186.436 294.089C187.217 295.651 189.241 295.863 190.435 294.589C197.932 286.587 216.926 278.338 237.92 283.086C272.409 290.887 274.908 323.095 273.409 326.596" stroke="#3F2D1A" stroke-width="7"/>
<path d="M70.972 241.577C70.972 241.577 70.4721 197.147 94.4647 189.565C101.463 187.354 113.012 185.909 121.456 194.066C135.952 208.069 116.958 251.579 116.958 251.579" stroke="#3F2D1A" stroke-width="7"/>
<path d="M127.454 214.57C127.454 214.57 137.451 210.57 147.448 210.57C161.944 210.57 166.442 212.07 166.442 212.07" stroke="#3F2D1A" stroke-width="7"/>
<path d="M113.465 207.045C115.964 197.043 109.966 187.541 110.966 189.041C112.352 191.122 116.964 192.042 116.964 198.543C116.964 205.045 112.421 211.226 113.465 207.045Z" fill="#3F2D1A" stroke="#3F2D1A"/>
<path d="M165.943 267.583C166.442 265.082 166.942 246.578 166.942 248.078C166.942 250.579 168.942 253.079 168.942 258.581C168.942 264.082 165.667 268.962 165.943 267.583Z" fill="#3F2D1A" stroke="#3F2D1A" stroke-width="2"/>
<path d="M173.94 265.582C174.439 263.082 174.44 247.078 174.44 248.578C174.44 251.079 176.44 252.579 176.44 258.08C176.44 263.582 173.664 266.961 173.94 265.582Z" fill="#3F2D1A" stroke="#3F2D1A" stroke-width="2"/>
<path d="M201.431 177.563C201.431 177.563 213.478 181.54 220.425 182.064C224.708 182.387 235.421 182.064 235.421 182.064" stroke="#3F2D1A" stroke-width="7"/>
<path d="M404.376 188.541C393.879 210.546 272.917 248.554 219.933 166.036C216.349 160.454 186.966 175.02 193.441 183.04C275.416 284.563 377.884 239.552 401.376 229.55C416.011 223.319 408.67 179.539 404.376 188.541Z" fill="#452372" stroke="#452372" stroke-width="5"/>
<path d="M480.852 284.062C478.144 277.561 453.86 299.066 393.379 225.049C383.882 220.715 338.734 222.631 348.893 242.553C386.381 316.069 432.367 329.573 442.863 329.573C448.376 329.573 483.559 290.564 480.852 284.062Z" fill="#452372"/>
<path d="M197.44 170.537C210.936 223.049 359.389 275.56 412.873 206.545C412.15 217.869 410.882 229.468 399.993 233.014C400.911 233.929 404.128 237.689 404.128 237.689C403.047 241.581 395.962 246.847 385.381 250.055C368.887 255.056 349.892 257.056 350.892 247.554C345.894 251.555 330.029 249.069 318.902 245.554C206.437 247.554 197.44 170.537 197.44 170.537Z" fill="black" fill-opacity="0.1"/>
<path d="M262.751 100.142C262.751 85.1387 284.744 85.1386 284.744 100.142C284.744 115.146 262.751 115.145 262.751 100.142Z" fill="#3F2D1A"/>
<path d="M357.222 114.145C357.222 100.142 379.215 98.6417 379.215 114.145C379.215 129.649 357.222 128.148 357.222 114.145Z" fill="#3F2D1A"/>
<path d="M297.24 130.149C296.538 137.881 310.236 140.651 310.236 140.651C310.236 140.651 310.925 146.954 307.237 151.654C304.399 155.271 303.059 156.461 300.4 157.558C297.934 158.575 293.402 158.828 291.403 158.559C289.403 158.289 285.405 157.058 282.405 153.154C279.406 149.25 279.406 147.556 279.406 145.556C279.406 143.555 279.496 140.151 278.746 141.651C278.246 142.652 278.807 146.173 279.746 149.153C280.873 152.731 283.251 154.487 285.405 157.558C286.213 158.711 286.744 159.655 286.744 160.656C286.744 162.918 286.474 165.804 288.243 169.158C290.636 173.691 293.166 176.349 297.74 178.66C302.22 180.923 306.221 181.334 311.236 181.16C317.287 180.95 321.592 180.079 325.732 175.659C328.418 172.791 328.935 168.847 331.23 165.657C331.96 164.642 332.935 164.122 333.729 163.156C335.374 161.156 339.727 158.655 341.227 155.655C342.226 153.654 341.727 150.153 341.727 151.154C341.727 152.154 340.532 154.941 338.728 157.155C336.923 159.369 334.229 160.889 332.89 161.559C331.89 162.059 329.391 162.963 323.893 162.559C318.386 162.155 313.921 158.414 312.236 153.154C310.609 148.078 313.235 140.651 313.235 140.651C313.235 140.651 328.129 143.652 329.23 134.65C329.934 128.896 320.473 124.953 314.735 124.148C308.865 123.323 297.74 124.648 297.24 130.149Z" fill="#3F2D1A"/>
<path d="M262.751 100.142C262.751 85.1387 284.744 85.1386 284.744 100.142C284.744 115.146 262.751 115.145 262.751 100.142Z" stroke="#3F2D1A" stroke-width="5"/>
<path d="M357.222 114.145C357.222 100.142 379.215 98.6417 379.215 114.145C379.215 129.649 357.222 128.148 357.222 114.145Z" stroke="#3F2D1A" stroke-width="5"/>
<path d="M297.24 130.149C296.538 137.881 310.236 140.651 310.236 140.651C310.236 140.651 310.925 146.954 307.237 151.654C304.399 155.271 303.059 156.461 300.4 157.558C297.934 158.575 293.402 158.828 291.403 158.559C289.403 158.289 285.405 157.058 282.405 153.154C279.406 149.25 279.406 147.556 279.406 145.556C279.406 143.555 279.496 140.151 278.746 141.651C278.246 142.652 278.807 146.173 279.746 149.153C280.873 152.731 283.251 154.487 285.405 157.558C286.213 158.711 286.744 159.655 286.744 160.656C286.744 162.918 286.474 165.804 288.243 169.158C290.636 173.691 293.166 176.349 297.74 178.66C302.22 180.923 306.221 181.334 311.236 181.16C317.287 180.95 321.592 180.079 325.732 175.659C328.418 172.791 328.935 168.847 331.23 165.657C331.96 164.642 332.935 164.122 333.729 163.156C335.374 161.156 339.727 158.655 341.227 155.655C342.226 153.654 341.727 150.153 341.727 151.154C341.727 152.154 340.532 154.941 338.728 157.155C336.923 159.369 334.229 160.889 332.89 161.559C331.89 162.059 329.391 162.963 323.893 162.559C318.386 162.155 313.921 158.414 312.236 153.154C310.609 148.078 313.235 140.651 313.235 140.651C313.235 140.651 328.129 143.652 329.23 134.65C329.934 128.896 320.473 124.953 314.735 124.148C308.865 123.323 297.74 124.648 297.24 130.149Z" stroke="#3F2D1A" stroke-width="5"/>
<path d="M365.219 212.167C326.464 223.505 255.293 213.827 225.265 172.658C212.356 154.959 211.221 131.449 218.473 109.644C221.6 100.241 226.286 91.1543 232.261 82.9883C241.401 70.4956 253.555 60.1569 267.75 54.1317C284.244 47.1303 342.65 36.1151 385.213 68.6349C394.38 75.6388 407.669 93.6509 414.204 112.145C417.874 122.533 417.81 126.86 418.203 138.15C419.208 167.041 406.183 200.183 365.219 212.167Z" stroke="#3F2D1A" stroke-width="10"/>
<path d="M245.257 134.15C237.179 130.605 221.664 122.647 224.263 123.647C226.863 124.647 237.885 128.205 245.757 131.649C253.915 135.219 270.418 143.194 268.249 142.651C266.25 142.151 253.754 137.878 245.257 134.15Z" fill="#3F2D1A" stroke="#3F2D1A"/>
<path d="M245.756 147.152C237.107 145.422 223.264 141.151 224.763 141.151C226.263 141.151 238.921 142.567 247.256 144.652C257.253 147.152 270.484 150.653 268.249 150.653C264.751 150.653 255.753 149.153 245.756 147.152Z" fill="#3F2D1A" stroke="#3F2D1A"/>
<path d="M249.755 159.155C240.946 158.714 224.763 156.655 226.263 156.655C227.762 156.655 241.175 156.726 249.755 157.155C259.752 157.655 272.484 159.655 270.249 159.655C266.75 159.655 259.752 159.655 249.755 159.155Z" fill="#3F2D1A" stroke="#3F2D1A"/>
<path d="M378.715 152.153C369.218 152.653 352.723 152.153 354.223 152.153C355.722 152.153 368.218 150.653 376.216 150.153C383.713 149.684 400.434 150.431 398.21 150.653C393.21 151.153 388.711 151.627 378.715 152.153Z" fill="#3F2D1A" stroke="#3F2D1A"/>
<path d="M369.218 175.659C360.109 172.925 343.223 166.657 347.723 167.657C352.223 168.657 363.115 171.123 370.717 173.658C378.217 176.159 391.889 181.163 389.712 180.66C383.214 179.16 379.217 178.66 369.218 175.659Z" fill="#3F2D1A" stroke="#3F2D1A"/>
<path d="M374.216 164.657C364.753 163.71 345.724 159.959 352.222 160.307C358.721 160.656 368.718 161.627 373.216 162.156C381.713 163.156 396.931 166.904 394.709 166.657C385.712 165.657 384.213 165.657 374.216 164.657Z" fill="#3F2D1A" stroke="#3F2D1A"/>
<path d="M206.769 83.1382C215.268 70.1802 232.76 82.1379 232.76 82.1379L218.265 109.144C218.265 109.144 196.272 99.1418 206.769 83.1382Z" fill="#3F2D1A" stroke="#3F2D1A" stroke-width="5"/>
<path d="M437.197 119.646C440.002 136.484 418.703 141.651 418.703 141.651L413.204 109.144C413.204 109.144 434.698 104.643 437.197 119.646Z" fill="#3F2D1A" stroke="#3F2D1A" stroke-width="5"/>
<path d="M296.909 170.367C306.406 178.869 320.404 172.987 318.902 172.368C310.405 168.867 295.667 169.256 296.909 170.367Z" stroke="#B50000" stroke-width="7"/>
<path d="M378.884 112.524C378.884 107.856 371.886 107.856 371.886 112.524C371.886 117.192 378.884 117.192 378.884 112.524Z" fill="white"/>
<path d="M283.913 98.5209C283.913 93.8532 276.915 93.8532 276.915 98.5209C276.915 103.189 283.913 103.189 283.913 98.5209Z" fill="white"/>
<path d="M301.901 238.035C320.396 252.538 327.4 251.555 349.393 250.055C349.393 250.055 360.395 274.578 372.885 286.063C384.307 296.565 315.897 302.049 282.907 291.547C249.918 281.044 229.924 253.038 245.919 234.034C261.914 215.03 290.964 229.457 301.901 238.035Z" fill="#A1775E"/>
<path d="M221.426 191.524C207.931 170.52 193.435 173.02 172.942 176.021C158.446 184.523 166.943 208.528 172.942 219.531C178.94 230.533 213.429 255.039 228.424 236.534C243.42 218.03 234.922 212.529 221.426 191.524Z" fill="#A1775E"/>
<path d="M228.423 234.575C208.56 251.834 189.935 245.578 172.44 222.573C154.946 199.568 160.595 182.142 168.442 177.563C186.436 167.06 203.946 177.91 210.428 183.564C229.922 200.568 247.417 218.072 228.423 234.575Z" stroke="#3F2D1A" stroke-width="8"/>
<path d="M351.392 298.566C325.9 304.067 301.908 301.27 273.909 288.087C256.914 280.085 225.924 261.581 242.918 237.076C253.727 221.49 274.637 226.533 293.902 237.076C335.897 260.057 353.392 250.555 353.392 250.555" stroke="#3F2D1A" stroke-width="8"/>
<path d="M217.482 239.593C214.983 235.592 203.087 224.59 203.986 226.09C205.272 228.234 206.486 231.091 211.484 235.592C216.482 240.093 218.227 240.786 217.482 239.593Z" fill="#3F2D1A" stroke="#3F2D1A" stroke-width="2"/>
<path d="M227.479 231.091C224.98 227.09 222.529 222.589 214.483 217.088C213.602 216.486 217.531 222.729 222.529 227.23C227.528 231.731 228.224 232.284 227.479 231.091Z" fill="#3F2D1A" stroke="#3F2D1A" stroke-width="2"/>
<path d="M259.969 252.096C256.97 246.594 244.123 237.133 245.022 238.633C246.308 240.778 248.973 244.344 251.472 246.594C253.971 248.845 260.642 253.33 259.969 252.096Z" fill="#3F2D1A" stroke="#3F2D1A" stroke-width="2"/>
<path d="M268.966 243.094C263.968 237.593 263.564 235.133 255.519 229.631C254.638 229.029 259.746 236.092 261.968 238.093C264.19 240.093 269.912 244.134 268.966 243.094Z" fill="#3F2D1A" stroke="#3F2D1A" stroke-width="2"/>
</svg>
