<svg width="547" height="547" viewBox="0 0 547 547" fill="none" xmlns="http://www.w3.org/2000/svg">
<circle cx="273.5" cy="273.5" r="273.5" fill="#ECE9F0"/>
<path d="M207.947 325.554L219.944 340.057L223.442 372.064L256.932 361.562L288.422 367.563C288.422 367.563 289.547 375.185 296.92 372.064C309.916 366.563 298.919 364.563 298.919 364.563L280.925 351.06L271.927 327.554L283.924 309.05L298.919 304.549L332.409 318.052C332.409 318.052 339.8 329.643 348.903 322.053C365.098 308.55 360.4 294.547 360.4 294.547H393.39L419.881 281.044L432.877 273.542L436.876 294.547V320.553L427.379 361.562L404.886 397.07L379.894 428.077L326.41 453.583L294.92 462.085H232.94L183.455 453.583L135.47 432.078L91.4836 403.071L64.9919 364.563L53.4955 346.059L40.4995 288.046L44.4983 245.036L64.9919 192.524L93.9828 163.518L119.475 128.01L135.47 95.5026L147.466 89.0011L152.465 141.513L143.967 170.519L108.978 214.029L93.9828 249.037V302.049L104.48 312.551L113.977 281.044L124.973 268.041H139.969L155.464 273.542L159.962 288.046L167.46 294.547L196.451 288.046V268.041L203.449 256.539L223.442 254.538L253.433 259.039H268.428V262.04H245.935L270.428 294.547L263.93 314.051L244.436 322.053L227.441 320.553L200.949 294.547L172.458 314.051L159.962 334.056C159.962 334.056 163.961 354.56 170.959 390.569C169.459 362.562 183.455 329.555 183.455 329.555L207.947 325.554Z" fill="#A1775E"/>
<path d="M244.436 263.04L264.93 258.539L279.425 273.542L321.412 293.547H368.397C368.397 293.547 363.899 316.552 354.901 327.554C347.049 337.157 321.412 313.051 321.412 313.051L292.921 304.549L278.425 313.051L271.927 333.556L286.923 356.061L325.411 371.064C325.411 371.064 314.914 384.401 305.917 388.068C304.003 388.848 282.924 365.063 282.924 365.063L248.435 362.062L221.443 373.565V346.559C220.777 322.22 192.496 320.858 184.955 331.055C166.46 356.061 172.445 399.819 170.459 397.57C151.465 376.065 156.963 352.56 160.962 331.055L175.458 311.551L200.45 293.547L213.946 308.05L241.437 324.554L256.432 316.052L269.428 304.549L264.93 288.046L244.436 263.04Z" fill="#F0DFC1"/>
<path d="M249.934 240.035L247.935 202.527L260.431 187.023L296.92 190.024L334.908 210.028L374.395 212.029L426.379 206.027L451.371 219.03V246.536L436.376 273.542L385.392 294.547L323.911 292.547L270.428 265.541L249.934 240.035Z" fill="#F0DFC1"/>
<path d="M286.423 141.013C262.191 158.707 246.936 210.028 248.935 208.528C252.933 205.527 254.433 193.524 283.924 194.525C305.498 195.256 314.825 206.721 318.913 210.028C342.314 228.958 351.804 226.551 385.002 218.129L385.392 218.03C403.387 213.465 421.881 210.028 435.377 226.532C440.084 232.288 443.729 241.729 448.373 247.537C450.372 250.037 453.025 226.579 452.371 213.029C451.247 189.709 441.676 174.069 426.879 156.016C408.782 133.936 391.575 131.526 363.454 127.587L362.899 127.51C331.773 123.149 311.811 122.475 286.423 141.013Z" fill="#A1775E"/>
<path d="M421.881 284.045C408.685 292.447 365.826 297.035 371.396 294.547C483.361 244.536 423.38 145.514 372.896 128.51C362.642 125.056 411.884 141.013 421.881 147.015C434.377 154.516 452.371 199.526 454.371 219.531C456.37 239.535 438.376 273.543 421.881 284.045Z" fill="black" fill-opacity="0.1"/>
<path d="M43.9974 303.549C36.2832 273.018 38.0005 354.173 94.4837 402.071C205.947 496.592 340.906 447.581 360.4 437.579C370.028 432.639 432.376 397.07 437.874 333.556C439.132 319.03 369.398 473.587 195.95 443.58C127.675 431.769 58.5292 361.062 43.9974 303.549Z" fill="black" fill-opacity="0.1"/>
<path d="M432.869 270.066C432.869 270.066 456.862 341.582 401.879 405.096C356.935 457.013 276.918 469.558 216.936 460.108C177.93 453.963 93.549 433.102 55.9866 347.583C28.7486 285.569 28.9407 217.687 96.4558 159.541C135.943 125.534 140.442 74.522 144.94 85.5245C148.995 95.4437 171.432 147.538 123.447 197.049C95.9544 229.557 91.4559 252.562 91.4559 270.066C91.4559 338.081 151.937 352.084 151.937 352.084" stroke="#3F2D1A" stroke-width="10"/>
<path d="M150.958 373.589C146.959 365.587 152.457 344.582 165.953 325.078C178.89 306.381 202.441 295.071 202.441 295.071" stroke="#3F2D1A" stroke-width="8"/>
<path d="M210.439 458.608C210.439 458.608 190.118 454.047 178.449 431.101C163.954 402.595 169.952 342.082 182.948 332.079C193.933 323.625 206.858 322.058 216.437 332.079C227.433 343.582 219.436 371.088 220.436 373.089C221.217 374.651 223.241 374.863 224.435 373.589C231.932 365.587 250.926 357.338 271.92 362.086C306.409 369.887 308.908 402.095 307.409 405.596" stroke="#3F2D1A" stroke-width="7"/>
<path d="M104.972 320.577C104.972 320.577 104.472 276.147 128.465 268.565C135.463 266.354 147.012 264.909 155.456 273.066C169.952 287.069 150.958 330.579 150.958 330.579" stroke="#3F2D1A" stroke-width="7"/>
<path d="M161.454 293.57C161.454 293.57 171.451 289.57 181.448 289.57C195.944 289.57 200.442 291.07 200.442 291.07" stroke="#3F2D1A" stroke-width="7"/>
<path d="M147.465 286.045C149.964 276.043 143.966 266.541 144.966 268.041C146.352 270.122 150.964 271.042 150.964 277.543C150.964 284.045 146.421 290.226 147.465 286.045Z" fill="#3F2D1A" stroke="#3F2D1A"/>
<path d="M199.943 346.583C200.442 344.082 200.942 325.578 200.942 327.078C200.942 329.579 202.942 332.079 202.942 337.581C202.942 343.082 199.667 347.962 199.943 346.583Z" fill="#3F2D1A" stroke="#3F2D1A" stroke-width="2"/>
<path d="M207.94 344.582C208.439 342.082 208.44 326.078 208.44 327.578C208.44 330.079 210.44 331.579 210.44 337.08C210.44 342.582 207.664 345.961 207.94 344.582Z" fill="#3F2D1A" stroke="#3F2D1A" stroke-width="2"/>
<path d="M235.431 256.563C235.431 256.563 247.478 260.54 254.425 261.064C258.708 261.387 269.421 261.064 269.421 261.064" stroke="#3F2D1A" stroke-width="7"/>
<path d="M438.376 267.541C427.879 289.546 306.917 327.554 253.933 245.036C250.349 239.454 220.966 254.02 227.441 262.04C309.416 363.563 411.884 318.552 435.376 308.55C450.011 302.319 442.67 258.539 438.376 267.541Z" fill="#452372" stroke="#452372" stroke-width="5"/>
<path d="M514.852 363.062C512.144 356.561 487.86 378.066 427.379 304.049C417.882 299.715 372.734 301.631 382.893 321.553C420.381 395.069 466.367 408.573 476.863 408.573C482.376 408.573 517.559 369.564 514.852 363.062Z" fill="#452372"/>
<path d="M231.44 249.537C244.936 302.049 393.389 354.56 446.873 285.545C446.15 296.869 444.882 308.468 433.993 312.014C434.911 312.929 438.128 316.689 438.128 316.689C437.047 320.581 429.962 325.847 419.381 329.055C402.887 334.056 383.892 336.056 384.892 326.554C379.894 330.555 364.029 328.069 352.902 324.554C240.437 326.554 231.44 249.537 231.44 249.537Z" fill="black" fill-opacity="0.1"/>
<path d="M296.751 179.142C296.751 164.139 318.744 164.139 318.744 179.142C318.744 194.146 296.751 194.145 296.751 179.142Z" fill="#3F2D1A"/>
<path d="M391.222 193.145C391.222 179.142 413.215 177.642 413.215 193.145C413.215 208.649 391.222 207.148 391.222 193.145Z" fill="#3F2D1A"/>
<path d="M331.24 209.149C330.538 216.881 344.236 219.651 344.236 219.651C344.236 219.651 344.925 225.954 341.237 230.654C338.399 234.271 337.059 235.461 334.4 236.558C331.934 237.575 327.402 237.828 325.403 237.559C323.403 237.289 319.405 236.058 316.405 232.154C313.406 228.25 313.406 226.556 313.406 224.556C313.406 222.555 313.496 219.151 312.746 220.651C312.246 221.652 312.807 225.173 313.746 228.153C314.873 231.731 317.251 233.487 319.405 236.558C320.213 237.711 320.744 238.655 320.744 239.656C320.744 241.918 320.474 244.804 322.243 248.158C324.636 252.691 327.166 255.349 331.74 257.66C336.22 259.923 340.221 260.334 345.236 260.16C351.287 259.95 355.592 259.079 359.732 254.659C362.418 251.791 362.935 247.847 365.23 244.657C365.96 243.642 366.935 243.122 367.729 242.156C369.374 240.156 373.727 237.655 375.227 234.655C376.226 232.654 375.727 229.153 375.727 230.154C375.727 231.154 374.532 233.941 372.728 236.155C370.923 238.369 368.229 239.889 366.89 240.559C365.89 241.059 363.391 241.963 357.893 241.559C352.386 241.155 347.921 237.414 346.236 232.154C344.609 227.078 347.235 219.651 347.235 219.651C347.235 219.651 362.129 222.652 363.23 213.65C363.934 207.896 354.473 203.953 348.735 203.148C342.865 202.323 331.74 203.648 331.24 209.149Z" fill="#3F2D1A"/>
<path d="M296.751 179.142C296.751 164.139 318.744 164.139 318.744 179.142C318.744 194.146 296.751 194.145 296.751 179.142Z" stroke="#3F2D1A" stroke-width="5"/>
<path d="M391.222 193.145C391.222 179.142 413.215 177.642 413.215 193.145C413.215 208.649 391.222 207.148 391.222 193.145Z" stroke="#3F2D1A" stroke-width="5"/>
<path d="M331.24 209.149C330.538 216.881 344.236 219.651 344.236 219.651C344.236 219.651 344.925 225.954 341.237 230.654C338.399 234.271 337.059 235.461 334.4 236.558C331.934 237.575 327.402 237.828 325.403 237.559C323.403 237.289 319.405 236.058 316.405 232.154C313.406 228.25 313.406 226.556 313.406 224.556C313.406 222.555 313.496 219.151 312.746 220.651C312.246 221.652 312.807 225.173 313.746 228.153C314.873 231.731 317.251 233.487 319.405 236.558C320.213 237.711 320.744 238.655 320.744 239.656C320.744 241.918 320.474 244.804 322.243 248.158C324.636 252.691 327.166 255.349 331.74 257.66C336.22 259.923 340.221 260.334 345.236 260.16C351.287 259.95 355.592 259.079 359.732 254.659C362.418 251.791 362.935 247.847 365.23 244.657C365.96 243.642 366.935 243.122 367.729 242.156C369.374 240.156 373.727 237.655 375.227 234.655C376.226 232.654 375.727 229.153 375.727 230.154C375.727 231.154 374.532 233.941 372.728 236.155C370.923 238.369 368.229 239.889 366.89 240.559C365.89 241.059 363.391 241.963 357.893 241.559C352.386 241.155 347.921 237.414 346.236 232.154C344.609 227.078 347.235 219.651 347.235 219.651C347.235 219.651 362.129 222.652 363.23 213.65C363.934 207.896 354.473 203.953 348.735 203.148C342.865 202.323 331.74 203.648 331.24 209.149Z" stroke="#3F2D1A" stroke-width="5"/>
<path d="M399.219 291.167C360.464 302.505 289.293 292.827 259.265 251.658C246.356 233.959 245.221 210.449 252.473 188.644C255.6 179.241 260.286 170.154 266.261 161.988C275.401 149.496 287.555 139.157 301.75 133.132C318.244 126.13 376.65 115.115 419.213 147.635C428.38 154.639 441.669 172.651 448.204 191.145C451.874 201.533 451.81 205.86 452.203 217.15C453.208 246.041 440.183 279.183 399.219 291.167Z" stroke="#3F2D1A" stroke-width="10"/>
<path d="M279.257 213.15C271.179 209.605 255.664 201.647 258.263 202.647C260.863 203.647 271.885 207.205 279.757 210.649C287.915 214.219 304.418 222.194 302.249 221.651C300.25 221.151 287.754 216.878 279.257 213.15Z" fill="#3F2D1A" stroke="#3F2D1A"/>
<path d="M279.756 226.152C271.107 224.422 257.264 220.151 258.763 220.151C260.263 220.151 272.921 221.567 281.256 223.652C291.253 226.152 304.484 229.653 302.249 229.653C298.751 229.653 289.753 228.153 279.756 226.152Z" fill="#3F2D1A" stroke="#3F2D1A"/>
<path d="M283.755 238.155C274.946 237.714 258.763 235.655 260.263 235.655C261.762 235.655 275.175 235.726 283.755 236.155C293.752 236.655 306.484 238.655 304.249 238.655C300.75 238.655 293.752 238.655 283.755 238.155Z" fill="#3F2D1A" stroke="#3F2D1A"/>
<path d="M412.715 231.153C403.218 231.653 386.723 231.153 388.223 231.153C389.722 231.153 402.218 229.653 410.216 229.153C417.713 228.684 434.434 229.431 432.21 229.653C427.21 230.153 422.711 230.627 412.715 231.153Z" fill="#3F2D1A" stroke="#3F2D1A"/>
<path d="M403.218 254.659C394.109 251.925 377.223 245.657 381.723 246.657C386.223 247.657 397.115 250.123 404.717 252.658C412.217 255.159 425.889 260.163 423.712 259.66C417.214 258.16 413.217 257.66 403.218 254.659Z" fill="#3F2D1A" stroke="#3F2D1A"/>
<path d="M408.216 243.657C398.753 242.71 379.724 238.959 386.222 239.307C392.721 239.656 402.718 240.627 407.216 241.156C415.713 242.156 430.931 245.904 428.709 245.657C419.712 244.657 418.213 244.657 408.216 243.657Z" fill="#3F2D1A" stroke="#3F2D1A"/>
<path d="M240.769 162.138C249.268 149.18 266.76 161.138 266.76 161.138L252.265 188.144C252.265 188.144 230.272 178.142 240.769 162.138Z" fill="#3F2D1A" stroke="#3F2D1A" stroke-width="5"/>
<path d="M471.197 198.646C474.002 215.484 452.703 220.651 452.703 220.651L447.204 188.144C447.204 188.144 468.698 183.643 471.197 198.646Z" fill="#3F2D1A" stroke="#3F2D1A" stroke-width="5"/>
<path d="M330.909 249.367C340.406 257.869 354.404 251.987 352.902 251.368C344.405 247.867 329.667 248.256 330.909 249.367Z" stroke="#B50000" stroke-width="7"/>
<path d="M412.884 191.524C412.884 186.856 405.886 186.856 405.886 191.524C405.886 196.192 412.884 196.192 412.884 191.524Z" fill="white"/>
<path d="M317.913 177.521C317.913 172.853 310.915 172.853 310.915 177.521C310.915 182.189 317.913 182.189 317.913 177.521Z" fill="white"/>
<path d="M335.901 317.035C354.396 331.538 361.4 330.555 383.393 329.055C383.393 329.055 394.395 353.578 406.885 365.063C418.307 375.565 349.897 381.049 316.907 370.547C283.918 360.044 263.924 332.038 279.919 313.034C295.914 294.03 324.964 308.457 335.901 317.035Z" fill="#A1775E"/>
<path d="M255.426 270.524C241.931 249.52 227.435 252.02 206.942 255.021C192.446 263.523 200.943 287.528 206.942 298.531C212.94 309.533 247.429 334.039 262.424 315.534C277.42 297.03 268.922 291.529 255.426 270.524Z" fill="#A1775E"/>
<path d="M262.423 313.575C242.56 330.834 223.935 324.578 206.44 301.573C188.946 278.568 194.595 261.142 202.442 256.563C220.436 246.06 237.946 256.91 244.428 262.564C263.922 279.568 281.417 297.072 262.423 313.575Z" stroke="#3F2D1A" stroke-width="8"/>
<path d="M385.392 377.566C359.9 383.067 335.908 380.27 307.909 367.087C290.914 359.085 259.924 340.581 276.918 316.076C287.727 300.49 308.637 305.533 327.902 316.076C369.897 339.057 387.392 329.555 387.392 329.555" stroke="#3F2D1A" stroke-width="8"/>
<path d="M251.482 318.593C248.983 314.592 237.087 303.59 237.986 305.09C239.272 307.234 240.486 310.091 245.484 314.592C250.482 319.093 252.227 319.786 251.482 318.593Z" fill="#3F2D1A" stroke="#3F2D1A" stroke-width="2"/>
<path d="M261.479 310.091C258.98 306.09 256.529 301.589 248.483 296.088C247.602 295.486 251.531 301.729 256.529 306.23C261.528 310.731 262.224 311.284 261.479 310.091Z" fill="#3F2D1A" stroke="#3F2D1A" stroke-width="2"/>
<path d="M293.969 331.096C290.97 325.594 278.123 316.133 279.022 317.633C280.308 319.778 282.973 323.344 285.472 325.594C287.971 327.845 294.642 332.33 293.969 331.096Z" fill="#3F2D1A" stroke="#3F2D1A" stroke-width="2"/>
<path d="M302.966 322.094C297.968 316.593 297.564 314.133 289.519 308.631C288.638 308.029 293.746 315.092 295.968 317.093C298.19 319.093 303.912 323.134 302.966 322.094Z" fill="#3F2D1A" stroke="#3F2D1A" stroke-width="2"/>
</svg>
