<svg xmlns="http://www.w3.org/2000/svg" width="55" height="55" fill="none" viewBox="0 0 55 55">
  <circle cx="27.5" cy="27.5" r="27.5" fill="#ECE9F0"/>
  <path fill="#E32C2C" stroke="#E32C2C" stroke-width="2" d="m14.418 32.18 11.897 11.177c.325.305.487.457.685.457.198 0 .36-.152.685-.457L39.582 32.18a8.672 8.672 0 0 0 .914-11.637l-.515-.664c-3.28-4.228-9.865-3.519-12.17 1.31a.899.899 0 0 1-1.622 0c-2.305-4.829-8.89-5.538-12.17-1.31l-.515.664a8.672 8.672 0 0 0 .914 11.637Z"/>
  <path stroke="#FFBCB1" stroke-linecap="round" stroke-width="2" d="M13 31c3.5-2 4.5-7 6.5-7 3 0 2.5 7 7 7 2.5 0 6-4.5 8.5-4.5s4.5 3 7 2"/>
</svg>
