<svg xmlns="http://www.w3.org/2000/svg" width="22" height="22" fill="none" viewBox="0 0 22 22">
  <path stroke="#9D8FAD" stroke-width="2" d="m1.69 5.828.001-.247a4 4 0 0 1 3.89-3.89l.247-.001.246.001a4 4 0 0 1 3.892 4.137c0 .128 0 .192-.002.246a4 4 0 0 1-3.89 3.89c-.054.002-.118.002-.246.002s-.193 0-.247-.002a4 4 0 0 1-3.89-3.89l-.001-.246Z"/>
  <path stroke="#9D8FAD" stroke-linecap="square" stroke-linejoin="round" stroke-width="2" d="M5.828 3.989v3.678m1.839-1.839H3.989"/>
  <path stroke="#9D8FAD" stroke-width="2" d="M12.034 16.172c0-.128 0-.192.002-.246a4 4 0 0 1 3.89-3.89c.054-.002.118-.002.246-.002s.192 0 .247.002a4 4 0 0 1 3.891 4.136l-.001.247a4 4 0 0 1-3.89 3.89l-.247.001-.246-.001a4 4 0 0 1-3.89-3.89c-.002-.055-.002-.119-.002-.247Z"/>
  <path stroke="#9D8FAD" stroke-linecap="square" stroke-linejoin="round" stroke-width="2" d="M17.552 15.138h-2.759m2.759 2.069h-2.759"/>
  <path stroke="#9D8FAD" stroke-width="2" d="M12.034 5.828c0-.128 0-.192.002-.247a4 4 0 0 1 3.89-3.89l.246-.001.247.001a4 4 0 0 1 3.891 4.137l-.001.246a4 4 0 0 1-4.137 3.892c-.128 0-.192 0-.246-.002a4 4 0 0 1-3.89-3.89c-.002-.054-.002-.118-.002-.246Z"/>
  <path stroke="#9D8FAD" stroke-linecap="square" stroke-linejoin="round" stroke-width="2" d="M17.608 5.83h-2.762"/>
  <path stroke="#9D8FAD" stroke-width="2" d="m1.69 16.172.001-.246a4 4 0 0 1 3.89-3.89c.054-.002.119-.002.247-.002s.192 0 .246.002a4 4 0 0 1 3.892 4.136c0 .128 0 .192-.002.247a4 4 0 0 1-3.89 3.89l-.246.001-.247-.001a4 4 0 0 1-3.89-3.89l-.001-.247Z"/>
  <path stroke="#9D8FAD" stroke-linecap="square" stroke-linejoin="round" stroke-width="2" d="m4.527 14.872 2.601 2.6m0-2.6-2.6 2.6"/>
</svg>
