<svg xmlns="http://www.w3.org/2000/svg" width="28" height="28" fill="none" viewBox="0 0 28 28">
  <path stroke="#9D8FAD" stroke-width="2" d="M1.897 7.276c0-1.283 0-1.924.145-2.45a4 4 0 0 1 2.784-2.784c.526-.145 1.167-.145 2.45-.145 1.283 0 1.924 0 2.45.145a4 4 0 0 1 2.783 2.784c.146.526.146 1.167.146 2.45 0 1.283 0 1.924-.146 2.45a4 4 0 0 1-2.784 2.783c-.525.146-1.166.146-2.45.146-1.282 0-1.923 0-2.449-.146a4 4 0 0 1-2.784-2.784c-.145-.525-.145-1.166-.145-2.45Z"/>
  <path stroke="#9D8FAD" stroke-linecap="square" stroke-linejoin="round" stroke-width="2" d="M7.276 4.885v4.782m2.391-2.391H4.885"/>
  <path stroke="#9D8FAD" stroke-width="2" d="M15.345 20.724c0-1.283 0-1.924.146-2.45a4 4 0 0 1 2.784-2.783c.525-.146 1.166-.146 2.45-.146 1.282 0 1.923 0 2.449.146a4 4 0 0 1 2.784 2.784c.145.525.145 1.166.145 2.45 0 1.282 0 1.923-.145 2.449a4 4 0 0 1-2.784 2.784c-.526.146-1.167.146-2.45.146-1.283 0-1.924 0-2.45-.146a4 4 0 0 1-2.783-2.784c-.146-.526-.146-1.167-.146-2.45Z"/>
  <path stroke="#9D8FAD" stroke-linecap="square" stroke-linejoin="round" stroke-width="2" d="M22.517 19.38h-3.586m3.586 2.689h-3.586"/>
  <path stroke="#9D8FAD" stroke-width="2" d="M15.345 7.276c0-1.283 0-1.924.146-2.45a4 4 0 0 1 2.784-2.784c.525-.145 1.166-.145 2.45-.145 1.282 0 1.923 0 2.449.145a4 4 0 0 1 2.784 2.784c.145.526.145 1.167.145 2.45 0 1.283 0 1.924-.145 2.45a4 4 0 0 1-2.784 2.783c-.526.146-1.167.146-2.45.146-1.283 0-1.924 0-2.45-.146a4 4 0 0 1-2.783-2.784c-.146-.525-.146-1.166-.146-2.45Z"/>
  <path stroke="#9D8FAD" stroke-linecap="square" stroke-linejoin="round" stroke-width="2" d="M22.59 7.28H19"/>
  <path stroke="#9D8FAD" stroke-width="2" d="M1.897 20.724c0-1.283 0-1.924.145-2.45a4 4 0 0 1 2.784-2.783c.526-.146 1.167-.146 2.45-.146 1.283 0 1.924 0 2.45.146a4 4 0 0 1 2.783 2.784c.146.525.146 1.166.146 2.45 0 1.282 0 1.923-.146 2.449a4 4 0 0 1-2.784 2.784c-.525.146-1.166.146-2.45.146-1.282 0-1.923 0-2.449-.146a4 4 0 0 1-2.784-2.784c-.145-.526-.145-1.167-.145-2.45Z"/>
  <path stroke="#9D8FAD" stroke-linecap="square" stroke-linejoin="round" stroke-width="2" d="m5.585 19.034 3.381 3.38m0-3.381-3.38 3.382"/>
</svg>
