<svg xmlns="http://www.w3.org/2000/svg" width="24" height="23" fill="none" viewBox="0 0 24 23">
  <path stroke="#9D8FAD" stroke-linecap="round" stroke-linejoin="round" stroke-width="2" d="M19.326 5.537C20 6.504 20 7.85 20 10.542c0 2.692 0 4.037-.674 5.004a3.922 3.922 0 0 1-1.104 1.058c-.881.564-2.064.636-4.222.645v.001l-1.106 2.12c-.368.705-1.42.705-1.788 0L10 17.25v-.001c-2.158-.01-3.34-.08-4.222-.645a3.92 3.92 0 0 1-1.104-1.058C4 14.58 4 13.234 4 10.542c0-2.692 0-4.038.674-5.005a3.921 3.921 0 0 1 1.104-1.058C6.787 3.833 8.19 3.833 11 3.833h2c2.809 0 4.213 0 5.222.646.437.28.812.64 1.104 1.058ZM9 8.625h6m-6 3.833h3"/>
</svg>
