<svg xmlns="http://www.w3.org/2000/svg" width="30" height="30" fill="none" viewBox="0 0 30 30">
  <path stroke="#9D8FAD" stroke-linecap="round" stroke-linejoin="round" stroke-width="2" d="M24.157 7.222C25 8.483 25 10.24 25 13.75c0 3.511 0 5.267-.843 6.528a4.998 4.998 0 0 1-1.38 1.38c-1.1.735-2.58.828-5.277.84v.002l-1.382 2.764c-.46.921-1.775.921-2.236 0L12.5 22.5v-.002c-2.697-.012-4.176-.105-5.278-.84a5 5 0 0 1-1.38-1.38C5 19.017 5 17.26 5 13.75c0-3.511 0-5.267.843-6.528a5 5 0 0 1 1.38-1.38C8.482 5 10.238 5 13.75 5h2.5c3.511 0 5.267 0 6.528.843a5 5 0 0 1 1.38 1.38ZM11.25 11.25h7.5m-7.5 5H15"/>
</svg>
