<svg xmlns="http://www.w3.org/2000/svg" width="30" height="30" fill="none" viewBox="0 0 30 30">
  <circle cx="15" cy="10" r="4" stroke="#9D8FAD" stroke-linecap="round" stroke-width="2"/>
  <path stroke="#9D8FAD" stroke-width="2" d="M18.868 9.875a2.75 2.75 0 1 1 4.764 2.75 2.75 2.75 0 0 1-4.764-2.75Zm-12.5 0a2.75 2.75 0 1 1 4.764 2.75 2.75 2.75 0 0 1-4.764-2.75Z"/>
  <path fill="#9D8FAD" d="m21.102 22.5-.98.197.161.803h.819v-1Zm4.889-1.1.953-.3-.953.3Zm-7.515-3.012-.605-.796-1.156.878 1.233.767.528-.849Zm6.641 3.112h-4.015v2h4.015v-2Zm-.08.2a.18.18 0 0 1-.002-.085.189.189 0 0 1 .037-.082c.029-.035.052-.033.045-.033v2c1.16 0 2.246-1.074 1.827-2.4l-1.907.6Zm-3.787-3.2c2.35 0 3.353 1.824 3.787 3.2l1.907-.6c-.494-1.568-1.947-4.6-5.694-4.6v2Zm-2.17.684c.524-.397 1.217-.684 2.17-.684v-2c-1.397 0-2.513.434-3.379 1.092l1.21 1.593Zm-1.132.053c1.385.862 1.95 2.352 2.174 3.46l1.96-.394c-.267-1.326-1.003-3.474-3.078-4.764l-1.056 1.698Zm-6.424-.849.528.85 1.233-.768-1.156-.878-.605.796ZM4.009 21.4l-.953-.3.953.3Zm4.889 1.1v1h.819l.161-.803-.98-.197Zm-.148-4c.953 0 1.646.287 2.17.684l1.209-1.592c-.866-.658-1.982-1.092-3.379-1.092v2Zm-3.787 3.2c.434-1.376 1.437-3.2 3.787-3.2v-2c-3.747 0-5.2 3.032-5.694 4.6l1.907.6Zm-.08-.2c-.007 0 .016-.002.045.033a.19.19 0 0 1 .037.082.18.18 0 0 1-.002.086l-1.907-.602c-.419 1.327.668 2.401 1.827 2.401v-2Zm4.015 0H4.883v2h4.015v-2Zm.98 1.197c.223-1.108.789-2.598 2.174-3.46l-1.056-1.698c-2.075 1.29-2.811 3.438-3.078 4.764l1.96.394Z"/>
  <path stroke="#9D8FAD" stroke-linecap="round" stroke-width="2" d="M15 17.5c4.673 0 5.852 3.493 6.15 5.257.091.544-.348.993-.9.993H9.75c-.552 0-.991-.449-.9-.993.298-1.764 1.477-5.257 6.15-5.257Z"/>
</svg>
