<svg xmlns="http://www.w3.org/2000/svg" width="18" height="24" fill="none" viewBox="0 0 18 24">
  <path stroke="#9D8FAD" stroke-width="2" d="M11.172 5.583H7c-1.886 0-2.828 0-3.414.537C3 6.657 3 7.522 3 9.25v9.167c0 1.728 0 2.592.586 3.13.586.536 1.528.536 3.414.536h6c1.886 0 2.828 0 3.414-.537.586-.537.586-1.4.586-3.13v-7.49c0-.375 0-.562-.076-.73-.076-.169-.22-.301-.51-.566l-3.828-3.51c-.29-.265-.434-.397-.617-.467-.184-.07-.389-.07-.797-.07Z"/>
  <path stroke="#9D8FAD" stroke-width="2" d="M4 18.417c-1.886 0-1.828 0-2.414-.537C1 17.343 1 16.478 1 14.75V5.583c0-1.728 0-2.592.586-3.13.586-.536 1.528-.536 3.414-.536h4.172c.408 0 .613 0 .796.07.184.07.329.202.618.467l3.828 3.509c.29.265.434.397.51.566.076.168.076 1.43.076 1.804"/>
  <path stroke="#9D8FAD" stroke-linecap="round" stroke-width="2" d="M7 14.75h6m-6 3.667h4"/>
  <path stroke="#9D8FAD" stroke-width="2" d="M9 2.833V6.5m2-.917V9.25c0 .864 0 1.296.293 1.565.293.268.764.268 1.707.268h4"/>
</svg>
