<svg xmlns="http://www.w3.org/2000/svg" width="22" height="28" fill="none" viewBox="0 0 22 28">
  <path stroke="#9D8FAD" stroke-width="2" d="M13.654 5.833H8.556c-2.305 0-3.457 0-4.173.684-.716.683-.716 1.783-.716 3.983v11.667c0 2.2 0 3.3.716 3.983.716.683 1.868.683 4.173.683h7.333c2.305 0 3.457 0 4.173-.683.716-.683.716-1.783.716-3.983v-9.534c0-.477 0-.715-.093-.93-.093-.214-.27-.383-.623-.72l-4.68-4.466c-.353-.337-.53-.506-.754-.595-.225-.089-.474-.089-.974-.089Z"/>
  <path stroke="#9D8FAD" stroke-width="2" d="M4.889 22.167c-2.305 0-2.235 0-2.95-.684-.717-.683-.717-1.783-.717-3.983V5.833c0-2.2 0-3.3.716-3.983.716-.683 1.868-.683 4.173-.683h5.099c.5 0 .75 0 .974.088.224.09.4.258.754.595l4.68 4.467c.353.337.53.505.622.72.093.214.093 1.82.093 2.296"/>
  <path stroke="#9D8FAD" stroke-linecap="round" stroke-width="2" d="M8.556 17.5h7.333m-7.333 4.667h4.888"/>
  <path stroke="#9D8FAD" stroke-width="2" d="M11 2.333V7m2.444-1.167V10.5c0 1.1 0 1.65.358 1.992.358.341.935.341 2.087.341h4.889"/>
</svg>
