<svg xmlns="http://www.w3.org/2000/svg" width="32" height="32" fill="none" viewBox="0 0 32 32">
  <path stroke="#9D8FAD" stroke-width="2" d="M6.667 17.013c0-1.81 0-2.716.366-3.511.366-.796 1.053-1.385 2.427-2.563l1.334-1.143C13.278 7.666 14.52 6.602 16 6.602c1.48 0 2.722 1.064 5.206 3.194l1.334 1.143c1.374 1.178 2.061 1.767 2.427 2.563.366.795.366 1.7.366 3.51v5.655c0 2.514 0 3.77-.78 4.552C23.77 28 22.513 28 20 28h-8c-2.514 0-3.771 0-4.552-.781-.781-.781-.781-2.038-.781-4.552v-5.654Z"/>
  <path stroke="#9D8FAD" stroke-linecap="round" stroke-linejoin="round" stroke-width="2" d="M19.333 28v-7a1 1 0 0 0-1-1h-4.666a1 1 0 0 0-1 1v7"/>
</svg>
