<svg xmlns="http://www.w3.org/2000/svg" width="25" height="25" fill="none" viewBox="0 0 25 25">
  <path stroke="#9D8FAD" stroke-width="2" d="M5.208 13.291c0-1.414 0-2.121.286-2.743.286-.621.823-1.082 1.897-2.002l1.042-.893c1.94-1.664 2.911-2.495 4.067-2.495 1.156 0 2.127.831 4.067 2.495l1.042.893c1.074.92 1.61 1.38 1.897 2.002.286.622.286 1.329.286 2.743v4.417c0 1.965 0 2.947-.61 3.557-.61.61-1.593.61-3.557.61h-6.25c-1.964 0-2.946 0-3.556-.61-.61-.61-.61-1.592-.61-3.557v-4.417Z"/>
  <path stroke="#9D8FAD" stroke-linecap="round" stroke-linejoin="round" stroke-width="2" d="M15.104 21.875v-5.25a1 1 0 0 0-1-1h-3.208a1 1 0 0 0-1 1v5.25"/>
</svg>
