<svg width="254" height="238" viewBox="0 0 254 238" fill="none" xmlns="http://www.w3.org/2000/svg">
<path d="M26.8029 140.091L20.2473 103.106L30.7609 86.1952L67.3432 84.7267L107.486 99.9525L146.923 97.1257L197.788 84.8338L224.179 94.694L227.531 121.995L215.939 150.627L167.894 177.689L106.628 183.196L50.2521 162.909L26.8029 140.091Z" fill="#F0DFC1"/>
<path d="M50.9524 37.3602C29.0573 57.8754 20.1699 110.674 21.9714 108.941C25.5745 105.475 25.6001 93.3793 54.9932 90.778C76.4953 88.8751 87.1497 99.1173 91.6108 101.902C117.144 117.839 126.27 114.293 158.194 101.888L158.57 101.742C175.874 95.0185 193.811 89.3532 209.218 104.089C214.591 109.229 219.36 118.155 224.677 123.353C226.966 125.592 226.74 101.986 224.44 88.6156C220.482 65.6065 209.076 51.2498 192.19 35.1346C171.537 15.4244 154.164 15.1294 125.773 14.6474L125.213 14.6379C93.7871 14.1033 73.8918 15.8665 50.9524 37.3602Z" fill="#A1775E"/>
<path d="M194.311 172.108C181.116 180.51 138.257 185.098 143.827 182.609C255.792 132.598 195.81 33.5768 145.326 16.5724C135.072 13.1185 184.315 29.0757 194.311 35.0771C206.808 42.5788 224.802 87.5888 226.801 107.593C228.801 127.598 210.806 161.605 194.311 172.108Z" fill="black" fill-opacity="0.1"/>
<path d="M219.5 149.5C206.4 170.062 74.0321 225.86 31.5 137.5C28.6229 131.523 3.24373 154.449 8.9999 163C78 265.5 194.964 209.065 219.5 202C234.785 197.599 224.859 141.088 219.5 149.5Z" fill="#452372" stroke="#452372" stroke-width="5"/>
<path d="M10.5 148.5C43.992 200.5 173.017 226.515 226.5 157.5C229.837 161.023 234.5 199 221.5 203.5C202.5 211.5 162.5 225.5 134.5 225.5C34 227.5 10.5 148.5 10.5 148.5Z" fill="black" fill-opacity="0.1"/>
<path d="M65.7856 74.4996C63.9572 59.6081 85.7864 56.9277 87.6149 71.8193C89.4433 86.7109 67.6141 89.3911 65.7856 74.4996Z" fill="#3F2D1A"/>
<path d="M161.259 76.8854C159.552 62.9865 181.198 58.8171 183.088 74.2051C184.977 89.5931 162.965 90.7842 161.259 76.8854Z" fill="#3F2D1A"/>
<path d="M103.675 100.08C103.92 107.839 117.854 108.92 117.854 108.92C117.854 108.92 119.305 115.092 116.218 120.206C113.841 124.142 112.657 125.487 110.151 126.9C107.828 128.209 103.36 129.012 101.343 128.989C99.3255 128.965 95.2065 128.231 91.7539 124.721C88.3014 121.212 88.095 119.53 87.8512 117.545C87.6074 115.559 87.2815 112.17 86.7202 113.75C86.3459 114.804 87.3313 118.231 88.6266 121.074C90.1817 124.488 92.7559 125.941 95.2674 128.727C96.2102 129.773 96.8522 130.645 96.9741 131.638C97.2498 133.884 97.3334 136.781 99.4986 139.894C102.426 144.102 105.261 146.432 110.083 148.168C114.805 149.868 118.826 149.789 123.783 149.005C129.763 148.059 133.929 146.67 137.5 141.778C139.816 138.604 139.849 134.626 141.738 131.181C142.339 130.084 143.244 129.449 143.914 128.394C145.302 126.208 149.319 123.196 150.442 120.035C151.19 117.927 150.267 114.513 150.389 115.506C150.511 116.499 149.665 119.411 148.144 121.828C146.623 124.246 144.134 126.083 142.886 126.911C141.955 127.529 139.584 128.731 134.078 129C128.563 129.271 123.676 126.102 121.362 121.086C119.129 116.245 120.83 108.554 120.83 108.554C120.83 108.554 135.979 109.718 135.975 100.648C135.972 94.8514 126.101 92.0916 120.307 91.9909C114.381 91.8879 103.5 94.5584 103.675 100.08Z" fill="#3F2D1A"/>
<path d="M65.7856 74.4996C63.9572 59.6081 85.7864 56.9277 87.6149 71.8193C89.4433 86.7109 67.6141 89.3911 65.7856 74.4996Z" stroke="#3F2D1A" stroke-width="5"/>
<path d="M161.259 76.8854C159.552 62.9865 181.198 58.8171 183.088 74.2051C184.977 89.5931 162.965 90.7842 161.259 76.8854Z" stroke="#3F2D1A" stroke-width="5"/>
<path d="M103.675 100.08C103.92 107.839 117.854 108.92 117.854 108.92C117.854 108.92 119.305 115.092 116.218 120.206C113.841 124.142 112.657 125.487 110.151 126.9C107.828 128.209 103.36 129.012 101.343 128.989C99.3255 128.965 95.2065 128.231 91.7539 124.721C88.3014 121.212 88.095 119.53 87.8512 117.545C87.6074 115.559 87.2815 112.17 86.7202 113.75C86.3459 114.804 87.3313 118.231 88.6266 121.074C90.1817 124.488 92.7559 125.941 95.2674 128.727C96.2102 129.773 96.8522 130.645 96.9741 131.638C97.2498 133.884 97.3334 136.781 99.4986 139.894C102.426 144.102 105.261 146.432 110.083 148.168C114.805 149.868 118.826 149.789 123.783 149.005C129.763 148.059 133.929 146.67 137.5 141.778C139.816 138.604 139.849 134.626 141.738 131.181C142.339 130.084 143.244 129.449 143.914 128.394C145.302 126.208 149.319 123.196 150.442 120.035C151.19 117.927 150.267 114.513 150.389 115.506C150.511 116.499 149.665 119.411 148.144 121.828C146.623 124.246 144.134 126.083 142.886 126.911C141.955 127.529 139.584 128.731 134.078 129C128.563 129.271 123.676 126.102 121.362 121.086C119.129 116.245 120.83 108.554 120.83 108.554C120.83 108.554 135.979 109.718 135.975 100.648C135.972 94.8514 126.101 92.0916 120.307 91.9909C114.381 91.8879 103.5 94.5584 103.675 100.08Z" stroke="#3F2D1A" stroke-width="5"/>
<path d="M181.142 173.202C144.057 189.179 72.2381 188.246 37.4161 151.043C22.4465 135.05 18.4554 111.853 22.9951 89.3271C24.9529 79.6125 28.4974 70.0227 33.4321 61.1896C40.9817 47.676 51.7852 35.9332 65.1398 28.223C80.6579 19.2636 137.286 1.21263 183.495 28.303C193.447 34.1375 208.832 50.3957 217.572 67.9553C222.481 77.8185 222.944 82.1214 224.71 93.2799C229.229 121.833 220.34 156.315 181.142 173.202Z" stroke="#3F2D1A" stroke-width="10"/>
<path d="M52.5664 110.386C44.1166 107.852 27.747 101.844 30.449 102.52C33.151 103.196 44.5249 105.384 52.7573 107.843C61.2903 110.391 78.6416 116.296 76.4234 116.022C74.3778 115.769 61.4543 113.051 52.5664 110.386Z" fill="#3F2D1A" stroke="#3F2D1A"/>
<path d="M54.6467 123.231C45.8507 122.567 31.5901 120.015 33.0784 119.833C34.5667 119.65 47.3037 119.513 55.8302 120.566C66.0575 121.83 79.617 123.692 77.3987 123.964C73.926 124.391 64.8127 123.998 54.6467 123.231Z" fill="#3F2D1A" stroke="#3F2D1A"/>
<path d="M60.0786 134.656C51.2807 135.292 34.968 135.221 36.4563 135.038C37.9445 134.855 51.266 133.291 59.8347 132.671C69.818 131.949 82.6985 132.383 80.4802 132.655C77.0075 133.081 70.0618 133.934 60.0786 134.656Z" fill="#3F2D1A" stroke="#3F2D1A"/>
<path d="M187.224 111.99C177.859 113.644 161.426 115.158 162.914 114.975C164.402 114.793 176.623 111.781 184.5 110.31C191.884 108.931 208.571 107.634 206.391 108.126C201.489 109.231 197.081 110.25 187.224 111.99Z" fill="#3F2D1A" stroke="#3F2D1A"/>
<path d="M180.662 136.478C171.288 134.875 153.764 130.711 158.352 131.156C162.941 131.6 174.052 132.72 181.907 134.31C189.655 135.878 203.835 139.178 201.613 138.945C194.98 138.247 190.952 138.238 180.662 136.478Z" fill="#3F2D1A" stroke="#3F2D1A"/>
<path d="M184.282 124.949C174.774 125.163 155.43 123.759 161.922 123.313C168.415 122.866 178.456 122.612 182.985 122.589C191.54 122.546 207.101 124.411 204.866 124.437C195.815 124.541 194.327 124.723 184.282 124.949Z" fill="#3F2D1A" stroke="#3F2D1A"/>
<path d="M8.14808 64.4451C15.0046 50.5478 33.8243 60.2846 33.8243 60.2846L22.7281 88.8559C22.7281 88.8559 -0.319962 81.6086 8.14808 64.4451Z" fill="#3F2D1A" stroke="#3F2D1A" stroke-width="5"/>
<path d="M241.308 72.5989C246.144 88.9691 225.633 96.6936 225.633 96.6936L216.214 65.0987C216.214 65.0987 236.999 58.0119 241.308 72.5989Z" fill="#3F2D1A" stroke="#3F2D1A" stroke-width="5"/>
<path d="M108.247 140.039C118.71 147.32 131.887 139.775 130.32 139.344C121.459 136.905 106.879 139.087 108.247 140.039Z" stroke="#B50000" stroke-width="7"/>
<path d="M182.562 72.6363C181.993 68.0034 175.047 68.8562 175.616 73.4891C176.185 78.122 183.13 77.2692 182.562 72.6363Z" fill="white"/>
<path d="M86.5923 70.3116C86.0234 65.6786 79.0778 66.5315 79.6466 71.1644C80.2155 75.7973 87.1611 74.9445 86.5923 70.3116Z" fill="white"/>
</svg>
