<svg xmlns="http://www.w3.org/2000/svg" width="45" height="45" fill="none" viewBox="0 0 45 45">
  <circle cx="22.5" cy="22.5" r="22.5" fill="#ECE9F0"/>
  <path fill="#E32C2C" stroke="#E32C2C" stroke-width="2" d="m11.796 26.33 9.61 9.027c.325.305.487.457.685.457.198 0 .36-.152.685-.457l9.61-9.028a7.095 7.095 0 0 0 .747-9.52l-.422-.544c-2.683-3.46-8.07-2.88-9.956 1.072a.735.735 0 0 1-1.328 0c-1.886-3.951-7.273-4.532-9.957-1.072l-.422.543a7.096 7.096 0 0 0 .748 9.521Z"/>
  <path stroke="#FFBCB1" stroke-linecap="round" stroke-width="2" d="M10.636 25.364c2.864-1.637 3.682-5.728 5.319-5.728 2.454 0 2.045 5.728 5.727 5.728 2.045 0 4.909-3.682 6.954-3.682 2.046 0 3.682 2.454 5.728 1.636"/>
</svg>
