<svg xmlns="http://www.w3.org/2000/svg" width="24" height="23" fill="none" viewBox="0 0 24 23">
  <path fill="#9D8FAD" d="m14.139 3.244.994-.104-.994.104Zm-.143-.768-.897.44.897-.44Zm.412 2.108-.816.578.816-.578Zm.967.41.152.988-.152-.988Zm1.15-.738-.617-.787.617.787Zm.082-.064.617.787-.617-.787Zm.707-.463-.276-.96.276.96Zm.648.033-.37.928.37-.928Zm.658.53-.692.721.692-.722Zm.894.856.692-.722-.692.722Zm.482.533-.884.467.884-.467Zm.042.842.927.376-.927-.376Zm-.426.579.707.707.028-.028.025-.03-.76-.65Zm0 0-.707-.707-.021.02-.02.022.748.665Zm0 0-.748-.664-.006.007-.007.008.76.649Zm-.74 1.03-.97-.242.97.241Zm.44 1.088-.53.848.53-.848Zm1.247.225.096-.995-.096.995Zm.103.01-.095.996.095-.996Zm.772.136.433-.901-.433.901Zm.504.555-.938.346.938-.346Zm0 2.707L21 12.508l.938.346Zm-.504.556L21 12.508l.434.901Zm-.771.136-.096-.996.096.996Zm-.104.01.096.995-.096-.995Zm-1.246.225.53.848-.53-.848Zm-.44 1.089.97-.241-.97.241Zm.739 1.029.76-.65-.76.65Zm.426.578-.926.376.926-.376Zm-.042.843-.884-.467.884.466Zm-.482.532-.692-.722.692.722Zm-.894.857-.692-.722-.007.007-.008.008.707.707Zm0 0 .692.722.008-.007.007-.008-.707-.707Zm-.658.53-.37-.929.37.929Zm-.648.032-.276.961.276-.961Zm-.707-.462-.617.787.617-.787Zm-.081-.064.616-.787-.616.787Zm-1.151-.738-.152.988.152-.988Zm-.967.41.815.578-.815-.578Zm-.27 1.34-.994-.104.995.104Zm-.142.768.898.441-.898-.44Zm-.552.498.346.938-.345-.938Zm-2.888 0-.346.938.346-.938Zm-.552-.498.897-.44-.897.44Zm-.142-.768.994-.104-.994.104Zm-.27-1.34-.815.578.815-.578Zm-.967-.41-.152-.989.152.989Zm-1.15.738.617.787-.617-.787Zm-.082.064-.617-.787.617.787Zm-.708.462-.276-.96.276.96Zm-.647-.032-.37.93.37-.93Zm-.658-.53.692-.722-.692.722Zm-.894-.856-.73.684.019.02.019.018.692-.722Zm0 0 .73-.684-.019-.02-.02-.018-.691.722Zm-.482-.533-.885.466.885-.466Zm-.042-.842.926.375-.926-.375Zm.426-.579-.753-.659-.007.01.76.65Zm0 0 .753.659.008-.01-.76-.649Zm.74-1.03.97.242-.97-.241Zm-.44-1.088-.53.848.53-.848Zm-1.248-.225-.095.995.095-.995Zm-.102-.01.095-.996-.095.996Zm-.772-.136-.433.901.433-.901Zm-.504-.555-.939.345.939-.345ZM2 12.073H1h1Zm0-1.146h1-1Zm.062-.78.938.345-.938-.346Zm.504-.556.434.901-.434-.901Zm.772-.136.095.995-.095-.995Zm.102-.01-.095-.995.095.995Zm1.248-.225.53.847-.53-.847Zm.44-1.089.971-.24-.97.24Zm-.74-1.03.76-.649-.76.65Zm-.426-.578.926-.376-.926.376Zm.042-.842.884.466-.884-.466Zm.482-.533.692.722-.692-.722Zm.894-.857-.692-.722.692.722Zm.658-.53-.37-.929.37.93Zm.647-.032-.276.961.276-.961Zm.708.462-.617.787.617-.787Zm.082.064.64-.768-.011-.01-.012-.009-.617.787Zm0 0-.64.769.011.01.012.008.617-.787Zm1.15.739-.152.988.152-.988Zm.968-.41.816.577-.816-.578Zm.269-1.34.994.103-.994-.103Zm.142-.768.897.44-.897-.44Zm.552-.498-.346-.938.346.938Zm2.888 0-.345.939.345-.939Zm1.69 1.162c-.034-.32-.063-.746-.24-1.105l-1.795.882c-.02-.043-.017-.058-.004.016.014.084.026.2.049.415l1.99-.208Zm.09.866c.055.077.038.11.006-.068-.03-.17-.056-.407-.097-.798l-1.99.208c.038.36.072.685.118.944.046.252.124.578.33.87l1.632-1.156Zm0 0-1.632 1.156a2 2 0 0 0 1.935.82l-.304-1.976Zm.684-.537c-.31.242-.498.39-.64.485-.15.1-.139.066-.045.052l.304 1.976c.353-.054.643-.225.855-.367.219-.147.476-.35.76-.573L15.908 3.47Zm.082-.064-.082.064 1.234 1.573.082-.063-1.234-1.574Zm1.048-.636a2.015 2.015 0 0 0-.579.282c-.145.099-.306.226-.47.354l1.235 1.574c.184-.145.283-.222.358-.273.066-.045.058-.03.01-.016l-.554-1.921Zm1.294.064a2 2 0 0 0-1.294-.064l.553 1.921.741-1.857Zm.98.736c-.15-.143-.297-.285-.432-.398a2.015 2.015 0 0 0-.548-.338l-.74 1.857c-.047-.018-.055-.034.007.017.07.058.16.144.33.306l1.383-1.444Zm.894.857-.894-.857-1.384 1.444.894.857 1.384-1.444Zm.675.789c-.17-.323-.46-.583-.675-.789L18.822 5.87c.144.138.221.213.275.27.048.052.035.046.015.008l1.769-.933Zm.084 1.684a2 2 0 0 0-.084-1.684l-1.77.933 1.854.751Zm-.593.852c.193-.226.456-.514.593-.852l-1.853-.751c.016-.041.029-.048-.014.009a7.908 7.908 0 0 1-.247.296l1.521 1.298Zm-.053.058-1.414-1.414 1.414 1.414Zm.04-.043-1.495-1.329 1.495 1.33Zm-.517.606c-.021.087-.051.095.052-.043.096-.13.242-.3.478-.578l-1.52-1.298c-.22.256-.416.485-.56.68-.14.185-.312.441-.39.757l1.94.482Zm0 0-1.94-.482a2 2 0 0 0 .88 2.178l1.06-1.696Zm.813.078a13.3 13.3 0 0 1-.746-.083c-.17-.027-.143-.043-.067.005l-1.06 1.696c.276.172.578.236.807.273.24.04.54.068.875.1l.19-1.991Zm.103.01-.103-.01-.19 1.99.102.01.19-1.99Zm1.11.23c-.362-.174-.788-.2-1.11-.23l-.19 1.99c.215.021.331.033.415.046.075.012.06.016.017-.004l.867-1.802Zm1.009 1.11a2 2 0 0 0-1.01-1.11L21 10.492l1.877-.691ZM23 10.928c0-.323.015-.75-.123-1.126l-1.877.69c-.016-.044-.01-.059-.006.017.006.084.006.201.006.418h2Zm0 1.146v-1.146h-2v1.146h2Zm-.123 1.126c.138-.376.123-.803.123-1.126h-2c0 .217 0 .334-.006.418-.005.076-.01.061.006.017l1.877.691Zm-1.01 1.111a2 2 0 0 0 1.01-1.11L21 12.507l.867 1.802Zm-1.109.23c.322-.03.748-.056 1.11-.23L21 12.508c.043-.02.058-.016-.017-.004-.084.013-.2.025-.416.045l.191 1.991Zm-.103.01.103-.01-.19-1.99-.104.01.19 1.99Zm-.812.078c-.076.047-.103.032.066.005.16-.026.383-.048.746-.083l-.19-1.99c-.336.031-.636.06-.876.098-.229.038-.53.102-.806.274l1.06 1.696Zm0 0-1.06-1.696a2 2 0 0 0-.881 2.178l1.94-.482Zm.53.62a13.323 13.323 0 0 1-.48-.577c-.102-.138-.072-.13-.05-.043l-1.941.482c.078.316.25.572.39.758.145.194.34.423.56.68l1.52-1.3Zm.592.852c-.137-.338-.4-.626-.593-.852l-1.52 1.3c.129.15.198.233.246.295.043.056.03.05.014.009l1.853-.752Zm-.084 1.685a2 2 0 0 0 .084-1.685l-1.853.752 1.769.933Zm-.675.788c.215-.205.505-.465.675-.788l-1.77-.933c.021-.039.034-.044-.014.008a7.862 7.862 0 0 1-.275.27l1.384 1.443Zm-.894.857.894-.857-1.384-1.444-.894.857 1.384 1.444Zm.015-.015-1.414-1.414 1.414 1.414Zm-.995.752c.228-.091.405-.22.548-.339.135-.112.283-.255.432-.398l-1.384-1.444a7.47 7.47 0 0 1-.33.307c-.06.05-.053.035-.007.016l.741 1.858Zm-1.294.064a2 2 0 0 0 1.294-.064l-.74-1.858-.554 1.922Zm-1.048-.636c.163.128.324.255.47.353.153.105.342.215.578.283l.553-1.922c.049.014.057.03-.009-.016a7.55 7.55 0 0 1-.358-.272l-1.234 1.574Zm-.082-.064.082.064 1.234-1.574-.082-.064-1.234 1.574Zm-.685-.537c-.094-.014-.105-.049.044.051.143.096.332.243.641.486l1.234-1.574c-.284-.223-.541-.425-.76-.572-.213-.143-.502-.314-.855-.368l-.304 1.977Zm0 0 .304-1.977a2 2 0 0 0-1.935.82l1.631 1.157Zm-.09.866c.04-.392.066-.63.097-.799.032-.177.049-.145-.007-.067l-1.631-1.157c-.207.292-.285.619-.33.87-.047.26-.08.585-.118.945l1.99.208Zm-.24 1.105c.178-.36.207-.784.24-1.105l-1.99-.208a7.68 7.68 0 0 1-.048.415c-.013.074-.017.058.004.016l1.795.882Zm-1.103.995a2 2 0 0 0 1.104-.995l-1.795-.882.691 1.877Zm-1.125.123c.323 0 .749.016 1.125-.123l-.691-1.877c.044-.016.059-.01-.016-.005-.085.005-.201.005-.418.005v2Zm-1.33 0h1.33v-2h-1.33v2Zm-1.125-.123c.376.139.802.123 1.124.123v-2c-.216 0-.332 0-.417-.005-.075-.005-.06-.01-.016.005l-.69 1.877Zm-1.104-.995a2 2 0 0 0 1.104.995l.691-1.877-1.795.882Zm-.24-1.105c.034.32.063.746.24 1.105l1.795-.882c.02.043.017.058.004-.016a7.786 7.786 0 0 1-.049-.415l-1.99.208Zm-.09-.866c-.055-.078-.038-.11-.006.068.03.169.056.407.097.798l1.99-.208c-.038-.36-.072-.685-.118-.944-.046-.252-.124-.578-.33-.87l-1.632 1.156Zm0 0 1.632-1.156a2 2 0 0 0-1.935-.82l.304 1.976Zm-.684.537c.31-.242.498-.39.64-.485.15-.1.139-.066.045-.052l-.304-1.977c-.353.055-.643.226-.855.368-.219.147-.476.35-.76.572l1.234 1.574Zm-.082.064.082-.064-1.234-1.574-.082.064 1.234 1.574Zm-1.048.636c.235-.067.425-.178.579-.282.145-.099.306-.226.47-.354l-1.235-1.574a7.671 7.671 0 0 1-.358.273c-.067.045-.058.03-.01.015l.554 1.922Zm-1.294-.064a2 2 0 0 0 1.294.064L6.41 18.31l-.741 1.858Zm-.98-.737c.15.144.297.286.432.398.143.12.32.248.548.34l.74-1.858c.047.018.055.034-.007-.017a7.556 7.556 0 0 1-.33-.307L4.689 19.43Zm-.894-.856.894.856 1.384-1.444-.894-.856-1.384 1.444Zm-.038-.038 1.46-1.368-1.46 1.368Zm-.637-.75c.17.322.46.582.675.788l1.384-1.444a7.97 7.97 0 0 1-.275-.27c-.048-.052-.035-.046-.015-.008l-1.769.933ZM3.035 16.1a2 2 0 0 0 .084 1.684l1.77-.933-1.854-.751Zm.593-.852c-.193.226-.456.514-.593.852l1.853.751c-.016.041-.029.048.014-.009a8.83 8.83 0 0 1 .247-.296L3.628 15.25Zm.008-.01 1.505 1.318-1.505-1.317Zm.522-.611c.021-.087.051-.095-.052.043-.096.13-.242.3-.478.578l1.52 1.298c.22-.256.416-.485.56-.68.14-.186.312-.441.39-.757l-1.94-.482Zm0 0 1.94.482a2 2 0 0 0-.88-2.178l-1.06 1.696Zm-.813-.078c.363.035.586.057.746.083.17.027.143.043.067-.005l1.06-1.696c-.276-.172-.578-.236-.807-.274-.24-.038-.54-.067-.875-.099l-.19 1.991Zm-.103-.01.103.01.19-1.99-.102-.01-.19 1.99Zm-1.11-.23c.362.174.788.2 1.11.23l.19-1.99a7.684 7.684 0 0 1-.415-.046c-.075-.012-.06-.017-.017.004l-.867 1.802ZM1.124 13.2a2 2 0 0 0 1.01 1.11L3 12.508l-1.877.691ZM1 12.072c0 .323-.015.75.123 1.126L3 12.508c.016.044.01.059.006-.017A7.745 7.745 0 0 1 3 12.073H1Zm0-1.146v1.146h2v-1.146H1ZM1.123 9.8c-.138.377-.123.803-.123 1.127h2c0-.217 0-.334.006-.418.004-.076.01-.061-.006-.017L1.123 9.8Zm1.01-1.11a2 2 0 0 0-1.01 1.11L3 10.492 2.132 8.69Zm1.11-.23c-.323.03-.749.056-1.11.23L3 10.492c-.043.02-.058.016.017.004.084-.013.2-.025.416-.046l-.19-1.99Zm.102-.01-.103.01.191 1.99.103-.01-.19-1.99Zm.813-.078c.076-.048.103-.032-.067-.005-.16.026-.383.048-.746.083l.19 1.99c.336-.031.637-.06.877-.099.229-.037.53-.1.807-.274L4.158 8.372Zm0 0 1.06 1.695A2 2 0 0 0 6.1 7.891l-1.941.48Zm-.53-.621c.237.277.382.448.479.578.103.138.073.13.051.043l1.941-.481c-.078-.317-.25-.573-.39-.759a14.515 14.515 0 0 0-.56-.68L3.628 7.751Zm-.593-.853c.137.339.4.627.593.853l1.52-1.299a7.855 7.855 0 0 1-.246-.296c-.043-.056-.03-.05-.014-.009l-1.853.751Zm.084-1.684a2 2 0 0 0-.084 1.684l1.853-.75-1.769-.934Zm.675-.788c-.215.205-.505.466-.675.788l1.77.933c-.021.039-.034.044.014-.007a7.01 7.01 0 0 1 .275-.27L3.794 4.426Zm.894-.857-.894.857L5.178 5.87l.894-.857-1.384-1.444Zm.98-.737c-.228.091-.405.22-.548.339-.135.112-.283.255-.432.398l1.384 1.444c.169-.162.26-.248.33-.307.06-.05.053-.035.007-.016l-.741-1.858Zm1.294-.064a2 2 0 0 0-1.294.064l.74 1.858.554-1.922Zm1.048.636c-.163-.127-.324-.255-.47-.353a2.016 2.016 0 0 0-.578-.283L6.41 4.69c-.048-.014-.057-.03.009.016.075.05.174.128.358.272L8.01 3.404Zm.082.064-.082-.064-1.234 1.574.082.064 1.234-1.574Zm.023.02-1.28 1.536 1.28-1.537Zm.662.517c.094.015.105.05-.044-.051a12.61 12.61 0 0 1-.64-.486L6.857 5.042c.285.223.541.426.76.572.212.143.501.314.855.368l.304-1.977Zm0 0-.304 1.977a2 2 0 0 0 1.935-.82L8.777 4.004Zm.09-.865c-.04.39-.066.629-.097.798-.032.177-.049.145.007.067l1.632 1.156c.206-.291.284-.618.33-.87.046-.259.08-.584.117-.944l-1.99-.207Zm.239-1.105c-.177.36-.206.784-.24 1.105l1.99.208a7.77 7.77 0 0 1 .05-.415c.012-.074.016-.059-.005-.016l-1.795-.882Zm1.104-.995a2 2 0 0 0-1.104.995l1.795.882-.69-1.877Zm1.124-.123c-.322 0-.748-.016-1.124.123l.691 1.877c-.044.016-.059.01.016.005.085-.005.201-.005.417-.005v-2Zm1.332 0h-1.332v2h1.332v-2Zm1.124.123c-.376-.14-.802-.123-1.124-.123v2c.216 0 .332 0 .417.005.075.005.06.01.016-.005l.69-1.877Zm1.104.995a2 2 0 0 0-1.104-.995l-.691 1.877 1.795-.882ZM15 11.5c0 1.525-1.303 2.833-3 2.833v2c2.72 0 5-2.124 5-4.833h-2Zm-3-2.833c1.697 0 3 1.308 3 2.833h2c0-2.71-2.28-4.833-5-4.833v2ZM9 11.5c0-1.525 1.303-2.833 3-2.833v-2c-2.72 0-5 2.124-5 4.833h2Zm3 2.833c-1.697 0-3-1.308-3-2.833H7c0 2.709 2.28 4.833 5 4.833v-2Z"/>
</svg>
