<svg xmlns="http://www.w3.org/2000/svg" width="28" height="28" fill="none" viewBox="0 0 28 28">
  <path fill="#9D8FAD" fill-rule="evenodd" d="M6.128 18.698a9.166 9.166 0 1 0 8.004-13.863l.545 2.03a7.166 7.166 0 1 1-6.517 11.29l-2.032.544Z" clip-rule="evenodd"/>
  <path stroke="#9D8FAD" stroke-width="2" d="M6.898 4.744c.95-.73 2.006-1.307 3.129-1.713.424-.154.637-.23.832-.13.194.102.256.334.38.796l2.502 9.337c.122.455.183.683.08.862-.104.18-.332.24-.787.363L3.697 16.76c-.463.124-.694.186-.88.068-.185-.118-.224-.34-.303-.785a11.667 11.667 0 0 1 4.384-11.3Z"/>
</svg>
