<svg xmlns="http://www.w3.org/2000/svg" width="21" height="22" fill="none" viewBox="0 0 21 22">
  <path fill="#9D8FAD" fill-rule="evenodd" d="M4.653 15.238c.27.406.582.784.929 1.13a7.03 7.03 0 0 0 3.614 1.924 6.868 6.868 0 0 0 4.048-.447 7.19 7.19 0 0 0 3.14-2.662 7.628 7.628 0 0 0 1.239-3.99 7.652 7.652 0 0 0-1.037-4.05 7.235 7.235 0 0 0-3-2.828 6.912 6.912 0 0 0-2.393-.696l.543 2.125c.327.086.647.206.955.36a5.235 5.235 0 0 1 2.169 2.05c.523.894.79 1.933.763 2.99a5.628 5.628 0 0 1-.91 2.942 5.19 5.19 0 0 1-2.266 1.925 4.867 4.867 0 0 1-2.87.317 5.03 5.03 0 0 1-2.857-1.67l-2.067.58Z" clip-rule="evenodd"/>
  <path stroke="#9D8FAD" stroke-width="2" d="M5.173 3.728A8.654 8.654 0 0 1 7.27 2.48c.419-.174.628-.261.833-.16.204.103.265.34.387.816l1.769 6.916c.114.448.171.671.07.848-.102.176-.324.238-.769.363l-6.525 1.832c-.472.132-.708.199-.898.075-.19-.123-.223-.35-.288-.802a9.598 9.598 0 0 1-.023-2.565 9.464 9.464 0 0 1 1.097-3.387 9.05 9.05 0 0 1 2.251-2.69Z"/>
</svg>
