<svg xmlns="http://www.w3.org/2000/svg" width="28" height="28" fill="none" viewBox="0 0 28 28">
  <path stroke="#fff" stroke-width="2" d="m6.685 16.401 8.694-8.694.038-.038c.3-.3.591-.592.864-.8.307-.234.705-.455 1.219-.455.514 0 .912.22 1.22.455.272.208.563.5.863.8l.038.038.672.672.038.038c.3.3.592.591.8.864.234.307.455.705.455 1.219 0 .514-.22.912-.455 1.219-.208.273-.5.564-.8.864l-.038.038-8.694 8.694a7.79 7.79 0 0 0-.04.04c-.152.153-.343.346-.585.482l-4.29-5.436Zm0 0-.04.04c-.153.152-.346.343-.482.585-.137.242-.202.505-.254.714l-.013.055-.83 3.32-.01.036c-.036.146-.087.349-.105.529-.02.206-.027.658.342 1.027.369.369.82.362 1.028.342.18-.018.382-.069.529-.106l.034-.008 3.321-.83.056-.014c.208-.052.471-.117.713-.254l-4.29-5.436Z"/>
  <path fill="#fff" d="m14.583 8.75 3.5-2.333 3.5 3.5-2.333 3.5-4.667-4.667Z"/>
</svg>
